<?xml version="1.0" encoding="utf-8" standalone="no"?>
<!DOCTYPE svg PUBLIC "-//W3C//DTD SVG 1.1//EN"
  "http://www.w3.org/Graphics/SVG/1.1/DTD/svg11.dtd">
<!-- Created with matplotlib (http://matplotlib.org/) -->
<svg height="345.6pt" version="1.1" viewBox="0 0 460.8 345.6" width="460.8pt" xmlns="http://www.w3.org/2000/svg" xmlns:xlink="http://www.w3.org/1999/xlink">
 <defs>
  <style type="text/css">
*{stroke-linecap:butt;stroke-linejoin:round;}
  </style>
 </defs>
 <g id="figure_1">
  <g id="patch_1">
   <path d="M 0 345.6 
L 460.8 345.6 
L 460.8 0 
L 0 0 
z
" style="fill:#ffffff;"/>
  </g>
  <g id="axes_1">
   <g id="patch_2">
    <path d="M 54.02 299.58875 
L 446.540625 299.58875 
L 446.540625 14.76 
L 54.02 14.76 
z
" style="fill:#ffffff;"/>
   </g>
   <g id="matplotlib.axis_1">
    <g id="xtick_1">
     <g id="line2d_1">
      <defs>
       <path d="M 0 0 
L 0 3.5 
" id="md58466c84f" style="stroke:#000000;stroke-width:0.8;"/>
      </defs>
      <g>
       <use style="stroke:#000000;stroke-width:0.8;" x="54.02" xlink:href="#md58466c84f" y="299.58875"/>
      </g>
     </g>
     <g id="text_1">
      <!-- N -->
      <defs>
       <path d="M 9.8125 72.90625 
L 23.09375 72.90625 
L 55.421875 11.921875 
L 55.421875 72.90625 
L 64.984375 72.90625 
L 64.984375 0 
L 51.703125 0 
L 19.390625 60.984375 
L 19.390625 0 
L 9.8125 0 
z
" id="DejaVuSans-4e"/>
      </defs>
      <g transform="translate(50.279375 314.187187)scale(0.1 -0.1)">
       <use xlink:href="#DejaVuSans-4e"/>
      </g>
     </g>
    </g>
    <g id="xtick_2">
     <g id="line2d_2">
      <g>
       <use style="stroke:#000000;stroke-width:0.8;" x="134.724064" xlink:href="#md58466c84f" y="299.58875"/>
      </g>
     </g>
     <g id="text_2">
      <!-- $\Gamma$ -->
      <defs>
       <path d="M 9.8125 0 
L 9.8125 72.90625 
L 55.171875 72.90625 
L 55.171875 64.59375 
L 19.671875 64.59375 
L 19.671875 0 
z
" id="DejaVuSans-393"/>
      </defs>
      <g transform="translate(131.924064 314.187187)scale(0.1 -0.1)">
       <use transform="translate(0 0.09375)" xlink:href="#DejaVuSans-393"/>
      </g>
     </g>
    </g>
    <g id="xtick_3">
     <g id="line2d_3">
      <g>
       <use style="stroke:#000000;stroke-width:0.8;" x="248.856847" xlink:href="#md58466c84f" y="299.58875"/>
      </g>
     </g>
     <g id="text_3">
      <!-- H -->
      <defs>
       <path d="M 9.8125 72.90625 
L 19.671875 72.90625 
L 19.671875 43.015625 
L 55.515625 43.015625 
L 55.515625 72.90625 
L 65.375 72.90625 
L 65.375 0 
L 55.515625 0 
L 55.515625 34.71875 
L 19.671875 34.71875 
L 19.671875 0 
L 9.8125 0 
z
" id="DejaVuSans-48"/>
      </defs>
      <g transform="translate(245.096691 314.187187)scale(0.1 -0.1)">
       <use xlink:href="#DejaVuSans-48"/>
      </g>
     </g>
    </g>
    <g id="xtick_4">
     <g id="line2d_4">
      <g>
       <use style="stroke:#000000;stroke-width:0.8;" x="446.540625" xlink:href="#md58466c84f" y="299.58875"/>
      </g>
     </g>
     <g id="text_4">
      <!-- $\Gamma$ -->
      <g transform="translate(443.740625 314.187187)scale(0.1 -0.1)">
       <use transform="translate(0 0.09375)" xlink:href="#DejaVuSans-393"/>
      </g>
     </g>
    </g>
    <g id="text_5">
     <!-- Wave vector $\vec{q}$ -->
     <defs>
      <path d="M 3.328125 72.90625 
L 13.28125 72.90625 
L 28.609375 11.28125 
L 43.890625 72.90625 
L 54.984375 72.90625 
L 70.3125 11.28125 
L 85.59375 72.90625 
L 95.609375 72.90625 
L 77.296875 0 
L 64.890625 0 
L 49.515625 63.28125 
L 33.984375 0 
L 21.578125 0 
z
" id="DejaVuSans-57"/>
      <path d="M 34.28125 27.484375 
Q 23.390625 27.484375 19.1875 25 
Q 14.984375 22.515625 14.984375 16.5 
Q 14.984375 11.71875 18.140625 8.90625 
Q 21.296875 6.109375 26.703125 6.109375 
Q 34.1875 6.109375 38.703125 11.40625 
Q 43.21875 16.703125 43.21875 25.484375 
L 43.21875 27.484375 
z
M 52.203125 31.203125 
L 52.203125 0 
L 43.21875 0 
L 43.21875 8.296875 
Q 40.140625 3.328125 35.546875 0.953125 
Q 30.953125 -1.421875 24.3125 -1.421875 
Q 15.921875 -1.421875 10.953125 3.296875 
Q 6 8.015625 6 15.921875 
Q 6 25.140625 12.171875 29.828125 
Q 18.359375 34.515625 30.609375 34.515625 
L 43.21875 34.515625 
L 43.21875 35.40625 
Q 43.21875 41.609375 39.140625 45 
Q 35.0625 48.390625 27.6875 48.390625 
Q 23 48.390625 18.546875 47.265625 
Q 14.109375 46.140625 10.015625 43.890625 
L 10.015625 52.203125 
Q 14.9375 54.109375 19.578125 55.046875 
Q 24.21875 56 28.609375 56 
Q 40.484375 56 46.34375 49.84375 
Q 52.203125 43.703125 52.203125 31.203125 
z
" id="DejaVuSans-61"/>
      <path d="M 2.984375 54.6875 
L 12.5 54.6875 
L 29.59375 8.796875 
L 46.6875 54.6875 
L 56.203125 54.6875 
L 35.6875 0 
L 23.484375 0 
z
" id="DejaVuSans-76"/>
      <path d="M 56.203125 29.59375 
L 56.203125 25.203125 
L 14.890625 25.203125 
Q 15.484375 15.921875 20.484375 11.0625 
Q 25.484375 6.203125 34.421875 6.203125 
Q 39.59375 6.203125 44.453125 7.46875 
Q 49.3125 8.734375 54.109375 11.28125 
L 54.109375 2.78125 
Q 49.265625 0.734375 44.1875 -0.34375 
Q 39.109375 -1.421875 33.890625 -1.421875 
Q 20.796875 -1.421875 13.15625 6.1875 
Q 5.515625 13.8125 5.515625 26.8125 
Q 5.515625 40.234375 12.765625 48.109375 
Q 20.015625 56 32.328125 56 
Q 43.359375 56 49.78125 48.890625 
Q 56.203125 41.796875 56.203125 29.59375 
z
M 47.21875 32.234375 
Q 47.125 39.59375 43.09375 43.984375 
Q 39.0625 48.390625 32.421875 48.390625 
Q 24.90625 48.390625 20.390625 44.140625 
Q 15.875 39.890625 15.1875 32.171875 
z
" id="DejaVuSans-65"/>
      <path id="DejaVuSans-20"/>
      <path d="M 48.78125 52.59375 
L 48.78125 44.1875 
Q 44.96875 46.296875 41.140625 47.34375 
Q 37.3125 48.390625 33.40625 48.390625 
Q 24.65625 48.390625 19.8125 42.84375 
Q 14.984375 37.3125 14.984375 27.296875 
Q 14.984375 17.28125 19.8125 11.734375 
Q 24.65625 6.203125 33.40625 6.203125 
Q 37.3125 6.203125 41.140625 7.25 
Q 44.96875 8.296875 48.78125 10.40625 
L 48.78125 2.09375 
Q 45.015625 0.34375 40.984375 -0.53125 
Q 36.96875 -1.421875 32.421875 -1.421875 
Q 20.0625 -1.421875 12.78125 6.34375 
Q 5.515625 14.109375 5.515625 27.296875 
Q 5.515625 40.671875 12.859375 48.328125 
Q 20.21875 56 33.015625 56 
Q 37.15625 56 41.109375 55.140625 
Q 45.0625 54.296875 48.78125 52.59375 
z
" id="DejaVuSans-63"/>
      <path d="M 18.3125 70.21875 
L 18.3125 54.6875 
L 36.8125 54.6875 
L 36.8125 47.703125 
L 18.3125 47.703125 
L 18.3125 18.015625 
Q 18.3125 11.328125 20.140625 9.421875 
Q 21.96875 7.515625 27.59375 7.515625 
L 36.8125 7.515625 
L 36.8125 0 
L 27.59375 0 
Q 17.1875 0 13.234375 3.875 
Q 9.28125 7.765625 9.28125 18.015625 
L 9.28125 47.703125 
L 2.6875 47.703125 
L 2.6875 54.6875 
L 9.28125 54.6875 
L 9.28125 70.21875 
z
" id="DejaVuSans-74"/>
      <path d="M 30.609375 48.390625 
Q 23.390625 48.390625 19.1875 42.75 
Q 14.984375 37.109375 14.984375 27.296875 
Q 14.984375 17.484375 19.15625 11.84375 
Q 23.34375 6.203125 30.609375 6.203125 
Q 37.796875 6.203125 41.984375 11.859375 
Q 46.1875 17.53125 46.1875 27.296875 
Q 46.1875 37.015625 41.984375 42.703125 
Q 37.796875 48.390625 30.609375 48.390625 
z
M 30.609375 56 
Q 42.328125 56 49.015625 48.375 
Q 55.71875 40.765625 55.71875 27.296875 
Q 55.71875 13.875 49.015625 6.21875 
Q 42.328125 -1.421875 30.609375 -1.421875 
Q 18.84375 -1.421875 12.171875 6.21875 
Q 5.515625 13.875 5.515625 27.296875 
Q 5.515625 40.765625 12.171875 48.375 
Q 18.84375 56 30.609375 56 
z
" id="DejaVuSans-6f"/>
      <path d="M 41.109375 46.296875 
Q 39.59375 47.171875 37.8125 47.578125 
Q 36.03125 48 33.890625 48 
Q 26.265625 48 22.1875 43.046875 
Q 18.109375 38.09375 18.109375 28.8125 
L 18.109375 0 
L 9.078125 0 
L 9.078125 54.6875 
L 18.109375 54.6875 
L 18.109375 46.1875 
Q 20.953125 51.171875 25.484375 53.578125 
Q 30.03125 56 36.53125 56 
Q 37.453125 56 38.578125 55.875 
Q 39.703125 55.765625 41.0625 55.515625 
z
" id="DejaVuSans-72"/>
      <path d="M -47.015625 63.53125 
L -47.015625 68.40625 
L -10.84375 68.40625 
L -17.28125 75.984375 
L -11.140625 75.984375 
L -2.59375 65.96875 
L -11.140625 55.953125 
L -17.28125 55.953125 
L -10.84375 63.53125 
z
" id="DejaVuSans-20d7"/>
      <path d="M 41.703125 8.203125 
Q 38.09375 3.46875 33.171875 1.015625 
Q 28.265625 -1.421875 22.3125 -1.421875 
Q 14.015625 -1.421875 9.296875 4.171875 
Q 4.59375 9.765625 4.59375 19.578125 
Q 4.59375 27.484375 7.5 34.859375 
Q 10.40625 42.234375 15.828125 48.09375 
Q 19.34375 51.90625 23.90625 53.953125 
Q 28.46875 56 33.5 56 
Q 39.546875 56 43.453125 53.609375 
Q 47.359375 51.21875 49.125 46.390625 
L 50.6875 54.59375 
L 59.71875 54.59375 
L 45.125 -20.609375 
L 36.078125 -20.609375 
z
M 13.921875 20.90625 
Q 13.921875 13.671875 16.9375 9.890625 
Q 19.96875 6.109375 25.6875 6.109375 
Q 34.1875 6.109375 40.1875 14.234375 
Q 46.1875 22.359375 46.1875 33.984375 
Q 46.1875 41.015625 43.078125 44.75 
Q 39.984375 48.484375 34.1875 48.484375 
Q 29.9375 48.484375 26.3125 46.5 
Q 22.703125 44.53125 20.015625 40.71875 
Q 17.1875 36.71875 15.546875 31.34375 
Q 13.921875 25.984375 13.921875 20.90625 
z
" id="DejaVuSans-Oblique-71"/>
     </defs>
     <g transform="translate(213.980312 329.166875)scale(0.1 -0.1)">
      <use transform="translate(0 0.46875)" xlink:href="#DejaVuSans-57"/>
      <use transform="translate(98.876953 0.46875)" xlink:href="#DejaVuSans-61"/>
      <use transform="translate(160.15625 0.46875)" xlink:href="#DejaVuSans-76"/>
      <use transform="translate(219.335938 0.46875)" xlink:href="#DejaVuSans-65"/>
      <use transform="translate(280.859375 0.46875)" xlink:href="#DejaVuSans-20"/>
      <use transform="translate(312.646484 0.46875)" xlink:href="#DejaVuSans-76"/>
      <use transform="translate(371.826172 0.46875)" xlink:href="#DejaVuSans-65"/>
      <use transform="translate(433.349609 0.46875)" xlink:href="#DejaVuSans-63"/>
      <use transform="translate(488.330078 0.46875)" xlink:href="#DejaVuSans-74"/>
      <use transform="translate(527.539062 0.46875)" xlink:href="#DejaVuSans-6f"/>
      <use transform="translate(588.720703 0.46875)" xlink:href="#DejaVuSans-72"/>
      <use transform="translate(629.833984 0.46875)" xlink:href="#DejaVuSans-20"/>
      <use transform="translate(726.505859 13.015625)" xlink:href="#DejaVuSans-20d7"/>
      <use transform="translate(661.621094 0.46875)" xlink:href="#DejaVuSans-Oblique-71"/>
     </g>
    </g>
   </g>
   <g id="matplotlib.axis_2">
    <g id="ytick_1">
     <g id="line2d_5">
      <defs>
       <path d="M 0 0 
L -3.5 0 
" id="m30430e167c" style="stroke:#000000;stroke-width:0.8;"/>
      </defs>
      <g>
       <use style="stroke:#000000;stroke-width:0.8;" x="54.02" xlink:href="#m30430e167c" y="299.58875"/>
      </g>
     </g>
     <g id="text_6">
      <!-- 0.0 -->
      <defs>
       <path d="M 31.78125 66.40625 
Q 24.171875 66.40625 20.328125 58.90625 
Q 16.5 51.421875 16.5 36.375 
Q 16.5 21.390625 20.328125 13.890625 
Q 24.171875 6.390625 31.78125 6.390625 
Q 39.453125 6.390625 43.28125 13.890625 
Q 47.125 21.390625 47.125 36.375 
Q 47.125 51.421875 43.28125 58.90625 
Q 39.453125 66.40625 31.78125 66.40625 
z
M 31.78125 74.21875 
Q 44.046875 74.21875 50.515625 64.515625 
Q 56.984375 54.828125 56.984375 36.375 
Q 56.984375 17.96875 50.515625 8.265625 
Q 44.046875 -1.421875 31.78125 -1.421875 
Q 19.53125 -1.421875 13.0625 8.265625 
Q 6.59375 17.96875 6.59375 36.375 
Q 6.59375 54.828125 13.0625 64.515625 
Q 19.53125 74.21875 31.78125 74.21875 
z
" id="DejaVuSans-30"/>
       <path d="M 10.6875 12.40625 
L 21 12.40625 
L 21 0 
L 10.6875 0 
z
" id="DejaVuSans-2e"/>
      </defs>
      <g transform="translate(31.116875 303.387969)scale(0.1 -0.1)">
       <use xlink:href="#DejaVuSans-30"/>
       <use x="63.623047" xlink:href="#DejaVuSans-2e"/>
       <use x="95.410156" xlink:href="#DejaVuSans-30"/>
      </g>
     </g>
    </g>
    <g id="ytick_2">
     <g id="line2d_6">
      <g>
       <use style="stroke:#000000;stroke-width:0.8;" x="54.02" xlink:href="#m30430e167c" y="263.985156"/>
      </g>
     </g>
     <g id="text_7">
      <!-- 2.5 -->
      <defs>
       <path d="M 19.1875 8.296875 
L 53.609375 8.296875 
L 53.609375 0 
L 7.328125 0 
L 7.328125 8.296875 
Q 12.9375 14.109375 22.625 23.890625 
Q 32.328125 33.6875 34.8125 36.53125 
Q 39.546875 41.84375 41.421875 45.53125 
Q 43.3125 49.21875 43.3125 52.78125 
Q 43.3125 58.59375 39.234375 62.25 
Q 35.15625 65.921875 28.609375 65.921875 
Q 23.96875 65.921875 18.8125 64.3125 
Q 13.671875 62.703125 7.8125 59.421875 
L 7.8125 69.390625 
Q 13.765625 71.78125 18.9375 73 
Q 24.125 74.21875 28.421875 74.21875 
Q 39.75 74.21875 46.484375 68.546875 
Q 53.21875 62.890625 53.21875 53.421875 
Q 53.21875 48.921875 51.53125 44.890625 
Q 49.859375 40.875 45.40625 35.40625 
Q 44.1875 33.984375 37.640625 27.21875 
Q 31.109375 20.453125 19.1875 8.296875 
z
" id="DejaVuSans-32"/>
       <path d="M 10.796875 72.90625 
L 49.515625 72.90625 
L 49.515625 64.59375 
L 19.828125 64.59375 
L 19.828125 46.734375 
Q 21.96875 47.46875 24.109375 47.828125 
Q 26.265625 48.1875 28.421875 48.1875 
Q 40.625 48.1875 47.75 41.5 
Q 54.890625 34.8125 54.890625 23.390625 
Q 54.890625 11.625 47.5625 5.09375 
Q 40.234375 -1.421875 26.90625 -1.421875 
Q 22.3125 -1.421875 17.546875 -0.640625 
Q 12.796875 0.140625 7.71875 1.703125 
L 7.71875 11.625 
Q 12.109375 9.234375 16.796875 8.0625 
Q 21.484375 6.890625 26.703125 6.890625 
Q 35.15625 6.890625 40.078125 11.328125 
Q 45.015625 15.765625 45.015625 23.390625 
Q 45.015625 31 40.078125 35.4375 
Q 35.15625 39.890625 26.703125 39.890625 
Q 22.75 39.890625 18.8125 39.015625 
Q 14.890625 38.140625 10.796875 36.28125 
z
" id="DejaVuSans-35"/>
      </defs>
      <g transform="translate(31.116875 267.784375)scale(0.1 -0.1)">
       <use xlink:href="#DejaVuSans-32"/>
       <use x="63.623047" xlink:href="#DejaVuSans-2e"/>
       <use x="95.410156" xlink:href="#DejaVuSans-35"/>
      </g>
     </g>
    </g>
    <g id="ytick_3">
     <g id="line2d_7">
      <g>
       <use style="stroke:#000000;stroke-width:0.8;" x="54.02" xlink:href="#m30430e167c" y="228.381563"/>
      </g>
     </g>
     <g id="text_8">
      <!-- 5.0 -->
      <g transform="translate(31.116875 232.180781)scale(0.1 -0.1)">
       <use xlink:href="#DejaVuSans-35"/>
       <use x="63.623047" xlink:href="#DejaVuSans-2e"/>
       <use x="95.410156" xlink:href="#DejaVuSans-30"/>
      </g>
     </g>
    </g>
    <g id="ytick_4">
     <g id="line2d_8">
      <g>
       <use style="stroke:#000000;stroke-width:0.8;" x="54.02" xlink:href="#m30430e167c" y="192.777969"/>
      </g>
     </g>
     <g id="text_9">
      <!-- 7.5 -->
      <defs>
       <path d="M 8.203125 72.90625 
L 55.078125 72.90625 
L 55.078125 68.703125 
L 28.609375 0 
L 18.3125 0 
L 43.21875 64.59375 
L 8.203125 64.59375 
z
" id="DejaVuSans-37"/>
      </defs>
      <g transform="translate(31.116875 196.577187)scale(0.1 -0.1)">
       <use xlink:href="#DejaVuSans-37"/>
       <use x="63.623047" xlink:href="#DejaVuSans-2e"/>
       <use x="95.410156" xlink:href="#DejaVuSans-35"/>
      </g>
     </g>
    </g>
    <g id="ytick_5">
     <g id="line2d_9">
      <g>
       <use style="stroke:#000000;stroke-width:0.8;" x="54.02" xlink:href="#m30430e167c" y="157.174375"/>
      </g>
     </g>
     <g id="text_10">
      <!-- 10.0 -->
      <defs>
       <path d="M 12.40625 8.296875 
L 28.515625 8.296875 
L 28.515625 63.921875 
L 10.984375 60.40625 
L 10.984375 69.390625 
L 28.421875 72.90625 
L 38.28125 72.90625 
L 38.28125 8.296875 
L 54.390625 8.296875 
L 54.390625 0 
L 12.40625 0 
z
" id="DejaVuSans-31"/>
      </defs>
      <g transform="translate(24.754375 160.973594)scale(0.1 -0.1)">
       <use xlink:href="#DejaVuSans-31"/>
       <use x="63.623047" xlink:href="#DejaVuSans-30"/>
       <use x="127.246094" xlink:href="#DejaVuSans-2e"/>
       <use x="159.033203" xlink:href="#DejaVuSans-30"/>
      </g>
     </g>
    </g>
    <g id="ytick_6">
     <g id="line2d_10">
      <g>
       <use style="stroke:#000000;stroke-width:0.8;" x="54.02" xlink:href="#m30430e167c" y="121.570781"/>
      </g>
     </g>
     <g id="text_11">
      <!-- 12.5 -->
      <g transform="translate(24.754375 125.37)scale(0.1 -0.1)">
       <use xlink:href="#DejaVuSans-31"/>
       <use x="63.623047" xlink:href="#DejaVuSans-32"/>
       <use x="127.246094" xlink:href="#DejaVuSans-2e"/>
       <use x="159.033203" xlink:href="#DejaVuSans-35"/>
      </g>
     </g>
    </g>
    <g id="ytick_7">
     <g id="line2d_11">
      <g>
       <use style="stroke:#000000;stroke-width:0.8;" x="54.02" xlink:href="#m30430e167c" y="85.967187"/>
      </g>
     </g>
     <g id="text_12">
      <!-- 15.0 -->
      <g transform="translate(24.754375 89.766406)scale(0.1 -0.1)">
       <use xlink:href="#DejaVuSans-31"/>
       <use x="63.623047" xlink:href="#DejaVuSans-35"/>
       <use x="127.246094" xlink:href="#DejaVuSans-2e"/>
       <use x="159.033203" xlink:href="#DejaVuSans-30"/>
      </g>
     </g>
    </g>
    <g id="ytick_8">
     <g id="line2d_12">
      <g>
       <use style="stroke:#000000;stroke-width:0.8;" x="54.02" xlink:href="#m30430e167c" y="50.363594"/>
      </g>
     </g>
     <g id="text_13">
      <!-- 17.5 -->
      <g transform="translate(24.754375 54.162812)scale(0.1 -0.1)">
       <use xlink:href="#DejaVuSans-31"/>
       <use x="63.623047" xlink:href="#DejaVuSans-37"/>
       <use x="127.246094" xlink:href="#DejaVuSans-2e"/>
       <use x="159.033203" xlink:href="#DejaVuSans-35"/>
      </g>
     </g>
    </g>
    <g id="ytick_9">
     <g id="line2d_13">
      <g>
       <use style="stroke:#000000;stroke-width:0.8;" x="54.02" xlink:href="#m30430e167c" y="14.76"/>
      </g>
     </g>
     <g id="text_14">
      <!-- 20.0 -->
      <g transform="translate(24.754375 18.559219)scale(0.1 -0.1)">
       <use xlink:href="#DejaVuSans-32"/>
       <use x="63.623047" xlink:href="#DejaVuSans-30"/>
       <use x="127.246094" xlink:href="#DejaVuSans-2e"/>
       <use x="159.033203" xlink:href="#DejaVuSans-30"/>
      </g>
     </g>
    </g>
    <g id="text_15">
     <!-- Frequency (meV) -->
     <defs>
      <path d="M 9.8125 72.90625 
L 51.703125 72.90625 
L 51.703125 64.59375 
L 19.671875 64.59375 
L 19.671875 43.109375 
L 48.578125 43.109375 
L 48.578125 34.8125 
L 19.671875 34.8125 
L 19.671875 0 
L 9.8125 0 
z
" id="DejaVuSans-46"/>
      <path d="M 14.796875 27.296875 
Q 14.796875 17.390625 18.875 11.75 
Q 22.953125 6.109375 30.078125 6.109375 
Q 37.203125 6.109375 41.296875 11.75 
Q 45.40625 17.390625 45.40625 27.296875 
Q 45.40625 37.203125 41.296875 42.84375 
Q 37.203125 48.484375 30.078125 48.484375 
Q 22.953125 48.484375 18.875 42.84375 
Q 14.796875 37.203125 14.796875 27.296875 
z
M 45.40625 8.203125 
Q 42.578125 3.328125 38.25 0.953125 
Q 33.9375 -1.421875 27.875 -1.421875 
Q 17.96875 -1.421875 11.734375 6.484375 
Q 5.515625 14.40625 5.515625 27.296875 
Q 5.515625 40.1875 11.734375 48.09375 
Q 17.96875 56 27.875 56 
Q 33.9375 56 38.25 53.625 
Q 42.578125 51.265625 45.40625 46.390625 
L 45.40625 54.6875 
L 54.390625 54.6875 
L 54.390625 -20.796875 
L 45.40625 -20.796875 
z
" id="DejaVuSans-71"/>
      <path d="M 8.5 21.578125 
L 8.5 54.6875 
L 17.484375 54.6875 
L 17.484375 21.921875 
Q 17.484375 14.15625 20.5 10.265625 
Q 23.53125 6.390625 29.59375 6.390625 
Q 36.859375 6.390625 41.078125 11.03125 
Q 45.3125 15.671875 45.3125 23.6875 
L 45.3125 54.6875 
L 54.296875 54.6875 
L 54.296875 0 
L 45.3125 0 
L 45.3125 8.40625 
Q 42.046875 3.421875 37.71875 1 
Q 33.40625 -1.421875 27.6875 -1.421875 
Q 18.265625 -1.421875 13.375 4.4375 
Q 8.5 10.296875 8.5 21.578125 
z
M 31.109375 56 
z
" id="DejaVuSans-75"/>
      <path d="M 54.890625 33.015625 
L 54.890625 0 
L 45.90625 0 
L 45.90625 32.71875 
Q 45.90625 40.484375 42.875 44.328125 
Q 39.84375 48.1875 33.796875 48.1875 
Q 26.515625 48.1875 22.3125 43.546875 
Q 18.109375 38.921875 18.109375 30.90625 
L 18.109375 0 
L 9.078125 0 
L 9.078125 54.6875 
L 18.109375 54.6875 
L 18.109375 46.1875 
Q 21.34375 51.125 25.703125 53.5625 
Q 30.078125 56 35.796875 56 
Q 45.21875 56 50.046875 50.171875 
Q 54.890625 44.34375 54.890625 33.015625 
z
" id="DejaVuSans-6e"/>
      <path d="M 32.171875 -5.078125 
Q 28.375 -14.84375 24.75 -17.8125 
Q 21.140625 -20.796875 15.09375 -20.796875 
L 7.90625 -20.796875 
L 7.90625 -13.28125 
L 13.1875 -13.28125 
Q 16.890625 -13.28125 18.9375 -11.515625 
Q 21 -9.765625 23.484375 -3.21875 
L 25.09375 0.875 
L 2.984375 54.6875 
L 12.5 54.6875 
L 29.59375 11.921875 
L 46.6875 54.6875 
L 56.203125 54.6875 
z
" id="DejaVuSans-79"/>
      <path d="M 31 75.875 
Q 24.46875 64.65625 21.28125 53.65625 
Q 18.109375 42.671875 18.109375 31.390625 
Q 18.109375 20.125 21.3125 9.0625 
Q 24.515625 -2 31 -13.1875 
L 23.1875 -13.1875 
Q 15.875 -1.703125 12.234375 9.375 
Q 8.59375 20.453125 8.59375 31.390625 
Q 8.59375 42.28125 12.203125 53.3125 
Q 15.828125 64.359375 23.1875 75.875 
z
" id="DejaVuSans-28"/>
      <path d="M 52 44.1875 
Q 55.375 50.25 60.0625 53.125 
Q 64.75 56 71.09375 56 
Q 79.640625 56 84.28125 50.015625 
Q 88.921875 44.046875 88.921875 33.015625 
L 88.921875 0 
L 79.890625 0 
L 79.890625 32.71875 
Q 79.890625 40.578125 77.09375 44.375 
Q 74.3125 48.1875 68.609375 48.1875 
Q 61.625 48.1875 57.5625 43.546875 
Q 53.515625 38.921875 53.515625 30.90625 
L 53.515625 0 
L 44.484375 0 
L 44.484375 32.71875 
Q 44.484375 40.625 41.703125 44.40625 
Q 38.921875 48.1875 33.109375 48.1875 
Q 26.21875 48.1875 22.15625 43.53125 
Q 18.109375 38.875 18.109375 30.90625 
L 18.109375 0 
L 9.078125 0 
L 9.078125 54.6875 
L 18.109375 54.6875 
L 18.109375 46.1875 
Q 21.1875 51.21875 25.484375 53.609375 
Q 29.78125 56 35.6875 56 
Q 41.65625 56 45.828125 52.96875 
Q 50 49.953125 52 44.1875 
z
" id="DejaVuSans-6d"/>
      <path d="M 28.609375 0 
L 0.78125 72.90625 
L 11.078125 72.90625 
L 34.1875 11.53125 
L 57.328125 72.90625 
L 67.578125 72.90625 
L 39.796875 0 
z
" id="DejaVuSans-56"/>
      <path d="M 8.015625 75.875 
L 15.828125 75.875 
Q 23.140625 64.359375 26.78125 53.3125 
Q 30.421875 42.28125 30.421875 31.390625 
Q 30.421875 20.453125 26.78125 9.375 
Q 23.140625 -1.703125 15.828125 -13.1875 
L 8.015625 -13.1875 
Q 14.5 -2 17.703125 9.0625 
Q 20.90625 20.125 20.90625 31.390625 
Q 20.90625 42.671875 17.703125 53.65625 
Q 14.5 64.65625 8.015625 75.875 
z
" id="DejaVuSans-29"/>
     </defs>
     <g transform="translate(18.674688 200.329844)rotate(-90)scale(0.1 -0.1)">
      <use xlink:href="#DejaVuSans-46"/>
      <use x="57.410156" xlink:href="#DejaVuSans-72"/>
      <use x="98.492188" xlink:href="#DejaVuSans-65"/>
      <use x="160.015625" xlink:href="#DejaVuSans-71"/>
      <use x="223.492188" xlink:href="#DejaVuSans-75"/>
      <use x="286.871094" xlink:href="#DejaVuSans-65"/>
      <use x="348.394531" xlink:href="#DejaVuSans-6e"/>
      <use x="411.773438" xlink:href="#DejaVuSans-63"/>
      <use x="466.753906" xlink:href="#DejaVuSans-79"/>
      <use x="525.933594" xlink:href="#DejaVuSans-20"/>
      <use x="557.720703" xlink:href="#DejaVuSans-28"/>
      <use x="596.734375" xlink:href="#DejaVuSans-6d"/>
      <use x="694.146484" xlink:href="#DejaVuSans-65"/>
      <use x="755.669922" xlink:href="#DejaVuSans-56"/>
      <use x="824.078125" xlink:href="#DejaVuSans-29"/>
     </g>
    </g>
   </g>
   <g id="line2d_14">
    <path clip-path="url(#pe1bad1bcb7)" d="M 54.02 191.855967 
L 54.835193 191.869142 
L 55.650385 191.908664 
L 56.465578 191.974527 
L 57.28077 192.066718 
L 58.095963 192.18522 
L 58.911155 192.330012 
L 59.726348 192.501065 
L 60.541541 192.698349 
L 61.356733 192.921826 
L 62.171926 193.171456 
L 62.987118 193.447191 
L 63.802311 193.748979 
L 64.617503 194.076765 
L 65.432696 194.430486 
L 66.247889 194.810075 
L 67.063081 195.21546 
L 67.878274 195.646565 
L 68.693466 196.103306 
L 69.508659 196.585596 
L 70.323851 197.093342 
L 71.139044 197.626446 
L 71.954237 198.184804 
L 72.769429 198.768308 
L 73.584622 199.376842 
L 74.399814 200.010286 
L 75.215007 200.668515 
L 76.030199 201.351398 
L 76.845392 202.058798 
L 77.660585 202.790572 
L 78.475777 203.546573 
L 79.29097 204.326645 
L 80.106162 205.130629 
L 80.921355 205.958359 
L 81.736547 206.809663 
L 82.55174 207.684365 
L 83.366933 208.582279 
L 84.182125 209.503217 
L 84.997318 210.446983 
L 85.81251 211.413375 
L 86.627703 212.402184 
L 87.442895 213.413197 
L 88.258088 214.446194 
L 89.073281 215.500947 
L 89.888473 216.577224 
L 90.703666 217.674786 
L 91.518858 218.793388 
L 92.334051 219.932778 
L 93.149243 221.092699 
L 93.964436 222.272886 
L 94.779629 223.473069 
L 95.594821 224.692972 
L 96.410014 225.932312 
L 97.225206 227.190799 
L 98.040399 228.468139 
L 98.855591 229.76403 
L 99.670784 231.078165 
L 100.485977 232.41023 
L 101.301169 233.759905 
L 102.116362 235.126864 
L 102.931554 236.510777 
L 103.746747 237.911305 
L 104.561939 239.328104 
L 105.377132 240.760827 
L 106.192324 242.209117 
L 107.007517 243.672614 
L 107.82271 245.150952 
L 108.637902 246.643759 
L 109.453095 248.15066 
L 110.268287 249.67127 
L 111.08348 251.205203 
L 111.898672 252.752067 
L 112.713865 254.311464 
L 113.529058 255.882991 
L 114.34425 257.466243 
L 115.159443 259.060807 
L 115.974635 260.666268 
L 116.789828 262.282206 
L 117.60502 263.908195 
L 118.420213 265.543808 
L 119.235406 267.188612 
L 120.050598 268.842172 
L 120.865791 270.504048 
L 121.680983 272.173797 
L 122.496176 273.850973 
L 123.311368 275.535128 
L 124.126561 277.225808 
L 124.941754 278.922559 
L 125.756946 280.624924 
L 126.572139 282.332444 
L 127.387331 284.044657 
L 128.202524 285.761098 
L 129.017716 287.481304 
L 129.832909 289.204806 
L 130.648102 290.931137 
L 131.463294 292.659826 
L 132.278487 294.390404 
L 133.093679 296.122398 
L 133.908872 297.855338 
L 134.724064 299.588755 
" style="fill:none;stroke:#440154;stroke-linecap:square;stroke-width:1.5;"/>
   </g>
   <g id="line2d_15">
    <path clip-path="url(#pe1bad1bcb7)" d="M 54.02 128.376848 
L 54.835193 128.398056 
L 55.650385 128.461676 
L 56.465578 128.567694 
L 57.28077 128.716087 
L 58.095963 128.906823 
L 58.911155 129.139862 
L 59.726348 129.415152 
L 60.541541 129.732636 
L 61.356733 130.092243 
L 62.171926 130.493898 
L 62.987118 130.937512 
L 63.802311 131.42299 
L 64.617503 131.950227 
L 65.432696 132.519108 
L 66.247889 133.12951 
L 67.063081 133.7813 
L 67.878274 134.474336 
L 68.693466 135.208466 
L 69.508659 135.983531 
L 70.323851 136.799359 
L 71.139044 137.655773 
L 71.954237 138.552583 
L 72.769429 139.489592 
L 73.584622 140.466592 
L 74.399814 141.483367 
L 75.215007 142.539691 
L 76.030199 143.635329 
L 76.845392 144.770036 
L 77.660585 145.943558 
L 78.475777 147.155631 
L 79.29097 148.405983 
L 80.106162 149.69433 
L 80.921355 151.020382 
L 81.736547 152.383837 
L 82.55174 153.784385 
L 83.366933 155.221705 
L 84.182125 156.695467 
L 84.997318 158.205334 
L 85.81251 159.750956 
L 86.627703 161.331976 
L 87.442895 162.948027 
L 88.258088 164.598733 
L 89.073281 166.283707 
L 89.888473 168.002556 
L 90.703666 169.754874 
L 91.518858 171.540248 
L 92.334051 173.358257 
L 93.149243 175.208467 
L 93.964436 177.090438 
L 94.779629 179.003721 
L 95.594821 180.947856 
L 96.410014 182.922377 
L 97.225206 184.926806 
L 98.040399 186.960658 
L 98.855591 189.023439 
L 99.670784 191.114647 
L 100.485977 193.233771 
L 101.301169 195.380291 
L 102.116362 197.553679 
L 102.931554 199.753401 
L 103.746747 201.978911 
L 104.561939 204.229657 
L 105.377132 206.505081 
L 106.192324 208.804613 
L 107.007517 211.12768 
L 107.82271 213.473698 
L 108.637902 215.842077 
L 109.453095 218.232221 
L 110.268287 220.643525 
L 111.08348 223.075378 
L 111.898672 225.527162 
L 112.713865 227.998253 
L 113.529058 230.488021 
L 114.34425 232.995829 
L 115.159443 235.521033 
L 115.974635 238.062987 
L 116.789828 240.621034 
L 117.60502 243.194516 
L 118.420213 245.782768 
L 119.235406 248.38512 
L 120.050598 251.000897 
L 120.865791 253.629421 
L 121.680983 256.270007 
L 122.496176 258.921969 
L 123.311368 261.584613 
L 124.126561 264.257246 
L 124.941754 266.939167 
L 125.756946 269.629676 
L 126.572139 272.328067 
L 127.387331 275.033633 
L 128.202524 277.745663 
L 129.017716 280.463444 
L 129.832909 283.186263 
L 130.648102 285.913402 
L 131.463294 288.644145 
L 132.278487 291.377771 
L 133.093679 294.113562 
L 133.908872 296.850795 
L 134.724064 299.588748 
" style="fill:none;stroke:#440154;stroke-linecap:square;stroke-width:1.5;"/>
   </g>
   <g id="line2d_16">
    <path clip-path="url(#pe1bad1bcb7)" d="M 54.02 31.174906 
L 54.835193 31.200349 
L 55.650385 31.276694 
L 56.465578 31.403983 
L 57.28077 31.582285 
L 58.095963 31.811697 
L 58.911155 32.092345 
L 59.726348 32.42438 
L 60.541541 32.807978 
L 61.356733 33.243342 
L 62.171926 33.730699 
L 62.987118 34.270297 
L 63.802311 34.86241 
L 64.617503 35.50733 
L 65.432696 36.20537 
L 66.247889 36.95686 
L 67.063081 37.762149 
L 67.878274 38.621599 
L 68.693466 39.535587 
L 69.508659 40.504502 
L 70.323851 41.528744 
L 71.139044 42.608718 
L 71.954237 43.744841 
L 72.769429 44.937529 
L 73.584622 46.187205 
L 74.399814 47.49429 
L 75.215007 48.859206 
L 76.030199 50.28237 
L 76.845392 51.764195 
L 77.660585 53.305085 
L 78.475777 54.905437 
L 79.29097 56.565634 
L 80.106162 58.286047 
L 80.921355 60.067032 
L 81.736547 61.908927 
L 82.55174 63.81205 
L 83.366933 65.776698 
L 84.182125 67.803147 
L 84.997318 69.891644 
L 85.81251 72.042412 
L 86.627703 74.255645 
L 87.442895 76.531507 
L 88.258088 78.870128 
L 89.073281 81.271608 
L 89.888473 83.736008 
L 90.703666 86.263357 
L 91.518858 88.853642 
L 92.334051 91.506814 
L 93.149243 94.222782 
L 93.964436 97.001415 
L 94.779629 99.842538 
L 95.594821 102.745933 
L 96.410014 105.711339 
L 97.225206 108.738448 
L 98.040399 111.826907 
L 98.855591 114.976316 
L 99.670784 118.186228 
L 100.485977 121.456149 
L 101.301169 124.785536 
L 102.116362 128.1738 
L 102.931554 131.620301 
L 103.746747 135.12435 
L 104.561939 138.685213 
L 105.377132 142.302105 
L 106.192324 145.974191 
L 107.007517 149.70059 
L 107.82271 153.480374 
L 108.637902 157.312565 
L 109.453095 161.196139 
L 110.268287 165.130026 
L 111.08348 169.113108 
L 111.898672 173.144225 
L 112.713865 177.222169 
L 113.529058 181.345692 
L 114.34425 185.513499 
L 115.159443 189.724257 
L 115.974635 193.976591 
L 116.789828 198.269086 
L 117.60502 202.600287 
L 118.420213 206.968706 
L 119.235406 211.372815 
L 120.050598 215.811053 
L 120.865791 220.281826 
L 121.680983 224.783508 
L 122.496176 229.314443 
L 123.311368 233.872945 
L 124.126561 238.457302 
L 124.941754 243.065776 
L 125.756946 247.696607 
L 126.572139 252.348009 
L 127.387331 257.01818 
L 128.202524 261.705295 
L 129.017716 266.407515 
L 129.832909 271.122985 
L 130.648102 275.849837 
L 131.463294 280.586191 
L 132.278487 285.330159 
L 133.093679 290.079844 
L 133.908872 294.833343 
L 134.724064 299.588744 
" style="fill:none;stroke:#440154;stroke-linecap:square;stroke-width:1.5;"/>
   </g>
   <g id="line2d_17">
    <path clip-path="url(#pe1bad1bcb7)" d="M 134.724064 299.588755 
L 135.876921 295.716796 
L 137.029777 291.846455 
L 138.182634 287.979338 
L 139.33549 284.117047 
L 140.488346 280.261177 
L 141.641203 276.413306 
L 142.794059 272.575 
L 143.946916 268.7478 
L 145.099772 264.933229 
L 146.252628 261.132781 
L 147.405485 257.347925 
L 148.558341 253.580095 
L 149.711198 249.830694 
L 150.864054 246.101088 
L 152.01691 242.392604 
L 153.169767 238.70653 
L 154.322623 235.04411 
L 155.475479 231.406547 
L 156.628336 227.794994 
L 157.781192 224.210562 
L 158.934049 220.654312 
L 160.086905 217.127256 
L 161.239761 213.630359 
L 162.392618 210.164534 
L 163.545474 206.730646 
L 164.698331 203.32951 
L 165.851187 199.961893 
L 167.004043 196.628512 
L 168.1569 193.330036 
L 169.309756 190.067088 
L 170.462612 186.840246 
L 171.615469 183.650042 
L 172.768325 180.496967 
L 173.921182 177.381472 
L 175.074038 174.303966 
L 176.226894 171.264824 
L 177.379751 168.264387 
L 178.532607 165.302963 
L 179.685464 162.38083 
L 180.83832 159.498241 
L 181.991176 156.655424 
L 183.144033 153.852586 
L 184.296889 151.089916 
L 185.449746 148.367588 
L 186.602602 145.685762 
L 187.755458 143.04459 
L 188.908315 140.444216 
L 190.061171 137.884782 
L 191.214027 135.366427 
L 192.366884 132.889292 
L 193.51974 130.453522 
L 194.672597 128.059268 
L 195.825453 125.706692 
L 196.978309 123.395963 
L 198.131166 121.127267 
L 199.284022 118.900802 
L 200.436879 116.716783 
L 201.589735 114.575444 
L 202.742591 112.477035 
L 203.895448 110.421829 
L 205.048304 108.410118 
L 206.201161 106.442215 
L 207.354017 104.518454 
L 208.506873 102.639193 
L 209.65973 100.804807 
L 210.812586 99.015697 
L 211.965442 97.272279 
L 213.118299 95.574993 
L 214.271155 93.924294 
L 215.424012 92.320657 
L 216.576868 90.764569 
L 217.729724 89.256534 
L 218.882581 87.797068 
L 220.035437 86.386695 
L 221.188294 85.025951 
L 222.34115 83.715375 
L 223.494006 82.455511 
L 224.646863 81.246904 
L 225.799719 80.090098 
L 226.952576 78.985635 
L 228.105432 77.934048 
L 229.258288 76.935865 
L 230.411145 75.9916 
L 231.564001 75.101754 
L 232.716857 74.266813 
L 233.869714 73.487244 
L 235.02257 72.763493 
L 236.175427 72.095983 
L 237.328283 71.485112 
L 238.481139 70.931249 
L 239.633996 70.434737 
L 240.786852 69.995885 
L 241.939709 69.614972 
L 243.092565 69.29224 
L 244.245421 69.027899 
L 245.398278 68.82212 
L 246.551134 68.675039 
L 247.703991 68.586751 
L 248.856847 68.557315 
" style="fill:none;stroke:#440154;stroke-linecap:square;stroke-width:1.5;"/>
   </g>
   <g id="line2d_18">
    <path clip-path="url(#pe1bad1bcb7)" d="M 134.724064 299.588748 
L 135.876921 295.716796 
L 137.029777 291.846455 
L 138.182634 287.979338 
L 139.33549 284.117047 
L 140.488346 280.261177 
L 141.641203 276.413306 
L 142.794059 272.575 
L 143.946916 268.7478 
L 145.099772 264.933229 
L 146.252628 261.132781 
L 147.405485 257.347925 
L 148.558341 253.580095 
L 149.711198 249.830694 
L 150.864054 246.101088 
L 152.01691 242.392604 
L 153.169767 238.70653 
L 154.322623 235.04411 
L 155.475479 231.406547 
L 156.628336 227.794994 
L 157.781192 224.210562 
L 158.934049 220.654312 
L 160.086905 217.127256 
L 161.239761 213.630359 
L 162.392618 210.164534 
L 163.545474 206.730646 
L 164.698331 203.32951 
L 165.851187 199.961893 
L 167.004043 196.628512 
L 168.1569 193.330036 
L 169.309756 190.067088 
L 170.462612 186.840246 
L 171.615469 183.650042 
L 172.768325 180.496967 
L 173.921182 177.381472 
L 175.074038 174.303966 
L 176.226894 171.264824 
L 177.379751 168.264387 
L 178.532607 165.302963 
L 179.685464 162.38083 
L 180.83832 159.498241 
L 181.991176 156.655424 
L 183.144033 153.852586 
L 184.296889 151.089916 
L 185.449746 148.367588 
L 186.602602 145.685762 
L 187.755458 143.04459 
L 188.908315 140.444216 
L 190.061171 137.884782 
L 191.214027 135.366427 
L 192.366884 132.889292 
L 193.51974 130.453522 
L 194.672597 128.059268 
L 195.825453 125.706692 
L 196.978309 123.395963 
L 198.131166 121.127267 
L 199.284022 118.900802 
L 200.436879 116.716783 
L 201.589735 114.575444 
L 202.742591 112.477035 
L 203.895448 110.421829 
L 205.048304 108.410118 
L 206.201161 106.442215 
L 207.354017 104.518454 
L 208.506873 102.639193 
L 209.65973 100.804807 
L 210.812586 99.015697 
L 211.965442 97.272279 
L 213.118299 95.574993 
L 214.271155 93.924294 
L 215.424012 92.320657 
L 216.576868 90.764569 
L 217.729724 89.256534 
L 218.882581 87.797068 
L 220.035437 86.386695 
L 221.188294 85.025951 
L 222.34115 83.715375 
L 223.494006 82.455511 
L 224.646863 81.246904 
L 225.799719 80.090098 
L 226.952576 78.985635 
L 228.105432 77.934048 
L 229.258288 76.935865 
L 230.411145 75.9916 
L 231.564001 75.101754 
L 232.716857 74.266813 
L 233.869714 73.487244 
L 235.02257 72.763493 
L 236.175427 72.095983 
L 237.328283 71.485112 
L 238.481139 70.931249 
L 239.633996 70.434737 
L 240.786852 69.995885 
L 241.939709 69.614972 
L 243.092565 69.29224 
L 244.245421 69.027899 
L 245.398278 68.82212 
L 246.551134 68.675039 
L 247.703991 68.586751 
L 248.856847 68.557315 
" style="fill:none;stroke:#440154;stroke-linecap:square;stroke-width:1.5;"/>
   </g>
   <g id="line2d_19">
    <path clip-path="url(#pe1bad1bcb7)" d="M 134.724064 299.588744 
L 135.876921 293.56898 
L 137.029777 287.555226 
L 138.182634 281.553493 
L 139.33549 275.569752 
L 140.488346 269.609936 
L 141.641203 263.679918 
L 142.794059 257.785501 
L 143.946916 251.932402 
L 145.099772 246.126241 
L 146.252628 240.372525 
L 147.405485 234.676636 
L 148.558341 229.043818 
L 149.711198 223.479166 
L 150.864054 217.98761 
L 152.01691 212.57391 
L 153.169767 207.242637 
L 154.322623 201.998169 
L 155.475479 196.844676 
L 156.628336 191.786114 
L 157.781192 186.826214 
L 158.934049 181.968472 
L 160.086905 177.216144 
L 161.239761 172.57224 
L 162.392618 168.039513 
L 163.545474 163.620456 
L 164.698331 159.317297 
L 165.851187 155.131994 
L 167.004043 151.066232 
L 168.1569 147.121421 
L 169.309756 143.298693 
L 170.462612 139.598902 
L 171.615469 136.022623 
L 172.768325 132.570154 
L 173.921182 129.241519 
L 175.074038 126.036466 
L 176.226894 122.954476 
L 177.379751 119.994765 
L 178.532607 117.15629 
L 179.685464 114.437754 
L 180.83832 111.837619 
L 181.991176 109.354107 
L 183.144033 106.985216 
L 184.296889 104.728725 
L 185.449746 102.582209 
L 186.602602 100.54305 
L 187.755458 98.608451 
L 188.908315 96.775448 
L 190.061171 95.040925 
L 191.214027 93.401633 
L 192.366884 91.854199 
L 193.51974 90.395151 
L 194.672597 89.020927 
L 195.825453 87.7279 
L 196.978309 86.51239 
L 198.131166 85.370686 
L 199.284022 84.299062 
L 200.436879 83.293796 
L 201.589735 82.351187 
L 202.742591 81.467577 
L 203.895448 80.639362 
L 205.048304 79.863014 
L 206.201161 79.135094 
L 207.354017 78.452269 
L 208.506873 77.811327 
L 209.65973 77.209186 
L 210.812586 76.642914 
L 211.965442 76.10973 
L 213.118299 75.607021 
L 214.271155 75.132348 
L 215.424012 74.683447 
L 216.576868 74.258241 
L 217.729724 73.854839 
L 218.882581 73.471536 
L 220.035437 73.106816 
L 221.188294 72.759347 
L 222.34115 72.427977 
L 223.494006 72.111731 
L 224.646863 71.809801 
L 225.799719 71.521542 
L 226.952576 71.246456 
L 228.105432 70.98419 
L 229.258288 70.734516 
L 230.411145 70.497325 
L 231.564001 70.272611 
L 232.716857 70.060457 
L 233.869714 69.861024 
L 235.02257 69.674536 
L 236.175427 69.501265 
L 237.328283 69.341519 
L 238.481139 69.195629 
L 239.633996 69.063936 
L 240.786852 68.94678 
L 241.939709 68.844486 
L 243.092565 68.75736 
L 244.245421 68.685675 
L 245.398278 68.629664 
L 246.551134 68.589517 
L 247.703991 68.565373 
L 248.856847 68.557315 
" style="fill:none;stroke:#440154;stroke-linecap:square;stroke-width:1.5;"/>
   </g>
   <g id="line2d_20">
    <path clip-path="url(#pe1bad1bcb7)" d="M 248.856847 68.557315 
L 250.853653 68.739141 
L 252.850459 69.283767 
L 254.847264 70.188631 
L 256.84407 71.449437 
L 258.840876 73.060115 
L 260.837682 75.012774 
L 262.834488 77.297624 
L 264.831294 79.902896 
L 266.828099 82.814737 
L 268.824905 86.017094 
L 270.821711 89.491573 
L 272.818517 93.217288 
L 274.815323 97.170688 
L 276.812129 101.325373 
L 278.808935 105.651892 
L 280.80574 110.117538 
L 282.802546 114.686136 
L 284.799352 119.31786 
L 286.796158 123.969062 
L 288.792964 128.592187 
L 290.78977 133.135775 
L 292.786575 137.544624 
L 294.783381 141.760181 
L 296.780187 145.721219 
L 298.776993 149.364894 
L 300.773799 152.628232 
L 302.770605 155.450081 
L 304.76741 157.773464 
L 306.764216 159.548238 
L 308.761022 160.733789 
L 310.757828 161.301479 
L 312.754634 161.2365 
L 314.75144 160.538823 
L 316.748245 159.223115 
L 318.745051 157.317601 
L 320.741857 154.862086 
L 322.738663 151.905433 
L 324.735469 148.502831 
L 326.732275 144.713177 
L 328.72908 140.59677 
L 330.725886 136.213447 
L 332.722692 131.621186 
L 334.719498 126.875148 
L 336.716304 122.02709 
L 338.71311 117.125066 
L 340.709916 112.213356 
L 342.706721 107.332542 
L 344.703527 102.519692 
L 346.700333 97.808596 
L 348.697139 96.65734 
L 350.693945 99.037944 
L 352.690751 101.506733 
L 354.687556 104.061264 
L 356.684362 106.699385 
L 358.681168 109.419281 
L 360.677974 112.219497 
L 362.67478 115.098961 
L 364.671586 118.056978 
L 366.668391 121.093214 
L 368.665197 124.207674 
L 370.662003 127.400654 
L 372.658809 130.672692 
L 374.655615 134.024511 
L 376.652421 137.456948 
L 378.649226 140.970887 
L 380.646032 144.567185 
L 382.642838 148.246601 
L 384.639644 152.009731 
L 386.63645 155.856938 
L 388.633256 159.788303 
L 390.630062 163.803573 
L 392.626867 167.902123 
L 394.623673 172.082933 
L 396.620479 176.344565 
L 398.617285 180.685162 
L 400.614091 185.102455 
L 402.610897 189.593778 
L 404.607702 194.156097 
L 406.604508 198.786044 
L 408.601314 203.479962 
L 410.59812 208.233954 
L 412.594926 213.043941 
L 414.591732 217.905713 
L 416.588537 222.814997 
L 418.585343 227.767507 
L 420.582149 232.759004 
L 422.578955 237.785351 
L 424.575761 242.842554 
L 426.572567 247.926805 
L 428.569372 253.034516 
L 430.566178 258.162339 
L 432.562984 263.307181 
L 434.55979 268.466208 
L 436.556596 273.636839 
L 438.553402 278.816729 
L 440.550207 284.003749 
L 442.547013 289.195948 
L 444.543819 294.391519 
L 446.540625 299.588755 
" style="fill:none;stroke:#440154;stroke-linecap:square;stroke-width:1.5;"/>
   </g>
   <g id="line2d_21">
    <path clip-path="url(#pe1bad1bcb7)" d="M 248.856847 68.557315 
L 250.853653 68.56674 
L 252.850459 68.594674 
L 254.847264 68.640105 
L 256.84407 68.701388 
L 258.840876 68.776313 
L 260.837682 68.862186 
L 262.834488 68.955938 
L 264.831294 69.054249 
L 266.828099 69.153682 
L 268.824905 69.250832 
L 270.821711 69.342474 
L 272.818517 69.425711 
L 274.815323 69.498119 
L 276.812129 69.55788 
L 278.808935 69.603897 
L 280.80574 69.635892 
L 282.802546 69.654484 
L 284.799352 69.661234 
L 286.796158 69.65867 
L 288.792964 69.65028 
L 290.78977 69.640478 
L 292.786575 69.634543 
L 294.783381 69.638539 
L 296.780187 69.659206 
L 298.776993 69.703837 
L 300.773799 69.780149 
L 302.770605 69.896131 
L 304.76741 70.0599 
L 306.764216 70.279552 
L 308.761022 70.563017 
L 310.757828 70.917924 
L 312.754634 71.351472 
L 314.75144 71.870326 
L 316.748245 72.480512 
L 318.745051 73.18735 
L 320.741857 73.995389 
L 322.738663 74.908371 
L 324.735469 75.929211 
L 326.732275 77.06 
L 328.72908 78.302019 
L 330.725886 79.655782 
L 332.722692 81.12108 
L 334.719498 82.697051 
L 336.716304 84.382259 
L 338.71311 86.174776 
L 340.709916 88.072278 
L 342.706721 90.072146 
L 344.703527 92.171559 
L 346.700333 94.367598 
L 348.697139 96.65734 
L 350.693945 99.037944 
L 352.690751 101.506733 
L 354.687556 104.061264 
L 356.684362 106.699385 
L 358.681168 109.419281 
L 360.677974 112.219497 
L 362.67478 115.098961 
L 364.671586 118.056978 
L 366.668391 121.093214 
L 368.665197 124.207674 
L 370.662003 127.400654 
L 372.658809 130.672692 
L 374.655615 134.024511 
L 376.652421 137.456948 
L 378.649226 140.970887 
L 380.646032 144.567185 
L 382.642838 148.246601 
L 384.639644 152.009731 
L 386.63645 155.856938 
L 388.633256 159.788303 
L 390.630062 163.803573 
L 392.626867 167.902123 
L 394.623673 172.082933 
L 396.620479 176.344565 
L 398.617285 180.685162 
L 400.614091 185.102455 
L 402.610897 189.593778 
L 404.607702 194.156097 
L 406.604508 198.786044 
L 408.601314 203.479962 
L 410.59812 208.233954 
L 412.594926 213.043941 
L 414.591732 217.905713 
L 416.588537 222.814997 
L 418.585343 227.767507 
L 420.582149 232.759004 
L 422.578955 237.785351 
L 424.575761 242.842554 
L 426.572567 247.926805 
L 428.569372 253.034516 
L 430.566178 258.162339 
L 432.562984 263.307181 
L 434.55979 268.466208 
L 436.556596 273.636839 
L 438.553402 278.816729 
L 440.550207 284.003749 
L 442.547013 289.195948 
L 444.543819 294.391519 
L 446.540625 299.588748 
" style="fill:none;stroke:#440154;stroke-linecap:square;stroke-width:1.5;"/>
   </g>
   <g id="line2d_22">
    <path clip-path="url(#pe1bad1bcb7)" d="M 248.856847 68.557315 
L 250.853653 68.56674 
L 252.850459 68.594674 
L 254.847264 68.640105 
L 256.84407 68.701388 
L 258.840876 68.776313 
L 260.837682 68.862186 
L 262.834488 68.955938 
L 264.831294 69.054249 
L 266.828099 69.153682 
L 268.824905 69.250832 
L 270.821711 69.342474 
L 272.818517 69.425711 
L 274.815323 69.498119 
L 276.812129 69.55788 
L 278.808935 69.603897 
L 280.80574 69.635892 
L 282.802546 69.654484 
L 284.799352 69.661234 
L 286.796158 69.65867 
L 288.792964 69.65028 
L 290.78977 69.640478 
L 292.786575 69.634543 
L 294.783381 69.638539 
L 296.780187 69.659206 
L 298.776993 69.703837 
L 300.773799 69.780149 
L 302.770605 69.896131 
L 304.76741 70.0599 
L 306.764216 70.279552 
L 308.761022 70.563017 
L 310.757828 70.917924 
L 312.754634 71.351472 
L 314.75144 71.870326 
L 316.748245 72.480512 
L 318.745051 73.18735 
L 320.741857 73.995389 
L 322.738663 74.908371 
L 324.735469 75.929211 
L 326.732275 77.06 
L 328.72908 78.302019 
L 330.725886 79.655782 
L 332.722692 81.12108 
L 334.719498 82.697051 
L 336.716304 84.382259 
L 338.71311 86.174776 
L 340.709916 88.072278 
L 342.706721 90.072146 
L 344.703527 92.171559 
L 346.700333 94.367598 
L 348.697139 93.230044 
L 350.693945 88.812112 
L 352.690751 84.580453 
L 354.687556 80.558566 
L 356.684362 76.768063 
L 358.681168 73.228906 
L 360.677974 69.959628 
L 362.67478 66.977527 
L 364.671586 64.298838 
L 366.668391 61.938881 
L 368.665197 59.912183 
L 370.662003 58.232576 
L 372.658809 56.913271 
L 374.655615 55.966909 
L 376.652421 55.405587 
L 378.649226 55.240869 
L 380.646032 55.483765 
L 382.642838 56.144701 
L 384.639644 57.233467 
L 386.63645 58.759152 
L 388.633256 60.730062 
L 390.630062 63.15363 
L 392.626867 66.036318 
L 394.623673 69.38351 
L 396.620479 73.199403 
L 398.617285 77.4869 
L 400.614091 82.247495 
L 402.610897 87.481176 
L 404.607702 93.186321 
L 406.604508 99.359611 
L 408.601314 105.995949 
L 410.59812 113.088393 
L 412.594926 120.628101 
L 414.591732 128.604294 
L 416.588537 137.004231 
L 418.585343 145.813205 
L 420.582149 155.014553 
L 422.578955 164.589684 
L 424.575761 174.518129 
L 426.572567 184.777604 
L 428.569372 195.34409 
L 430.566178 206.191936 
L 432.562984 217.293966 
L 434.55979 228.621615 
L 436.556596 240.145068 
L 438.553402 251.833416 
L 440.550207 263.65482 
L 442.547013 275.576684 
L 444.543819 287.565845 
L 446.540625 299.588744 
" style="fill:none;stroke:#440154;stroke-linecap:square;stroke-width:1.5;"/>
   </g>
   <g id="line2d_23">
    <path clip-path="url(#pe1bad1bcb7)" d="M 0 0 
" style="fill:none;stroke:#440154;stroke-linecap:square;stroke-width:1.5;"/>
   </g>
   <g id="line2d_24">
    <path clip-path="url(#pe1bad1bcb7)" d="M 54.02 180.650059 
L 54.835193 180.664792 
L 55.650385 180.708987 
L 56.465578 180.782636 
L 57.28077 180.885721 
L 58.095963 181.018222 
L 58.911155 181.18011 
L 59.726348 181.371349 
L 60.541541 181.591898 
L 61.356733 181.841711 
L 62.171926 182.120732 
L 62.987118 182.428903 
L 63.802311 182.766155 
L 64.617503 183.132416 
L 65.432696 183.527607 
L 66.247889 183.951642 
L 67.063081 184.404428 
L 67.878274 184.885867 
L 68.693466 185.395854 
L 69.508659 185.934277 
L 70.323851 186.501018 
L 71.139044 187.095953 
L 71.954237 187.71895 
L 72.769429 188.369873 
L 73.584622 189.048578 
L 74.399814 189.754913 
L 75.215007 190.488723 
L 76.030199 191.249843 
L 76.845392 192.038104 
L 77.660585 192.853329 
L 78.475777 193.695335 
L 79.29097 194.563932 
L 80.106162 195.458925 
L 80.921355 196.380111 
L 81.736547 197.32728 
L 82.55174 198.300217 
L 83.366933 199.298699 
L 84.182125 200.322498 
L 84.997318 201.371377 
L 85.81251 202.445096 
L 86.627703 203.543405 
L 87.442895 204.66605 
L 88.258088 205.81277 
L 89.073281 206.983295 
L 89.888473 208.177353 
L 90.703666 209.394661 
L 91.518858 210.634934 
L 92.334051 211.897877 
L 93.149243 213.183191 
L 93.964436 214.490569 
L 94.779629 215.819698 
L 95.594821 217.170261 
L 96.410014 218.541932 
L 97.225206 219.934381 
L 98.040399 221.34727 
L 98.855591 222.780255 
L 99.670784 224.232989 
L 100.485977 225.705116 
L 101.301169 227.196275 
L 102.116362 228.706099 
L 102.931554 230.234217 
L 103.746747 231.78025 
L 104.561939 233.343815 
L 105.377132 234.924523 
L 106.192324 236.521979 
L 107.007517 238.135785 
L 107.82271 239.765535 
L 108.637902 241.41082 
L 109.453095 243.071224 
L 110.268287 244.746328 
L 111.08348 246.435708 
L 111.898672 248.138934 
L 112.713865 249.855573 
L 113.529058 251.585186 
L 114.34425 253.327332 
L 115.159443 255.081563 
L 115.974635 256.84743 
L 116.789828 258.624478 
L 117.60502 260.412248 
L 118.420213 262.210279 
L 119.235406 264.018105 
L 120.050598 265.835258 
L 120.865791 267.661265 
L 121.680983 269.495653 
L 122.496176 271.337943 
L 123.311368 273.187655 
L 124.126561 275.044305 
L 124.941754 276.907409 
L 125.756946 278.776478 
L 126.572139 280.651023 
L 127.387331 282.530553 
L 128.202524 284.414573 
L 129.017716 286.302589 
L 129.832909 288.194104 
L 130.648102 290.08862 
L 131.463294 291.98564 
L 132.278487 293.884664 
L 133.093679 295.78519 
L 133.908872 297.68672 
L 134.724064 299.588755 
" style="fill:none;stroke:#238a8d;stroke-linecap:square;stroke-width:1.5;"/>
   </g>
   <g id="line2d_25">
    <path clip-path="url(#pe1bad1bcb7)" d="M 54.02 123.884028 
L 54.835193 123.904975 
L 55.650385 123.967816 
L 56.465578 124.072543 
L 57.28077 124.219142 
L 58.095963 124.407595 
L 58.911155 124.637879 
L 59.726348 124.909966 
L 60.541541 125.223821 
L 61.356733 125.579404 
L 62.171926 125.976671 
L 62.987118 126.415572 
L 63.802311 126.896048 
L 64.617503 127.41804 
L 65.432696 127.981478 
L 66.247889 128.586287 
L 67.063081 129.232389 
L 67.878274 129.919695 
L 68.693466 130.648113 
L 69.508659 131.417542 
L 70.323851 132.227875 
L 71.139044 133.078999 
L 71.954237 133.970792 
L 72.769429 134.903125 
L 73.584622 135.875862 
L 74.399814 136.88886 
L 75.215007 137.941965 
L 76.030199 139.035018 
L 76.845392 140.16785 
L 77.660585 141.340283 
L 78.475777 142.552132 
L 79.29097 143.803202 
L 80.106162 145.093287 
L 80.921355 146.422174 
L 81.736547 147.789639 
L 82.55174 149.19545 
L 83.366933 150.639363 
L 84.182125 152.121124 
L 84.997318 153.640469 
L 85.81251 155.197124 
L 86.627703 156.790803 
L 87.442895 158.42121 
L 88.258088 160.088038 
L 89.073281 161.790968 
L 89.888473 163.529669 
L 90.703666 165.303801 
L 91.518858 167.11301 
L 92.334051 168.956931 
L 93.149243 170.835187 
L 93.964436 172.747389 
L 94.779629 174.693136 
L 95.594821 176.672014 
L 96.410014 178.683599 
L 97.225206 180.727452 
L 98.040399 182.803124 
L 98.855591 184.910152 
L 99.670784 187.048061 
L 100.485977 189.216364 
L 101.301169 191.414562 
L 102.116362 193.642143 
L 102.931554 195.898583 
L 103.746747 198.183346 
L 104.561939 200.495883 
L 105.377132 202.835634 
L 106.192324 205.202025 
L 107.007517 207.594474 
L 107.82271 210.012384 
L 108.637902 212.455147 
L 109.453095 214.922144 
L 110.268287 217.412746 
L 111.08348 219.92631 
L 111.898672 222.462184 
L 112.713865 225.019705 
L 113.529058 227.598201 
L 114.34425 230.196987 
L 115.159443 232.815371 
L 115.974635 235.452648 
L 116.789828 238.108107 
L 117.60502 240.781025 
L 118.420213 243.470673 
L 119.235406 246.176311 
L 120.050598 248.897192 
L 120.865791 251.632562 
L 121.680983 254.381658 
L 122.496176 257.143711 
L 123.311368 259.917944 
L 124.126561 262.703574 
L 124.941754 265.499814 
L 125.756946 268.305869 
L 126.572139 271.120939 
L 127.387331 273.94422 
L 128.202524 276.774905 
L 129.017716 279.612179 
L 129.832909 282.455228 
L 130.648102 285.303232 
L 131.463294 288.15537 
L 132.278487 291.010817 
L 133.093679 293.868747 
L 133.908872 296.728334 
L 134.724064 299.588753 
" style="fill:none;stroke:#238a8d;stroke-linecap:square;stroke-width:1.5;"/>
   </g>
   <g id="line2d_26">
    <path clip-path="url(#pe1bad1bcb7)" d="M 54.02 30.003835 
L 54.835193 30.028307 
L 55.650385 30.10174 
L 56.465578 30.224185 
L 57.28077 30.395729 
L 58.095963 30.616492 
L 58.911155 30.886626 
L 59.726348 31.206317 
L 60.541541 31.575784 
L 61.356733 31.995276 
L 62.171926 32.465071 
L 62.987118 32.985477 
L 63.802311 33.55683 
L 64.617503 34.179492 
L 65.432696 34.853848 
L 66.247889 35.580307 
L 67.063081 36.359301 
L 67.878274 37.191279 
L 68.693466 38.076708 
L 69.508659 39.016073 
L 70.323851 40.009871 
L 71.139044 41.058608 
L 71.954237 42.162803 
L 72.769429 43.322981 
L 73.584622 44.539672 
L 74.399814 45.813406 
L 75.215007 47.144718 
L 76.030199 48.534136 
L 76.845392 49.982188 
L 77.660585 51.489391 
L 78.475777 53.056256 
L 79.29097 54.68328 
L 80.106162 56.370949 
L 80.921355 58.119731 
L 81.736547 59.930076 
L 82.55174 61.802412 
L 83.366933 63.737148 
L 84.182125 65.734664 
L 84.997318 67.795314 
L 85.81251 69.919424 
L 86.627703 72.107288 
L 87.442895 74.359168 
L 88.258088 76.675289 
L 89.073281 79.055842 
L 89.888473 81.500977 
L 90.703666 84.010806 
L 91.518858 86.585399 
L 92.334051 89.224783 
L 93.149243 91.92894 
L 93.964436 94.697807 
L 94.779629 97.531275 
L 95.594821 100.429185 
L 96.410014 103.391332 
L 97.225206 106.417459 
L 98.040399 109.50726 
L 98.855591 112.660376 
L 99.670784 115.876397 
L 100.485977 119.154861 
L 101.301169 122.495253 
L 102.116362 125.897005 
L 102.931554 129.359494 
L 103.746747 132.882047 
L 104.561939 136.463935 
L 105.377132 140.104375 
L 106.192324 143.802533 
L 107.007517 147.557519 
L 107.82271 151.368394 
L 108.637902 155.234163 
L 109.453095 159.153783 
L 110.268287 163.126156 
L 111.08348 167.150136 
L 111.898672 171.224527 
L 112.713865 175.348084 
L 113.529058 179.519514 
L 114.34425 183.737476 
L 115.159443 188.000586 
L 115.974635 192.307412 
L 116.789828 196.656481 
L 117.60502 201.046277 
L 118.420213 205.475242 
L 119.235406 209.941782 
L 120.050598 214.444261 
L 120.865791 218.981009 
L 121.680983 223.55032 
L 122.496176 228.150458 
L 123.311368 232.77965 
L 124.126561 237.436098 
L 124.941754 242.117975 
L 125.756946 246.823426 
L 126.572139 251.550573 
L 127.387331 256.297517 
L 128.202524 261.062336 
L 129.017716 265.843091 
L 129.832909 270.637828 
L 130.648102 275.444574 
L 131.463294 280.261348 
L 132.278487 285.086157 
L 133.093679 289.917 
L 133.908872 294.751868 
L 134.724064 299.588746 
" style="fill:none;stroke:#238a8d;stroke-linecap:square;stroke-width:1.5;"/>
   </g>
   <g id="line2d_27">
    <path clip-path="url(#pe1bad1bcb7)" d="M 134.724064 299.588755 
L 135.876921 295.543598 
L 137.029777 291.500134 
L 138.182634 287.460045 
L 139.33549 283.425013 
L 140.488346 279.396715 
L 141.641203 275.376816 
L 142.794059 271.366976 
L 143.946916 267.368837 
L 145.099772 263.38403 
L 146.252628 259.414169 
L 147.405485 255.460849 
L 148.558341 251.525644 
L 149.711198 247.610108 
L 150.864054 243.71577 
L 152.01691 239.844133 
L 153.169767 235.996672 
L 154.322623 232.174836 
L 155.475479 228.380042 
L 156.628336 224.613673 
L 157.781192 220.877083 
L 158.934049 217.171589 
L 160.086905 213.498471 
L 161.239761 209.858977 
L 162.392618 206.254311 
L 163.545474 202.685644 
L 164.698331 199.154103 
L 165.851187 195.660776 
L 167.004043 192.206711 
L 168.1569 188.792913 
L 169.309756 185.420346 
L 170.462612 182.08993 
L 171.615469 178.802544 
L 172.768325 175.559022 
L 173.921182 172.360156 
L 175.074038 169.206695 
L 176.226894 166.099345 
L 177.379751 163.038769 
L 178.532607 160.025587 
L 179.685464 157.060376 
L 180.83832 154.143674 
L 181.991176 151.275976 
L 183.144033 148.457735 
L 184.296889 145.689367 
L 185.449746 142.971246 
L 186.602602 140.30371 
L 187.755458 137.687058 
L 188.908315 135.121553 
L 190.061171 132.607422 
L 191.214027 130.144858 
L 192.366884 127.734021 
L 193.51974 125.37504 
L 194.672597 123.068009 
L 195.825453 120.812998 
L 196.978309 118.610043 
L 198.131166 116.459159 
L 199.284022 114.36033 
L 200.436879 112.313518 
L 201.589735 110.318664 
L 202.742591 108.375684 
L 203.895448 106.484476 
L 205.048304 104.64492 
L 206.201161 102.856876 
L 207.354017 101.120192 
L 208.506873 99.434698 
L 209.65973 97.800214 
L 210.812586 96.216546 
L 211.965442 94.683492 
L 213.118299 93.20084 
L 214.271155 91.768369 
L 215.424012 90.385854 
L 216.576868 89.053065 
L 217.729724 87.769766 
L 218.882581 86.535721 
L 220.035437 85.350691 
L 221.188294 84.214436 
L 222.34115 83.126719 
L 223.494006 82.087304 
L 224.646863 81.095956 
L 225.799719 80.152447 
L 226.952576 79.25655 
L 228.105432 78.408048 
L 229.258288 77.606726 
L 230.411145 76.852378 
L 231.564001 76.144808 
L 232.716857 75.483824 
L 233.869714 74.869249 
L 235.02257 74.30091 
L 236.175427 73.778648 
L 237.328283 73.302314 
L 238.481139 72.871771 
L 239.633996 72.486893 
L 240.786852 72.147566 
L 241.939709 71.85369 
L 243.092565 71.605176 
L 244.245421 71.401949 
L 245.398278 71.243949 
L 246.551134 71.131125 
L 247.703991 71.063445 
L 248.856847 71.040888 
" style="fill:none;stroke:#238a8d;stroke-linecap:square;stroke-width:1.5;"/>
   </g>
   <g id="line2d_28">
    <path clip-path="url(#pe1bad1bcb7)" d="M 134.724064 299.588753 
L 135.876921 295.543598 
L 137.029777 291.500134 
L 138.182634 287.460045 
L 139.33549 283.425013 
L 140.488346 279.396715 
L 141.641203 275.376816 
L 142.794059 271.366976 
L 143.946916 267.368837 
L 145.099772 263.38403 
L 146.252628 259.414169 
L 147.405485 255.460849 
L 148.558341 251.525644 
L 149.711198 247.610108 
L 150.864054 243.71577 
L 152.01691 239.844133 
L 153.169767 235.996672 
L 154.322623 232.174836 
L 155.475479 228.380042 
L 156.628336 224.613673 
L 157.781192 220.877083 
L 158.934049 217.171589 
L 160.086905 213.498471 
L 161.239761 209.858977 
L 162.392618 206.254311 
L 163.545474 202.685644 
L 164.698331 199.154103 
L 165.851187 195.660776 
L 167.004043 192.206711 
L 168.1569 188.792913 
L 169.309756 185.420346 
L 170.462612 182.08993 
L 171.615469 178.802544 
L 172.768325 175.559022 
L 173.921182 172.360156 
L 175.074038 169.206695 
L 176.226894 166.099345 
L 177.379751 163.038769 
L 178.532607 160.025587 
L 179.685464 157.060376 
L 180.83832 154.143674 
L 181.991176 151.275976 
L 183.144033 148.457735 
L 184.296889 145.689367 
L 185.449746 142.971246 
L 186.602602 140.30371 
L 187.755458 137.687058 
L 188.908315 135.121553 
L 190.061171 132.607422 
L 191.214027 130.144858 
L 192.366884 127.734021 
L 193.51974 125.37504 
L 194.672597 123.068009 
L 195.825453 120.812998 
L 196.978309 118.610043 
L 198.131166 116.459159 
L 199.284022 114.36033 
L 200.436879 112.313518 
L 201.589735 110.318664 
L 202.742591 108.375684 
L 203.895448 106.484476 
L 205.048304 104.64492 
L 206.201161 102.856876 
L 207.354017 101.120192 
L 208.506873 99.434698 
L 209.65973 97.800214 
L 210.812586 96.216546 
L 211.965442 94.683492 
L 213.118299 93.20084 
L 214.271155 91.768369 
L 215.424012 90.385854 
L 216.576868 89.053065 
L 217.729724 87.769766 
L 218.882581 86.535721 
L 220.035437 85.350691 
L 221.188294 84.214436 
L 222.34115 83.126719 
L 223.494006 82.087304 
L 224.646863 81.095956 
L 225.799719 80.152447 
L 226.952576 79.25655 
L 228.105432 78.408048 
L 229.258288 77.606726 
L 230.411145 76.852378 
L 231.564001 76.144808 
L 232.716857 75.483824 
L 233.869714 74.869249 
L 235.02257 74.30091 
L 236.175427 73.778648 
L 237.328283 73.302314 
L 238.481139 72.871771 
L 239.633996 72.486893 
L 240.786852 72.147566 
L 241.939709 71.85369 
L 243.092565 71.605176 
L 244.245421 71.401949 
L 245.398278 71.243949 
L 246.551134 71.131125 
L 247.703991 71.063445 
L 248.856847 71.040888 
" style="fill:none;stroke:#238a8d;stroke-linecap:square;stroke-width:1.5;"/>
   </g>
   <g id="line2d_29">
    <path clip-path="url(#pe1bad1bcb7)" d="M 134.724064 299.588746 
L 135.876921 293.452331 
L 137.029777 287.321898 
L 138.182634 281.203424 
L 139.33549 275.102855 
L 140.488346 269.026098 
L 141.641203 262.979005 
L 142.794059 256.967362 
L 143.946916 250.996878 
L 145.099772 245.073167 
L 146.252628 239.201741 
L 147.405485 233.387993 
L 148.558341 227.637191 
L 149.711198 221.954459 
L 150.864054 216.344771 
L 152.01691 210.81294 
L 153.169767 205.363604 
L 154.322623 200.001219 
L 155.475479 194.730049 
L 156.628336 189.554156 
L 157.781192 184.477391 
L 158.934049 179.503388 
L 160.086905 174.635554 
L 161.239761 169.877065 
L 162.392618 165.230856 
L 163.545474 160.699618 
L 164.698331 156.285794 
L 165.851187 151.991571 
L 167.004043 147.818881 
L 168.1569 143.769392 
L 169.309756 139.844513 
L 170.462612 136.045386 
L 171.615469 132.372891 
L 172.768325 128.827641 
L 173.921182 125.409988 
L 175.074038 122.120018 
L 176.226894 118.957562 
L 177.379751 115.922192 
L 178.532607 113.013228 
L 179.685464 110.229743 
L 180.83832 107.570569 
L 181.991176 105.034303 
L 183.144033 102.619314 
L 184.296889 100.32375 
L 185.449746 98.14555 
L 186.602602 96.082451 
L 187.755458 94.132001 
L 188.908315 92.291565 
L 190.061171 90.558342 
L 191.214027 88.929374 
L 192.366884 87.401562 
L 193.51974 85.971677 
L 194.672597 84.636373 
L 195.825453 83.392204 
L 196.978309 82.235638 
L 198.131166 81.163072 
L 199.284022 80.170846 
L 200.436879 79.255258 
L 201.589735 78.412585 
L 202.742591 77.63909 
L 203.895448 76.931044 
L 205.048304 76.284736 
L 206.201161 75.696493 
L 207.354017 75.162688 
L 208.506873 74.679759 
L 209.65973 74.244221 
L 210.812586 73.852676 
L 211.965442 73.501825 
L 213.118299 73.18848 
L 214.271155 72.909574 
L 215.424012 72.662168 
L 216.576868 72.443459 
L 217.729724 72.250783 
L 218.882581 72.081628 
L 220.035437 71.933627 
L 221.188294 71.80457 
L 222.34115 71.692398 
L 223.494006 71.595208 
L 224.646863 71.511247 
L 225.799719 71.438915 
L 226.952576 71.376754 
L 228.105432 71.323452 
L 229.258288 71.277829 
L 230.411145 71.238838 
L 231.564001 71.205553 
L 232.716857 71.177161 
L 233.869714 71.152959 
L 235.02257 71.13234 
L 236.175427 71.114786 
L 237.328283 71.099862 
L 238.481139 71.087204 
L 239.633996 71.07651 
L 240.786852 71.067537 
L 241.939709 71.060089 
L 243.092565 71.054009 
L 244.245421 71.049178 
L 245.398278 71.045505 
L 246.551134 71.042926 
L 247.703991 71.041395 
L 248.856847 71.040888 
" style="fill:none;stroke:#238a8d;stroke-linecap:square;stroke-width:1.5;"/>
   </g>
   <g id="line2d_30">
    <path clip-path="url(#pe1bad1bcb7)" d="M 248.856847 71.040888 
L 250.853653 71.199181 
L 252.850459 71.673373 
L 254.847264 72.461387 
L 256.84407 73.559729 
L 258.840876 74.963436 
L 260.837682 76.666003 
L 262.834488 78.659297 
L 264.831294 80.933443 
L 266.828099 83.476702 
L 268.824905 86.275322 
L 270.821711 89.313383 
L 272.818517 92.572622 
L 274.815323 96.032249 
L 276.812129 99.66876 
L 278.808935 103.455741 
L 280.80574 107.363685 
L 282.802546 111.359825 
L 284.799352 115.407993 
L 286.796158 119.468546 
L 288.792964 123.498355 
L 290.78977 127.450924 
L 292.786575 131.276656 
L 294.783381 134.923331 
L 296.780187 138.336827 
L 298.776993 141.462148 
L 300.773799 144.244766 
L 302.770605 146.632273 
L 304.76741 148.576303 
L 306.764216 150.034585 
L 308.761022 150.972981 
L 310.757828 151.367282 
L 312.754634 151.204555 
L 314.75144 150.48385 
L 316.748245 149.216176 
L 318.745051 147.423745 
L 320.741857 145.138603 
L 322.738663 142.400819 
L 324.735469 139.256465 
L 326.732275 135.755596 
L 328.72908 131.950372 
L 330.725886 127.893464 
L 332.722692 123.636759 
L 334.719498 119.230399 
L 336.716304 114.722098 
L 338.71311 110.156723 
L 340.709916 105.576075 
L 342.706721 101.018814 
L 344.703527 96.520518 
L 346.700333 92.113809 
L 348.697139 91.038293 
L 350.693945 93.280799 
L 352.690751 95.621626 
L 354.687556 98.059771 
L 356.684362 100.594283 
L 358.681168 103.224281 
L 360.677974 105.948966 
L 362.67478 108.767639 
L 364.671586 111.679694 
L 366.668391 114.684628 
L 368.665197 117.782027 
L 370.662003 120.971557 
L 372.658809 124.252951 
L 374.655615 127.625983 
L 376.652421 131.090454 
L 378.649226 134.646162 
L 380.646032 138.292877 
L 382.642838 142.030317 
L 384.639644 145.858117 
L 386.63645 149.775807 
L 388.633256 153.782787 
L 390.630062 157.878303 
L 392.626867 162.061431 
L 394.623673 166.331057 
L 396.620479 170.685867 
L 398.617285 175.124336 
L 400.614091 179.644725 
L 402.610897 184.245074 
L 404.607702 188.923211 
L 406.604508 193.676748 
L 408.601314 198.503099 
L 410.59812 203.399482 
L 412.594926 208.362937 
L 414.591732 213.39034 
L 416.588537 218.478419 
L 418.585343 223.623768 
L 420.582149 228.822872 
L 422.578955 234.072115 
L 424.575761 239.367804 
L 426.572567 244.706179 
L 428.569372 250.083434 
L 430.566178 255.495722 
L 432.562984 260.939174 
L 434.55979 266.409901 
L 436.556596 271.904008 
L 438.553402 277.417593 
L 440.550207 282.946757 
L 442.547013 288.487601 
L 444.543819 294.03623 
L 446.540625 299.588755 
" style="fill:none;stroke:#238a8d;stroke-linecap:square;stroke-width:1.5;"/>
   </g>
   <g id="line2d_31">
    <path clip-path="url(#pe1bad1bcb7)" d="M 248.856847 71.040888 
L 250.853653 71.030147 
L 252.850459 70.99796 
L 254.847264 70.944439 
L 256.84407 70.869778 
L 258.840876 70.774275 
L 260.837682 70.658352 
L 262.834488 70.522581 
L 264.831294 70.367714 
L 266.828099 70.194719 
L 268.824905 70.004807 
L 270.821711 69.79947 
L 272.818517 69.580508 
L 274.815323 69.350056 
L 276.812129 69.110603 
L 278.808935 68.86501 
L 280.80574 68.616514 
L 282.802546 68.368732 
L 284.799352 68.125647 
L 286.796158 67.891594 
L 288.792964 67.671235 
L 290.78977 67.469523 
L 292.786575 67.291664 
L 294.783381 67.14307 
L 296.780187 67.029303 
L 298.776993 66.956028 
L 300.773799 66.928943 
L 302.770605 66.953729 
L 304.76741 67.035986 
L 306.764216 67.181174 
L 308.761022 67.394561 
L 310.757828 67.68117 
L 312.754634 68.045729 
L 314.75144 68.492637 
L 316.748245 69.025926 
L 318.745051 69.649232 
L 320.741857 70.36578 
L 322.738663 71.178371 
L 324.735469 72.089374 
L 326.732275 73.100734 
L 328.72908 74.213978 
L 330.725886 75.430237 
L 332.722692 76.750263 
L 334.719498 78.174463 
L 336.716304 79.702927 
L 338.71311 81.335468 
L 340.709916 83.07166 
L 342.706721 84.910876 
L 344.703527 86.852334 
L 346.700333 88.895132 
L 348.697139 91.038293 
L 350.693945 93.280799 
L 352.690751 95.621626 
L 354.687556 98.059771 
L 356.684362 100.594283 
L 358.681168 103.224281 
L 360.677974 105.948966 
L 362.67478 108.767639 
L 364.671586 111.679694 
L 366.668391 114.684628 
L 368.665197 117.782027 
L 370.662003 120.971557 
L 372.658809 124.252951 
L 374.655615 127.625983 
L 376.652421 131.090454 
L 378.649226 134.646162 
L 380.646032 138.292877 
L 382.642838 142.030317 
L 384.639644 145.858117 
L 386.63645 149.775807 
L 388.633256 153.782787 
L 390.630062 157.878303 
L 392.626867 162.061431 
L 394.623673 166.331057 
L 396.620479 170.685867 
L 398.617285 175.124336 
L 400.614091 179.644725 
L 402.610897 184.245074 
L 404.607702 188.923211 
L 406.604508 193.676748 
L 408.601314 198.503099 
L 410.59812 203.399482 
L 412.594926 208.362937 
L 414.591732 213.39034 
L 416.588537 218.478419 
L 418.585343 223.623768 
L 420.582149 228.822872 
L 422.578955 234.072115 
L 424.575761 239.367804 
L 426.572567 244.706179 
L 428.569372 250.083434 
L 430.566178 255.495722 
L 432.562984 260.939174 
L 434.55979 266.409901 
L 436.556596 271.904008 
L 438.553402 277.417593 
L 440.550207 282.946757 
L 442.547013 288.487601 
L 444.543819 294.03623 
L 446.540625 299.588753 
" style="fill:none;stroke:#238a8d;stroke-linecap:square;stroke-width:1.5;"/>
   </g>
   <g id="line2d_32">
    <path clip-path="url(#pe1bad1bcb7)" d="M 248.856847 71.040888 
L 250.853653 71.030147 
L 252.850459 70.99796 
L 254.847264 70.944439 
L 256.84407 70.869778 
L 258.840876 70.774275 
L 260.837682 70.658352 
L 262.834488 70.522581 
L 264.831294 70.367714 
L 266.828099 70.194719 
L 268.824905 70.004807 
L 270.821711 69.79947 
L 272.818517 69.580508 
L 274.815323 69.350056 
L 276.812129 69.110603 
L 278.808935 68.86501 
L 280.80574 68.616514 
L 282.802546 68.368732 
L 284.799352 68.125647 
L 286.796158 67.891594 
L 288.792964 67.671235 
L 290.78977 67.469523 
L 292.786575 67.291664 
L 294.783381 67.14307 
L 296.780187 67.029303 
L 298.776993 66.956028 
L 300.773799 66.928943 
L 302.770605 66.953729 
L 304.76741 67.035986 
L 306.764216 67.181174 
L 308.761022 67.394561 
L 310.757828 67.68117 
L 312.754634 68.045729 
L 314.75144 68.492637 
L 316.748245 69.025926 
L 318.745051 69.649232 
L 320.741857 70.36578 
L 322.738663 71.178371 
L 324.735469 72.089374 
L 326.732275 73.100734 
L 328.72908 74.213978 
L 330.725886 75.430237 
L 332.722692 76.750263 
L 334.719498 78.174463 
L 336.716304 79.702927 
L 338.71311 81.335468 
L 340.709916 83.07166 
L 342.706721 84.910876 
L 344.703527 86.852334 
L 346.700333 88.895132 
L 348.697139 87.828538 
L 350.693945 83.692002 
L 352.690751 79.729185 
L 354.687556 75.962995 
L 356.684362 72.41451 
L 358.681168 69.103208 
L 360.677974 66.047186 
L 362.67478 63.263366 
L 364.671586 60.767677 
L 366.668391 58.57522 
L 368.665197 56.700399 
L 370.662003 55.157047 
L 372.658809 53.958505 
L 374.655615 53.117691 
L 376.652421 52.647136 
L 378.649226 52.558995 
L 380.646032 52.865037 
L 382.642838 53.576608 
L 384.639644 54.704575 
L 386.63645 56.25925 
L 388.633256 58.250295 
L 390.630062 60.686615 
L 392.626867 63.576241 
L 394.623673 66.926198 
L 396.620479 70.742372 
L 398.617285 75.029377 
L 400.614091 79.790418 
L 402.610897 85.02716 
L 404.607702 90.739602 
L 406.604508 96.925962 
L 408.601314 103.582577 
L 410.59812 110.703807 
L 412.594926 118.281967 
L 414.591732 126.307266 
L 416.588537 134.767774 
L 418.585343 143.649402 
L 420.582149 152.935904 
L 422.578955 162.608905 
L 424.575761 172.647942 
L 426.572567 183.030531 
L 428.569372 193.732257 
L 430.566178 204.726873 
L 432.562984 215.986431 
L 434.55979 227.481421 
L 436.556596 239.180929 
L 438.553402 251.052811 
L 440.550207 263.063876 
L 442.547013 275.180083 
L 444.543819 287.366748 
L 446.540625 299.588746 
" style="fill:none;stroke:#238a8d;stroke-linecap:square;stroke-width:1.5;"/>
   </g>
   <g id="line2d_33">
    <path clip-path="url(#pe1bad1bcb7)" d="M 0 0 
" style="fill:none;stroke:#238a8d;stroke-linecap:square;stroke-width:1.5;"/>
   </g>
   <g id="line2d_34">
    <path clip-path="url(#pe1bad1bcb7)" d="M 54.02 174.628818 
L 54.835193 174.644502 
L 55.650385 174.691549 
L 56.465578 174.769947 
L 57.28077 174.879679 
L 58.095963 175.020716 
L 58.911155 175.193024 
L 59.726348 175.396561 
L 60.541541 175.631277 
L 61.356733 175.897114 
L 62.171926 176.194008 
L 62.987118 176.521885 
L 63.802311 176.880664 
L 64.617503 177.270258 
L 65.432696 177.690572 
L 66.247889 178.141501 
L 67.063081 178.622935 
L 67.878274 179.134756 
L 68.693466 179.676839 
L 69.508659 180.249049 
L 70.323851 180.851245 
L 71.139044 181.483281 
L 71.954237 182.145001 
L 72.769429 182.83624 
L 73.584622 183.55683 
L 74.399814 184.306593 
L 75.215007 185.085343 
L 76.030199 185.89289 
L 76.845392 186.729033 
L 77.660585 187.593567 
L 78.475777 188.486278 
L 79.29097 189.406946 
L 80.106162 190.355342 
L 80.921355 191.331233 
L 81.736547 192.334378 
L 82.55174 193.364528 
L 83.366933 194.421427 
L 84.182125 195.504815 
L 84.997318 196.614423 
L 85.81251 197.749975 
L 86.627703 198.911191 
L 87.442895 200.097781 
L 88.258088 201.309451 
L 89.073281 202.5459 
L 89.888473 203.806821 
L 90.703666 205.0919 
L 91.518858 206.400817 
L 92.334051 207.733246 
L 93.149243 209.088856 
L 93.964436 210.467308 
L 94.779629 211.868258 
L 95.594821 213.291358 
L 96.410014 214.73625 
L 97.225206 216.202576 
L 98.040399 217.689967 
L 98.855591 219.198052 
L 99.670784 220.726454 
L 100.485977 222.274789 
L 101.301169 223.842671 
L 102.116362 225.429705 
L 102.931554 227.035495 
L 103.746747 228.659636 
L 104.561939 230.301721 
L 105.377132 231.961339 
L 106.192324 233.63807 
L 107.007517 235.331495 
L 107.82271 237.041187 
L 108.637902 238.766716 
L 109.453095 240.507647 
L 110.268287 242.263541 
L 111.08348 244.033957 
L 111.898672 245.818447 
L 112.713865 247.616562 
L 113.529058 249.427848 
L 114.34425 251.251847 
L 115.159443 253.088099 
L 115.974635 254.936139 
L 116.789828 256.795501 
L 117.60502 258.665715 
L 118.420213 260.546307 
L 119.235406 262.436802 
L 120.050598 264.336721 
L 120.865791 266.245583 
L 121.680983 268.162904 
L 122.496176 270.0882 
L 123.311368 272.020981 
L 124.126561 273.960758 
L 124.941754 275.90704 
L 125.756946 277.859333 
L 126.572139 279.817141 
L 127.387331 281.779968 
L 128.202524 283.747316 
L 129.017716 285.718685 
L 129.832909 287.693576 
L 130.648102 289.671488 
L 131.463294 291.651917 
L 132.278487 293.634361 
L 133.093679 295.618317 
L 133.908872 297.603282 
L 134.724064 299.588756 
" style="fill:none;stroke:#dfe318;stroke-linecap:square;stroke-width:1.5;"/>
   </g>
   <g id="line2d_35">
    <path clip-path="url(#pe1bad1bcb7)" d="M 54.02 121.784492 
L 54.835193 121.805922 
L 55.650385 121.870207 
L 56.465578 121.977339 
L 57.28077 122.127302 
L 58.095963 122.320072 
L 58.911155 122.555622 
L 59.726348 122.833914 
L 60.541541 123.154907 
L 61.356733 123.518553 
L 62.171926 123.924796 
L 62.987118 124.373574 
L 63.802311 124.864817 
L 64.617503 125.39845 
L 65.432696 125.97439 
L 66.247889 126.592547 
L 67.063081 127.252822 
L 67.878274 127.955112 
L 68.693466 128.699305 
L 69.508659 129.48528 
L 70.323851 130.312911 
L 71.139044 131.182061 
L 71.954237 132.092588 
L 72.769429 133.044341 
L 73.584622 134.03716 
L 74.399814 135.070876 
L 75.215007 136.145313 
L 76.030199 137.260287 
L 76.845392 138.415602 
L 77.660585 139.611056 
L 78.475777 140.846436 
L 79.29097 142.121521 
L 80.106162 143.43608 
L 80.921355 144.789872 
L 81.736547 146.182647 
L 82.55174 147.614144 
L 83.366933 149.084093 
L 84.182125 150.592214 
L 84.997318 152.138215 
L 85.81251 153.721796 
L 86.627703 155.342645 
L 87.442895 157.000438 
L 88.258088 158.694844 
L 89.073281 160.425517 
L 89.888473 162.192103 
L 90.703666 163.994235 
L 91.518858 165.831536 
L 92.334051 167.703617 
L 93.149243 169.610079 
L 93.964436 171.550508 
L 94.779629 173.524484 
L 95.594821 175.531572 
L 96.410014 177.571325 
L 97.225206 179.643287 
L 98.040399 181.746989 
L 98.855591 183.88195 
L 99.670784 186.047679 
L 100.485977 188.243673 
L 101.301169 190.469416 
L 102.116362 192.724382 
L 102.931554 195.008035 
L 103.746747 197.319826 
L 104.561939 199.659194 
L 105.377132 202.025568 
L 106.192324 204.418367 
L 107.007517 206.836998 
L 107.82271 209.280857 
L 108.637902 211.74933 
L 109.453095 214.241793 
L 110.268287 216.757611 
L 111.08348 219.296138 
L 111.898672 221.856721 
L 112.713865 224.438695 
L 113.529058 227.041385 
L 114.34425 229.664109 
L 115.159443 232.306175 
L 115.974635 234.966882 
L 116.789828 237.645519 
L 117.60502 240.341371 
L 118.420213 243.053711 
L 119.235406 245.781805 
L 120.050598 248.524914 
L 120.865791 251.28229 
L 121.680983 254.053178 
L 122.496176 256.836817 
L 123.311368 259.632442 
L 124.126561 262.439278 
L 124.941754 265.256549 
L 125.756946 268.083472 
L 126.572139 270.919257 
L 127.387331 273.763115 
L 128.202524 276.614249 
L 129.017716 279.471858 
L 129.832909 282.335142 
L 130.648102 285.203294 
L 131.463294 288.075507 
L 132.278487 290.950971 
L 133.093679 293.828875 
L 133.908872 296.708406 
L 134.724064 299.588752 
" style="fill:none;stroke:#dfe318;stroke-linecap:square;stroke-width:1.5;"/>
   </g>
   <g id="line2d_36">
    <path clip-path="url(#pe1bad1bcb7)" d="M 54.02 30.734655 
L 54.835193 30.756931 
L 55.650385 30.823783 
L 56.465578 30.93528 
L 57.28077 31.09154 
L 58.095963 31.292728 
L 58.911155 31.539052 
L 59.726348 31.830767 
L 60.541541 32.16817 
L 61.356733 32.551602 
L 62.171926 32.981445 
L 62.987118 33.45812 
L 63.802311 33.982087 
L 64.617503 34.553841 
L 65.432696 35.173912 
L 66.247889 35.842863 
L 67.063081 36.561284 
L 67.878274 37.329797 
L 68.693466 38.149044 
L 69.508659 39.019694 
L 70.323851 39.942433 
L 71.139044 40.917965 
L 71.954237 41.94701 
L 72.769429 43.030296 
L 73.584622 44.168564 
L 74.399814 45.362558 
L 75.215007 46.613026 
L 76.030199 47.920715 
L 76.845392 49.286369 
L 77.660585 50.710726 
L 78.475777 52.194517 
L 79.29097 53.738459 
L 80.106162 55.343254 
L 80.921355 57.009588 
L 81.736547 58.738124 
L 82.55174 60.529505 
L 83.366933 62.384345 
L 84.182125 64.303231 
L 84.997318 66.286719 
L 85.81251 68.33533 
L 86.627703 70.449551 
L 87.442895 72.629828 
L 88.258088 74.876569 
L 89.073281 77.190137 
L 89.888473 79.570851 
L 90.703666 82.018985 
L 91.518858 84.534761 
L 92.334051 87.118353 
L 93.149243 89.769884 
L 93.964436 92.489421 
L 94.779629 95.276978 
L 95.594821 98.132512 
L 96.410014 101.055925 
L 97.225206 104.047058 
L 98.040399 107.105693 
L 98.855591 110.231555 
L 99.670784 113.424306 
L 100.485977 116.683547 
L 101.301169 120.008817 
L 102.116362 123.399595 
L 102.931554 126.855296 
L 103.746747 130.375273 
L 104.561939 133.958818 
L 105.377132 137.605158 
L 106.192324 141.313461 
L 107.007517 145.082833 
L 107.82271 148.912316 
L 108.637902 152.800894 
L 109.453095 156.747492 
L 110.268287 160.750972 
L 111.08348 164.81014 
L 111.898672 168.923744 
L 112.713865 173.090476 
L 113.529058 177.308973 
L 114.34425 181.577814 
L 115.159443 185.895531 
L 115.974635 190.260599 
L 116.789828 194.671447 
L 117.60502 199.126453 
L 118.420213 203.623948 
L 119.235406 208.162218 
L 120.050598 212.739507 
L 120.865791 217.354014 
L 121.680983 222.0039 
L 122.496176 226.687287 
L 123.311368 231.402262 
L 124.126561 236.146876 
L 124.941754 240.91915 
L 125.756946 245.717073 
L 126.572139 250.538607 
L 127.387331 255.381689 
L 128.202524 260.244231 
L 129.017716 265.124126 
L 129.832909 270.019245 
L 130.648102 274.927444 
L 131.463294 279.846567 
L 132.278487 284.774442 
L 133.093679 289.708889 
L 133.908872 294.647723 
L 134.724064 299.588751 
" style="fill:none;stroke:#dfe318;stroke-linecap:square;stroke-width:1.5;"/>
   </g>
   <g id="line2d_37">
    <path clip-path="url(#pe1bad1bcb7)" d="M 134.724064 299.588756 
L 135.876921 295.515403 
L 137.029777 291.443657 
L 138.182634 287.375113 
L 139.33549 283.311367 
L 140.488346 279.254012 
L 141.641203 275.204638 
L 142.794059 271.164825 
L 143.946916 267.136145 
L 145.099772 263.120164 
L 146.252628 259.118435 
L 147.405485 255.132498 
L 148.558341 251.163882 
L 149.711198 247.214101 
L 150.864054 243.284651 
L 152.01691 239.377014 
L 153.169767 235.492651 
L 154.322623 231.633004 
L 155.475479 227.799495 
L 156.628336 223.993523 
L 157.781192 220.216464 
L 158.934049 216.469667 
L 160.086905 212.754459 
L 161.239761 209.072137 
L 162.392618 205.423971 
L 163.545474 201.811201 
L 164.698331 198.235037 
L 165.851187 194.696658 
L 167.004043 191.197209 
L 168.1569 187.737803 
L 169.309756 184.319518 
L 170.462612 180.943395 
L 171.615469 177.61044 
L 172.768325 174.321622 
L 173.921182 171.07787 
L 175.074038 167.880077 
L 176.226894 164.729094 
L 177.379751 161.625733 
L 178.532607 158.570764 
L 179.685464 155.564917 
L 180.83832 152.608879 
L 181.991176 149.703296 
L 183.144033 146.848769 
L 184.296889 144.045859 
L 185.449746 141.295082 
L 186.602602 138.59691 
L 187.755458 135.951775 
L 188.908315 133.360063 
L 190.061171 130.822117 
L 191.214027 128.338238 
L 192.366884 125.908684 
L 193.51974 123.533671 
L 194.672597 121.213372 
L 195.825453 118.947921 
L 196.978309 116.73741 
L 198.131166 114.581891 
L 199.284022 112.481378 
L 200.436879 110.435846 
L 201.589735 108.445234 
L 202.742591 106.509444 
L 203.895448 104.628345 
L 205.048304 102.801771 
L 206.201161 101.029525 
L 207.354017 99.31138 
L 208.506873 97.64708 
L 209.65973 96.03634 
L 210.812586 94.478852 
L 211.965442 92.974282 
L 213.118299 91.522277 
L 214.271155 90.122462 
L 215.424012 88.774445 
L 216.576868 87.477817 
L 217.729724 86.232156 
L 218.882581 85.03703 
L 220.035437 83.891994 
L 221.188294 82.7966 
L 222.34115 81.750391 
L 223.494006 80.752909 
L 224.646863 79.803696 
L 225.799719 78.902294 
L 226.952576 78.048251 
L 228.105432 77.241117 
L 229.258288 76.480456 
L 230.411145 75.765836 
L 231.564001 75.096841 
L 232.716857 74.473069 
L 233.869714 73.894132 
L 235.02257 73.359663 
L 236.175427 72.869313 
L 237.328283 72.422753 
L 238.481139 72.01968 
L 239.633996 71.659814 
L 240.786852 71.3429 
L 241.939709 71.068711 
L 243.092565 70.837048 
L 244.245421 70.647741 
L 245.398278 70.500649 
L 246.551134 70.395662 
L 247.703991 70.332701 
L 248.856847 70.31172 
" style="fill:none;stroke:#dfe318;stroke-linecap:square;stroke-width:1.5;"/>
   </g>
   <g id="line2d_38">
    <path clip-path="url(#pe1bad1bcb7)" d="M 134.724064 299.588752 
L 135.876921 295.515403 
L 137.029777 291.443657 
L 138.182634 287.375113 
L 139.33549 283.311367 
L 140.488346 279.254012 
L 141.641203 275.204638 
L 142.794059 271.164825 
L 143.946916 267.136145 
L 145.099772 263.120164 
L 146.252628 259.118435 
L 147.405485 255.132498 
L 148.558341 251.163882 
L 149.711198 247.214101 
L 150.864054 243.284651 
L 152.01691 239.377014 
L 153.169767 235.492651 
L 154.322623 231.633004 
L 155.475479 227.799495 
L 156.628336 223.993523 
L 157.781192 220.216464 
L 158.934049 216.469667 
L 160.086905 212.754459 
L 161.239761 209.072137 
L 162.392618 205.423971 
L 163.545474 201.811201 
L 164.698331 198.235037 
L 165.851187 194.696658 
L 167.004043 191.197209 
L 168.1569 187.737803 
L 169.309756 184.319518 
L 170.462612 180.943395 
L 171.615469 177.61044 
L 172.768325 174.321622 
L 173.921182 171.07787 
L 175.074038 167.880077 
L 176.226894 164.729094 
L 177.379751 161.625733 
L 178.532607 158.570764 
L 179.685464 155.564917 
L 180.83832 152.608879 
L 181.991176 149.703296 
L 183.144033 146.848769 
L 184.296889 144.045859 
L 185.449746 141.295082 
L 186.602602 138.59691 
L 187.755458 135.951775 
L 188.908315 133.360063 
L 190.061171 130.822117 
L 191.214027 128.338238 
L 192.366884 125.908684 
L 193.51974 123.533671 
L 194.672597 121.213372 
L 195.825453 118.947921 
L 196.978309 116.73741 
L 198.131166 114.581891 
L 199.284022 112.481378 
L 200.436879 110.435846 
L 201.589735 108.445234 
L 202.742591 106.509444 
L 203.895448 104.628345 
L 205.048304 102.801771 
L 206.201161 101.029525 
L 207.354017 99.31138 
L 208.506873 97.64708 
L 209.65973 96.03634 
L 210.812586 94.478852 
L 211.965442 92.974282 
L 213.118299 91.522277 
L 214.271155 90.122462 
L 215.424012 88.774445 
L 216.576868 87.477817 
L 217.729724 86.232156 
L 218.882581 85.03703 
L 220.035437 83.891994 
L 221.188294 82.7966 
L 222.34115 81.750391 
L 223.494006 80.752909 
L 224.646863 79.803696 
L 225.799719 78.902294 
L 226.952576 78.048251 
L 228.105432 77.241117 
L 229.258288 76.480456 
L 230.411145 75.765836 
L 231.564001 75.096841 
L 232.716857 74.473069 
L 233.869714 73.894132 
L 235.02257 73.359663 
L 236.175427 72.869313 
L 237.328283 72.422753 
L 238.481139 72.01968 
L 239.633996 71.659814 
L 240.786852 71.3429 
L 241.939709 71.068711 
L 243.092565 70.837048 
L 244.245421 70.647741 
L 245.398278 70.500649 
L 246.551134 70.395662 
L 247.703991 70.332701 
L 248.856847 70.31172 
" style="fill:none;stroke:#dfe318;stroke-linecap:square;stroke-width:1.5;"/>
   </g>
   <g id="line2d_39">
    <path clip-path="url(#pe1bad1bcb7)" d="M 134.724064 299.588751 
L 135.876921 293.255366 
L 137.029777 286.928369 
L 138.182634 280.614131 
L 139.33549 274.318995 
L 140.488346 268.049263 
L 141.641203 261.811176 
L 142.794059 255.610907 
L 143.946916 249.454543 
L 145.099772 243.348069 
L 146.252628 237.297363 
L 147.405485 231.308172 
L 148.558341 225.386109 
L 149.711198 219.536633 
L 150.864054 213.76504 
L 152.01691 208.076453 
L 153.169767 202.475806 
L 154.322623 196.96784 
L 155.475479 191.557084 
L 156.628336 186.247851 
L 157.781192 181.044229 
L 158.934049 175.950069 
L 160.086905 170.968979 
L 161.239761 166.104315 
L 162.392618 161.359177 
L 163.545474 156.736399 
L 164.698331 152.238546 
L 165.851187 147.86791 
L 167.004043 143.626502 
L 168.1569 139.516055 
L 169.309756 135.538016 
L 170.462612 131.693547 
L 171.615469 127.983522 
L 172.768325 124.408531 
L 173.921182 120.968877 
L 175.074038 117.664581 
L 176.226894 114.49538 
L 177.379751 111.460735 
L 178.532607 108.559833 
L 179.685464 105.791595 
L 180.83832 103.154675 
L 181.991176 100.647478 
L 183.144033 98.268157 
L 184.296889 96.014628 
L 185.449746 93.88458 
L 186.602602 91.875481 
L 187.755458 89.984594 
L 188.908315 88.208984 
L 190.061171 86.545538 
L 191.214027 84.990969 
L 192.366884 83.54184 
L 193.51974 82.194571 
L 194.672597 80.945461 
L 195.825453 79.790696 
L 196.978309 78.726375 
L 198.131166 77.748517 
L 199.284022 76.853086 
L 200.436879 76.036003 
L 201.589735 75.293165 
L 202.742591 74.620463 
L 203.895448 74.013799 
L 205.048304 73.4691 
L 206.201161 72.982338 
L 207.354017 72.549545 
L 208.506873 72.166829 
L 209.65973 71.830387 
L 210.812586 71.536518 
L 211.965442 71.281642 
L 213.118299 71.062305 
L 214.271155 70.875192 
L 215.424012 70.717138 
L 216.576868 70.585135 
L 217.729724 70.476339 
L 218.882581 70.388075 
L 220.035437 70.317839 
L 221.188294 70.263306 
L 222.34115 70.222324 
L 223.494006 70.192917 
L 224.646863 70.173284 
L 225.799719 70.161792 
L 226.952576 70.156973 
L 228.105432 70.15752 
L 229.258288 70.162275 
L 230.411145 70.170228 
L 231.564001 70.1805 
L 232.716857 70.192339 
L 233.869714 70.205109 
L 235.02257 70.218278 
L 236.175427 70.231408 
L 237.328283 70.244145 
L 238.481139 70.256207 
L 239.633996 70.267375 
L 240.786852 70.277483 
L 241.939709 70.286408 
L 243.092565 70.29406 
L 244.245421 70.30038 
L 245.398278 70.305327 
L 246.551134 70.308874 
L 247.703991 70.311008 
L 248.856847 70.31172 
" style="fill:none;stroke:#dfe318;stroke-linecap:square;stroke-width:1.5;"/>
   </g>
   <g id="line2d_40">
    <path clip-path="url(#pe1bad1bcb7)" d="M 248.856847 70.31172 
L 250.853653 70.459646 
L 252.850459 70.902853 
L 254.847264 71.639615 
L 256.84407 72.667008 
L 258.840876 73.980844 
L 260.837682 75.575581 
L 262.834488 77.444202 
L 264.831294 79.578078 
L 266.828099 81.966805 
L 268.824905 84.598027 
L 270.821711 87.457239 
L 272.818517 90.527582 
L 274.815323 93.789628 
L 276.812129 97.221163 
L 278.808935 100.796973 
L 280.80574 104.488654 
L 282.802546 108.264438 
L 284.799352 112.089075 
L 286.796158 115.923772 
L 288.792964 119.726243 
L 290.78977 123.450867 
L 292.786575 127.04904 
L 294.783381 130.469717 
L 296.780187 133.660221 
L 298.776993 136.567331 
L 300.773799 139.138664 
L 302.770605 141.324331 
L 304.76741 143.078796 
L 306.764216 144.362823 
L 308.761022 145.14535 
L 310.757828 145.405083 
L 312.754634 145.131644 
L 314.75144 144.326111 
L 316.748245 143.000877 
L 318.745051 141.178858 
L 320.741857 138.892159 
L 322.738663 136.18035 
L 324.735469 133.088571 
L 326.732275 129.665623 
L 328.72908 125.962213 
L 330.725886 122.02943 
L 332.722692 117.917503 
L 334.719498 113.674864 
L 336.716304 109.347468 
L 338.71311 104.978359 
L 340.709916 100.607437 
L 342.706721 96.271368 
L 344.703527 92.003624 
L 346.700333 87.834608 
L 348.697139 86.820807 
L 350.693945 88.954962 
L 352.690751 91.201389 
L 354.687556 93.559936 
L 356.684362 96.030295 
L 358.681168 98.612009 
L 360.677974 101.304489 
L 362.67478 104.107025 
L 364.671586 107.018796 
L 366.668391 110.038882 
L 368.665197 113.166273 
L 370.662003 116.399878 
L 372.658809 119.738527 
L 374.655615 123.180984 
L 376.652421 126.725943 
L 378.649226 130.372036 
L 380.646032 134.117834 
L 382.642838 137.961842 
L 384.639644 141.902505 
L 386.63645 145.938203 
L 388.633256 150.067248 
L 390.630062 154.287879 
L 392.626867 158.598265 
L 394.623673 162.996491 
L 396.620479 167.480561 
L 398.617285 172.048391 
L 400.614091 176.697804 
L 402.610897 181.426526 
L 404.607702 186.232182 
L 406.604508 191.112293 
L 408.601314 196.064273 
L 410.59812 201.085427 
L 412.594926 206.172948 
L 414.591732 211.323919 
L 416.588537 216.53531 
L 418.585343 221.803981 
L 420.582149 227.126683 
L 422.578955 232.500061 
L 424.575761 237.920657 
L 426.572567 243.384916 
L 428.569372 248.889188 
L 430.566178 254.429738 
L 432.562984 260.002747 
L 434.55979 265.604326 
L 436.556596 271.23052 
L 438.553402 276.877314 
L 440.550207 282.540649 
L 442.547013 288.216423 
L 444.543819 293.900506 
L 446.540625 299.588756 
" style="fill:none;stroke:#dfe318;stroke-linecap:square;stroke-width:1.5;"/>
   </g>
   <g id="line2d_41">
    <path clip-path="url(#pe1bad1bcb7)" d="M 248.856847 70.31172 
L 250.853653 70.299613 
L 252.850459 70.263375 
L 254.847264 70.203265 
L 256.84407 70.11971 
L 258.840876 70.013321 
L 260.837682 69.884889 
L 262.834488 69.735399 
L 264.831294 69.566038 
L 266.828099 69.3782 
L 268.824905 69.173495 
L 270.821711 68.953763 
L 272.818517 68.721073 
L 274.815323 68.477735 
L 276.812129 68.2263 
L 278.808935 67.969564 
L 280.80574 67.710564 
L 282.802546 67.452577 
L 284.799352 67.199112 
L 286.796158 66.953899 
L 288.792964 66.720874 
L 290.78977 66.504166 
L 292.786575 66.308078 
L 294.783381 66.137058 
L 296.780187 65.995684 
L 298.776993 65.88863 
L 300.773799 65.820641 
L 302.770605 65.796504 
L 304.76741 65.821017 
L 306.764216 65.898959 
L 308.761022 66.035059 
L 310.757828 66.23397 
L 312.754634 66.500235 
L 314.75144 66.838265 
L 316.748245 67.252315 
L 318.745051 67.746454 
L 320.741857 68.324554 
L 322.738663 68.990265 
L 324.735469 69.747004 
L 326.732275 70.597939 
L 328.72908 71.545987 
L 330.725886 72.593797 
L 332.722692 73.743757 
L 334.719498 74.997984 
L 336.716304 76.358334 
L 338.71311 77.826397 
L 340.709916 79.403513 
L 342.706721 81.09077 
L 344.703527 82.889023 
L 346.700333 84.798898 
L 348.697139 86.820807 
L 350.693945 88.954962 
L 352.690751 91.201389 
L 354.687556 93.559936 
L 356.684362 96.030295 
L 358.681168 98.612009 
L 360.677974 101.304489 
L 362.67478 104.107025 
L 364.671586 107.018796 
L 366.668391 110.038882 
L 368.665197 113.166273 
L 370.662003 116.399878 
L 372.658809 119.738527 
L 374.655615 123.180984 
L 376.652421 126.725943 
L 378.649226 130.372036 
L 380.646032 134.117834 
L 382.642838 137.961842 
L 384.639644 141.902505 
L 386.63645 145.938203 
L 388.633256 150.067248 
L 390.630062 154.287879 
L 392.626867 158.598265 
L 394.623673 162.996491 
L 396.620479 167.480561 
L 398.617285 172.048391 
L 400.614091 176.697804 
L 402.610897 181.426526 
L 404.607702 186.232182 
L 406.604508 191.112293 
L 408.601314 196.064273 
L 410.59812 201.085427 
L 412.594926 206.172948 
L 414.591732 211.323919 
L 416.588537 216.53531 
L 418.585343 221.803981 
L 420.582149 227.126683 
L 422.578955 232.500061 
L 424.575761 237.920657 
L 426.572567 243.384916 
L 428.569372 248.889188 
L 430.566178 254.429738 
L 432.562984 260.002747 
L 434.55979 265.604326 
L 436.556596 271.23052 
L 438.553402 276.877314 
L 440.550207 282.540649 
L 442.547013 288.216423 
L 444.543819 293.900506 
L 446.540625 299.588752 
" style="fill:none;stroke:#dfe318;stroke-linecap:square;stroke-width:1.5;"/>
   </g>
   <g id="line2d_42">
    <path clip-path="url(#pe1bad1bcb7)" d="M 248.856847 70.31172 
L 250.853653 70.299613 
L 252.850459 70.263375 
L 254.847264 70.203265 
L 256.84407 70.11971 
L 258.840876 70.013321 
L 260.837682 69.884889 
L 262.834488 69.735399 
L 264.831294 69.566038 
L 266.828099 69.3782 
L 268.824905 69.173495 
L 270.821711 68.953763 
L 272.818517 68.721073 
L 274.815323 68.477735 
L 276.812129 68.2263 
L 278.808935 67.969564 
L 280.80574 67.710564 
L 282.802546 67.452577 
L 284.799352 67.199112 
L 286.796158 66.953899 
L 288.792964 66.720874 
L 290.78977 66.504166 
L 292.786575 66.308078 
L 294.783381 66.137058 
L 296.780187 65.995684 
L 298.776993 65.88863 
L 300.773799 65.820641 
L 302.770605 65.796504 
L 304.76741 65.821017 
L 306.764216 65.898959 
L 308.761022 66.035059 
L 310.757828 66.23397 
L 312.754634 66.500235 
L 314.75144 66.838265 
L 316.748245 67.252315 
L 318.745051 67.746454 
L 320.741857 68.324554 
L 322.738663 68.990265 
L 324.735469 69.747004 
L 326.732275 70.597939 
L 328.72908 71.545987 
L 330.725886 72.593797 
L 332.722692 73.743757 
L 334.719498 74.997984 
L 336.716304 76.358334 
L 338.71311 77.826397 
L 340.709916 79.403513 
L 342.706721 81.09077 
L 344.703527 82.889023 
L 346.700333 84.798898 
L 348.697139 83.791842 
L 350.693945 79.900196 
L 352.690751 76.182147 
L 354.687556 72.658052 
L 356.684362 69.346422 
L 358.681168 66.264202 
L 360.677974 63.427032 
L 362.67478 60.849502 
L 364.671586 58.545381 
L 366.668391 56.527828 
L 368.665197 54.809575 
L 370.662003 53.40308 
L 372.658809 52.320651 
L 374.655615 51.574533 
L 376.652421 51.176968 
L 378.649226 51.140212 
L 380.646032 51.476531 
L 382.642838 52.19815 
L 384.639644 53.317185 
L 386.63645 54.845543 
L 388.633256 56.794793 
L 390.630062 59.176021 
L 392.626867 61.99967 
L 394.623673 65.275361 
L 396.620479 69.011711 
L 398.617285 73.216141 
L 400.614091 77.894696 
L 402.610897 83.05185 
L 404.607702 88.690342 
L 406.604508 94.811003 
L 408.601314 101.412614 
L 410.59812 108.491774 
L 412.594926 116.042787 
L 414.591732 124.057579 
L 416.588537 132.525636 
L 418.585343 141.433962 
L 420.582149 150.767071 
L 422.578955 160.507004 
L 424.575761 170.633369 
L 426.572567 181.123413 
L 428.569372 191.952111 
L 430.566178 203.092292 
L 432.562984 214.514778 
L 434.55979 226.188547 
L 436.556596 238.080921 
L 438.553402 250.157764 
L 440.550207 262.383705 
L 442.547013 274.722365 
L 444.543819 287.136599 
L 446.540625 299.588751 
" style="fill:none;stroke:#dfe318;stroke-linecap:square;stroke-width:1.5;"/>
   </g>
   <g id="line2d_43">
    <path clip-path="url(#pe1bad1bcb7)" d="M 0 0 
" style="fill:none;stroke:#dfe318;stroke-linecap:square;stroke-width:1.5;"/>
   </g>
   <g id="line2d_44">
    <path clip-path="url(#pe1bad1bcb7)" d="M 54.02 299.58875 
L 54.02 14.76 
" style="fill:none;stroke:#000000;stroke-linecap:square;stroke-width:0.6;"/>
   </g>
   <g id="line2d_45">
    <path clip-path="url(#pe1bad1bcb7)" d="M 134.724064 299.58875 
L 134.724064 14.76 
" style="fill:none;stroke:#000000;stroke-linecap:square;stroke-width:0.6;"/>
   </g>
   <g id="line2d_46">
    <path clip-path="url(#pe1bad1bcb7)" d="M 248.856847 299.58875 
L 248.856847 14.76 
" style="fill:none;stroke:#000000;stroke-linecap:square;stroke-width:0.6;"/>
   </g>
   <g id="line2d_47">
    <path clip-path="url(#pe1bad1bcb7)" d="M 446.540625 299.58875 
L 446.540625 14.76 
" style="fill:none;stroke:#000000;stroke-linecap:square;stroke-width:0.6;"/>
   </g>
   <g id="line2d_48">
    <path clip-path="url(#pe1bad1bcb7)" d="M 54.02 299.58875 
L 446.540625 299.58875 
" style="fill:none;stroke:#000000;stroke-linecap:square;"/>
   </g>
   <g id="patch_3">
    <path d="M 54.02 299.58875 
L 54.02 14.76 
" style="fill:none;stroke:#000000;stroke-linecap:square;stroke-linejoin:miter;stroke-width:0.8;"/>
   </g>
   <g id="patch_4">
    <path d="M 446.540625 299.58875 
L 446.540625 14.76 
" style="fill:none;stroke:#000000;stroke-linecap:square;stroke-linejoin:miter;stroke-width:0.8;"/>
   </g>
   <g id="patch_5">
    <path d="M 54.02 299.58875 
L 446.540625 299.58875 
" style="fill:none;stroke:#000000;stroke-linecap:square;stroke-linejoin:miter;stroke-width:0.8;"/>
   </g>
   <g id="patch_6">
    <path d="M 54.02 14.76 
L 446.540625 14.76 
" style="fill:none;stroke:#000000;stroke-linecap:square;stroke-linejoin:miter;stroke-width:0.8;"/>
   </g>
   <g id="legend_1">
    <g id="patch_7">
     <path d="M 218.276406 294.58875 
L 282.284219 294.58875 
Q 284.284219 294.58875 284.284219 292.58875 
L 284.284219 249.554375 
Q 284.284219 247.554375 282.284219 247.554375 
L 218.276406 247.554375 
Q 216.276406 247.554375 216.276406 249.554375 
L 216.276406 292.58875 
Q 216.276406 294.58875 218.276406 294.58875 
z
" style="fill:#ffffff;opacity:0.8;stroke:#cccccc;stroke-linejoin:miter;"/>
    </g>
    <g id="line2d_49">
     <path d="M 220.276406 255.652812 
L 240.276406 255.652812 
" style="fill:none;stroke:#440154;stroke-linecap:square;stroke-width:1.5;"/>
    </g>
    <g id="line2d_50"/>
    <g id="text_16">
     <!-- 2000K -->
     <defs>
      <path d="M 9.8125 72.90625 
L 19.671875 72.90625 
L 19.671875 42.09375 
L 52.390625 72.90625 
L 65.09375 72.90625 
L 28.90625 38.921875 
L 67.671875 0 
L 54.6875 0 
L 19.671875 35.109375 
L 19.671875 0 
L 9.8125 0 
z
" id="DejaVuSans-4b"/>
     </defs>
     <g transform="translate(248.276406 259.152812)scale(0.1 -0.1)">
      <use xlink:href="#DejaVuSans-32"/>
      <use x="63.623047" xlink:href="#DejaVuSans-30"/>
      <use x="127.246094" xlink:href="#DejaVuSans-30"/>
      <use x="190.869141" xlink:href="#DejaVuSans-30"/>
      <use x="254.492188" xlink:href="#DejaVuSans-4b"/>
     </g>
    </g>
    <g id="line2d_51">
     <path d="M 220.276406 270.330938 
L 240.276406 270.330938 
" style="fill:none;stroke:#238a8d;stroke-linecap:square;stroke-width:1.5;"/>
    </g>
    <g id="line2d_52"/>
    <g id="text_17">
     <!-- 1000K -->
     <g transform="translate(248.276406 273.830938)scale(0.1 -0.1)">
      <use xlink:href="#DejaVuSans-31"/>
      <use x="63.623047" xlink:href="#DejaVuSans-30"/>
      <use x="127.246094" xlink:href="#DejaVuSans-30"/>
      <use x="190.869141" xlink:href="#DejaVuSans-30"/>
      <use x="254.492188" xlink:href="#DejaVuSans-4b"/>
     </g>
    </g>
    <g id="line2d_53">
     <path d="M 220.276406 285.009062 
L 240.276406 285.009062 
" style="fill:none;stroke:#dfe318;stroke-linecap:square;stroke-width:1.5;"/>
    </g>
    <g id="line2d_54"/>
    <g id="text_18">
     <!-- 300K -->
     <defs>
      <path d="M 40.578125 39.3125 
Q 47.65625 37.796875 51.625 33 
Q 55.609375 28.21875 55.609375 21.1875 
Q 55.609375 10.40625 48.1875 4.484375 
Q 40.765625 -1.421875 27.09375 -1.421875 
Q 22.515625 -1.421875 17.65625 -0.515625 
Q 12.796875 0.390625 7.625 2.203125 
L 7.625 11.71875 
Q 11.71875 9.328125 16.59375 8.109375 
Q 21.484375 6.890625 26.8125 6.890625 
Q 36.078125 6.890625 40.9375 10.546875 
Q 45.796875 14.203125 45.796875 21.1875 
Q 45.796875 27.640625 41.28125 31.265625 
Q 36.765625 34.90625 28.71875 34.90625 
L 20.21875 34.90625 
L 20.21875 43.015625 
L 29.109375 43.015625 
Q 36.375 43.015625 40.234375 45.921875 
Q 44.09375 48.828125 44.09375 54.296875 
Q 44.09375 59.90625 40.109375 62.90625 
Q 36.140625 65.921875 28.71875 65.921875 
Q 24.65625 65.921875 20.015625 65.03125 
Q 15.375 64.15625 9.8125 62.3125 
L 9.8125 71.09375 
Q 15.4375 72.65625 20.34375 73.4375 
Q 25.25 74.21875 29.59375 74.21875 
Q 40.828125 74.21875 47.359375 69.109375 
Q 53.90625 64.015625 53.90625 55.328125 
Q 53.90625 49.265625 50.4375 45.09375 
Q 46.96875 40.921875 40.578125 39.3125 
z
" id="DejaVuSans-33"/>
     </defs>
     <g transform="translate(248.276406 288.509062)scale(0.1 -0.1)">
      <use xlink:href="#DejaVuSans-33"/>
      <use x="63.623047" xlink:href="#DejaVuSans-30"/>
      <use x="127.246094" xlink:href="#DejaVuSans-30"/>
      <use x="190.869141" xlink:href="#DejaVuSans-4b"/>
     </g>
    </g>
   </g>
  </g>
 </g>
 <defs>
  <clipPath id="pe1bad1bcb7">
   <rect height="284.82875" width="392.520625" x="54.02" y="14.76"/>
  </clipPath>
 </defs>
</svg>
