<?xml version="1.0" encoding="utf-8" standalone="no"?>
<!DOCTYPE svg PUBLIC "-//W3C//DTD SVG 1.1//EN"
  "http://www.w3.org/Graphics/SVG/1.1/DTD/svg11.dtd">
<!-- Created with matplotlib (http://matplotlib.org/) -->
<svg height="252pt" version="1.1" viewBox="0 0 576 252" width="576pt" xmlns="http://www.w3.org/2000/svg" xmlns:xlink="http://www.w3.org/1999/xlink">
 <defs>
  <style type="text/css">
*{stroke-linecap:butt;stroke-linejoin:round;}
  </style>
 </defs>
 <g id="figure_1">
  <g id="patch_1">
   <path d="M 0 252 
L 576 252 
L 576 0 
L 0 0 
z
" style="fill:#ffffff;"/>
  </g>
  <g id="axes_1">
   <g id="patch_2">
    <path d="M 62.39 210.04 
L 277.965 210.04 
L 277.965 13.32 
L 62.39 13.32 
z
" style="fill:#ffffff;"/>
   </g>
   <g id="matplotlib.axis_1">
    <g id="xtick_1">
     <g id="line2d_1">
      <defs>
       <path d="M 0 0 
L 0 3.5 
" id="m37d6fb221a" style="stroke:#000000;stroke-width:0.8;"/>
      </defs>
      <g>
       <use style="stroke:#000000;stroke-width:0.8;" x="62.39" xlink:href="#m37d6fb221a" y="210.04"/>
      </g>
     </g>
     <g id="text_1">
      <!-- 0 -->
      <defs>
       <path d="M 31.78125 66.40625 
Q 24.171875 66.40625 20.328125 58.90625 
Q 16.5 51.421875 16.5 36.375 
Q 16.5 21.390625 20.328125 13.890625 
Q 24.171875 6.390625 31.78125 6.390625 
Q 39.453125 6.390625 43.28125 13.890625 
Q 47.125 21.390625 47.125 36.375 
Q 47.125 51.421875 43.28125 58.90625 
Q 39.453125 66.40625 31.78125 66.40625 
z
M 31.78125 74.21875 
Q 44.046875 74.21875 50.515625 64.515625 
Q 56.984375 54.828125 56.984375 36.375 
Q 56.984375 17.96875 50.515625 8.265625 
Q 44.046875 -1.421875 31.78125 -1.421875 
Q 19.53125 -1.421875 13.0625 8.265625 
Q 6.59375 17.96875 6.59375 36.375 
Q 6.59375 54.828125 13.0625 64.515625 
Q 19.53125 74.21875 31.78125 74.21875 
z
" id="DejaVuSans-30"/>
      </defs>
      <g transform="translate(59.20875 224.638438)scale(0.1 -0.1)">
       <use xlink:href="#DejaVuSans-30"/>
      </g>
     </g>
    </g>
    <g id="xtick_2">
     <g id="line2d_2">
      <g>
       <use style="stroke:#000000;stroke-width:0.8;" x="104.659608" xlink:href="#m37d6fb221a" y="210.04"/>
      </g>
     </g>
     <g id="text_2">
      <!-- 10 -->
      <defs>
       <path d="M 12.40625 8.296875 
L 28.515625 8.296875 
L 28.515625 63.921875 
L 10.984375 60.40625 
L 10.984375 69.390625 
L 28.421875 72.90625 
L 38.28125 72.90625 
L 38.28125 8.296875 
L 54.390625 8.296875 
L 54.390625 0 
L 12.40625 0 
z
" id="DejaVuSans-31"/>
      </defs>
      <g transform="translate(98.297108 224.638438)scale(0.1 -0.1)">
       <use xlink:href="#DejaVuSans-31"/>
       <use x="63.623047" xlink:href="#DejaVuSans-30"/>
      </g>
     </g>
    </g>
    <g id="xtick_3">
     <g id="line2d_3">
      <g>
       <use style="stroke:#000000;stroke-width:0.8;" x="146.929216" xlink:href="#m37d6fb221a" y="210.04"/>
      </g>
     </g>
     <g id="text_3">
      <!-- 20 -->
      <defs>
       <path d="M 19.1875 8.296875 
L 53.609375 8.296875 
L 53.609375 0 
L 7.328125 0 
L 7.328125 8.296875 
Q 12.9375 14.109375 22.625 23.890625 
Q 32.328125 33.6875 34.8125 36.53125 
Q 39.546875 41.84375 41.421875 45.53125 
Q 43.3125 49.21875 43.3125 52.78125 
Q 43.3125 58.59375 39.234375 62.25 
Q 35.15625 65.921875 28.609375 65.921875 
Q 23.96875 65.921875 18.8125 64.3125 
Q 13.671875 62.703125 7.8125 59.421875 
L 7.8125 69.390625 
Q 13.765625 71.78125 18.9375 73 
Q 24.125 74.21875 28.421875 74.21875 
Q 39.75 74.21875 46.484375 68.546875 
Q 53.21875 62.890625 53.21875 53.421875 
Q 53.21875 48.921875 51.53125 44.890625 
Q 49.859375 40.875 45.40625 35.40625 
Q 44.1875 33.984375 37.640625 27.21875 
Q 31.109375 20.453125 19.1875 8.296875 
z
" id="DejaVuSans-32"/>
      </defs>
      <g transform="translate(140.566716 224.638438)scale(0.1 -0.1)">
       <use xlink:href="#DejaVuSans-32"/>
       <use x="63.623047" xlink:href="#DejaVuSans-30"/>
      </g>
     </g>
    </g>
    <g id="xtick_4">
     <g id="line2d_4">
      <g>
       <use style="stroke:#000000;stroke-width:0.8;" x="189.198824" xlink:href="#m37d6fb221a" y="210.04"/>
      </g>
     </g>
     <g id="text_4">
      <!-- 30 -->
      <defs>
       <path d="M 40.578125 39.3125 
Q 47.65625 37.796875 51.625 33 
Q 55.609375 28.21875 55.609375 21.1875 
Q 55.609375 10.40625 48.1875 4.484375 
Q 40.765625 -1.421875 27.09375 -1.421875 
Q 22.515625 -1.421875 17.65625 -0.515625 
Q 12.796875 0.390625 7.625 2.203125 
L 7.625 11.71875 
Q 11.71875 9.328125 16.59375 8.109375 
Q 21.484375 6.890625 26.8125 6.890625 
Q 36.078125 6.890625 40.9375 10.546875 
Q 45.796875 14.203125 45.796875 21.1875 
Q 45.796875 27.640625 41.28125 31.265625 
Q 36.765625 34.90625 28.71875 34.90625 
L 20.21875 34.90625 
L 20.21875 43.015625 
L 29.109375 43.015625 
Q 36.375 43.015625 40.234375 45.921875 
Q 44.09375 48.828125 44.09375 54.296875 
Q 44.09375 59.90625 40.109375 62.90625 
Q 36.140625 65.921875 28.71875 65.921875 
Q 24.65625 65.921875 20.015625 65.03125 
Q 15.375 64.15625 9.8125 62.3125 
L 9.8125 71.09375 
Q 15.4375 72.65625 20.34375 73.4375 
Q 25.25 74.21875 29.59375 74.21875 
Q 40.828125 74.21875 47.359375 69.109375 
Q 53.90625 64.015625 53.90625 55.328125 
Q 53.90625 49.265625 50.4375 45.09375 
Q 46.96875 40.921875 40.578125 39.3125 
z
" id="DejaVuSans-33"/>
      </defs>
      <g transform="translate(182.836324 224.638438)scale(0.1 -0.1)">
       <use xlink:href="#DejaVuSans-33"/>
       <use x="63.623047" xlink:href="#DejaVuSans-30"/>
      </g>
     </g>
    </g>
    <g id="xtick_5">
     <g id="line2d_5">
      <g>
       <use style="stroke:#000000;stroke-width:0.8;" x="231.468431" xlink:href="#m37d6fb221a" y="210.04"/>
      </g>
     </g>
     <g id="text_5">
      <!-- 40 -->
      <defs>
       <path d="M 37.796875 64.3125 
L 12.890625 25.390625 
L 37.796875 25.390625 
z
M 35.203125 72.90625 
L 47.609375 72.90625 
L 47.609375 25.390625 
L 58.015625 25.390625 
L 58.015625 17.1875 
L 47.609375 17.1875 
L 47.609375 0 
L 37.796875 0 
L 37.796875 17.1875 
L 4.890625 17.1875 
L 4.890625 26.703125 
z
" id="DejaVuSans-34"/>
      </defs>
      <g transform="translate(225.105931 224.638438)scale(0.1 -0.1)">
       <use xlink:href="#DejaVuSans-34"/>
       <use x="63.623047" xlink:href="#DejaVuSans-30"/>
      </g>
     </g>
    </g>
    <g id="xtick_6">
     <g id="line2d_6">
      <g>
       <use style="stroke:#000000;stroke-width:0.8;" x="273.738039" xlink:href="#m37d6fb221a" y="210.04"/>
      </g>
     </g>
     <g id="text_6">
      <!-- 50 -->
      <defs>
       <path d="M 10.796875 72.90625 
L 49.515625 72.90625 
L 49.515625 64.59375 
L 19.828125 64.59375 
L 19.828125 46.734375 
Q 21.96875 47.46875 24.109375 47.828125 
Q 26.265625 48.1875 28.421875 48.1875 
Q 40.625 48.1875 47.75 41.5 
Q 54.890625 34.8125 54.890625 23.390625 
Q 54.890625 11.625 47.5625 5.09375 
Q 40.234375 -1.421875 26.90625 -1.421875 
Q 22.3125 -1.421875 17.546875 -0.640625 
Q 12.796875 0.140625 7.71875 1.703125 
L 7.71875 11.625 
Q 12.109375 9.234375 16.796875 8.0625 
Q 21.484375 6.890625 26.703125 6.890625 
Q 35.15625 6.890625 40.078125 11.328125 
Q 45.015625 15.765625 45.015625 23.390625 
Q 45.015625 31 40.078125 35.4375 
Q 35.15625 39.890625 26.703125 39.890625 
Q 22.75 39.890625 18.8125 39.015625 
Q 14.890625 38.140625 10.796875 36.28125 
z
" id="DejaVuSans-35"/>
      </defs>
      <g transform="translate(267.375539 224.638438)scale(0.1 -0.1)">
       <use xlink:href="#DejaVuSans-35"/>
       <use x="63.623047" xlink:href="#DejaVuSans-30"/>
      </g>
     </g>
    </g>
    <g id="text_7">
     <!-- SCPH iteration -->
     <defs>
      <path d="M 53.515625 70.515625 
L 53.515625 60.890625 
Q 47.90625 63.578125 42.921875 64.890625 
Q 37.9375 66.21875 33.296875 66.21875 
Q 25.25 66.21875 20.875 63.09375 
Q 16.5 59.96875 16.5 54.203125 
Q 16.5 49.359375 19.40625 46.890625 
Q 22.3125 44.4375 30.421875 42.921875 
L 36.375 41.703125 
Q 47.40625 39.59375 52.65625 34.296875 
Q 57.90625 29 57.90625 20.125 
Q 57.90625 9.515625 50.796875 4.046875 
Q 43.703125 -1.421875 29.984375 -1.421875 
Q 24.8125 -1.421875 18.96875 -0.25 
Q 13.140625 0.921875 6.890625 3.21875 
L 6.890625 13.375 
Q 12.890625 10.015625 18.65625 8.296875 
Q 24.421875 6.59375 29.984375 6.59375 
Q 38.421875 6.59375 43.015625 9.90625 
Q 47.609375 13.234375 47.609375 19.390625 
Q 47.609375 24.75 44.3125 27.78125 
Q 41.015625 30.8125 33.5 32.328125 
L 27.484375 33.5 
Q 16.453125 35.6875 11.515625 40.375 
Q 6.59375 45.0625 6.59375 53.421875 
Q 6.59375 63.09375 13.40625 68.65625 
Q 20.21875 74.21875 32.171875 74.21875 
Q 37.3125 74.21875 42.625 73.28125 
Q 47.953125 72.359375 53.515625 70.515625 
z
" id="DejaVuSans-53"/>
      <path d="M 64.40625 67.28125 
L 64.40625 56.890625 
Q 59.421875 61.53125 53.78125 63.8125 
Q 48.140625 66.109375 41.796875 66.109375 
Q 29.296875 66.109375 22.65625 58.46875 
Q 16.015625 50.828125 16.015625 36.375 
Q 16.015625 21.96875 22.65625 14.328125 
Q 29.296875 6.6875 41.796875 6.6875 
Q 48.140625 6.6875 53.78125 8.984375 
Q 59.421875 11.28125 64.40625 15.921875 
L 64.40625 5.609375 
Q 59.234375 2.09375 53.4375 0.328125 
Q 47.65625 -1.421875 41.21875 -1.421875 
Q 24.65625 -1.421875 15.125 8.703125 
Q 5.609375 18.84375 5.609375 36.375 
Q 5.609375 53.953125 15.125 64.078125 
Q 24.65625 74.21875 41.21875 74.21875 
Q 47.75 74.21875 53.53125 72.484375 
Q 59.328125 70.75 64.40625 67.28125 
z
" id="DejaVuSans-43"/>
      <path d="M 19.671875 64.796875 
L 19.671875 37.40625 
L 32.078125 37.40625 
Q 38.96875 37.40625 42.71875 40.96875 
Q 46.484375 44.53125 46.484375 51.125 
Q 46.484375 57.671875 42.71875 61.234375 
Q 38.96875 64.796875 32.078125 64.796875 
z
M 9.8125 72.90625 
L 32.078125 72.90625 
Q 44.34375 72.90625 50.609375 67.359375 
Q 56.890625 61.8125 56.890625 51.125 
Q 56.890625 40.328125 50.609375 34.8125 
Q 44.34375 29.296875 32.078125 29.296875 
L 19.671875 29.296875 
L 19.671875 0 
L 9.8125 0 
z
" id="DejaVuSans-50"/>
      <path d="M 9.8125 72.90625 
L 19.671875 72.90625 
L 19.671875 43.015625 
L 55.515625 43.015625 
L 55.515625 72.90625 
L 65.375 72.90625 
L 65.375 0 
L 55.515625 0 
L 55.515625 34.71875 
L 19.671875 34.71875 
L 19.671875 0 
L 9.8125 0 
z
" id="DejaVuSans-48"/>
      <path id="DejaVuSans-20"/>
      <path d="M 9.421875 54.6875 
L 18.40625 54.6875 
L 18.40625 0 
L 9.421875 0 
z
M 9.421875 75.984375 
L 18.40625 75.984375 
L 18.40625 64.59375 
L 9.421875 64.59375 
z
" id="DejaVuSans-69"/>
      <path d="M 18.3125 70.21875 
L 18.3125 54.6875 
L 36.8125 54.6875 
L 36.8125 47.703125 
L 18.3125 47.703125 
L 18.3125 18.015625 
Q 18.3125 11.328125 20.140625 9.421875 
Q 21.96875 7.515625 27.59375 7.515625 
L 36.8125 7.515625 
L 36.8125 0 
L 27.59375 0 
Q 17.1875 0 13.234375 3.875 
Q 9.28125 7.765625 9.28125 18.015625 
L 9.28125 47.703125 
L 2.6875 47.703125 
L 2.6875 54.6875 
L 9.28125 54.6875 
L 9.28125 70.21875 
z
" id="DejaVuSans-74"/>
      <path d="M 56.203125 29.59375 
L 56.203125 25.203125 
L 14.890625 25.203125 
Q 15.484375 15.921875 20.484375 11.0625 
Q 25.484375 6.203125 34.421875 6.203125 
Q 39.59375 6.203125 44.453125 7.46875 
Q 49.3125 8.734375 54.109375 11.28125 
L 54.109375 2.78125 
Q 49.265625 0.734375 44.1875 -0.34375 
Q 39.109375 -1.421875 33.890625 -1.421875 
Q 20.796875 -1.421875 13.15625 6.1875 
Q 5.515625 13.8125 5.515625 26.8125 
Q 5.515625 40.234375 12.765625 48.109375 
Q 20.015625 56 32.328125 56 
Q 43.359375 56 49.78125 48.890625 
Q 56.203125 41.796875 56.203125 29.59375 
z
M 47.21875 32.234375 
Q 47.125 39.59375 43.09375 43.984375 
Q 39.0625 48.390625 32.421875 48.390625 
Q 24.90625 48.390625 20.390625 44.140625 
Q 15.875 39.890625 15.1875 32.171875 
z
" id="DejaVuSans-65"/>
      <path d="M 41.109375 46.296875 
Q 39.59375 47.171875 37.8125 47.578125 
Q 36.03125 48 33.890625 48 
Q 26.265625 48 22.1875 43.046875 
Q 18.109375 38.09375 18.109375 28.8125 
L 18.109375 0 
L 9.078125 0 
L 9.078125 54.6875 
L 18.109375 54.6875 
L 18.109375 46.1875 
Q 20.953125 51.171875 25.484375 53.578125 
Q 30.03125 56 36.53125 56 
Q 37.453125 56 38.578125 55.875 
Q 39.703125 55.765625 41.0625 55.515625 
z
" id="DejaVuSans-72"/>
      <path d="M 34.28125 27.484375 
Q 23.390625 27.484375 19.1875 25 
Q 14.984375 22.515625 14.984375 16.5 
Q 14.984375 11.71875 18.140625 8.90625 
Q 21.296875 6.109375 26.703125 6.109375 
Q 34.1875 6.109375 38.703125 11.40625 
Q 43.21875 16.703125 43.21875 25.484375 
L 43.21875 27.484375 
z
M 52.203125 31.203125 
L 52.203125 0 
L 43.21875 0 
L 43.21875 8.296875 
Q 40.140625 3.328125 35.546875 0.953125 
Q 30.953125 -1.421875 24.3125 -1.421875 
Q 15.921875 -1.421875 10.953125 3.296875 
Q 6 8.015625 6 15.921875 
Q 6 25.140625 12.171875 29.828125 
Q 18.359375 34.515625 30.609375 34.515625 
L 43.21875 34.515625 
L 43.21875 35.40625 
Q 43.21875 41.609375 39.140625 45 
Q 35.0625 48.390625 27.6875 48.390625 
Q 23 48.390625 18.546875 47.265625 
Q 14.109375 46.140625 10.015625 43.890625 
L 10.015625 52.203125 
Q 14.9375 54.109375 19.578125 55.046875 
Q 24.21875 56 28.609375 56 
Q 40.484375 56 46.34375 49.84375 
Q 52.203125 43.703125 52.203125 31.203125 
z
" id="DejaVuSans-61"/>
      <path d="M 30.609375 48.390625 
Q 23.390625 48.390625 19.1875 42.75 
Q 14.984375 37.109375 14.984375 27.296875 
Q 14.984375 17.484375 19.15625 11.84375 
Q 23.34375 6.203125 30.609375 6.203125 
Q 37.796875 6.203125 41.984375 11.859375 
Q 46.1875 17.53125 46.1875 27.296875 
Q 46.1875 37.015625 41.984375 42.703125 
Q 37.796875 48.390625 30.609375 48.390625 
z
M 30.609375 56 
Q 42.328125 56 49.015625 48.375 
Q 55.71875 40.765625 55.71875 27.296875 
Q 55.71875 13.875 49.015625 6.21875 
Q 42.328125 -1.421875 30.609375 -1.421875 
Q 18.84375 -1.421875 12.171875 6.21875 
Q 5.515625 13.875 5.515625 27.296875 
Q 5.515625 40.765625 12.171875 48.375 
Q 18.84375 56 30.609375 56 
z
" id="DejaVuSans-6f"/>
      <path d="M 54.890625 33.015625 
L 54.890625 0 
L 45.90625 0 
L 45.90625 32.71875 
Q 45.90625 40.484375 42.875 44.328125 
Q 39.84375 48.1875 33.796875 48.1875 
Q 26.515625 48.1875 22.3125 43.546875 
Q 18.109375 38.921875 18.109375 30.90625 
L 18.109375 0 
L 9.078125 0 
L 9.078125 54.6875 
L 18.109375 54.6875 
L 18.109375 46.1875 
Q 21.34375 51.125 25.703125 53.5625 
Q 30.078125 56 35.796875 56 
Q 45.21875 56 50.046875 50.171875 
Q 54.890625 44.34375 54.890625 33.015625 
z
" id="DejaVuSans-6e"/>
     </defs>
     <g transform="translate(134.025156 238.316563)scale(0.1 -0.1)">
      <use xlink:href="#DejaVuSans-53"/>
      <use x="63.476562" xlink:href="#DejaVuSans-43"/>
      <use x="133.300781" xlink:href="#DejaVuSans-50"/>
      <use x="193.603516" xlink:href="#DejaVuSans-48"/>
      <use x="268.798828" xlink:href="#DejaVuSans-20"/>
      <use x="300.585938" xlink:href="#DejaVuSans-69"/>
      <use x="328.369141" xlink:href="#DejaVuSans-74"/>
      <use x="367.578125" xlink:href="#DejaVuSans-65"/>
      <use x="429.101562" xlink:href="#DejaVuSans-72"/>
      <use x="470.214844" xlink:href="#DejaVuSans-61"/>
      <use x="531.494141" xlink:href="#DejaVuSans-74"/>
      <use x="570.703125" xlink:href="#DejaVuSans-69"/>
      <use x="598.486328" xlink:href="#DejaVuSans-6f"/>
      <use x="659.667969" xlink:href="#DejaVuSans-6e"/>
     </g>
    </g>
   </g>
   <g id="matplotlib.axis_2">
    <g id="ytick_1">
     <g id="line2d_7">
      <defs>
       <path d="M 0 0 
L -3.5 0 
" id="m1599007087" style="stroke:#000000;stroke-width:0.8;"/>
      </defs>
      <g>
       <use style="stroke:#000000;stroke-width:0.8;" x="62.39" xlink:href="#m1599007087" y="185.020315"/>
      </g>
     </g>
     <g id="text_8">
      <!-- −0.10 -->
      <defs>
       <path d="M 10.59375 35.5 
L 73.1875 35.5 
L 73.1875 27.203125 
L 10.59375 27.203125 
z
" id="DejaVuSans-2212"/>
       <path d="M 10.6875 12.40625 
L 21 12.40625 
L 21 0 
L 10.6875 0 
z
" id="DejaVuSans-2e"/>
      </defs>
      <g transform="translate(24.744688 188.819534)scale(0.1 -0.1)">
       <use xlink:href="#DejaVuSans-2212"/>
       <use x="83.789062" xlink:href="#DejaVuSans-30"/>
       <use x="147.412109" xlink:href="#DejaVuSans-2e"/>
       <use x="179.199219" xlink:href="#DejaVuSans-31"/>
       <use x="242.822266" xlink:href="#DejaVuSans-30"/>
      </g>
     </g>
    </g>
    <g id="ytick_2">
     <g id="line2d_8">
      <g>
       <use style="stroke:#000000;stroke-width:0.8;" x="62.39" xlink:href="#m1599007087" y="157.347678"/>
      </g>
     </g>
     <g id="text_9">
      <!-- −0.08 -->
      <defs>
       <path d="M 31.78125 34.625 
Q 24.75 34.625 20.71875 30.859375 
Q 16.703125 27.09375 16.703125 20.515625 
Q 16.703125 13.921875 20.71875 10.15625 
Q 24.75 6.390625 31.78125 6.390625 
Q 38.8125 6.390625 42.859375 10.171875 
Q 46.921875 13.96875 46.921875 20.515625 
Q 46.921875 27.09375 42.890625 30.859375 
Q 38.875 34.625 31.78125 34.625 
z
M 21.921875 38.8125 
Q 15.578125 40.375 12.03125 44.71875 
Q 8.5 49.078125 8.5 55.328125 
Q 8.5 64.0625 14.71875 69.140625 
Q 20.953125 74.21875 31.78125 74.21875 
Q 42.671875 74.21875 48.875 69.140625 
Q 55.078125 64.0625 55.078125 55.328125 
Q 55.078125 49.078125 51.53125 44.71875 
Q 48 40.375 41.703125 38.8125 
Q 48.828125 37.15625 52.796875 32.3125 
Q 56.78125 27.484375 56.78125 20.515625 
Q 56.78125 9.90625 50.3125 4.234375 
Q 43.84375 -1.421875 31.78125 -1.421875 
Q 19.734375 -1.421875 13.25 4.234375 
Q 6.78125 9.90625 6.78125 20.515625 
Q 6.78125 27.484375 10.78125 32.3125 
Q 14.796875 37.15625 21.921875 38.8125 
z
M 18.3125 54.390625 
Q 18.3125 48.734375 21.84375 45.5625 
Q 25.390625 42.390625 31.78125 42.390625 
Q 38.140625 42.390625 41.71875 45.5625 
Q 45.3125 48.734375 45.3125 54.390625 
Q 45.3125 60.0625 41.71875 63.234375 
Q 38.140625 66.40625 31.78125 66.40625 
Q 25.390625 66.40625 21.84375 63.234375 
Q 18.3125 60.0625 18.3125 54.390625 
z
" id="DejaVuSans-38"/>
      </defs>
      <g transform="translate(24.744688 161.146897)scale(0.1 -0.1)">
       <use xlink:href="#DejaVuSans-2212"/>
       <use x="83.789062" xlink:href="#DejaVuSans-30"/>
       <use x="147.412109" xlink:href="#DejaVuSans-2e"/>
       <use x="179.199219" xlink:href="#DejaVuSans-30"/>
       <use x="242.822266" xlink:href="#DejaVuSans-38"/>
      </g>
     </g>
    </g>
    <g id="ytick_3">
     <g id="line2d_9">
      <g>
       <use style="stroke:#000000;stroke-width:0.8;" x="62.39" xlink:href="#m1599007087" y="129.675041"/>
      </g>
     </g>
     <g id="text_10">
      <!-- −0.06 -->
      <defs>
       <path d="M 33.015625 40.375 
Q 26.375 40.375 22.484375 35.828125 
Q 18.609375 31.296875 18.609375 23.390625 
Q 18.609375 15.53125 22.484375 10.953125 
Q 26.375 6.390625 33.015625 6.390625 
Q 39.65625 6.390625 43.53125 10.953125 
Q 47.40625 15.53125 47.40625 23.390625 
Q 47.40625 31.296875 43.53125 35.828125 
Q 39.65625 40.375 33.015625 40.375 
z
M 52.59375 71.296875 
L 52.59375 62.3125 
Q 48.875 64.0625 45.09375 64.984375 
Q 41.3125 65.921875 37.59375 65.921875 
Q 27.828125 65.921875 22.671875 59.328125 
Q 17.53125 52.734375 16.796875 39.40625 
Q 19.671875 43.65625 24.015625 45.921875 
Q 28.375 48.1875 33.59375 48.1875 
Q 44.578125 48.1875 50.953125 41.515625 
Q 57.328125 34.859375 57.328125 23.390625 
Q 57.328125 12.15625 50.6875 5.359375 
Q 44.046875 -1.421875 33.015625 -1.421875 
Q 20.359375 -1.421875 13.671875 8.265625 
Q 6.984375 17.96875 6.984375 36.375 
Q 6.984375 53.65625 15.1875 63.9375 
Q 23.390625 74.21875 37.203125 74.21875 
Q 40.921875 74.21875 44.703125 73.484375 
Q 48.484375 72.75 52.59375 71.296875 
z
" id="DejaVuSans-36"/>
      </defs>
      <g transform="translate(24.744688 133.47426)scale(0.1 -0.1)">
       <use xlink:href="#DejaVuSans-2212"/>
       <use x="83.789062" xlink:href="#DejaVuSans-30"/>
       <use x="147.412109" xlink:href="#DejaVuSans-2e"/>
       <use x="179.199219" xlink:href="#DejaVuSans-30"/>
       <use x="242.822266" xlink:href="#DejaVuSans-36"/>
      </g>
     </g>
    </g>
    <g id="ytick_4">
     <g id="line2d_10">
      <g>
       <use style="stroke:#000000;stroke-width:0.8;" x="62.39" xlink:href="#m1599007087" y="102.002404"/>
      </g>
     </g>
     <g id="text_11">
      <!-- −0.04 -->
      <g transform="translate(24.744688 105.801623)scale(0.1 -0.1)">
       <use xlink:href="#DejaVuSans-2212"/>
       <use x="83.789062" xlink:href="#DejaVuSans-30"/>
       <use x="147.412109" xlink:href="#DejaVuSans-2e"/>
       <use x="179.199219" xlink:href="#DejaVuSans-30"/>
       <use x="242.822266" xlink:href="#DejaVuSans-34"/>
      </g>
     </g>
    </g>
    <g id="ytick_5">
     <g id="line2d_11">
      <g>
       <use style="stroke:#000000;stroke-width:0.8;" x="62.39" xlink:href="#m1599007087" y="74.329767"/>
      </g>
     </g>
     <g id="text_12">
      <!-- −0.02 -->
      <g transform="translate(24.744688 78.128986)scale(0.1 -0.1)">
       <use xlink:href="#DejaVuSans-2212"/>
       <use x="83.789062" xlink:href="#DejaVuSans-30"/>
       <use x="147.412109" xlink:href="#DejaVuSans-2e"/>
       <use x="179.199219" xlink:href="#DejaVuSans-30"/>
       <use x="242.822266" xlink:href="#DejaVuSans-32"/>
      </g>
     </g>
    </g>
    <g id="ytick_6">
     <g id="line2d_12">
      <g>
       <use style="stroke:#000000;stroke-width:0.8;" x="62.39" xlink:href="#m1599007087" y="46.65713"/>
      </g>
     </g>
     <g id="text_13">
      <!-- 0.00 -->
      <g transform="translate(33.124375 50.456349)scale(0.1 -0.1)">
       <use xlink:href="#DejaVuSans-30"/>
       <use x="63.623047" xlink:href="#DejaVuSans-2e"/>
       <use x="95.410156" xlink:href="#DejaVuSans-30"/>
       <use x="159.033203" xlink:href="#DejaVuSans-30"/>
      </g>
     </g>
    </g>
    <g id="ytick_7">
     <g id="line2d_13">
      <g>
       <use style="stroke:#000000;stroke-width:0.8;" x="62.39" xlink:href="#m1599007087" y="18.984493"/>
      </g>
     </g>
     <g id="text_14">
      <!-- 0.02 -->
      <g transform="translate(33.124375 22.783712)scale(0.1 -0.1)">
       <use xlink:href="#DejaVuSans-30"/>
       <use x="63.623047" xlink:href="#DejaVuSans-2e"/>
       <use x="95.410156" xlink:href="#DejaVuSans-30"/>
       <use x="159.033203" xlink:href="#DejaVuSans-32"/>
      </g>
     </g>
    </g>
    <g id="text_15">
     <!-- Parameters -->
     <defs>
      <path d="M 52 44.1875 
Q 55.375 50.25 60.0625 53.125 
Q 64.75 56 71.09375 56 
Q 79.640625 56 84.28125 50.015625 
Q 88.921875 44.046875 88.921875 33.015625 
L 88.921875 0 
L 79.890625 0 
L 79.890625 32.71875 
Q 79.890625 40.578125 77.09375 44.375 
Q 74.3125 48.1875 68.609375 48.1875 
Q 61.625 48.1875 57.5625 43.546875 
Q 53.515625 38.921875 53.515625 30.90625 
L 53.515625 0 
L 44.484375 0 
L 44.484375 32.71875 
Q 44.484375 40.625 41.703125 44.40625 
Q 38.921875 48.1875 33.109375 48.1875 
Q 26.21875 48.1875 22.15625 43.53125 
Q 18.109375 38.875 18.109375 30.90625 
L 18.109375 0 
L 9.078125 0 
L 9.078125 54.6875 
L 18.109375 54.6875 
L 18.109375 46.1875 
Q 21.1875 51.21875 25.484375 53.609375 
Q 29.78125 56 35.6875 56 
Q 41.65625 56 45.828125 52.96875 
Q 50 49.953125 52 44.1875 
z
" id="DejaVuSans-6d"/>
      <path d="M 44.28125 53.078125 
L 44.28125 44.578125 
Q 40.484375 46.53125 36.375 47.5 
Q 32.28125 48.484375 27.875 48.484375 
Q 21.1875 48.484375 17.84375 46.4375 
Q 14.5 44.390625 14.5 40.28125 
Q 14.5 37.15625 16.890625 35.375 
Q 19.28125 33.59375 26.515625 31.984375 
L 29.59375 31.296875 
Q 39.15625 29.25 43.1875 25.515625 
Q 47.21875 21.78125 47.21875 15.09375 
Q 47.21875 7.46875 41.1875 3.015625 
Q 35.15625 -1.421875 24.609375 -1.421875 
Q 20.21875 -1.421875 15.453125 -0.5625 
Q 10.6875 0.296875 5.421875 2 
L 5.421875 11.28125 
Q 10.40625 8.6875 15.234375 7.390625 
Q 20.0625 6.109375 24.8125 6.109375 
Q 31.15625 6.109375 34.5625 8.28125 
Q 37.984375 10.453125 37.984375 14.40625 
Q 37.984375 18.0625 35.515625 20.015625 
Q 33.0625 21.96875 24.703125 23.78125 
L 21.578125 24.515625 
Q 13.234375 26.265625 9.515625 29.90625 
Q 5.8125 33.546875 5.8125 39.890625 
Q 5.8125 47.609375 11.28125 51.796875 
Q 16.75 56 26.8125 56 
Q 31.78125 56 36.171875 55.265625 
Q 40.578125 54.546875 44.28125 53.078125 
z
" id="DejaVuSans-73"/>
     </defs>
     <g transform="translate(18.665 140.519063)rotate(-90)scale(0.1 -0.1)">
      <use xlink:href="#DejaVuSans-50"/>
      <use x="60.240234" xlink:href="#DejaVuSans-61"/>
      <use x="121.519531" xlink:href="#DejaVuSans-72"/>
      <use x="162.632812" xlink:href="#DejaVuSans-61"/>
      <use x="223.912109" xlink:href="#DejaVuSans-6d"/>
      <use x="321.324219" xlink:href="#DejaVuSans-65"/>
      <use x="382.847656" xlink:href="#DejaVuSans-74"/>
      <use x="422.056641" xlink:href="#DejaVuSans-65"/>
      <use x="483.580078" xlink:href="#DejaVuSans-72"/>
      <use x="524.693359" xlink:href="#DejaVuSans-73"/>
     </g>
    </g>
   </g>
   <g id="line2d_14">
    <path clip-path="url(#pb136e28425)" d="M 62.39 184.064875 
L 66.616961 187.222119 
L 70.843922 190.020642 
L 75.070882 192.801159 
L 79.297843 194.443787 
L 83.524804 196.031277 
L 87.751765 197.345228 
L 91.978725 198.140828 
L 96.205686 198.768698 
L 100.432647 199.110782 
L 104.659608 199.629541 
L 108.886569 199.507695 
L 113.113529 199.711344 
L 117.34049 200.488193 
L 121.567451 200.469989 
L 125.794412 200.274767 
L 130.021373 200.203576 
L 134.248333 200.556208 
L 138.475294 200.925642 
L 142.702255 200.562376 
L 146.929216 200.341051 
L 151.156176 200.283556 
L 155.383137 201.098182 
L 159.610098 200.727222 
L 163.837059 200.409764 
L 168.06402 200.709177 
L 172.29098 200.35635 
L 176.517941 200.547257 
L 180.744902 200.707388 
L 184.971863 200.516755 
L 189.198824 200.06502 
L 193.425784 199.430331 
L 197.652745 199.61491 
L 201.879706 199.585827 
L 206.106667 199.252816 
L 210.333627 200.055886 
L 214.560588 200.469424 
L 218.787549 200.129336 
L 223.01451 200.263559 
L 227.241471 200.025816 
L 231.468431 199.983597 
L 235.695392 200.492252 
L 239.922353 200.453366 
L 244.149314 200.077369 
L 248.376275 199.636492 
L 252.603235 199.74574 
L 256.830196 200.150243 
L 261.057157 200.435162 
L 265.284118 200.135468 
L 269.511078 200.59098 
L 273.738039 200.136708 
" style="fill:none;stroke:#1f77b4;stroke-linecap:square;stroke-width:1.5;"/>
   </g>
   <g id="line2d_15">
    <path clip-path="url(#pb136e28425)" d="M 62.39 115.387373 
L 66.616961 115.423473 
L 70.843922 114.984523 
L 75.070882 113.386025 
L 79.297843 113.239597 
L 83.524804 112.490147 
L 87.751765 112.238193 
L 91.978725 111.348306 
L 96.205686 111.320994 
L 100.432647 111.945955 
L 104.659608 112.179977 
L 108.886569 113.137269 
L 113.113529 112.486621 
L 117.34049 111.510836 
L 121.567451 111.836489 
L 125.794412 112.649403 
L 130.021373 112.313711 
L 134.248333 112.373684 
L 138.475294 112.261628 
L 142.702255 113.195501 
L 146.929216 113.236572 
L 151.156176 113.256191 
L 155.383137 112.541717 
L 159.610098 113.114587 
L 163.837059 113.305852 
L 168.06402 112.796416 
L 172.29098 113.154092 
L 176.517941 113.164391 
L 180.744902 112.535639 
L 184.971863 112.940425 
L 189.198824 114.341315 
L 193.425784 115.15483 
L 197.652745 114.829868 
L 201.879706 114.918943 
L 206.106667 115.240636 
L 210.333627 114.427388 
L 214.560588 113.798975 
L 218.787549 114.775038 
L 223.01451 113.993818 
L 227.241471 115.063964 
L 231.468431 114.256638 
L 235.695392 113.072868 
L 239.922353 113.46814 
L 244.149314 113.424449 
L 248.376275 114.410516 
L 252.603235 114.147826 
L 256.830196 114.118748 
L 261.057157 113.662129 
L 265.284118 114.21625 
L 269.511078 112.861063 
L 273.738039 113.219626 
" style="fill:none;stroke:#ff7f0e;stroke-linecap:square;stroke-width:1.5;"/>
   </g>
   <g id="line2d_16">
    <path clip-path="url(#pb136e28425)" d="M 62.39 49.91643 
L 66.616961 50.282811 
L 70.843922 50.714588 
L 75.070882 50.576456 
L 79.297843 50.633697 
L 83.524804 50.339438 
L 87.751765 50.040114 
L 91.978725 50.094507 
L 96.205686 49.597049 
L 100.432647 49.858154 
L 104.659608 50.21699 
L 108.886569 50.421163 
L 113.113529 49.992785 
L 117.34049 50.06491 
L 121.567451 50.247863 
L 125.794412 50.41577 
L 130.021373 50.327312 
L 134.248333 50.594746 
L 138.475294 50.064292 
L 142.702255 50.155154 
L 146.929216 50.451634 
L 151.156176 50.697291 
L 155.383137 50.899615 
L 159.610098 50.834498 
L 163.837059 51.145255 
L 168.06402 50.848812 
L 172.29098 50.717114 
L 176.517941 50.682887 
L 180.744902 50.490419 
L 184.971863 50.044949 
L 189.198824 50.032864 
L 193.425784 50.358076 
L 197.652745 50.354828 
L 201.879706 50.348637 
L 206.106667 50.475016 
L 210.333627 50.47598 
L 214.560588 50.440472 
L 218.787549 50.700271 
L 223.01451 50.923685 
L 227.241471 51.009443 
L 231.468431 50.582205 
L 235.695392 50.553837 
L 239.922353 50.117233 
L 244.149314 50.42588 
L 248.376275 50.827708 
L 252.603235 50.51237 
L 256.830196 50.593864 
L 261.057157 50.66725 
L 265.284118 50.380799 
L 269.511078 50.387763 
L 273.738039 50.323631 
" style="fill:none;stroke:#2ca02c;stroke-linecap:square;stroke-width:1.5;"/>
   </g>
   <g id="line2d_17">
    <path clip-path="url(#pb136e28425)" d="M 62.39 49.550474 
L 66.616961 48.726288 
L 70.843922 48.01604 
L 75.070882 47.81708 
L 79.297843 47.689127 
L 83.524804 47.648028 
L 87.751765 47.798356 
L 91.978725 47.897331 
L 96.205686 48.831171 
L 100.432647 48.672724 
L 104.659608 48.113208 
L 108.886569 47.921702 
L 113.113529 48.754347 
L 117.34049 48.975722 
L 121.567451 48.765715 
L 125.794412 48.353915 
L 130.021373 48.492549 
L 134.248333 47.723533 
L 138.475294 48.337994 
L 142.702255 47.749318 
L 146.929216 47.425369 
L 151.156176 47.448275 
L 155.383137 47.024661 
L 159.610098 47.428119 
L 163.837059 46.693384 
L 168.06402 47.267674 
L 172.29098 47.324815 
L 176.517941 47.141467 
L 180.744902 47.513376 
L 184.971863 48.032813 
L 189.198824 47.753957 
L 193.425784 47.117476 
L 197.652745 47.205618 
L 201.879706 47.29717 
L 206.106667 47.644987 
L 210.333627 47.236699 
L 214.560588 47.426928 
L 218.787549 46.722254 
L 223.01451 46.143561 
L 227.241471 45.815351 
L 231.468431 46.585087 
L 235.695392 46.447662 
L 239.922353 47.126323 
L 244.149314 47.170685 
L 248.376275 46.435909 
L 252.603235 46.604023 
L 256.830196 46.351243 
L 261.057157 46.158119 
L 265.284118 46.918474 
L 269.511078 47.106242 
L 273.738039 47.431538 
" style="fill:none;stroke:#d62728;stroke-linecap:square;stroke-width:1.5;"/>
   </g>
   <g id="line2d_18">
    <path clip-path="url(#pb136e28425)" d="M 62.39 64.594558 
L 66.616961 64.358613 
L 70.843922 63.872965 
L 75.070882 63.981661 
L 79.297843 64.551805 
L 83.524804 65.159148 
L 87.751765 65.63553 
L 91.978725 65.733073 
L 96.205686 66.123101 
L 100.432647 65.656878 
L 104.659608 65.731904 
L 108.886569 64.886363 
L 113.113529 65.69916 
L 117.34049 65.183803 
L 121.567451 65.006694 
L 125.794412 64.440986 
L 130.021373 63.85564 
L 134.248333 63.623437 
L 138.475294 63.715869 
L 142.702255 64.17526 
L 146.929216 64.535077 
L 151.156176 64.550831 
L 155.383137 64.702855 
L 159.610098 64.070768 
L 163.837059 63.748987 
L 168.06402 63.436904 
L 172.29098 64.060253 
L 176.517941 64.257602 
L 180.744902 64.497077 
L 184.971863 64.762521 
L 189.198824 65.225459 
L 193.425784 65.726908 
L 197.652745 65.236327 
L 201.879706 65.175217 
L 206.106667 64.630564 
L 210.333627 64.987228 
L 214.560588 64.330868 
L 218.787549 65.075103 
L 223.01451 65.528835 
L 227.241471 66.352091 
L 231.468431 66.091577 
L 235.695392 65.290671 
L 239.922353 65.0872 
L 244.149314 64.847065 
L 248.376275 64.959405 
L 252.603235 64.757178 
L 256.830196 65.333476 
L 261.057157 64.777092 
L 265.284118 64.538197 
L 269.511078 64.515877 
L 273.738039 64.032455 
" style="fill:none;stroke:#9467bd;stroke-linecap:square;stroke-width:1.5;"/>
   </g>
   <g id="line2d_19">
    <path clip-path="url(#pb136e28425)" d="M 62.39 25.26615 
L 66.616961 25.236061 
L 70.843922 25.437878 
L 75.070882 25.063479 
L 79.297843 23.893636 
L 83.524804 23.802157 
L 87.751765 23.646501 
L 91.978725 23.216978 
L 96.205686 22.430788 
L 100.432647 22.530102 
L 104.659608 22.878951 
L 108.886569 22.978748 
L 113.113529 22.261818 
L 117.34049 23.074381 
L 121.567451 23.243733 
L 125.794412 23.755334 
L 130.021373 24.085959 
L 134.248333 24.450889 
L 138.475294 24.603776 
L 142.702255 24.30786 
L 146.929216 23.649189 
L 151.156176 23.523656 
L 155.383137 23.62566 
L 159.610098 24.549105 
L 163.837059 24.451555 
L 168.06402 24.184463 
L 172.29098 23.354394 
L 176.517941 22.920098 
L 180.744902 22.62297 
L 184.971863 22.567744 
L 189.198824 22.777806 
L 193.425784 22.810394 
L 197.652745 23.430627 
L 201.879706 23.027266 
L 206.106667 23.284889 
L 210.333627 23.408078 
L 214.560588 23.776995 
L 218.787549 22.94117 
L 223.01451 23.070144 
L 227.241471 22.713726 
L 231.468431 23.466146 
L 235.695392 24.075999 
L 239.922353 23.960732 
L 244.149314 23.724219 
L 248.376275 23.942143 
L 252.603235 23.853737 
L 256.830196 23.266026 
L 261.057157 24.062565 
L 265.284118 24.011488 
L 269.511078 24.2015 
L 273.738039 24.306025 
" style="fill:none;stroke:#8c564b;stroke-linecap:square;stroke-width:1.5;"/>
   </g>
   <g id="line2d_20">
    <path clip-path="url(#pb136e28425)" d="M 62.39 55.167401 
L 66.616961 55.059412 
L 70.843922 54.99183 
L 75.070882 54.973721 
L 79.297843 55.170646 
L 83.524804 54.948085 
L 87.751765 54.65527 
L 91.978725 55.362096 
L 96.205686 55.628423 
L 100.432647 55.427751 
L 104.659608 55.582736 
L 108.886569 54.999525 
L 113.113529 55.913822 
L 117.34049 55.844545 
L 121.567451 55.270163 
L 125.794412 54.878599 
L 130.021373 55.105874 
L 134.248333 55.254988 
L 138.475294 55.029314 
L 142.702255 54.973601 
L 146.929216 54.947547 
L 151.156176 55.830227 
L 155.383137 55.834518 
L 159.610098 56.106247 
L 163.837059 55.79285 
L 168.06402 55.790498 
L 172.29098 55.798686 
L 176.517941 55.076944 
L 180.744902 54.851946 
L 184.971863 54.712614 
L 189.198824 55.298206 
L 193.425784 54.909274 
L 197.652745 54.825104 
L 201.879706 55.283935 
L 206.106667 55.562918 
L 210.333627 55.383093 
L 214.560588 55.976408 
L 218.787549 55.926392 
L 223.01451 56.094786 
L 227.241471 55.845021 
L 231.468431 55.180976 
L 235.695392 55.371384 
L 239.922353 55.464929 
L 244.149314 55.693442 
L 248.376275 55.635476 
L 252.603235 55.73432 
L 256.830196 56.631573 
L 261.057157 55.908939 
L 265.284118 56.028507 
L 269.511078 56.228082 
L 273.738039 55.770027 
" style="fill:none;stroke:#e377c2;stroke-linecap:square;stroke-width:1.5;"/>
   </g>
   <g id="line2d_21">
    <path clip-path="url(#pb136e28425)" d="M 62.39 55.673868 
L 66.616961 56.073168 
L 70.843922 56.459075 
L 75.070882 57.426317 
L 79.297843 57.888115 
L 83.524804 58.111996 
L 87.751765 58.235993 
L 91.978725 57.404107 
L 96.205686 56.960223 
L 100.432647 57.414198 
L 104.659608 56.842665 
L 108.886569 57.991509 
L 113.113529 57.22207 
L 117.34049 56.185451 
L 121.567451 57.429308 
L 125.794412 57.924928 
L 130.021373 57.396403 
L 134.248333 57.069313 
L 138.475294 56.520746 
L 142.702255 57.027541 
L 146.929216 58.284456 
L 151.156176 57.734768 
L 155.383137 57.494777 
L 159.610098 55.87976 
L 163.837059 57.300601 
L 168.06402 57.45657 
L 172.29098 58.267663 
L 176.517941 60.005897 
L 180.744902 61.17875 
L 184.971863 61.123431 
L 189.198824 59.14097 
L 193.425784 59.435586 
L 197.652745 58.751614 
L 201.879706 58.598391 
L 206.106667 57.937152 
L 210.333627 58.201233 
L 214.560588 56.651825 
L 218.787549 57.754293 
L 223.01451 57.122009 
L 227.241471 57.536832 
L 231.468431 57.397979 
L 235.695392 57.124829 
L 239.922353 56.91666 
L 244.149314 57.116616 
L 248.376275 57.100123 
L 252.603235 56.806152 
L 256.830196 56.215818 
L 261.057157 56.773475 
L 265.284118 56.550213 
L 269.511078 56.014366 
L 273.738039 56.682454 
" style="fill:none;stroke:#7f7f7f;stroke-linecap:square;stroke-width:1.5;"/>
   </g>
   <g id="line2d_22">
    <path clip-path="url(#pb136e28425)" d="M 62.39 60.128894 
L 66.616961 60.033268 
L 70.843922 60.020593 
L 75.070882 59.901907 
L 79.297843 59.808327 
L 83.524804 59.817809 
L 87.751765 59.866736 
L 91.978725 59.74506 
L 96.205686 59.736668 
L 100.432647 59.738645 
L 104.659608 59.850038 
L 108.886569 59.764661 
L 113.113529 59.772458 
L 117.34049 59.813976 
L 121.567451 59.862023 
L 125.794412 59.830674 
L 130.021373 59.720923 
L 134.248333 59.715415 
L 138.475294 59.831426 
L 142.702255 59.872353 
L 146.929216 59.781853 
L 151.156176 59.670621 
L 155.383137 59.799049 
L 159.610098 59.869389 
L 163.837059 59.77669 
L 168.06402 59.646199 
L 172.29098 59.691287 
L 176.517941 59.709198 
L 180.744902 59.731234 
L 184.971863 59.657084 
L 189.198824 59.799531 
L 193.425784 59.8361 
L 197.652745 59.859472 
L 201.879706 59.785055 
L 206.106667 59.865904 
L 210.333627 59.980363 
L 214.560588 59.839749 
L 218.787549 59.769463 
L 223.01451 59.778437 
L 227.241471 59.794871 
L 231.468431 59.924882 
L 235.695392 59.737193 
L 239.922353 59.762249 
L 244.149314 59.694648 
L 248.376275 59.643147 
L 252.603235 59.558405 
L 256.830196 59.643159 
L 261.057157 59.70085 
L 265.284118 59.670056 
L 269.511078 59.690969 
L 273.738039 59.571712 
" style="fill:none;stroke:#bcbd22;stroke-linecap:square;stroke-width:1.5;"/>
   </g>
   <g id="line2d_23">
    <path clip-path="url(#pb136e28425)" d="M 62.39 122.337458 
L 66.616961 121.61973 
L 70.843922 121.213266 
L 75.070882 121.051658 
L 79.297843 120.366889 
L 83.524804 119.951687 
L 87.751765 119.464953 
L 91.978725 119.577686 
L 96.205686 119.116777 
L 100.432647 119.461527 
L 104.659608 119.189771 
L 108.886569 118.912912 
L 113.113529 118.297299 
L 117.34049 118.454104 
L 121.567451 118.214507 
L 125.794412 118.227478 
L 130.021373 118.3412 
L 134.248333 118.599553 
L 138.475294 118.421497 
L 142.702255 118.294925 
L 146.929216 118.073401 
L 151.156176 118.002553 
L 155.383137 118.236326 
L 159.610098 118.11082 
L 163.837059 117.96264 
L 168.06402 118.319635 
L 172.29098 117.993884 
L 176.517941 117.919967 
L 180.744902 117.96375 
L 184.971863 117.666489 
L 189.198824 116.921233 
L 193.425784 116.723665 
L 197.652745 116.982199 
L 201.879706 116.865141 
L 206.106667 116.782927 
L 210.333627 116.900561 
L 214.560588 117.497972 
L 218.787549 117.105009 
L 223.01451 117.073532 
L 227.241471 116.922702 
L 231.468431 117.014178 
L 235.695392 118.121698 
L 239.922353 118.010763 
L 244.149314 118.143297 
L 248.376275 117.844942 
L 252.603235 117.948389 
L 256.830196 117.61299 
L 261.057157 117.757353 
L 265.284118 118.066111 
L 269.511078 118.398887 
L 273.738039 118.315073 
" style="fill:none;stroke:#17becf;stroke-linecap:square;stroke-width:1.5;"/>
   </g>
   <g id="line2d_24">
    <path clip-path="url(#pb136e28425)" d="M 62.39 63.004724 
L 66.616961 61.816481 
L 70.843922 60.635147 
L 75.070882 59.927504 
L 79.297843 59.458304 
L 83.524804 59.136428 
L 87.751765 58.704057 
L 91.978725 58.121208 
L 96.205686 57.987493 
L 100.432647 57.68046 
L 104.659608 57.705716 
L 108.886569 57.546899 
L 113.113529 57.564781 
L 117.34049 57.69704 
L 121.567451 57.409517 
L 125.794412 57.094495 
L 130.021373 57.158287 
L 134.248333 57.315152 
L 138.475294 57.299274 
L 142.702255 57.119992 
L 146.929216 57.080699 
L 151.156176 56.939371 
L 155.383137 56.989864 
L 159.610098 57.373204 
L 163.837059 57.456005 
L 168.06402 57.432844 
L 172.29098 57.176713 
L 176.517941 57.282666 
L 180.744902 57.047315 
L 184.971863 56.980196 
L 189.198824 57.039011 
L 193.425784 56.415216 
L 197.652745 56.825706 
L 201.879706 56.741961 
L 206.106667 56.713262 
L 210.333627 56.716108 
L 214.560588 56.886883 
L 218.787549 56.152134 
L 223.01451 56.280617 
L 227.241471 55.862846 
L 231.468431 56.202332 
L 235.695392 56.332068 
L 239.922353 56.153188 
L 244.149314 55.891123 
L 248.376275 55.594807 
L 252.603235 56.129313 
L 256.830196 56.207769 
L 261.057157 56.345937 
L 265.284118 56.43306 
L 269.511078 56.646971 
L 273.738039 56.715447 
" style="fill:none;stroke:#1f77b4;stroke-linecap:square;stroke-width:1.5;"/>
   </g>
   <g id="line2d_25">
    <path clip-path="url(#pb136e28425)" d="M 62.39 47.238044 
L 66.616961 47.239136 
L 70.843922 47.234777 
L 75.070882 47.400837 
L 79.297843 47.317023 
L 83.524804 47.393252 
L 87.751765 47.407064 
L 91.978725 47.266332 
L 96.205686 47.146718 
L 100.432647 47.185136 
L 104.659608 47.21215 
L 108.886569 47.253227 
L 113.113529 47.267521 
L 117.34049 47.269554 
L 121.567451 47.251264 
L 125.794412 47.219737 
L 130.021373 47.2848 
L 134.248333 47.33209 
L 138.475294 47.34432 
L 142.702255 47.37787 
L 146.929216 47.405137 
L 151.156176 47.453763 
L 155.383137 47.408735 
L 159.610098 47.415385 
L 163.837059 47.495467 
L 168.06402 47.479691 
L 172.29098 47.459361 
L 176.517941 47.496242 
L 180.744902 47.652233 
L 184.971863 47.615274 
L 189.198824 47.456113 
L 193.425784 47.354737 
L 197.652745 47.423076 
L 201.879706 47.320341 
L 206.106667 47.209073 
L 210.333627 47.315498 
L 214.560588 47.265919 
L 218.787549 47.233774 
L 223.01451 47.181233 
L 227.241471 47.225539 
L 231.468431 47.232505 
L 235.695392 47.369583 
L 239.922353 47.334432 
L 244.149314 47.246912 
L 248.376275 47.171012 
L 252.603235 47.201741 
L 256.830196 47.216636 
L 261.057157 47.272691 
L 265.284118 47.268637 
L 269.511078 47.292052 
L 273.738039 47.238872 
" style="fill:none;stroke:#ff7f0e;stroke-linecap:square;stroke-width:1.5;"/>
   </g>
   <g id="line2d_26">
    <path clip-path="url(#pb136e28425)" d="M 62.39 41.061814 
L 66.616961 41.119118 
L 70.843922 41.217648 
L 75.070882 40.677473 
L 79.297843 40.809031 
L 83.524804 40.685039 
L 87.751765 40.671962 
L 91.978725 41.243698 
L 96.205686 41.480953 
L 100.432647 41.153168 
L 104.659608 41.331935 
L 108.886569 41.316502 
L 113.113529 41.167127 
L 117.34049 41.559952 
L 121.567451 41.254098 
L 125.794412 41.129911 
L 130.021373 41.37464 
L 134.248333 41.563294 
L 138.475294 41.754195 
L 142.702255 41.497258 
L 146.929216 41.012851 
L 151.156176 40.758704 
L 155.383137 41.030078 
L 159.610098 41.23756 
L 163.837059 40.839911 
L 168.06402 40.992834 
L 172.29098 40.763775 
L 176.517941 40.179842 
L 180.744902 39.489767 
L 184.971863 39.473151 
L 189.198824 40.35794 
L 193.425784 40.644133 
L 197.652745 40.815705 
L 201.879706 40.966205 
L 206.106667 41.260922 
L 210.333627 41.119669 
L 214.560588 41.709445 
L 218.787549 41.672767 
L 223.01451 42.047013 
L 227.241471 41.731256 
L 231.468431 41.710649 
L 235.695392 41.467185 
L 239.922353 41.619218 
L 244.149314 41.785053 
L 248.376275 41.926123 
L 252.603235 42.028914 
L 256.830196 42.072897 
L 261.057157 42.011653 
L 265.284118 41.74045 
L 269.511078 41.81217 
L 273.738039 41.534077 
" style="fill:none;stroke:#2ca02c;stroke-linecap:square;stroke-width:1.5;"/>
   </g>
   <g id="patch_3">
    <path d="M 62.39 210.04 
L 62.39 13.32 
" style="fill:none;stroke:#000000;stroke-linecap:square;stroke-linejoin:miter;stroke-width:0.8;"/>
   </g>
   <g id="patch_4">
    <path d="M 277.965 210.04 
L 277.965 13.32 
" style="fill:none;stroke:#000000;stroke-linecap:square;stroke-linejoin:miter;stroke-width:0.8;"/>
   </g>
   <g id="patch_5">
    <path d="M 62.39 210.04 
L 277.965 210.04 
" style="fill:none;stroke:#000000;stroke-linecap:square;stroke-linejoin:miter;stroke-width:0.8;"/>
   </g>
   <g id="patch_6">
    <path d="M 62.39 13.32 
L 277.965 13.32 
" style="fill:none;stroke:#000000;stroke-linecap:square;stroke-linejoin:miter;stroke-width:0.8;"/>
   </g>
  </g>
  <g id="axes_2">
   <g id="patch_7">
    <path d="M 347.105 210.04 
L 562.68 210.04 
L 562.68 13.32 
L 347.105 13.32 
z
" style="fill:#ffffff;"/>
   </g>
   <g id="matplotlib.axis_3">
    <g id="xtick_7">
     <g id="line2d_27">
      <g>
       <use style="stroke:#000000;stroke-width:0.8;" x="347.105" xlink:href="#m37d6fb221a" y="210.04"/>
      </g>
     </g>
     <g id="text_16">
      <!-- 0 -->
      <g transform="translate(343.92375 224.638438)scale(0.1 -0.1)">
       <use xlink:href="#DejaVuSans-30"/>
      </g>
     </g>
    </g>
    <g id="xtick_8">
     <g id="line2d_28">
      <g>
       <use style="stroke:#000000;stroke-width:0.8;" x="389.374608" xlink:href="#m37d6fb221a" y="210.04"/>
      </g>
     </g>
     <g id="text_17">
      <!-- 10 -->
      <g transform="translate(383.012108 224.638438)scale(0.1 -0.1)">
       <use xlink:href="#DejaVuSans-31"/>
       <use x="63.623047" xlink:href="#DejaVuSans-30"/>
      </g>
     </g>
    </g>
    <g id="xtick_9">
     <g id="line2d_29">
      <g>
       <use style="stroke:#000000;stroke-width:0.8;" x="431.644216" xlink:href="#m37d6fb221a" y="210.04"/>
      </g>
     </g>
     <g id="text_18">
      <!-- 20 -->
      <g transform="translate(425.281716 224.638438)scale(0.1 -0.1)">
       <use xlink:href="#DejaVuSans-32"/>
       <use x="63.623047" xlink:href="#DejaVuSans-30"/>
      </g>
     </g>
    </g>
    <g id="xtick_10">
     <g id="line2d_30">
      <g>
       <use style="stroke:#000000;stroke-width:0.8;" x="473.913824" xlink:href="#m37d6fb221a" y="210.04"/>
      </g>
     </g>
     <g id="text_19">
      <!-- 30 -->
      <g transform="translate(467.551324 224.638438)scale(0.1 -0.1)">
       <use xlink:href="#DejaVuSans-33"/>
       <use x="63.623047" xlink:href="#DejaVuSans-30"/>
      </g>
     </g>
    </g>
    <g id="xtick_11">
     <g id="line2d_31">
      <g>
       <use style="stroke:#000000;stroke-width:0.8;" x="516.183431" xlink:href="#m37d6fb221a" y="210.04"/>
      </g>
     </g>
     <g id="text_20">
      <!-- 40 -->
      <g transform="translate(509.820931 224.638438)scale(0.1 -0.1)">
       <use xlink:href="#DejaVuSans-34"/>
       <use x="63.623047" xlink:href="#DejaVuSans-30"/>
      </g>
     </g>
    </g>
    <g id="xtick_12">
     <g id="line2d_32">
      <g>
       <use style="stroke:#000000;stroke-width:0.8;" x="558.453039" xlink:href="#m37d6fb221a" y="210.04"/>
      </g>
     </g>
     <g id="text_21">
      <!-- 50 -->
      <g transform="translate(552.090539 224.638438)scale(0.1 -0.1)">
       <use xlink:href="#DejaVuSans-35"/>
       <use x="63.623047" xlink:href="#DejaVuSans-30"/>
      </g>
     </g>
    </g>
    <g id="text_22">
     <!-- SCPH iteration -->
     <g transform="translate(418.740156 238.316563)scale(0.1 -0.1)">
      <use xlink:href="#DejaVuSans-53"/>
      <use x="63.476562" xlink:href="#DejaVuSans-43"/>
      <use x="133.300781" xlink:href="#DejaVuSans-50"/>
      <use x="193.603516" xlink:href="#DejaVuSans-48"/>
      <use x="268.798828" xlink:href="#DejaVuSans-20"/>
      <use x="300.585938" xlink:href="#DejaVuSans-69"/>
      <use x="328.369141" xlink:href="#DejaVuSans-74"/>
      <use x="367.578125" xlink:href="#DejaVuSans-65"/>
      <use x="429.101562" xlink:href="#DejaVuSans-72"/>
      <use x="470.214844" xlink:href="#DejaVuSans-61"/>
      <use x="531.494141" xlink:href="#DejaVuSans-74"/>
      <use x="570.703125" xlink:href="#DejaVuSans-69"/>
      <use x="598.486328" xlink:href="#DejaVuSans-6f"/>
      <use x="659.667969" xlink:href="#DejaVuSans-6e"/>
     </g>
    </g>
   </g>
   <g id="matplotlib.axis_4">
    <g id="ytick_8">
     <g id="line2d_33">
      <g>
       <use style="stroke:#000000;stroke-width:0.8;" x="347.105" xlink:href="#m1599007087" y="210.04"/>
      </g>
     </g>
     <g id="text_23">
      <!-- 0.0000 -->
      <g transform="translate(305.114375 213.839219)scale(0.1 -0.1)">
       <use xlink:href="#DejaVuSans-30"/>
       <use x="63.623047" xlink:href="#DejaVuSans-2e"/>
       <use x="95.410156" xlink:href="#DejaVuSans-30"/>
       <use x="159.033203" xlink:href="#DejaVuSans-30"/>
       <use x="222.65625" xlink:href="#DejaVuSans-30"/>
       <use x="286.279297" xlink:href="#DejaVuSans-30"/>
      </g>
     </g>
    </g>
    <g id="ytick_9">
     <g id="line2d_34">
      <g>
       <use style="stroke:#000000;stroke-width:0.8;" x="347.105" xlink:href="#m1599007087" y="173.690391"/>
      </g>
     </g>
     <g id="text_24">
      <!-- 0.0005 -->
      <g transform="translate(305.114375 177.48961)scale(0.1 -0.1)">
       <use xlink:href="#DejaVuSans-30"/>
       <use x="63.623047" xlink:href="#DejaVuSans-2e"/>
       <use x="95.410156" xlink:href="#DejaVuSans-30"/>
       <use x="159.033203" xlink:href="#DejaVuSans-30"/>
       <use x="222.65625" xlink:href="#DejaVuSans-30"/>
       <use x="286.279297" xlink:href="#DejaVuSans-35"/>
      </g>
     </g>
    </g>
    <g id="ytick_10">
     <g id="line2d_35">
      <g>
       <use style="stroke:#000000;stroke-width:0.8;" x="347.105" xlink:href="#m1599007087" y="137.340782"/>
      </g>
     </g>
     <g id="text_25">
      <!-- 0.0010 -->
      <g transform="translate(305.114375 141.140001)scale(0.1 -0.1)">
       <use xlink:href="#DejaVuSans-30"/>
       <use x="63.623047" xlink:href="#DejaVuSans-2e"/>
       <use x="95.410156" xlink:href="#DejaVuSans-30"/>
       <use x="159.033203" xlink:href="#DejaVuSans-30"/>
       <use x="222.65625" xlink:href="#DejaVuSans-31"/>
       <use x="286.279297" xlink:href="#DejaVuSans-30"/>
      </g>
     </g>
    </g>
    <g id="ytick_11">
     <g id="line2d_36">
      <g>
       <use style="stroke:#000000;stroke-width:0.8;" x="347.105" xlink:href="#m1599007087" y="100.991173"/>
      </g>
     </g>
     <g id="text_26">
      <!-- 0.0015 -->
      <g transform="translate(305.114375 104.790392)scale(0.1 -0.1)">
       <use xlink:href="#DejaVuSans-30"/>
       <use x="63.623047" xlink:href="#DejaVuSans-2e"/>
       <use x="95.410156" xlink:href="#DejaVuSans-30"/>
       <use x="159.033203" xlink:href="#DejaVuSans-30"/>
       <use x="222.65625" xlink:href="#DejaVuSans-31"/>
       <use x="286.279297" xlink:href="#DejaVuSans-35"/>
      </g>
     </g>
    </g>
    <g id="ytick_12">
     <g id="line2d_37">
      <g>
       <use style="stroke:#000000;stroke-width:0.8;" x="347.105" xlink:href="#m1599007087" y="64.641564"/>
      </g>
     </g>
     <g id="text_27">
      <!-- 0.0020 -->
      <g transform="translate(305.114375 68.440783)scale(0.1 -0.1)">
       <use xlink:href="#DejaVuSans-30"/>
       <use x="63.623047" xlink:href="#DejaVuSans-2e"/>
       <use x="95.410156" xlink:href="#DejaVuSans-30"/>
       <use x="159.033203" xlink:href="#DejaVuSans-30"/>
       <use x="222.65625" xlink:href="#DejaVuSans-32"/>
       <use x="286.279297" xlink:href="#DejaVuSans-30"/>
      </g>
     </g>
    </g>
    <g id="ytick_13">
     <g id="line2d_38">
      <g>
       <use style="stroke:#000000;stroke-width:0.8;" x="347.105" xlink:href="#m1599007087" y="28.291955"/>
      </g>
     </g>
     <g id="text_28">
      <!-- 0.0025 -->
      <g transform="translate(305.114375 32.091174)scale(0.1 -0.1)">
       <use xlink:href="#DejaVuSans-30"/>
       <use x="63.623047" xlink:href="#DejaVuSans-2e"/>
       <use x="95.410156" xlink:href="#DejaVuSans-30"/>
       <use x="159.033203" xlink:href="#DejaVuSans-30"/>
       <use x="222.65625" xlink:href="#DejaVuSans-32"/>
       <use x="286.279297" xlink:href="#DejaVuSans-35"/>
      </g>
     </g>
    </g>
    <g id="text_29">
     <!-- $\Delta$ Parameters -->
     <defs>
      <path d="M 34.1875 63.1875 
L 14.15625 8.203125 
L 54.25 8.203125 
z
M 0.78125 0 
L 28.609375 72.90625 
L 39.796875 72.90625 
L 67.578125 0 
z
" id="DejaVuSans-394"/>
     </defs>
     <g transform="translate(299.034687 145.58)rotate(-90)scale(0.1 -0.1)">
      <use transform="translate(0 0.09375)" xlink:href="#DejaVuSans-394"/>
      <use transform="translate(68.408203 0.09375)" xlink:href="#DejaVuSans-20"/>
      <use transform="translate(100.195312 0.09375)" xlink:href="#DejaVuSans-50"/>
      <use transform="translate(160.498047 0.09375)" xlink:href="#DejaVuSans-61"/>
      <use transform="translate(221.777344 0.09375)" xlink:href="#DejaVuSans-72"/>
      <use transform="translate(262.890625 0.09375)" xlink:href="#DejaVuSans-61"/>
      <use transform="translate(324.169922 0.09375)" xlink:href="#DejaVuSans-6d"/>
      <use transform="translate(421.582031 0.09375)" xlink:href="#DejaVuSans-65"/>
      <use transform="translate(483.105469 0.09375)" xlink:href="#DejaVuSans-74"/>
      <use transform="translate(522.314453 0.09375)" xlink:href="#DejaVuSans-65"/>
      <use transform="translate(583.837891 0.09375)" xlink:href="#DejaVuSans-72"/>
      <use transform="translate(624.951172 0.09375)" xlink:href="#DejaVuSans-73"/>
     </g>
    </g>
   </g>
   <g id="line2d_39">
    <path clip-path="url(#ped82682807)" d="M 347.105 20.959424 
L 351.331961 38.04099 
L 355.558922 25.816929 
L 359.785882 87.862457 
L 364.012843 105.6904 
L 368.239804 124.007902 
L 372.466765 111.22147 
L 376.693725 121.281577 
L 380.920686 147.948548 
L 385.147647 148.691812 
L 389.374608 111.664 
L 393.601569 100.503448 
L 397.828529 107.43828 
L 402.05549 129.368027 
L 406.282451 135.840974 
L 410.509412 156.951172 
L 414.736373 151.616898 
L 418.963333 150.740206 
L 423.190294 135.097521 
L 427.417255 123.999699 
L 431.644216 150.917177 
L 435.871176 142.856338 
L 440.098137 95.190247 
L 444.325098 115.964674 
L 448.552059 154.222074 
L 452.77902 131.486616 
L 457.00598 102.352378 
L 461.232941 123.281498 
L 465.459902 161.188479 
L 469.686863 59.918667 
L 473.913824 125.517715 
L 478.140784 145.310396 
L 482.367745 173.747909 
L 486.594706 149.154939 
L 490.821667 140.024959 
L 495.048627 96.384622 
L 499.275588 94.872297 
L 503.502549 139.075456 
L 507.72951 124.422232 
L 511.956471 124.284631 
L 516.183431 102.865392 
L 520.410392 157.892998 
L 524.637353 170.291757 
L 528.864314 133.232209 
L 533.091275 167.076158 
L 537.318235 132.212144 
L 541.545196 132.823658 
L 545.772157 148.80353 
L 549.999118 125.228188 
L 554.226078 146.732756 
" style="fill:none;stroke:#1f77b4;stroke-linecap:square;stroke-width:1.5;"/>
   </g>
   <g id="patch_8">
    <path d="M 347.105 210.04 
L 347.105 13.32 
" style="fill:none;stroke:#000000;stroke-linecap:square;stroke-linejoin:miter;stroke-width:0.8;"/>
   </g>
   <g id="patch_9">
    <path d="M 562.68 210.04 
L 562.68 13.32 
" style="fill:none;stroke:#000000;stroke-linecap:square;stroke-linejoin:miter;stroke-width:0.8;"/>
   </g>
   <g id="patch_10">
    <path d="M 347.105 210.04 
L 562.68 210.04 
" style="fill:none;stroke:#000000;stroke-linecap:square;stroke-linejoin:miter;stroke-width:0.8;"/>
   </g>
   <g id="patch_11">
    <path d="M 347.105 13.32 
L 562.68 13.32 
" style="fill:none;stroke:#000000;stroke-linecap:square;stroke-linejoin:miter;stroke-width:0.8;"/>
   </g>
  </g>
 </g>
 <defs>
  <clipPath id="pb136e28425">
   <rect height="196.72" width="215.575" x="62.39" y="13.32"/>
  </clipPath>
  <clipPath id="ped82682807">
   <rect height="196.72" width="215.575" x="347.105" y="13.32"/>
  </clipPath>
 </defs>
</svg>
