<?xml version="1.0" encoding="utf-8" standalone="no"?>
<!DOCTYPE svg PUBLIC "-//W3C//DTD SVG 1.1//EN"
  "http://www.w3.org/Graphics/SVG/1.1/DTD/svg11.dtd">
<!-- Created with matplotlib (http://matplotlib.org/) -->
<svg height="345.6pt" version="1.1" viewBox="0 0 460.8 345.6" width="460.8pt" xmlns="http://www.w3.org/2000/svg" xmlns:xlink="http://www.w3.org/1999/xlink">
 <defs>
  <style type="text/css">
*{stroke-linecap:butt;stroke-linejoin:round;}
  </style>
 </defs>
 <g id="figure_1">
  <g id="patch_1">
   <path d="M 0 345.6 
L 460.8 345.6 
L 460.8 0 
L 0 0 
z
" style="fill:#ffffff;"/>
  </g>
  <g id="axes_1">
   <g id="patch_2">
    <path d="M 54.02 299.58875 
L 446.540625 299.58875 
L 446.540625 14.76 
L 54.02 14.76 
z
" style="fill:#ffffff;"/>
   </g>
   <g id="matplotlib.axis_1">
    <g id="xtick_1">
     <g id="line2d_1">
      <defs>
       <path d="M 0 0 
L 0 3.5 
" id="meac7f423bb" style="stroke:#000000;stroke-width:0.8;"/>
      </defs>
      <g>
       <use style="stroke:#000000;stroke-width:0.8;" x="54.02" xlink:href="#meac7f423bb" y="299.58875"/>
      </g>
     </g>
     <g id="text_1">
      <!-- N -->
      <defs>
       <path d="M 9.8125 72.90625 
L 23.09375 72.90625 
L 55.421875 11.921875 
L 55.421875 72.90625 
L 64.984375 72.90625 
L 64.984375 0 
L 51.703125 0 
L 19.390625 60.984375 
L 19.390625 0 
L 9.8125 0 
z
" id="DejaVuSans-4e"/>
      </defs>
      <g transform="translate(50.279375 314.187187)scale(0.1 -0.1)">
       <use xlink:href="#DejaVuSans-4e"/>
      </g>
     </g>
    </g>
    <g id="xtick_2">
     <g id="line2d_2">
      <g>
       <use style="stroke:#000000;stroke-width:0.8;" x="134.724064" xlink:href="#meac7f423bb" y="299.58875"/>
      </g>
     </g>
     <g id="text_2">
      <!-- $\Gamma$ -->
      <defs>
       <path d="M 9.8125 0 
L 9.8125 72.90625 
L 55.171875 72.90625 
L 55.171875 64.59375 
L 19.671875 64.59375 
L 19.671875 0 
z
" id="DejaVuSans-393"/>
      </defs>
      <g transform="translate(131.924064 314.187187)scale(0.1 -0.1)">
       <use transform="translate(0 0.09375)" xlink:href="#DejaVuSans-393"/>
      </g>
     </g>
    </g>
    <g id="xtick_3">
     <g id="line2d_3">
      <g>
       <use style="stroke:#000000;stroke-width:0.8;" x="248.856847" xlink:href="#meac7f423bb" y="299.58875"/>
      </g>
     </g>
     <g id="text_3">
      <!-- H -->
      <defs>
       <path d="M 9.8125 72.90625 
L 19.671875 72.90625 
L 19.671875 43.015625 
L 55.515625 43.015625 
L 55.515625 72.90625 
L 65.375 72.90625 
L 65.375 0 
L 55.515625 0 
L 55.515625 34.71875 
L 19.671875 34.71875 
L 19.671875 0 
L 9.8125 0 
z
" id="DejaVuSans-48"/>
      </defs>
      <g transform="translate(245.096691 314.187187)scale(0.1 -0.1)">
       <use xlink:href="#DejaVuSans-48"/>
      </g>
     </g>
    </g>
    <g id="xtick_4">
     <g id="line2d_4">
      <g>
       <use style="stroke:#000000;stroke-width:0.8;" x="446.540625" xlink:href="#meac7f423bb" y="299.58875"/>
      </g>
     </g>
     <g id="text_4">
      <!-- $\Gamma$ -->
      <g transform="translate(443.740625 314.187187)scale(0.1 -0.1)">
       <use transform="translate(0 0.09375)" xlink:href="#DejaVuSans-393"/>
      </g>
     </g>
    </g>
    <g id="text_5">
     <!-- Wave vector $\vec{q}$ -->
     <defs>
      <path d="M 3.328125 72.90625 
L 13.28125 72.90625 
L 28.609375 11.28125 
L 43.890625 72.90625 
L 54.984375 72.90625 
L 70.3125 11.28125 
L 85.59375 72.90625 
L 95.609375 72.90625 
L 77.296875 0 
L 64.890625 0 
L 49.515625 63.28125 
L 33.984375 0 
L 21.578125 0 
z
" id="DejaVuSans-57"/>
      <path d="M 34.28125 27.484375 
Q 23.390625 27.484375 19.1875 25 
Q 14.984375 22.515625 14.984375 16.5 
Q 14.984375 11.71875 18.140625 8.90625 
Q 21.296875 6.109375 26.703125 6.109375 
Q 34.1875 6.109375 38.703125 11.40625 
Q 43.21875 16.703125 43.21875 25.484375 
L 43.21875 27.484375 
z
M 52.203125 31.203125 
L 52.203125 0 
L 43.21875 0 
L 43.21875 8.296875 
Q 40.140625 3.328125 35.546875 0.953125 
Q 30.953125 -1.421875 24.3125 -1.421875 
Q 15.921875 -1.421875 10.953125 3.296875 
Q 6 8.015625 6 15.921875 
Q 6 25.140625 12.171875 29.828125 
Q 18.359375 34.515625 30.609375 34.515625 
L 43.21875 34.515625 
L 43.21875 35.40625 
Q 43.21875 41.609375 39.140625 45 
Q 35.0625 48.390625 27.6875 48.390625 
Q 23 48.390625 18.546875 47.265625 
Q 14.109375 46.140625 10.015625 43.890625 
L 10.015625 52.203125 
Q 14.9375 54.109375 19.578125 55.046875 
Q 24.21875 56 28.609375 56 
Q 40.484375 56 46.34375 49.84375 
Q 52.203125 43.703125 52.203125 31.203125 
z
" id="DejaVuSans-61"/>
      <path d="M 2.984375 54.6875 
L 12.5 54.6875 
L 29.59375 8.796875 
L 46.6875 54.6875 
L 56.203125 54.6875 
L 35.6875 0 
L 23.484375 0 
z
" id="DejaVuSans-76"/>
      <path d="M 56.203125 29.59375 
L 56.203125 25.203125 
L 14.890625 25.203125 
Q 15.484375 15.921875 20.484375 11.0625 
Q 25.484375 6.203125 34.421875 6.203125 
Q 39.59375 6.203125 44.453125 7.46875 
Q 49.3125 8.734375 54.109375 11.28125 
L 54.109375 2.78125 
Q 49.265625 0.734375 44.1875 -0.34375 
Q 39.109375 -1.421875 33.890625 -1.421875 
Q 20.796875 -1.421875 13.15625 6.1875 
Q 5.515625 13.8125 5.515625 26.8125 
Q 5.515625 40.234375 12.765625 48.109375 
Q 20.015625 56 32.328125 56 
Q 43.359375 56 49.78125 48.890625 
Q 56.203125 41.796875 56.203125 29.59375 
z
M 47.21875 32.234375 
Q 47.125 39.59375 43.09375 43.984375 
Q 39.0625 48.390625 32.421875 48.390625 
Q 24.90625 48.390625 20.390625 44.140625 
Q 15.875 39.890625 15.1875 32.171875 
z
" id="DejaVuSans-65"/>
      <path id="DejaVuSans-20"/>
      <path d="M 48.78125 52.59375 
L 48.78125 44.1875 
Q 44.96875 46.296875 41.140625 47.34375 
Q 37.3125 48.390625 33.40625 48.390625 
Q 24.65625 48.390625 19.8125 42.84375 
Q 14.984375 37.3125 14.984375 27.296875 
Q 14.984375 17.28125 19.8125 11.734375 
Q 24.65625 6.203125 33.40625 6.203125 
Q 37.3125 6.203125 41.140625 7.25 
Q 44.96875 8.296875 48.78125 10.40625 
L 48.78125 2.09375 
Q 45.015625 0.34375 40.984375 -0.53125 
Q 36.96875 -1.421875 32.421875 -1.421875 
Q 20.0625 -1.421875 12.78125 6.34375 
Q 5.515625 14.109375 5.515625 27.296875 
Q 5.515625 40.671875 12.859375 48.328125 
Q 20.21875 56 33.015625 56 
Q 37.15625 56 41.109375 55.140625 
Q 45.0625 54.296875 48.78125 52.59375 
z
" id="DejaVuSans-63"/>
      <path d="M 18.3125 70.21875 
L 18.3125 54.6875 
L 36.8125 54.6875 
L 36.8125 47.703125 
L 18.3125 47.703125 
L 18.3125 18.015625 
Q 18.3125 11.328125 20.140625 9.421875 
Q 21.96875 7.515625 27.59375 7.515625 
L 36.8125 7.515625 
L 36.8125 0 
L 27.59375 0 
Q 17.1875 0 13.234375 3.875 
Q 9.28125 7.765625 9.28125 18.015625 
L 9.28125 47.703125 
L 2.6875 47.703125 
L 2.6875 54.6875 
L 9.28125 54.6875 
L 9.28125 70.21875 
z
" id="DejaVuSans-74"/>
      <path d="M 30.609375 48.390625 
Q 23.390625 48.390625 19.1875 42.75 
Q 14.984375 37.109375 14.984375 27.296875 
Q 14.984375 17.484375 19.15625 11.84375 
Q 23.34375 6.203125 30.609375 6.203125 
Q 37.796875 6.203125 41.984375 11.859375 
Q 46.1875 17.53125 46.1875 27.296875 
Q 46.1875 37.015625 41.984375 42.703125 
Q 37.796875 48.390625 30.609375 48.390625 
z
M 30.609375 56 
Q 42.328125 56 49.015625 48.375 
Q 55.71875 40.765625 55.71875 27.296875 
Q 55.71875 13.875 49.015625 6.21875 
Q 42.328125 -1.421875 30.609375 -1.421875 
Q 18.84375 -1.421875 12.171875 6.21875 
Q 5.515625 13.875 5.515625 27.296875 
Q 5.515625 40.765625 12.171875 48.375 
Q 18.84375 56 30.609375 56 
z
" id="DejaVuSans-6f"/>
      <path d="M 41.109375 46.296875 
Q 39.59375 47.171875 37.8125 47.578125 
Q 36.03125 48 33.890625 48 
Q 26.265625 48 22.1875 43.046875 
Q 18.109375 38.09375 18.109375 28.8125 
L 18.109375 0 
L 9.078125 0 
L 9.078125 54.6875 
L 18.109375 54.6875 
L 18.109375 46.1875 
Q 20.953125 51.171875 25.484375 53.578125 
Q 30.03125 56 36.53125 56 
Q 37.453125 56 38.578125 55.875 
Q 39.703125 55.765625 41.0625 55.515625 
z
" id="DejaVuSans-72"/>
      <path d="M -47.015625 63.53125 
L -47.015625 68.40625 
L -10.84375 68.40625 
L -17.28125 75.984375 
L -11.140625 75.984375 
L -2.59375 65.96875 
L -11.140625 55.953125 
L -17.28125 55.953125 
L -10.84375 63.53125 
z
" id="DejaVuSans-20d7"/>
      <path d="M 41.703125 8.203125 
Q 38.09375 3.46875 33.171875 1.015625 
Q 28.265625 -1.421875 22.3125 -1.421875 
Q 14.015625 -1.421875 9.296875 4.171875 
Q 4.59375 9.765625 4.59375 19.578125 
Q 4.59375 27.484375 7.5 34.859375 
Q 10.40625 42.234375 15.828125 48.09375 
Q 19.34375 51.90625 23.90625 53.953125 
Q 28.46875 56 33.5 56 
Q 39.546875 56 43.453125 53.609375 
Q 47.359375 51.21875 49.125 46.390625 
L 50.6875 54.59375 
L 59.71875 54.59375 
L 45.125 -20.609375 
L 36.078125 -20.609375 
z
M 13.921875 20.90625 
Q 13.921875 13.671875 16.9375 9.890625 
Q 19.96875 6.109375 25.6875 6.109375 
Q 34.1875 6.109375 40.1875 14.234375 
Q 46.1875 22.359375 46.1875 33.984375 
Q 46.1875 41.015625 43.078125 44.75 
Q 39.984375 48.484375 34.1875 48.484375 
Q 29.9375 48.484375 26.3125 46.5 
Q 22.703125 44.53125 20.015625 40.71875 
Q 17.1875 36.71875 15.546875 31.34375 
Q 13.921875 25.984375 13.921875 20.90625 
z
" id="DejaVuSans-Oblique-71"/>
     </defs>
     <g transform="translate(213.980312 329.166875)scale(0.1 -0.1)">
      <use transform="translate(0 0.46875)" xlink:href="#DejaVuSans-57"/>
      <use transform="translate(98.876953 0.46875)" xlink:href="#DejaVuSans-61"/>
      <use transform="translate(160.15625 0.46875)" xlink:href="#DejaVuSans-76"/>
      <use transform="translate(219.335938 0.46875)" xlink:href="#DejaVuSans-65"/>
      <use transform="translate(280.859375 0.46875)" xlink:href="#DejaVuSans-20"/>
      <use transform="translate(312.646484 0.46875)" xlink:href="#DejaVuSans-76"/>
      <use transform="translate(371.826172 0.46875)" xlink:href="#DejaVuSans-65"/>
      <use transform="translate(433.349609 0.46875)" xlink:href="#DejaVuSans-63"/>
      <use transform="translate(488.330078 0.46875)" xlink:href="#DejaVuSans-74"/>
      <use transform="translate(527.539062 0.46875)" xlink:href="#DejaVuSans-6f"/>
      <use transform="translate(588.720703 0.46875)" xlink:href="#DejaVuSans-72"/>
      <use transform="translate(629.833984 0.46875)" xlink:href="#DejaVuSans-20"/>
      <use transform="translate(726.505859 13.015625)" xlink:href="#DejaVuSans-20d7"/>
      <use transform="translate(661.621094 0.46875)" xlink:href="#DejaVuSans-Oblique-71"/>
     </g>
    </g>
   </g>
   <g id="matplotlib.axis_2">
    <g id="ytick_1">
     <g id="line2d_5">
      <defs>
       <path d="M 0 0 
L -3.5 0 
" id="md98e0d4de4" style="stroke:#000000;stroke-width:0.8;"/>
      </defs>
      <g>
       <use style="stroke:#000000;stroke-width:0.8;" x="54.02" xlink:href="#md98e0d4de4" y="299.58875"/>
      </g>
     </g>
     <g id="text_6">
      <!-- 0.0 -->
      <defs>
       <path d="M 31.78125 66.40625 
Q 24.171875 66.40625 20.328125 58.90625 
Q 16.5 51.421875 16.5 36.375 
Q 16.5 21.390625 20.328125 13.890625 
Q 24.171875 6.390625 31.78125 6.390625 
Q 39.453125 6.390625 43.28125 13.890625 
Q 47.125 21.390625 47.125 36.375 
Q 47.125 51.421875 43.28125 58.90625 
Q 39.453125 66.40625 31.78125 66.40625 
z
M 31.78125 74.21875 
Q 44.046875 74.21875 50.515625 64.515625 
Q 56.984375 54.828125 56.984375 36.375 
Q 56.984375 17.96875 50.515625 8.265625 
Q 44.046875 -1.421875 31.78125 -1.421875 
Q 19.53125 -1.421875 13.0625 8.265625 
Q 6.59375 17.96875 6.59375 36.375 
Q 6.59375 54.828125 13.0625 64.515625 
Q 19.53125 74.21875 31.78125 74.21875 
z
" id="DejaVuSans-30"/>
       <path d="M 10.6875 12.40625 
L 21 12.40625 
L 21 0 
L 10.6875 0 
z
" id="DejaVuSans-2e"/>
      </defs>
      <g transform="translate(31.116875 303.387969)scale(0.1 -0.1)">
       <use xlink:href="#DejaVuSans-30"/>
       <use x="63.623047" xlink:href="#DejaVuSans-2e"/>
       <use x="95.410156" xlink:href="#DejaVuSans-30"/>
      </g>
     </g>
    </g>
    <g id="ytick_2">
     <g id="line2d_6">
      <g>
       <use style="stroke:#000000;stroke-width:0.8;" x="54.02" xlink:href="#md98e0d4de4" y="263.985156"/>
      </g>
     </g>
     <g id="text_7">
      <!-- 2.5 -->
      <defs>
       <path d="M 19.1875 8.296875 
L 53.609375 8.296875 
L 53.609375 0 
L 7.328125 0 
L 7.328125 8.296875 
Q 12.9375 14.109375 22.625 23.890625 
Q 32.328125 33.6875 34.8125 36.53125 
Q 39.546875 41.84375 41.421875 45.53125 
Q 43.3125 49.21875 43.3125 52.78125 
Q 43.3125 58.59375 39.234375 62.25 
Q 35.15625 65.921875 28.609375 65.921875 
Q 23.96875 65.921875 18.8125 64.3125 
Q 13.671875 62.703125 7.8125 59.421875 
L 7.8125 69.390625 
Q 13.765625 71.78125 18.9375 73 
Q 24.125 74.21875 28.421875 74.21875 
Q 39.75 74.21875 46.484375 68.546875 
Q 53.21875 62.890625 53.21875 53.421875 
Q 53.21875 48.921875 51.53125 44.890625 
Q 49.859375 40.875 45.40625 35.40625 
Q 44.1875 33.984375 37.640625 27.21875 
Q 31.109375 20.453125 19.1875 8.296875 
z
" id="DejaVuSans-32"/>
       <path d="M 10.796875 72.90625 
L 49.515625 72.90625 
L 49.515625 64.59375 
L 19.828125 64.59375 
L 19.828125 46.734375 
Q 21.96875 47.46875 24.109375 47.828125 
Q 26.265625 48.1875 28.421875 48.1875 
Q 40.625 48.1875 47.75 41.5 
Q 54.890625 34.8125 54.890625 23.390625 
Q 54.890625 11.625 47.5625 5.09375 
Q 40.234375 -1.421875 26.90625 -1.421875 
Q 22.3125 -1.421875 17.546875 -0.640625 
Q 12.796875 0.140625 7.71875 1.703125 
L 7.71875 11.625 
Q 12.109375 9.234375 16.796875 8.0625 
Q 21.484375 6.890625 26.703125 6.890625 
Q 35.15625 6.890625 40.078125 11.328125 
Q 45.015625 15.765625 45.015625 23.390625 
Q 45.015625 31 40.078125 35.4375 
Q 35.15625 39.890625 26.703125 39.890625 
Q 22.75 39.890625 18.8125 39.015625 
Q 14.890625 38.140625 10.796875 36.28125 
z
" id="DejaVuSans-35"/>
      </defs>
      <g transform="translate(31.116875 267.784375)scale(0.1 -0.1)">
       <use xlink:href="#DejaVuSans-32"/>
       <use x="63.623047" xlink:href="#DejaVuSans-2e"/>
       <use x="95.410156" xlink:href="#DejaVuSans-35"/>
      </g>
     </g>
    </g>
    <g id="ytick_3">
     <g id="line2d_7">
      <g>
       <use style="stroke:#000000;stroke-width:0.8;" x="54.02" xlink:href="#md98e0d4de4" y="228.381563"/>
      </g>
     </g>
     <g id="text_8">
      <!-- 5.0 -->
      <g transform="translate(31.116875 232.180781)scale(0.1 -0.1)">
       <use xlink:href="#DejaVuSans-35"/>
       <use x="63.623047" xlink:href="#DejaVuSans-2e"/>
       <use x="95.410156" xlink:href="#DejaVuSans-30"/>
      </g>
     </g>
    </g>
    <g id="ytick_4">
     <g id="line2d_8">
      <g>
       <use style="stroke:#000000;stroke-width:0.8;" x="54.02" xlink:href="#md98e0d4de4" y="192.777969"/>
      </g>
     </g>
     <g id="text_9">
      <!-- 7.5 -->
      <defs>
       <path d="M 8.203125 72.90625 
L 55.078125 72.90625 
L 55.078125 68.703125 
L 28.609375 0 
L 18.3125 0 
L 43.21875 64.59375 
L 8.203125 64.59375 
z
" id="DejaVuSans-37"/>
      </defs>
      <g transform="translate(31.116875 196.577187)scale(0.1 -0.1)">
       <use xlink:href="#DejaVuSans-37"/>
       <use x="63.623047" xlink:href="#DejaVuSans-2e"/>
       <use x="95.410156" xlink:href="#DejaVuSans-35"/>
      </g>
     </g>
    </g>
    <g id="ytick_5">
     <g id="line2d_9">
      <g>
       <use style="stroke:#000000;stroke-width:0.8;" x="54.02" xlink:href="#md98e0d4de4" y="157.174375"/>
      </g>
     </g>
     <g id="text_10">
      <!-- 10.0 -->
      <defs>
       <path d="M 12.40625 8.296875 
L 28.515625 8.296875 
L 28.515625 63.921875 
L 10.984375 60.40625 
L 10.984375 69.390625 
L 28.421875 72.90625 
L 38.28125 72.90625 
L 38.28125 8.296875 
L 54.390625 8.296875 
L 54.390625 0 
L 12.40625 0 
z
" id="DejaVuSans-31"/>
      </defs>
      <g transform="translate(24.754375 160.973594)scale(0.1 -0.1)">
       <use xlink:href="#DejaVuSans-31"/>
       <use x="63.623047" xlink:href="#DejaVuSans-30"/>
       <use x="127.246094" xlink:href="#DejaVuSans-2e"/>
       <use x="159.033203" xlink:href="#DejaVuSans-30"/>
      </g>
     </g>
    </g>
    <g id="ytick_6">
     <g id="line2d_10">
      <g>
       <use style="stroke:#000000;stroke-width:0.8;" x="54.02" xlink:href="#md98e0d4de4" y="121.570781"/>
      </g>
     </g>
     <g id="text_11">
      <!-- 12.5 -->
      <g transform="translate(24.754375 125.37)scale(0.1 -0.1)">
       <use xlink:href="#DejaVuSans-31"/>
       <use x="63.623047" xlink:href="#DejaVuSans-32"/>
       <use x="127.246094" xlink:href="#DejaVuSans-2e"/>
       <use x="159.033203" xlink:href="#DejaVuSans-35"/>
      </g>
     </g>
    </g>
    <g id="ytick_7">
     <g id="line2d_11">
      <g>
       <use style="stroke:#000000;stroke-width:0.8;" x="54.02" xlink:href="#md98e0d4de4" y="85.967187"/>
      </g>
     </g>
     <g id="text_12">
      <!-- 15.0 -->
      <g transform="translate(24.754375 89.766406)scale(0.1 -0.1)">
       <use xlink:href="#DejaVuSans-31"/>
       <use x="63.623047" xlink:href="#DejaVuSans-35"/>
       <use x="127.246094" xlink:href="#DejaVuSans-2e"/>
       <use x="159.033203" xlink:href="#DejaVuSans-30"/>
      </g>
     </g>
    </g>
    <g id="ytick_8">
     <g id="line2d_12">
      <g>
       <use style="stroke:#000000;stroke-width:0.8;" x="54.02" xlink:href="#md98e0d4de4" y="50.363594"/>
      </g>
     </g>
     <g id="text_13">
      <!-- 17.5 -->
      <g transform="translate(24.754375 54.162812)scale(0.1 -0.1)">
       <use xlink:href="#DejaVuSans-31"/>
       <use x="63.623047" xlink:href="#DejaVuSans-37"/>
       <use x="127.246094" xlink:href="#DejaVuSans-2e"/>
       <use x="159.033203" xlink:href="#DejaVuSans-35"/>
      </g>
     </g>
    </g>
    <g id="ytick_9">
     <g id="line2d_13">
      <g>
       <use style="stroke:#000000;stroke-width:0.8;" x="54.02" xlink:href="#md98e0d4de4" y="14.76"/>
      </g>
     </g>
     <g id="text_14">
      <!-- 20.0 -->
      <g transform="translate(24.754375 18.559219)scale(0.1 -0.1)">
       <use xlink:href="#DejaVuSans-32"/>
       <use x="63.623047" xlink:href="#DejaVuSans-30"/>
       <use x="127.246094" xlink:href="#DejaVuSans-2e"/>
       <use x="159.033203" xlink:href="#DejaVuSans-30"/>
      </g>
     </g>
    </g>
    <g id="text_15">
     <!-- Frequency (meV) -->
     <defs>
      <path d="M 9.8125 72.90625 
L 51.703125 72.90625 
L 51.703125 64.59375 
L 19.671875 64.59375 
L 19.671875 43.109375 
L 48.578125 43.109375 
L 48.578125 34.8125 
L 19.671875 34.8125 
L 19.671875 0 
L 9.8125 0 
z
" id="DejaVuSans-46"/>
      <path d="M 14.796875 27.296875 
Q 14.796875 17.390625 18.875 11.75 
Q 22.953125 6.109375 30.078125 6.109375 
Q 37.203125 6.109375 41.296875 11.75 
Q 45.40625 17.390625 45.40625 27.296875 
Q 45.40625 37.203125 41.296875 42.84375 
Q 37.203125 48.484375 30.078125 48.484375 
Q 22.953125 48.484375 18.875 42.84375 
Q 14.796875 37.203125 14.796875 27.296875 
z
M 45.40625 8.203125 
Q 42.578125 3.328125 38.25 0.953125 
Q 33.9375 -1.421875 27.875 -1.421875 
Q 17.96875 -1.421875 11.734375 6.484375 
Q 5.515625 14.40625 5.515625 27.296875 
Q 5.515625 40.1875 11.734375 48.09375 
Q 17.96875 56 27.875 56 
Q 33.9375 56 38.25 53.625 
Q 42.578125 51.265625 45.40625 46.390625 
L 45.40625 54.6875 
L 54.390625 54.6875 
L 54.390625 -20.796875 
L 45.40625 -20.796875 
z
" id="DejaVuSans-71"/>
      <path d="M 8.5 21.578125 
L 8.5 54.6875 
L 17.484375 54.6875 
L 17.484375 21.921875 
Q 17.484375 14.15625 20.5 10.265625 
Q 23.53125 6.390625 29.59375 6.390625 
Q 36.859375 6.390625 41.078125 11.03125 
Q 45.3125 15.671875 45.3125 23.6875 
L 45.3125 54.6875 
L 54.296875 54.6875 
L 54.296875 0 
L 45.3125 0 
L 45.3125 8.40625 
Q 42.046875 3.421875 37.71875 1 
Q 33.40625 -1.421875 27.6875 -1.421875 
Q 18.265625 -1.421875 13.375 4.4375 
Q 8.5 10.296875 8.5 21.578125 
z
M 31.109375 56 
z
" id="DejaVuSans-75"/>
      <path d="M 54.890625 33.015625 
L 54.890625 0 
L 45.90625 0 
L 45.90625 32.71875 
Q 45.90625 40.484375 42.875 44.328125 
Q 39.84375 48.1875 33.796875 48.1875 
Q 26.515625 48.1875 22.3125 43.546875 
Q 18.109375 38.921875 18.109375 30.90625 
L 18.109375 0 
L 9.078125 0 
L 9.078125 54.6875 
L 18.109375 54.6875 
L 18.109375 46.1875 
Q 21.34375 51.125 25.703125 53.5625 
Q 30.078125 56 35.796875 56 
Q 45.21875 56 50.046875 50.171875 
Q 54.890625 44.34375 54.890625 33.015625 
z
" id="DejaVuSans-6e"/>
      <path d="M 32.171875 -5.078125 
Q 28.375 -14.84375 24.75 -17.8125 
Q 21.140625 -20.796875 15.09375 -20.796875 
L 7.90625 -20.796875 
L 7.90625 -13.28125 
L 13.1875 -13.28125 
Q 16.890625 -13.28125 18.9375 -11.515625 
Q 21 -9.765625 23.484375 -3.21875 
L 25.09375 0.875 
L 2.984375 54.6875 
L 12.5 54.6875 
L 29.59375 11.921875 
L 46.6875 54.6875 
L 56.203125 54.6875 
z
" id="DejaVuSans-79"/>
      <path d="M 31 75.875 
Q 24.46875 64.65625 21.28125 53.65625 
Q 18.109375 42.671875 18.109375 31.390625 
Q 18.109375 20.125 21.3125 9.0625 
Q 24.515625 -2 31 -13.1875 
L 23.1875 -13.1875 
Q 15.875 -1.703125 12.234375 9.375 
Q 8.59375 20.453125 8.59375 31.390625 
Q 8.59375 42.28125 12.203125 53.3125 
Q 15.828125 64.359375 23.1875 75.875 
z
" id="DejaVuSans-28"/>
      <path d="M 52 44.1875 
Q 55.375 50.25 60.0625 53.125 
Q 64.75 56 71.09375 56 
Q 79.640625 56 84.28125 50.015625 
Q 88.921875 44.046875 88.921875 33.015625 
L 88.921875 0 
L 79.890625 0 
L 79.890625 32.71875 
Q 79.890625 40.578125 77.09375 44.375 
Q 74.3125 48.1875 68.609375 48.1875 
Q 61.625 48.1875 57.5625 43.546875 
Q 53.515625 38.921875 53.515625 30.90625 
L 53.515625 0 
L 44.484375 0 
L 44.484375 32.71875 
Q 44.484375 40.625 41.703125 44.40625 
Q 38.921875 48.1875 33.109375 48.1875 
Q 26.21875 48.1875 22.15625 43.53125 
Q 18.109375 38.875 18.109375 30.90625 
L 18.109375 0 
L 9.078125 0 
L 9.078125 54.6875 
L 18.109375 54.6875 
L 18.109375 46.1875 
Q 21.1875 51.21875 25.484375 53.609375 
Q 29.78125 56 35.6875 56 
Q 41.65625 56 45.828125 52.96875 
Q 50 49.953125 52 44.1875 
z
" id="DejaVuSans-6d"/>
      <path d="M 28.609375 0 
L 0.78125 72.90625 
L 11.078125 72.90625 
L 34.1875 11.53125 
L 57.328125 72.90625 
L 67.578125 72.90625 
L 39.796875 0 
z
" id="DejaVuSans-56"/>
      <path d="M 8.015625 75.875 
L 15.828125 75.875 
Q 23.140625 64.359375 26.78125 53.3125 
Q 30.421875 42.28125 30.421875 31.390625 
Q 30.421875 20.453125 26.78125 9.375 
Q 23.140625 -1.703125 15.828125 -13.1875 
L 8.015625 -13.1875 
Q 14.5 -2 17.703125 9.0625 
Q 20.90625 20.125 20.90625 31.390625 
Q 20.90625 42.671875 17.703125 53.65625 
Q 14.5 64.65625 8.015625 75.875 
z
" id="DejaVuSans-29"/>
     </defs>
     <g transform="translate(18.674688 200.329844)rotate(-90)scale(0.1 -0.1)">
      <use xlink:href="#DejaVuSans-46"/>
      <use x="57.410156" xlink:href="#DejaVuSans-72"/>
      <use x="98.492188" xlink:href="#DejaVuSans-65"/>
      <use x="160.015625" xlink:href="#DejaVuSans-71"/>
      <use x="223.492188" xlink:href="#DejaVuSans-75"/>
      <use x="286.871094" xlink:href="#DejaVuSans-65"/>
      <use x="348.394531" xlink:href="#DejaVuSans-6e"/>
      <use x="411.773438" xlink:href="#DejaVuSans-63"/>
      <use x="466.753906" xlink:href="#DejaVuSans-79"/>
      <use x="525.933594" xlink:href="#DejaVuSans-20"/>
      <use x="557.720703" xlink:href="#DejaVuSans-28"/>
      <use x="596.734375" xlink:href="#DejaVuSans-6d"/>
      <use x="694.146484" xlink:href="#DejaVuSans-65"/>
      <use x="755.669922" xlink:href="#DejaVuSans-56"/>
      <use x="824.078125" xlink:href="#DejaVuSans-29"/>
     </g>
    </g>
   </g>
   <g id="line2d_14">
    <path clip-path="url(#p5cfc5fedec)" d="M 54.02 183.079015 
L 54.835193 183.093559 
L 55.650385 183.137189 
L 56.465578 183.209894 
L 57.28077 183.311657 
L 58.095963 183.442455 
L 58.911155 183.602258 
L 59.726348 183.791027 
L 60.541541 184.008719 
L 61.356733 184.255283 
L 62.171926 184.530661 
L 62.987118 184.83479 
L 63.802311 185.167599 
L 64.617503 185.529008 
L 65.432696 185.918935 
L 66.247889 186.337288 
L 67.063081 186.783968 
L 67.878274 187.258871 
L 68.693466 187.761886 
L 69.508659 188.292895 
L 70.323851 188.851773 
L 71.139044 189.438387 
L 71.954237 190.052602 
L 72.769429 190.69427 
L 73.584622 191.363242 
L 74.399814 192.059358 
L 75.215007 192.782455 
L 76.030199 193.532361 
L 76.845392 194.308898 
L 77.660585 195.111882 
L 78.475777 195.941122 
L 79.29097 196.796421 
L 80.106162 197.677575 
L 80.921355 198.584373 
L 81.736547 199.516598 
L 82.55174 200.474028 
L 83.366933 201.456433 
L 84.182125 202.463577 
L 84.997318 203.495218 
L 85.81251 204.551107 
L 86.627703 205.63099 
L 87.442895 206.734605 
L 88.258088 207.861687 
L 89.073281 209.01196 
L 89.888473 210.185147 
L 90.703666 211.380962 
L 91.518858 212.599114 
L 92.334051 213.839305 
L 93.149243 215.101233 
L 93.964436 216.384588 
L 94.779629 217.689057 
L 95.594821 219.014319 
L 96.410014 220.360047 
L 97.225206 221.725911 
L 98.040399 223.111574 
L 98.855591 224.516692 
L 99.670784 225.940919 
L 100.485977 227.383901 
L 101.301169 228.84528 
L 102.116362 230.324693 
L 102.931554 231.821771 
L 103.746747 233.33614 
L 104.561939 234.867423 
L 105.377132 236.415236 
L 106.192324 237.979192 
L 107.007517 239.558898 
L 107.82271 241.153957 
L 108.637902 242.763968 
L 109.453095 244.388526 
L 110.268287 246.02722 
L 111.08348 247.679636 
L 111.898672 249.345358 
L 112.713865 251.023962 
L 113.529058 252.715024 
L 114.34425 254.418114 
L 115.159443 256.132799 
L 115.974635 257.858644 
L 116.789828 259.595208 
L 117.60502 261.342049 
L 118.420213 263.098721 
L 119.235406 264.864776 
L 120.050598 266.639762 
L 120.865791 268.423224 
L 121.680983 270.214707 
L 122.496176 272.013751 
L 123.311368 273.819895 
L 124.126561 275.632675 
L 124.941754 277.451625 
L 125.756946 279.276279 
L 126.572139 281.106167 
L 127.387331 282.940818 
L 128.202524 284.77976 
L 129.017716 286.622519 
L 129.832909 288.468622 
L 130.648102 290.317592 
L 131.463294 292.168953 
L 132.278487 294.022227 
L 133.093679 295.876937 
L 133.908872 297.732604 
L 134.724064 299.588755 
" style="fill:none;stroke:#440154;stroke-linecap:square;stroke-width:1.5;"/>
   </g>
   <g id="line2d_15">
    <path clip-path="url(#p5cfc5fedec)" d="M 54.02 120.619145 
L 54.835193 120.641212 
L 55.650385 120.707411 
L 56.465578 120.817726 
L 57.28077 120.972136 
L 58.095963 121.17061 
L 58.911155 121.413105 
L 59.726348 121.699574 
L 60.541541 122.029957 
L 61.356733 122.404186 
L 62.171926 122.822185 
L 62.987118 123.283867 
L 63.802311 123.789137 
L 64.617503 124.337892 
L 65.432696 124.930017 
L 66.247889 125.56539 
L 67.063081 126.243879 
L 67.878274 126.965343 
L 68.693466 127.729631 
L 69.508659 128.536583 
L 70.323851 129.38603 
L 71.139044 130.277794 
L 71.954237 131.211686 
L 72.769429 132.187509 
L 73.584622 133.205055 
L 74.399814 134.264108 
L 75.215007 135.364442 
L 76.030199 136.505821 
L 76.845392 137.687998 
L 77.660585 138.91072 
L 78.475777 140.17372 
L 79.29097 141.476724 
L 80.106162 142.819448 
L 80.921355 144.201597 
L 81.736547 145.622867 
L 82.55174 147.082943 
L 83.366933 148.581503 
L 84.182125 150.118211 
L 84.997318 151.692725 
L 85.81251 153.30469 
L 86.627703 154.953742 
L 87.442895 156.639509 
L 88.258088 158.361607 
L 89.073281 160.119641 
L 89.888473 161.91321 
L 90.703666 163.741898 
L 91.518858 165.605284 
L 92.334051 167.502933 
L 93.149243 169.434403 
L 93.964436 171.399242 
L 94.779629 173.396986 
L 95.594821 175.427164 
L 96.410014 177.489293 
L 97.225206 179.582881 
L 98.040399 181.707429 
L 98.855591 183.862424 
L 99.670784 186.047347 
L 100.485977 188.261669 
L 101.301169 190.50485 
L 102.116362 192.776343 
L 102.931554 195.075591 
L 103.746747 197.402029 
L 104.561939 199.755081 
L 105.377132 202.134165 
L 106.192324 204.538687 
L 107.007517 206.968049 
L 107.82271 209.421641 
L 108.637902 211.898846 
L 109.453095 214.399039 
L 110.268287 216.921588 
L 111.08348 219.465852 
L 111.898672 222.031184 
L 112.713865 224.616927 
L 113.529058 227.222421 
L 114.34425 229.846994 
L 115.159443 232.489972 
L 115.974635 235.150671 
L 116.789828 237.828403 
L 117.60502 240.522473 
L 118.420213 243.232179 
L 119.235406 245.956816 
L 120.050598 248.69567 
L 120.865791 251.448026 
L 121.680983 254.21316 
L 122.496176 256.990346 
L 123.311368 259.778852 
L 124.126561 262.577944 
L 124.941754 265.386881 
L 125.756946 268.20492 
L 126.572139 271.031316 
L 127.387331 273.865318 
L 128.202524 276.706174 
L 129.017716 279.553129 
L 129.832909 282.405425 
L 130.648102 285.262304 
L 131.463294 288.123004 
L 132.278487 290.986762 
L 133.093679 293.852816 
L 133.908872 296.7204 
L 134.724064 299.588747 
" style="fill:none;stroke:#440154;stroke-linecap:square;stroke-width:1.5;"/>
   </g>
   <g id="line2d_16">
    <path clip-path="url(#p5cfc5fedec)" d="M 54.02 25.045104 
L 54.835193 25.070028 
L 55.650385 25.144819 
L 56.465578 25.269528 
L 57.28077 25.444244 
L 58.095963 25.669088 
L 58.911155 25.944216 
L 59.726348 26.269818 
L 60.541541 26.646116 
L 61.356733 27.073362 
L 62.171926 27.551842 
L 62.987118 28.081867 
L 63.802311 28.663781 
L 64.617503 29.29795 
L 65.432696 29.984768 
L 66.247889 30.724652 
L 67.063081 31.518039 
L 67.878274 32.365389 
L 68.693466 33.267176 
L 69.508659 34.223893 
L 70.323851 35.236046 
L 71.139044 36.304152 
L 71.954237 37.428738 
L 72.769429 38.610339 
L 73.584622 39.849493 
L 74.399814 41.146741 
L 75.215007 42.502627 
L 76.030199 43.917689 
L 76.845392 45.392464 
L 77.660585 46.927478 
L 78.475777 48.523251 
L 79.29097 50.180291 
L 80.106162 51.899091 
L 80.921355 53.680126 
L 81.736547 55.523856 
L 82.55174 57.430718 
L 83.366933 59.401124 
L 84.182125 61.435464 
L 84.997318 63.534098 
L 85.81251 65.697357 
L 86.627703 67.925541 
L 87.442895 70.218915 
L 88.258088 72.57771 
L 89.073281 75.002118 
L 89.888473 77.492294 
L 90.703666 80.048351 
L 91.518858 82.670359 
L 92.334051 85.358346 
L 93.149243 88.112295 
L 93.964436 90.93214 
L 94.779629 93.817769 
L 95.594821 96.769023 
L 96.410014 99.78569 
L 97.225206 102.86751 
L 98.040399 106.014171 
L 98.855591 109.225306 
L 99.670784 112.500499 
L 100.485977 115.839279 
L 101.301169 119.241122 
L 102.116362 122.705448 
L 102.931554 126.231624 
L 103.746747 129.818963 
L 104.561939 133.466724 
L 105.377132 137.174109 
L 106.192324 140.940268 
L 107.007517 144.764297 
L 107.82271 148.645236 
L 108.637902 152.582076 
L 109.453095 156.573751 
L 110.268287 160.619145 
L 111.08348 164.717091 
L 111.898672 168.86637 
L 112.713865 173.065715 
L 113.529058 177.313809 
L 114.34425 181.609287 
L 115.159443 185.950738 
L 115.974635 190.336705 
L 116.789828 194.765689 
L 117.60502 199.236144 
L 118.420213 203.746486 
L 119.235406 208.295089 
L 120.050598 212.880288 
L 120.865791 217.500384 
L 121.680983 222.15364 
L 122.496176 226.838284 
L 123.311368 231.552516 
L 124.126561 236.294501 
L 124.941754 241.06238 
L 125.756946 245.854265 
L 126.572139 250.668243 
L 127.387331 255.50238 
L 128.202524 260.354719 
L 129.017716 265.223285 
L 129.832909 270.106088 
L 130.648102 275.001121 
L 131.463294 279.906366 
L 132.278487 284.819791 
L 133.093679 289.739361 
L 133.908872 294.66303 
L 134.724064 299.588745 
" style="fill:none;stroke:#440154;stroke-linecap:square;stroke-width:1.5;"/>
   </g>
   <g id="line2d_17">
    <path clip-path="url(#p5cfc5fedec)" d="M 134.724064 299.588755 
L 135.876921 295.532346 
L 137.029777 291.477355 
L 138.182634 287.425189 
L 139.33549 283.377256 
L 140.488346 279.334965 
L 141.641203 275.299718 
L 142.794059 271.272911 
L 143.946916 267.255937 
L 145.099772 263.250181 
L 146.252628 259.257017 
L 147.405485 255.277814 
L 148.558341 251.313929 
L 149.711198 247.366707 
L 150.864054 243.437483 
L 152.01691 239.527577 
L 153.169767 235.638296 
L 154.322623 231.770934 
L 155.475479 227.926764 
L 156.628336 224.107048 
L 157.781192 220.313026 
L 158.934049 216.545921 
L 160.086905 212.806936 
L 161.239761 209.097255 
L 162.392618 205.418039 
L 163.545474 201.770427 
L 164.698331 198.155536 
L 165.851187 194.574459 
L 167.004043 191.028264 
L 168.1569 187.517994 
L 169.309756 184.044666 
L 170.462612 180.60927 
L 171.615469 177.21277 
L 172.768325 173.8561 
L 173.921182 170.540167 
L 175.074038 167.265848 
L 176.226894 164.033992 
L 177.379751 160.845415 
L 178.532607 157.700905 
L 179.685464 154.601219 
L 180.83832 151.547081 
L 181.991176 148.539185 
L 183.144033 145.578192 
L 184.296889 142.664733 
L 185.449746 139.799404 
L 186.602602 136.982772 
L 187.755458 134.215368 
L 188.908315 131.497695 
L 190.061171 128.83022 
L 191.214027 126.213381 
L 192.366884 123.647582 
L 193.51974 121.133196 
L 194.672597 118.670567 
L 195.825453 116.260005 
L 196.978309 113.90179 
L 198.131166 111.596175 
L 199.284022 109.343381 
L 200.436879 107.1436 
L 201.589735 104.996999 
L 202.742591 102.903714 
L 203.895448 100.863856 
L 205.048304 98.877513 
L 206.201161 96.944744 
L 207.354017 95.065587 
L 208.506873 93.240057 
L 209.65973 91.468146 
L 210.812586 89.749828 
L 211.965442 88.085055 
L 213.118299 86.473762 
L 214.271155 84.915868 
L 215.424012 83.411274 
L 216.576868 81.95987 
L 217.729724 80.561529 
L 218.882581 79.216115 
L 220.035437 77.923481 
L 221.188294 76.68347 
L 222.34115 75.49592 
L 223.494006 74.360659 
L 224.646863 73.277513 
L 225.799719 72.246303 
L 226.952576 71.266849 
L 228.105432 70.338968 
L 229.258288 69.462479 
L 230.411145 68.637204 
L 231.564001 67.862964 
L 232.716857 67.139589 
L 233.869714 66.466909 
L 235.02257 65.844765 
L 236.175427 65.273004 
L 237.328283 64.751479 
L 238.481139 64.280055 
L 239.633996 63.858608 
L 240.786852 63.487021 
L 241.939709 63.165194 
L 243.092565 62.893034 
L 244.245421 62.670466 
L 245.398278 62.497424 
L 246.551134 62.373859 
L 247.703991 62.299735 
L 248.856847 62.275029 
" style="fill:none;stroke:#440154;stroke-linecap:square;stroke-width:1.5;"/>
   </g>
   <g id="line2d_18">
    <path clip-path="url(#p5cfc5fedec)" d="M 134.724064 299.588747 
L 135.876921 295.532346 
L 137.029777 291.477355 
L 138.182634 287.425189 
L 139.33549 283.377256 
L 140.488346 279.334965 
L 141.641203 275.299718 
L 142.794059 271.272911 
L 143.946916 267.255937 
L 145.099772 263.250181 
L 146.252628 259.257017 
L 147.405485 255.277814 
L 148.558341 251.313929 
L 149.711198 247.366707 
L 150.864054 243.437483 
L 152.01691 239.527577 
L 153.169767 235.638296 
L 154.322623 231.770934 
L 155.475479 227.926764 
L 156.628336 224.107048 
L 157.781192 220.313026 
L 158.934049 216.545921 
L 160.086905 212.806936 
L 161.239761 209.097255 
L 162.392618 205.418039 
L 163.545474 201.770427 
L 164.698331 198.155536 
L 165.851187 194.574459 
L 167.004043 191.028264 
L 168.1569 187.517994 
L 169.309756 184.044666 
L 170.462612 180.60927 
L 171.615469 177.21277 
L 172.768325 173.8561 
L 173.921182 170.540167 
L 175.074038 167.265848 
L 176.226894 164.033992 
L 177.379751 160.845415 
L 178.532607 157.700905 
L 179.685464 154.601219 
L 180.83832 151.547081 
L 181.991176 148.539185 
L 183.144033 145.578192 
L 184.296889 142.664733 
L 185.449746 139.799404 
L 186.602602 136.982772 
L 187.755458 134.215368 
L 188.908315 131.497695 
L 190.061171 128.83022 
L 191.214027 126.213381 
L 192.366884 123.647582 
L 193.51974 121.133196 
L 194.672597 118.670567 
L 195.825453 116.260005 
L 196.978309 113.90179 
L 198.131166 111.596175 
L 199.284022 109.343381 
L 200.436879 107.1436 
L 201.589735 104.996999 
L 202.742591 102.903714 
L 203.895448 100.863856 
L 205.048304 98.877513 
L 206.201161 96.944744 
L 207.354017 95.065587 
L 208.506873 93.240057 
L 209.65973 91.468146 
L 210.812586 89.749828 
L 211.965442 88.085055 
L 213.118299 86.473762 
L 214.271155 84.915868 
L 215.424012 83.411274 
L 216.576868 81.95987 
L 217.729724 80.561529 
L 218.882581 79.216115 
L 220.035437 77.923481 
L 221.188294 76.68347 
L 222.34115 75.49592 
L 223.494006 74.360659 
L 224.646863 73.277513 
L 225.799719 72.246303 
L 226.952576 71.266849 
L 228.105432 70.338968 
L 229.258288 69.462479 
L 230.411145 68.637204 
L 231.564001 67.862964 
L 232.716857 67.139589 
L 233.869714 66.466909 
L 235.02257 65.844765 
L 236.175427 65.273004 
L 237.328283 64.751479 
L 238.481139 64.280055 
L 239.633996 63.858608 
L 240.786852 63.487021 
L 241.939709 63.165194 
L 243.092565 62.893034 
L 244.245421 62.670466 
L 245.398278 62.497424 
L 246.551134 62.373859 
L 247.703991 62.299735 
L 248.856847 62.275029 
" style="fill:none;stroke:#440154;stroke-linecap:square;stroke-width:1.5;"/>
   </g>
   <g id="line2d_19">
    <path clip-path="url(#p5cfc5fedec)" d="M 134.724064 299.588745 
L 135.876921 293.347435 
L 137.029777 287.112359 
L 138.182634 280.889743 
L 139.33549 274.685781 
L 140.488346 268.506623 
L 141.641203 262.35836 
L 142.794059 256.24701 
L 143.946916 250.178504 
L 145.099772 244.158672 
L 146.252628 238.193229 
L 147.405485 232.287762 
L 148.558341 226.447715 
L 149.711198 220.678382 
L 150.864054 214.984886 
L 152.01691 209.372174 
L 153.169767 203.845003 
L 154.322623 198.407928 
L 155.475479 193.065295 
L 156.628336 187.821225 
L 157.781192 182.679612 
L 158.934049 177.644109 
L 160.086905 172.718122 
L 161.239761 167.904802 
L 162.392618 163.207037 
L 163.545474 158.627452 
L 164.698331 154.168394 
L 165.851187 149.831936 
L 167.004043 145.61987 
L 168.1569 141.533703 
L 169.309756 137.57466 
L 170.462612 133.743675 
L 171.615469 130.041398 
L 172.768325 126.468194 
L 173.921182 123.024141 
L 175.074038 119.709037 
L 176.226894 116.522401 
L 177.379751 113.463481 
L 178.532607 110.531254 
L 179.685464 107.724437 
L 180.83832 105.041493 
L 181.991176 102.480637 
L 183.144033 100.039852 
L 184.296889 97.716891 
L 185.449746 95.509295 
L 186.602602 93.414402 
L 187.755458 91.429358 
L 188.908315 89.551137 
L 190.061171 87.77655 
L 191.214027 86.102263 
L 192.366884 84.524812 
L 193.51974 83.040621 
L 194.672597 81.646019 
L 195.825453 80.337255 
L 196.978309 79.11052 
L 198.131166 77.961963 
L 199.284022 76.887711 
L 200.436879 75.883883 
L 201.589735 74.946617 
L 202.742591 74.072078 
L 203.895448 73.256483 
L 205.048304 72.496117 
L 206.201161 71.787346 
L 207.354017 71.126636 
L 208.506873 70.51057 
L 209.65973 69.935855 
L 210.812586 69.399344 
L 211.965442 68.898037 
L 213.118299 68.4291 
L 214.271155 67.98987 
L 215.424012 67.57786 
L 216.576868 67.190766 
L 217.729724 66.826474 
L 218.882581 66.483056 
L 220.035437 66.158775 
L 221.188294 65.852079 
L 222.34115 65.561603 
L 223.494006 65.286162 
L 224.646863 65.024744 
L 225.799719 64.776504 
L 226.952576 64.540753 
L 228.105432 64.316951 
L 229.258288 64.104695 
L 230.411145 63.903705 
L 231.564001 63.713814 
L 232.716857 63.534954 
L 233.869714 63.367143 
L 235.02257 63.210471 
L 236.175427 63.065086 
L 237.328283 62.931183 
L 238.481139 62.808989 
L 239.633996 62.69875 
L 240.786852 62.60072 
L 241.939709 62.515154 
L 243.092565 62.44229 
L 244.245421 62.382348 
L 245.398278 62.335517 
L 246.551134 62.301951 
L 247.703991 62.281765 
L 248.856847 62.275029 
" style="fill:none;stroke:#440154;stroke-linecap:square;stroke-width:1.5;"/>
   </g>
   <g id="line2d_20">
    <path clip-path="url(#p5cfc5fedec)" d="M 248.856847 62.275029 
L 250.853653 62.453111 
L 252.850459 62.986585 
L 254.847264 63.873125 
L 256.84407 65.108813 
L 258.840876 66.688086 
L 260.837682 68.60365 
L 262.834488 70.84638 
L 264.831294 73.405193 
L 266.828099 76.266905 
L 268.824905 79.416054 
L 270.821711 82.834724 
L 272.818517 86.502331 
L 274.815323 90.395402 
L 276.812129 94.487347 
L 278.808935 98.748208 
L 280.80574 103.144428 
L 282.802546 107.638617 
L 284.799352 112.189366 
L 286.796158 116.751102 
L 288.792964 121.27405 
L 290.78977 125.704326 
L 292.786575 129.984234 
L 294.783381 134.052822 
L 296.780187 137.846786 
L 298.776993 141.30177 
L 300.773799 144.354114 
L 302.770605 146.94304 
L 304.76741 149.01318 
L 306.764216 150.517293 
L 308.761022 151.418879 
L 310.757828 151.694407 
L 312.754634 151.334809 
L 314.75144 150.346028 
L 316.748245 148.748526 
L 318.745051 146.575824 
L 320.741857 143.872318 
L 322.738663 140.690661 
L 324.735469 137.089049 
L 326.732275 133.128671 
L 328.72908 128.871508 
L 330.725886 124.378556 
L 332.722692 119.708516 
L 334.719498 114.916882 
L 336.716304 110.055384 
L 338.71311 105.171709 
L 340.709916 100.309428 
L 342.706721 95.508079 
L 344.703527 90.803345 
L 346.700333 86.227306 
L 348.697139 85.11554 
L 350.693945 87.436969 
L 352.690751 89.86951 
L 354.687556 92.412524 
L 356.684362 95.065258 
L 358.681168 97.826858 
L 360.677974 100.696388 
L 362.67478 103.672835 
L 364.671586 106.755119 
L 366.668391 109.942097 
L 368.665197 113.232564 
L 370.662003 116.625252 
L 372.658809 120.118828 
L 374.655615 123.711886 
L 376.652421 127.402945 
L 378.649226 131.190437 
L 380.646032 135.0727 
L 382.642838 139.047972 
L 384.639644 143.114381 
L 386.63645 147.269937 
L 388.633256 151.512529 
L 390.630062 155.83992 
L 392.626867 160.249742 
L 394.623673 164.739501 
L 396.620479 169.306575 
L 398.617285 173.948219 
L 400.614091 178.661574 
L 402.610897 183.443673 
L 404.607702 188.291453 
L 406.604508 193.20177 
L 408.601314 198.17141 
L 410.59812 203.197106 
L 412.594926 208.275555 
L 414.591732 213.403433 
L 416.588537 218.577413 
L 418.585343 223.79418 
L 420.582149 229.050445 
L 422.578955 234.342962 
L 424.575761 239.668538 
L 426.572567 245.02404 
L 428.569372 250.406409 
L 430.566178 255.81266 
L 432.562984 261.239886 
L 434.55979 266.685259 
L 436.556596 272.146024 
L 438.553402 277.619497 
L 440.550207 283.103057 
L 442.547013 288.594134 
L 444.543819 294.090199 
L 446.540625 299.588755 
" style="fill:none;stroke:#440154;stroke-linecap:square;stroke-width:1.5;"/>
   </g>
   <g id="line2d_21">
    <path clip-path="url(#p5cfc5fedec)" d="M 248.856847 62.275029 
L 250.853653 62.270177 
L 252.850459 62.255602 
L 254.847264 62.231247 
L 256.84407 62.197032 
L 258.840876 62.152868 
L 260.837682 62.098686 
L 262.834488 62.034466 
L 264.831294 61.960273 
L 266.828099 61.876292 
L 268.824905 61.782872 
L 270.821711 61.680567 
L 272.818517 61.57017 
L 274.815323 61.452758 
L 276.812129 61.329719 
L 278.808935 61.202784 
L 280.80574 61.074045 
L 282.802546 60.945976 
L 284.799352 60.821433 
L 286.796158 60.703658 
L 288.792964 60.596266 
L 290.78977 60.503231 
L 292.786575 60.428859 
L 294.783381 60.377753 
L 296.780187 60.354777 
L 298.776993 60.365012 
L 300.773799 60.413706 
L 302.770605 60.50622 
L 304.76741 60.647981 
L 306.764216 60.84442 
L 308.761022 61.100924 
L 310.757828 61.422781 
L 312.754634 61.815135 
L 314.75144 62.282934 
L 316.748245 62.830897 
L 318.745051 63.463471 
L 320.741857 64.184806 
L 322.738663 64.998729 
L 324.735469 65.908725 
L 326.732275 66.917926 
L 328.72908 68.029106 
L 330.725886 69.244676 
L 332.722692 70.566696 
L 334.719498 71.996875 
L 336.716304 73.536595 
L 338.71311 75.18692 
L 340.709916 76.94862 
L 342.706721 78.822193 
L 344.703527 80.807888 
L 346.700333 82.905729 
L 348.697139 85.11554 
L 350.693945 87.436969 
L 352.690751 89.86951 
L 354.687556 92.412524 
L 356.684362 95.065258 
L 358.681168 97.826858 
L 360.677974 100.696388 
L 362.67478 103.672835 
L 364.671586 106.755119 
L 366.668391 109.942097 
L 368.665197 113.232564 
L 370.662003 116.625252 
L 372.658809 120.118828 
L 374.655615 123.711886 
L 376.652421 127.402945 
L 378.649226 131.190437 
L 380.646032 135.0727 
L 382.642838 139.047972 
L 384.639644 143.114381 
L 386.63645 147.269937 
L 388.633256 151.512529 
L 390.630062 155.83992 
L 392.626867 160.249742 
L 394.623673 164.739501 
L 396.620479 169.306575 
L 398.617285 173.948219 
L 400.614091 178.661574 
L 402.610897 183.443673 
L 404.607702 188.291453 
L 406.604508 193.20177 
L 408.601314 198.17141 
L 410.59812 203.197106 
L 412.594926 208.275555 
L 414.591732 213.403433 
L 416.588537 218.577413 
L 418.585343 223.79418 
L 420.582149 229.050445 
L 422.578955 234.342962 
L 424.575761 239.668538 
L 426.572567 245.02404 
L 428.569372 250.406409 
L 430.566178 255.81266 
L 432.562984 261.239886 
L 434.55979 266.685259 
L 436.556596 272.146024 
L 438.553402 277.619497 
L 440.550207 283.103057 
L 442.547013 288.594134 
L 444.543819 294.090199 
L 446.540625 299.588747 
" style="fill:none;stroke:#440154;stroke-linecap:square;stroke-width:1.5;"/>
   </g>
   <g id="line2d_22">
    <path clip-path="url(#p5cfc5fedec)" d="M 248.856847 62.275029 
L 250.853653 62.270177 
L 252.850459 62.255602 
L 254.847264 62.231247 
L 256.84407 62.197032 
L 258.840876 62.152868 
L 260.837682 62.098686 
L 262.834488 62.034466 
L 264.831294 61.960273 
L 266.828099 61.876292 
L 268.824905 61.782872 
L 270.821711 61.680567 
L 272.818517 61.57017 
L 274.815323 61.452758 
L 276.812129 61.329719 
L 278.808935 61.202784 
L 280.80574 61.074045 
L 282.802546 60.945976 
L 284.799352 60.821433 
L 286.796158 60.703658 
L 288.792964 60.596266 
L 290.78977 60.503231 
L 292.786575 60.428859 
L 294.783381 60.377753 
L 296.780187 60.354777 
L 298.776993 60.365012 
L 300.773799 60.413706 
L 302.770605 60.50622 
L 304.76741 60.647981 
L 306.764216 60.84442 
L 308.761022 61.100924 
L 310.757828 61.422781 
L 312.754634 61.815135 
L 314.75144 62.282934 
L 316.748245 62.830897 
L 318.745051 63.463471 
L 320.741857 64.184806 
L 322.738663 64.998729 
L 324.735469 65.908725 
L 326.732275 66.917926 
L 328.72908 68.029106 
L 330.725886 69.244676 
L 332.722692 70.566696 
L 334.719498 71.996875 
L 336.716304 73.536595 
L 338.71311 75.18692 
L 340.709916 76.94862 
L 342.706721 78.822193 
L 344.703527 80.807888 
L 346.700333 82.905729 
L 348.697139 81.808726 
L 350.693945 77.573369 
L 352.690751 73.544313 
L 354.687556 69.742269 
L 356.684362 66.18589 
L 358.681168 62.892066 
L 360.677974 59.876203 
L 362.67478 57.152476 
L 364.671586 54.734071 
L 366.668391 52.633391 
L 368.665197 50.862239 
L 370.662003 49.431973 
L 372.658809 48.353631 
L 374.655615 47.638024 
L 376.652421 47.295802 
L 378.649226 47.337483 
L 380.646032 47.773455 
L 382.642838 48.613951 
L 384.639644 49.868992 
L 386.63645 51.548308 
L 388.633256 53.661235 
L 390.630062 56.216594 
L 392.626867 59.222553 
L 394.623673 62.686475 
L 396.620479 66.614762 
L 398.617285 71.012685 
L 400.614091 75.884229 
L 402.610897 81.231923 
L 404.607702 87.056687 
L 406.604508 93.357689 
L 408.601314 100.13221 
L 410.59812 107.375525 
L 412.594926 115.080808 
L 414.591732 123.239053 
L 416.588537 131.839011 
L 418.585343 140.867162 
L 420.582149 150.307701 
L 422.578955 160.142554 
L 424.575761 170.351413 
L 426.572567 180.911801 
L 428.569372 191.799156 
L 430.566178 202.986941 
L 432.562984 214.446774 
L 434.55979 226.148578 
L 436.556596 238.06075 
L 438.553402 250.150347 
L 440.550207 262.383285 
L 442.547013 274.724554 
L 444.543819 287.138438 
L 446.540625 299.588745 
" style="fill:none;stroke:#440154;stroke-linecap:square;stroke-width:1.5;"/>
   </g>
   <g id="line2d_23">
    <path clip-path="url(#p5cfc5fedec)" d="M 0 0 
" style="fill:none;stroke:#440154;stroke-linecap:square;stroke-width:1.5;"/>
   </g>
   <g id="line2d_24">
    <path clip-path="url(#p5cfc5fedec)" d="M 54.02 177.226139 
L 54.835193 177.241606 
L 55.650385 177.288002 
L 56.465578 177.365315 
L 57.28077 177.473526 
L 58.095963 177.612605 
L 58.911155 177.782517 
L 59.726348 177.983217 
L 60.541541 178.214653 
L 61.356733 178.476765 
L 62.171926 178.769483 
L 62.987118 179.092732 
L 63.802311 179.446427 
L 64.617503 179.830476 
L 65.432696 180.244779 
L 66.247889 180.689228 
L 67.063081 181.163707 
L 67.878274 181.668092 
L 68.693466 182.202253 
L 69.508659 182.76605 
L 70.323851 183.359336 
L 71.139044 183.981957 
L 71.954237 184.633752 
L 72.769429 185.314551 
L 73.584622 186.024178 
L 74.399814 186.762447 
L 75.215007 187.529168 
L 76.030199 188.324141 
L 76.845392 189.147162 
L 77.660585 189.998016 
L 78.475777 190.876483 
L 79.29097 191.782337 
L 80.106162 192.715343 
L 80.921355 193.67526 
L 81.736547 194.66184 
L 82.55174 195.674829 
L 83.366933 196.713965 
L 84.182125 197.778982 
L 84.997318 198.869604 
L 85.81251 199.985551 
L 86.627703 201.126536 
L 87.442895 202.292266 
L 88.258088 203.482442 
L 89.073281 204.696759 
L 89.888473 205.934905 
L 90.703666 207.196564 
L 91.518858 208.481411 
L 92.334051 209.78912 
L 93.149243 211.119355 
L 93.964436 212.471777 
L 94.779629 213.846041 
L 95.594821 215.241797 
L 96.410014 216.658689 
L 97.225206 218.096357 
L 98.040399 219.554434 
L 98.855591 221.032551 
L 99.670784 222.530332 
L 100.485977 224.047396 
L 101.301169 225.583361 
L 102.116362 227.137835 
L 102.931554 228.710426 
L 103.746747 230.300737 
L 104.561939 231.908364 
L 105.377132 233.532903 
L 106.192324 235.173942 
L 107.007517 236.831069 
L 107.82271 238.503866 
L 108.637902 240.19191 
L 109.453095 241.894778 
L 110.268287 243.612042 
L 111.08348 245.343269 
L 111.898672 247.088025 
L 112.713865 248.845872 
L 113.529058 250.616368 
L 114.34425 252.399071 
L 115.159443 254.193534 
L 115.974635 255.999306 
L 116.789828 257.815937 
L 117.60502 259.642972 
L 118.420213 261.479954 
L 119.235406 263.326424 
L 120.050598 265.181921 
L 120.865791 267.045982 
L 121.680983 268.918141 
L 122.496176 270.797932 
L 123.311368 272.684887 
L 124.126561 274.578534 
L 124.941754 276.478402 
L 125.756946 278.384018 
L 126.572139 280.294908 
L 127.387331 282.210595 
L 128.202524 284.130603 
L 129.017716 286.054454 
L 129.832909 287.981671 
L 130.648102 289.911773 
L 131.463294 291.84428 
L 132.278487 293.778712 
L 133.093679 295.714589 
L 133.908872 297.651429 
L 134.724064 299.588755 
" style="fill:none;stroke:#238a8d;stroke-linecap:square;stroke-width:1.5;"/>
   </g>
   <g id="line2d_25">
    <path clip-path="url(#p5cfc5fedec)" d="M 54.02 120.332637 
L 54.835193 120.354619 
L 55.650385 120.420562 
L 56.465578 120.530454 
L 57.28077 120.684272 
L 58.095963 120.881988 
L 58.911155 121.123564 
L 59.726348 121.408953 
L 60.541541 121.738101 
L 61.356733 122.110943 
L 62.171926 122.527409 
L 62.987118 122.987418 
L 63.802311 123.49088 
L 64.617503 124.037697 
L 65.432696 124.627764 
L 66.247889 125.260966 
L 67.063081 125.937177 
L 67.878274 126.656266 
L 68.693466 127.418091 
L 69.508659 128.2225 
L 70.323851 129.069336 
L 71.139044 129.958428 
L 71.954237 130.889598 
L 72.769429 131.862661 
L 73.584622 132.87742 
L 74.399814 133.933669 
L 75.215007 135.031193 
L 76.030199 136.169768 
L 76.845392 137.34916 
L 77.660585 138.569126 
L 78.475777 139.829413 
L 79.29097 141.129757 
L 80.106162 142.469888 
L 80.921355 143.849521 
L 81.736547 145.268366 
L 82.55174 146.726121 
L 83.366933 148.222472 
L 84.182125 149.7571 
L 84.997318 151.329671 
L 85.81251 152.939843 
L 86.627703 154.587265 
L 87.442895 156.271574 
L 88.258088 157.992397 
L 89.073281 159.749352 
L 89.888473 161.542046 
L 90.703666 163.370076 
L 91.518858 165.233029 
L 92.334051 167.13048 
L 93.149243 169.061996 
L 93.964436 171.027134 
L 94.779629 173.025437 
L 95.594821 175.056443 
L 96.410014 177.119677 
L 97.225206 179.214653 
L 98.040399 181.340878 
L 98.855591 183.497845 
L 99.670784 185.685041 
L 100.485977 187.901941 
L 101.301169 190.14801 
L 102.116362 192.422705 
L 102.931554 194.72547 
L 103.746747 197.055744 
L 104.561939 199.412952 
L 105.377132 201.796514 
L 106.192324 204.205837 
L 107.007517 206.640321 
L 107.82271 209.099357 
L 108.637902 211.582326 
L 109.453095 214.088603 
L 110.268287 216.617551 
L 111.08348 219.168528 
L 111.898672 221.740881 
L 112.713865 224.333951 
L 113.529058 226.947071 
L 114.34425 229.579566 
L 115.159443 232.230754 
L 115.974635 234.899945 
L 116.789828 237.586444 
L 117.60502 240.289547 
L 118.420213 243.008546 
L 119.235406 245.742725 
L 120.050598 248.491363 
L 120.865791 251.253733 
L 121.680983 254.029102 
L 122.496176 256.816733 
L 123.311368 259.615885 
L 124.126561 262.425808 
L 124.941754 265.245754 
L 125.756946 268.074966 
L 126.572139 270.912685 
L 127.387331 273.758149 
L 128.202524 276.610592 
L 129.017716 279.469247 
L 129.832909 282.333342 
L 130.648102 285.202104 
L 131.463294 288.074758 
L 132.278487 290.950528 
L 133.093679 293.828636 
L 133.908872 296.708303 
L 134.724064 299.588752 
" style="fill:none;stroke:#238a8d;stroke-linecap:square;stroke-width:1.5;"/>
   </g>
   <g id="line2d_26">
    <path clip-path="url(#p5cfc5fedec)" d="M 54.02 27.994773 
L 54.835193 28.018106 
L 55.650385 28.088124 
L 56.465578 28.204893 
L 57.28077 28.368518 
L 58.095963 28.579147 
L 58.911155 28.836969 
L 59.726348 29.142215 
L 60.541541 29.495153 
L 61.356733 29.896091 
L 62.171926 30.345374 
L 62.987118 30.843383 
L 63.802311 31.390533 
L 64.617503 31.987272 
L 65.432696 32.634078 
L 66.247889 33.331458 
L 67.063081 34.079947 
L 67.878274 34.880104 
L 68.693466 35.732509 
L 69.508659 36.637765 
L 70.323851 37.59649 
L 71.139044 38.609318 
L 71.954237 39.676896 
L 72.769429 40.799882 
L 73.584622 41.978939 
L 74.399814 43.214735 
L 75.215007 44.507942 
L 76.030199 45.859229 
L 76.845392 47.269262 
L 77.660585 48.738702 
L 78.475777 50.268199 
L 79.29097 51.858393 
L 80.106162 53.509906 
L 80.921355 55.223348 
L 81.736547 56.999305 
L 82.55174 58.838343 
L 83.366933 60.741002 
L 84.182125 62.707794 
L 84.997318 64.739203 
L 85.81251 66.835679 
L 86.627703 68.997639 
L 87.442895 71.225462 
L 88.258088 73.519489 
L 89.073281 75.880022 
L 89.888473 78.307316 
L 90.703666 80.801586 
L 91.518858 83.362998 
L 92.334051 85.991671 
L 93.149243 88.687676 
L 93.964436 91.451029 
L 94.779629 94.281699 
L 95.594821 97.179599 
L 96.410014 100.144586 
L 97.225206 103.176465 
L 98.040399 106.274983 
L 98.855591 109.439828 
L 99.670784 112.670635 
L 100.485977 115.966975 
L 101.301169 119.328364 
L 102.116362 122.754258 
L 102.931554 126.244054 
L 103.746747 129.797088 
L 104.561939 133.412637 
L 105.377132 137.089921 
L 106.192324 140.828097 
L 107.007517 144.626267 
L 107.82271 148.48347 
L 108.637902 152.398692 
L 109.453095 156.370858 
L 110.268287 160.398837 
L 111.08348 164.481443 
L 111.898672 168.617434 
L 112.713865 172.805514 
L 113.529058 177.044336 
L 114.34425 181.332497 
L 115.159443 185.668548 
L 115.974635 190.050986 
L 116.789828 194.478262 
L 117.60502 198.948783 
L 118.420213 203.460906 
L 119.235406 208.012947 
L 120.050598 212.603182 
L 120.865791 217.229842 
L 121.680983 221.891125 
L 122.496176 226.585187 
L 123.311368 231.310155 
L 124.126561 236.064118 
L 124.941754 240.845137 
L 125.756946 245.651244 
L 126.572139 250.480443 
L 127.387331 255.330715 
L 128.202524 260.200018 
L 129.017716 265.086288 
L 129.832909 269.987445 
L 130.648102 274.901392 
L 131.463294 279.826018 
L 132.278487 284.759201 
L 133.093679 289.698811 
L 133.908872 294.642708 
L 134.724064 299.588744 
" style="fill:none;stroke:#238a8d;stroke-linecap:square;stroke-width:1.5;"/>
   </g>
   <g id="line2d_27">
    <path clip-path="url(#p5cfc5fedec)" d="M 134.724064 299.588755 
L 135.876921 295.515248 
L 137.029777 291.443235 
L 138.182634 287.374201 
L 139.33549 283.309634 
L 140.488346 279.251015 
L 141.641203 275.199827 
L 142.794059 271.157545 
L 143.946916 267.125637 
L 145.099772 263.105567 
L 146.252628 259.09879 
L 147.405485 255.106752 
L 148.558341 251.130889 
L 149.711198 247.172627 
L 150.864054 243.23338 
L 152.01691 239.314549 
L 153.169767 235.417521 
L 154.322623 231.543667 
L 155.475479 227.694346 
L 156.628336 223.870895 
L 157.781192 220.074636 
L 158.934049 216.306871 
L 160.086905 212.568882 
L 161.239761 208.86193 
L 162.392618 205.187253 
L 163.545474 201.546066 
L 164.698331 197.939559 
L 165.851187 194.368899 
L 167.004043 190.835224 
L 168.1569 187.339644 
L 169.309756 183.883243 
L 170.462612 180.467074 
L 171.615469 177.092158 
L 172.768325 173.759488 
L 173.921182 170.470023 
L 175.074038 167.224686 
L 176.226894 164.024371 
L 177.379751 160.869933 
L 178.532607 157.762194 
L 179.685464 154.701937 
L 180.83832 151.68991 
L 181.991176 148.726821 
L 183.144033 145.813343 
L 184.296889 142.950108 
L 185.449746 140.137708 
L 186.602602 137.376697 
L 187.755458 134.667588 
L 188.908315 132.010854 
L 190.061171 129.406929 
L 191.214027 126.856205 
L 192.366884 124.359034 
L 193.51974 121.915729 
L 194.672597 119.526561 
L 195.825453 117.191762 
L 196.978309 114.911525 
L 198.131166 112.686005 
L 199.284022 110.515317 
L 200.436879 108.399539 
L 201.589735 106.338713 
L 202.742591 104.332844 
L 203.895448 102.381902 
L 205.048304 100.485825 
L 206.201161 98.644516 
L 207.354017 96.857847 
L 208.506873 95.125662 
L 209.65973 93.447775 
L 210.812586 91.823971 
L 211.965442 90.254014 
L 213.118299 88.73764 
L 214.271155 87.274567 
L 215.424012 85.864489 
L 216.576868 84.507085 
L 217.729724 83.202016 
L 218.882581 81.94893 
L 220.035437 80.747463 
L 221.188294 79.597239 
L 222.34115 78.497877 
L 223.494006 77.448989 
L 224.646863 76.450183 
L 225.799719 75.501067 
L 226.952576 74.601249 
L 228.105432 73.750339 
L 229.258288 72.947954 
L 230.411145 72.193717 
L 231.564001 71.48726 
L 232.716857 70.828227 
L 233.869714 70.216275 
L 235.02257 69.651076 
L 236.175427 69.132318 
L 237.328283 68.659707 
L 238.481139 68.23297 
L 239.633996 67.851856 
L 240.786852 67.516135 
L 241.939709 67.225602 
L 243.092565 66.980077 
L 244.245421 66.779406 
L 245.398278 66.623462 
L 246.551134 66.512145 
L 247.703991 66.445383 
L 248.856847 66.423134 
" style="fill:none;stroke:#238a8d;stroke-linecap:square;stroke-width:1.5;"/>
   </g>
   <g id="line2d_28">
    <path clip-path="url(#p5cfc5fedec)" d="M 134.724064 299.588752 
L 135.876921 295.515248 
L 137.029777 291.443235 
L 138.182634 287.374201 
L 139.33549 283.309634 
L 140.488346 279.251015 
L 141.641203 275.199827 
L 142.794059 271.157545 
L 143.946916 267.125637 
L 145.099772 263.105567 
L 146.252628 259.09879 
L 147.405485 255.106752 
L 148.558341 251.130889 
L 149.711198 247.172627 
L 150.864054 243.23338 
L 152.01691 239.314549 
L 153.169767 235.417521 
L 154.322623 231.543667 
L 155.475479 227.694346 
L 156.628336 223.870895 
L 157.781192 220.074636 
L 158.934049 216.306871 
L 160.086905 212.568882 
L 161.239761 208.86193 
L 162.392618 205.187253 
L 163.545474 201.546066 
L 164.698331 197.939559 
L 165.851187 194.368899 
L 167.004043 190.835224 
L 168.1569 187.339644 
L 169.309756 183.883243 
L 170.462612 180.467074 
L 171.615469 177.092158 
L 172.768325 173.759488 
L 173.921182 170.470023 
L 175.074038 167.224686 
L 176.226894 164.024371 
L 177.379751 160.869933 
L 178.532607 157.762194 
L 179.685464 154.701937 
L 180.83832 151.68991 
L 181.991176 148.726821 
L 183.144033 145.813343 
L 184.296889 142.950108 
L 185.449746 140.137708 
L 186.602602 137.376697 
L 187.755458 134.667588 
L 188.908315 132.010854 
L 190.061171 129.406929 
L 191.214027 126.856205 
L 192.366884 124.359034 
L 193.51974 121.915729 
L 194.672597 119.526561 
L 195.825453 117.191762 
L 196.978309 114.911525 
L 198.131166 112.686005 
L 199.284022 110.515317 
L 200.436879 108.399539 
L 201.589735 106.338713 
L 202.742591 104.332844 
L 203.895448 102.381902 
L 205.048304 100.485825 
L 206.201161 98.644516 
L 207.354017 96.857847 
L 208.506873 95.125662 
L 209.65973 93.447775 
L 210.812586 91.823971 
L 211.965442 90.254014 
L 213.118299 88.73764 
L 214.271155 87.274567 
L 215.424012 85.864489 
L 216.576868 84.507085 
L 217.729724 83.202016 
L 218.882581 81.94893 
L 220.035437 80.747463 
L 221.188294 79.597239 
L 222.34115 78.497877 
L 223.494006 77.448989 
L 224.646863 76.450183 
L 225.799719 75.501067 
L 226.952576 74.601249 
L 228.105432 73.750339 
L 229.258288 72.947954 
L 230.411145 72.193717 
L 231.564001 71.48726 
L 232.716857 70.828227 
L 233.869714 70.216275 
L 235.02257 69.651076 
L 236.175427 69.132318 
L 237.328283 68.659707 
L 238.481139 68.23297 
L 239.633996 67.851856 
L 240.786852 67.516135 
L 241.939709 67.225602 
L 243.092565 66.980077 
L 244.245421 66.779406 
L 245.398278 66.623462 
L 246.551134 66.512145 
L 247.703991 66.445383 
L 248.856847 66.423134 
" style="fill:none;stroke:#238a8d;stroke-linecap:square;stroke-width:1.5;"/>
   </g>
   <g id="line2d_29">
    <path clip-path="url(#p5cfc5fedec)" d="M 134.724064 299.588744 
L 135.876921 293.277491 
L 137.029777 286.972578 
L 138.182634 280.68034 
L 139.33549 274.407082 
L 140.488346 268.159059 
L 141.641203 261.942472 
L 142.794059 255.76345 
L 143.946916 249.628033 
L 145.099772 243.542163 
L 146.252628 237.511667 
L 147.405485 231.542245 
L 148.558341 225.639458 
L 149.711198 219.808713 
L 150.864054 214.055251 
L 152.01691 208.384138 
L 153.169767 202.800251 
L 154.322623 197.308267 
L 155.475479 191.912652 
L 156.628336 186.617656 
L 157.781192 181.427295 
L 158.934049 176.345351 
L 160.086905 171.375357 
L 161.239761 166.520596 
L 162.392618 161.784087 
L 163.545474 157.168584 
L 164.698331 152.67657 
L 165.851187 148.31025 
L 167.004043 144.07155 
L 168.1569 139.962112 
L 169.309756 135.983292 
L 170.462612 132.136159 
L 171.615469 128.421496 
L 172.768325 124.839796 
L 173.921182 121.391268 
L 175.074038 118.075836 
L 176.226894 114.893143 
L 177.379751 111.842555 
L 178.532607 108.923166 
L 179.685464 106.133804 
L 180.83832 103.473035 
L 181.991176 100.939176 
L 183.144033 98.530296 
L 184.296889 96.244235 
L 185.449746 94.078604 
L 186.602602 92.030804 
L 187.755458 90.098036 
L 188.908315 88.277311 
L 190.061171 86.565466 
L 191.214027 84.959181 
L 192.366884 83.454988 
L 193.51974 82.04929 
L 194.672597 80.73838 
L 195.825453 79.518453 
L 196.978309 78.385624 
L 198.131166 77.335948 
L 199.284022 76.365436 
L 200.436879 75.470074 
L 201.589735 74.645838 
L 202.742591 73.888716 
L 203.895448 73.194719 
L 205.048304 72.559909 
L 206.201161 71.980402 
L 207.354017 71.452397 
L 208.506873 70.972181 
L 209.65973 70.536152 
L 210.812586 70.140826 
L 211.965442 69.782854 
L 213.118299 69.459028 
L 214.271155 69.166298 
L 215.424012 68.901775 
L 216.576868 68.66274 
L 217.729724 68.446647 
L 218.882581 68.251134 
L 220.035437 68.074016 
L 221.188294 67.913292 
L 222.34115 67.767143 
L 223.494006 67.633929 
L 224.646863 67.512183 
L 225.799719 67.40061 
L 226.952576 67.298078 
L 228.105432 67.203611 
L 229.258288 67.116378 
L 230.411145 67.035685 
L 231.564001 66.960966 
L 232.716857 66.891769 
L 233.869714 66.827743 
L 235.02257 66.768633 
L 236.175427 66.714258 
L 237.328283 66.664508 
L 238.481139 66.619327 
L 239.633996 66.578704 
L 240.786852 66.54266 
L 241.939709 66.511239 
L 243.092565 66.484501 
L 244.245421 66.462511 
L 245.398278 66.44533 
L 246.551134 66.433014 
L 247.703991 66.425607 
L 248.856847 66.423134 
" style="fill:none;stroke:#238a8d;stroke-linecap:square;stroke-width:1.5;"/>
   </g>
   <g id="line2d_30">
    <path clip-path="url(#p5cfc5fedec)" d="M 248.856847 66.423134 
L 250.853653 66.584353 
L 252.850459 67.067354 
L 254.847264 67.870157 
L 256.84407 68.989416 
L 258.840876 70.420361 
L 260.837682 72.156705 
L 262.834488 74.190535 
L 264.831294 76.512171 
L 266.828099 79.11002 
L 268.824905 81.970389 
L 270.821711 85.077299 
L 272.818517 88.412272 
L 274.815323 91.954114 
L 276.812129 95.678688 
L 278.808935 99.558685 
L 280.80574 103.563409 
L 282.802546 107.658587 
L 284.799352 111.806206 
L 286.796158 115.964433 
L 288.792964 120.087614 
L 290.78977 124.126419 
L 292.786575 128.028169 
L 294.783381 131.737393 
L 296.780187 135.19668 
L 298.776993 138.347871 
L 300.773799 141.133591 
L 302.770605 143.49914 
L 304.76741 145.394626 
L 306.764216 146.777237 
L 308.761022 147.613419 
L 310.757828 147.88074 
L 312.754634 147.569186 
L 314.75144 146.681721 
L 316.748245 145.234018 
L 318.745051 143.253414 
L 320.741857 140.777227 
L 322.738663 137.850673 
L 324.735469 134.524621 
L 326.732275 130.8534 
L 328.72908 126.892838 
L 330.725886 122.69861 
L 332.722692 118.324943 
L 334.719498 113.82367 
L 336.716304 109.243591 
L 338.71311 104.630091 
L 340.709916 100.024967 
L 342.706721 95.466407 
L 344.703527 90.989092 
L 346.700333 86.624368 
L 348.697139 85.56329 
L 350.693945 87.78681 
L 352.690751 90.121192 
L 354.687556 92.566115 
L 356.684362 95.121135 
L 358.681168 97.785701 
L 360.677974 100.559164 
L 362.67478 103.440786 
L 364.671586 106.42975 
L 366.668391 109.52516 
L 368.665197 112.72605 
L 370.662003 116.03138 
L 372.658809 119.440038 
L 374.655615 122.95084 
L 376.652421 126.562523 
L 378.649226 130.273745 
L 380.646032 134.083074 
L 382.642838 137.988992 
L 384.639644 141.989881 
L 386.63645 146.084022 
L 388.633256 150.269591 
L 390.630062 154.544652 
L 392.626867 158.907156 
L 394.623673 163.354938 
L 396.620479 167.885717 
L 398.617285 172.497096 
L 400.614091 177.186562 
L 402.610897 181.951491 
L 404.607702 186.789151 
L 406.604508 191.696709 
L 408.601314 196.671236 
L 410.59812 201.709714 
L 412.594926 206.809045 
L 414.591732 211.96606 
L 416.588537 217.177528 
L 418.585343 222.440163 
L 420.582149 227.750636 
L 422.578955 233.10558 
L 424.575761 238.501603 
L 426.572567 243.93529 
L 428.569372 249.403215 
L 430.566178 254.901943 
L 432.562984 260.428035 
L 434.55979 265.978055 
L 436.556596 271.548569 
L 438.553402 277.136148 
L 440.550207 282.73737 
L 442.547013 288.348819 
L 444.543819 293.967081 
L 446.540625 299.588755 
" style="fill:none;stroke:#238a8d;stroke-linecap:square;stroke-width:1.5;"/>
   </g>
   <g id="line2d_31">
    <path clip-path="url(#p5cfc5fedec)" d="M 248.856847 66.423134 
L 250.853653 66.412955 
L 252.850459 66.382475 
L 254.847264 66.331866 
L 256.84407 66.261419 
L 258.840876 66.171559 
L 260.837682 66.06285 
L 262.834488 65.936018 
L 264.831294 65.791962 
L 266.828099 65.631775 
L 268.824905 65.456765 
L 270.821711 65.26847 
L 272.818517 65.068678 
L 274.815323 64.859439 
L 276.812129 64.643081 
L 278.808935 64.422216 
L 280.80574 64.199746 
L 282.802546 63.978861 
L 284.799352 63.763037 
L 286.796158 63.556022 
L 288.792964 63.361824 
L 290.78977 63.18469 
L 292.786575 63.029082 
L 294.783381 62.899647 
L 296.780187 62.801185 
L 298.776993 62.738616 
L 300.773799 62.71694 
L 302.770605 62.741198 
L 304.76741 62.816438 
L 306.764216 62.947666 
L 308.761022 63.139818 
L 310.757828 63.397713 
L 312.754634 63.726027 
L 314.75144 64.129256 
L 316.748245 64.611689 
L 318.745051 65.17738 
L 320.741857 65.830133 
L 322.738663 66.573478 
L 324.735469 67.410662 
L 326.732275 68.344641 
L 328.72908 69.378073 
L 330.725886 70.513318 
L 332.722692 71.752443 
L 334.719498 73.097226 
L 336.716304 74.549164 
L 338.71311 76.109492 
L 340.709916 77.779187 
L 342.706721 79.558993 
L 344.703527 81.449431 
L 346.700333 83.450819 
L 348.697139 85.56329 
L 350.693945 87.78681 
L 352.690751 90.121192 
L 354.687556 92.566115 
L 356.684362 95.121135 
L 358.681168 97.785701 
L 360.677974 100.559164 
L 362.67478 103.440786 
L 364.671586 106.42975 
L 366.668391 109.52516 
L 368.665197 112.72605 
L 370.662003 116.03138 
L 372.658809 119.440038 
L 374.655615 122.95084 
L 376.652421 126.562523 
L 378.649226 130.273745 
L 380.646032 134.083074 
L 382.642838 137.988992 
L 384.639644 141.989881 
L 386.63645 146.084022 
L 388.633256 150.269591 
L 390.630062 154.544652 
L 392.626867 158.907156 
L 394.623673 163.354938 
L 396.620479 167.885717 
L 398.617285 172.497096 
L 400.614091 177.186562 
L 402.610897 181.951491 
L 404.607702 186.789151 
L 406.604508 191.696709 
L 408.601314 196.671236 
L 410.59812 201.709714 
L 412.594926 206.809045 
L 414.591732 211.96606 
L 416.588537 217.177528 
L 418.585343 222.440163 
L 420.582149 227.750636 
L 422.578955 233.10558 
L 424.575761 238.501603 
L 426.572567 243.93529 
L 428.569372 249.403215 
L 430.566178 254.901943 
L 432.562984 260.428035 
L 434.55979 265.978055 
L 436.556596 271.548569 
L 438.553402 277.136148 
L 440.550207 282.73737 
L 442.547013 288.348819 
L 444.543819 293.967081 
L 446.540625 299.588752 
" style="fill:none;stroke:#238a8d;stroke-linecap:square;stroke-width:1.5;"/>
   </g>
   <g id="line2d_32">
    <path clip-path="url(#p5cfc5fedec)" d="M 248.856847 66.423134 
L 250.853653 66.412955 
L 252.850459 66.382475 
L 254.847264 66.331866 
L 256.84407 66.261419 
L 258.840876 66.171559 
L 260.837682 66.06285 
L 262.834488 65.936018 
L 264.831294 65.791962 
L 266.828099 65.631775 
L 268.824905 65.456765 
L 270.821711 65.26847 
L 272.818517 65.068678 
L 274.815323 64.859439 
L 276.812129 64.643081 
L 278.808935 64.422216 
L 280.80574 64.199746 
L 282.802546 63.978861 
L 284.799352 63.763037 
L 286.796158 63.556022 
L 288.792964 63.361824 
L 290.78977 63.18469 
L 292.786575 63.029082 
L 294.783381 62.899647 
L 296.780187 62.801185 
L 298.776993 62.738616 
L 300.773799 62.71694 
L 302.770605 62.741198 
L 304.76741 62.816438 
L 306.764216 62.947666 
L 308.761022 63.139818 
L 310.757828 63.397713 
L 312.754634 63.726027 
L 314.75144 64.129256 
L 316.748245 64.611689 
L 318.745051 65.17738 
L 320.741857 65.830133 
L 322.738663 66.573478 
L 324.735469 67.410662 
L 326.732275 68.344641 
L 328.72908 69.378073 
L 330.725886 70.513318 
L 332.722692 71.752443 
L 334.719498 73.097226 
L 336.716304 74.549164 
L 338.71311 76.109492 
L 340.709916 77.779187 
L 342.706721 79.558993 
L 344.703527 81.449431 
L 346.700333 83.450819 
L 348.697139 82.400479 
L 350.693945 78.342838 
L 352.690751 74.474307 
L 354.687556 70.815493 
L 356.684362 67.385041 
L 358.681168 64.199921 
L 360.677974 61.275698 
L 362.67478 58.626791 
L 364.671586 56.266709 
L 366.668391 54.20826 
L 368.665197 52.463739 
L 370.662003 51.045083 
L 372.658809 49.963999 
L 374.655615 49.232054 
L 376.652421 48.860738 
L 378.649226 48.861494 
L 380.646032 49.245712 
L 382.642838 50.024695 
L 384.639644 51.209596 
L 386.63645 52.811327 
L 388.633256 54.840441 
L 390.630062 57.307004 
L 392.626867 60.220437 
L 394.623673 63.589353 
L 396.620479 67.421387 
L 398.617285 71.723011 
L 400.614091 76.499364 
L 402.610897 81.754067 
L 404.607702 87.489066 
L 406.604508 93.704468 
L 408.601314 100.398399 
L 410.59812 107.566884 
L 412.594926 115.203733 
L 414.591732 123.300462 
L 416.588537 131.846231 
L 418.585343 140.827805 
L 420.582149 150.229545 
L 422.578955 160.033418 
L 424.575761 170.219044 
L 426.572567 180.763757 
L 428.569372 191.642696 
L 430.566178 202.828921 
L 432.562984 214.293548 
L 434.55979 226.005912 
L 436.556596 237.933739 
L 438.553402 250.043349 
L 440.550207 262.299858 
L 442.547013 274.66741 
L 444.543819 287.109406 
L 446.540625 299.588744 
" style="fill:none;stroke:#238a8d;stroke-linecap:square;stroke-width:1.5;"/>
   </g>
   <g id="line2d_33">
    <path clip-path="url(#p5cfc5fedec)" d="M 0 0 
" style="fill:none;stroke:#238a8d;stroke-linecap:square;stroke-width:1.5;"/>
   </g>
   <g id="line2d_34">
    <path clip-path="url(#p5cfc5fedec)" d="M 54.02 173.573997 
L 54.835193 173.58987 
L 55.650385 173.637487 
L 56.465578 173.716834 
L 57.28077 173.827893 
L 58.095963 173.970634 
L 58.911155 174.145022 
L 59.726348 174.351012 
L 60.541541 174.588553 
L 61.356733 174.857583 
L 62.171926 175.158035 
L 62.987118 175.489833 
L 63.802311 175.852893 
L 64.617503 176.247122 
L 65.432696 176.672421 
L 66.247889 177.128682 
L 67.063081 177.61579 
L 67.878274 178.13362 
L 68.693466 178.682043 
L 69.508659 179.260918 
L 70.323851 179.8701 
L 71.139044 180.509435 
L 71.954237 181.178759 
L 72.769429 181.877904 
L 73.584622 182.606694 
L 74.399814 183.364942 
L 75.215007 184.152459 
L 76.030199 184.969043 
L 76.845392 185.814489 
L 77.660585 186.688582 
L 78.475777 187.591102 
L 79.29097 188.52182 
L 80.106162 189.480501 
L 80.921355 190.466902 
L 81.736547 191.480774 
L 82.55174 192.521861 
L 83.366933 193.589898 
L 84.182125 194.684617 
L 84.997318 195.805741 
L 85.81251 196.952986 
L 86.627703 198.126062 
L 87.442895 199.324674 
L 88.258088 200.548517 
L 89.073281 201.797284 
L 89.888473 203.070658 
L 90.703666 204.368318 
L 91.518858 205.689937 
L 92.334051 207.035181 
L 93.149243 208.40371 
L 93.964436 209.795179 
L 94.779629 211.209236 
L 95.594821 212.645526 
L 96.410014 214.103686 
L 97.225206 215.583347 
L 98.040399 217.084137 
L 98.855591 218.605678 
L 99.670784 220.147585 
L 100.485977 221.70947 
L 101.301169 223.290939 
L 102.116362 224.891594 
L 102.931554 226.511031 
L 103.746747 228.148843 
L 104.561939 229.804616 
L 105.377132 231.477934 
L 106.192324 233.168375 
L 107.007517 234.875514 
L 107.82271 236.59892 
L 108.637902 238.338161 
L 109.453095 240.092797 
L 110.268287 241.862387 
L 111.08348 243.646487 
L 111.898672 245.444646 
L 112.713865 247.256414 
L 113.529058 249.081333 
L 114.34425 250.918944 
L 115.159443 252.768786 
L 115.974635 254.630394 
L 116.789828 256.503298 
L 117.60502 258.387029 
L 118.420213 260.281112 
L 119.235406 262.185071 
L 120.050598 264.098428 
L 120.865791 266.020702 
L 121.680983 267.951409 
L 122.496176 269.890065 
L 123.311368 271.836181 
L 124.126561 273.78927 
L 124.941754 275.74884 
L 125.756946 277.714398 
L 126.572139 279.685452 
L 127.387331 281.661505 
L 128.202524 283.642062 
L 129.017716 285.626624 
L 129.832909 287.614694 
L 130.648102 289.605771 
L 131.463294 291.599356 
L 132.278487 293.594948 
L 133.093679 295.592045 
L 133.908872 297.590147 
L 134.724064 299.588754 
" style="fill:none;stroke:#dfe318;stroke-linecap:square;stroke-width:1.5;"/>
   </g>
   <g id="line2d_35">
    <path clip-path="url(#p5cfc5fedec)" d="M 54.02 120.708968 
L 54.835193 120.730405 
L 55.650385 120.794716 
L 56.465578 120.90189 
L 57.28077 121.051913 
L 58.095963 121.244765 
L 58.911155 121.480419 
L 59.726348 121.758843 
L 60.541541 122.079999 
L 61.356733 122.443842 
L 62.171926 122.850322 
L 62.987118 123.299381 
L 63.802311 123.790957 
L 64.617503 124.32498 
L 65.432696 124.901374 
L 66.247889 125.520056 
L 67.063081 126.180936 
L 67.878274 126.883918 
L 68.693466 127.628898 
L 69.508659 128.415766 
L 70.323851 129.244404 
L 71.139044 130.114685 
L 71.954237 131.026477 
L 72.769429 131.979638 
L 73.584622 132.97402 
L 74.399814 134.009464 
L 75.215007 135.085805 
L 76.030199 136.202869 
L 76.845392 137.360472 
L 77.660585 138.558423 
L 78.475777 139.796521 
L 79.29097 141.074556 
L 80.106162 142.392307 
L 80.921355 143.749545 
L 81.736547 145.146032 
L 82.55174 146.581517 
L 83.366933 148.055743 
L 84.182125 149.568438 
L 84.997318 151.119323 
L 85.81251 152.708107 
L 86.627703 154.334489 
L 87.442895 155.998156 
L 88.258088 157.698784 
L 89.073281 159.436038 
L 89.888473 161.209573 
L 90.703666 163.01903 
L 91.518858 164.864041 
L 92.334051 166.744224 
L 93.149243 168.659187 
L 93.964436 170.608525 
L 94.779629 172.591823 
L 95.594821 174.60865 
L 96.410014 176.658567 
L 97.225206 178.741122 
L 98.040399 180.85585 
L 98.855591 183.002274 
L 99.670784 185.179906 
L 100.485977 187.388243 
L 101.301169 189.626775 
L 102.116362 191.894975 
L 102.931554 194.192307 
L 103.746747 196.518222 
L 104.561939 198.872159 
L 105.377132 201.253545 
L 106.192324 203.661798 
L 107.007517 206.09632 
L 107.82271 208.556506 
L 108.637902 211.041736 
L 109.453095 213.551382 
L 110.268287 216.084804 
L 111.08348 218.64135 
L 111.898672 221.220359 
L 112.713865 223.821159 
L 113.529058 226.443069 
L 114.34425 229.085396 
L 115.159443 231.747439 
L 115.974635 234.428487 
L 116.789828 237.127821 
L 117.60502 239.844712 
L 118.420213 242.578423 
L 119.235406 245.328209 
L 120.050598 248.093316 
L 120.865791 250.872984 
L 121.680983 253.666444 
L 122.496176 256.472923 
L 123.311368 259.291638 
L 124.126561 262.121803 
L 124.941754 264.962624 
L 125.756946 267.813302 
L 126.572139 270.673034 
L 127.387331 273.541012 
L 128.202524 276.416423 
L 129.017716 279.298451 
L 129.832909 282.186276 
L 130.648102 285.079076 
L 131.463294 287.976026 
L 132.278487 290.876298 
L 133.093679 293.779063 
L 133.908872 296.683491 
L 134.724064 299.588748 
" style="fill:none;stroke:#dfe318;stroke-linecap:square;stroke-width:1.5;"/>
   </g>
   <g id="line2d_36">
    <path clip-path="url(#p5cfc5fedec)" d="M 54.02 30.012211 
L 54.835193 30.034653 
L 55.650385 30.102 
L 56.465578 30.214322 
L 57.28077 30.371737 
L 58.095963 30.574405 
L 58.911155 30.822533 
L 59.726348 31.116374 
L 60.541541 31.456222 
L 61.356733 31.842413 
L 62.171926 32.275325 
L 62.987118 32.755375 
L 63.802311 33.283018 
L 64.617503 33.858743 
L 65.432696 34.483075 
L 66.247889 35.15657 
L 67.063081 35.879812 
L 67.878274 36.653415 
L 68.693466 37.478016 
L 69.508659 38.354274 
L 70.323851 39.282869 
L 71.139044 40.264498 
L 71.954237 41.299869 
L 72.769429 42.389706 
L 73.584622 43.534739 
L 74.399814 44.735704 
L 75.215007 45.993339 
L 76.030199 47.308384 
L 76.845392 48.681574 
L 77.660585 50.113638 
L 78.475777 51.605296 
L 79.29097 53.157258 
L 80.106162 54.770217 
L 80.921355 56.444849 
L 81.736547 58.18181 
L 82.55174 59.981731 
L 83.366933 61.845221 
L 84.182125 63.772857 
L 84.997318 65.765185 
L 85.81251 67.822721 
L 86.627703 69.94594 
L 87.442895 72.135284 
L 88.258088 74.39115 
L 89.073281 76.713895 
L 89.888473 79.103831 
L 90.703666 81.561224 
L 91.518858 84.08629 
L 92.334051 86.679196 
L 93.149243 89.340057 
L 93.964436 92.068936 
L 94.779629 94.865841 
L 95.594821 97.730723 
L 96.410014 100.663477 
L 97.225206 103.66394 
L 98.040399 106.731891 
L 98.855591 109.867048 
L 99.670784 113.06907 
L 100.485977 116.337553 
L 101.301169 119.672034 
L 102.116362 123.071986 
L 102.931554 126.536823 
L 103.746747 130.065894 
L 104.561939 133.658488 
L 105.377132 137.313831 
L 106.192324 141.031088 
L 107.007517 144.809363 
L 107.82271 148.647697 
L 108.637902 152.545072 
L 109.453095 156.500412 
L 110.268287 160.512578 
L 111.08348 164.580376 
L 111.898672 168.702553 
L 112.713865 172.877801 
L 113.529058 177.104756 
L 114.34425 181.382 
L 115.159443 185.708062 
L 115.974635 190.081421 
L 116.789828 194.500504 
L 117.60502 198.963691 
L 118.420213 203.469315 
L 119.235406 208.015663 
L 120.050598 212.60098 
L 120.865791 217.223467 
L 121.680983 221.881286 
L 122.496176 226.572563 
L 123.311368 231.295386 
L 124.126561 236.047808 
L 124.941754 240.827852 
L 125.756946 245.63351 
L 126.572139 250.462747 
L 127.387331 255.313501 
L 128.202524 260.183689 
L 129.017716 265.071205 
L 129.832909 269.973924 
L 130.648102 274.889706 
L 131.463294 279.816395 
L 132.278487 284.751823 
L 133.093679 289.693816 
L 133.908872 294.640187 
L 134.724064 299.588746 
" style="fill:none;stroke:#dfe318;stroke-linecap:square;stroke-width:1.5;"/>
   </g>
   <g id="line2d_37">
    <path clip-path="url(#p5cfc5fedec)" d="M 134.724064 299.588754 
L 135.876921 295.480185 
L 137.029777 291.37335 
L 138.182634 287.269973 
L 139.33549 283.171778 
L 140.488346 279.080482 
L 141.641203 274.997794 
L 142.794059 270.925413 
L 143.946916 266.865024 
L 145.099772 262.818299 
L 146.252628 258.786893 
L 147.405485 254.772442 
L 148.558341 250.776563 
L 149.711198 246.80085 
L 150.864054 242.846873 
L 152.01691 238.916175 
L 153.169767 235.010274 
L 154.322623 231.130658 
L 155.475479 227.278782 
L 156.628336 223.456074 
L 157.781192 219.663923 
L 158.934049 215.903686 
L 160.086905 212.176685 
L 161.239761 208.484201 
L 162.392618 204.82748 
L 163.545474 201.207727 
L 164.698331 197.626106 
L 165.851187 194.083741 
L 167.004043 190.581714 
L 168.1569 187.121063 
L 169.309756 183.702785 
L 170.462612 180.327831 
L 171.615469 176.997108 
L 172.768325 173.711482 
L 173.921182 170.47177 
L 175.074038 167.278747 
L 176.226894 164.133143 
L 177.379751 161.035643 
L 178.532607 157.986887 
L 179.685464 154.987471 
L 180.83832 152.037949 
L 181.991176 149.13883 
L 183.144033 146.29058 
L 184.296889 143.493622 
L 185.449746 140.74834 
L 186.602602 138.055076 
L 187.755458 135.414129 
L 188.908315 132.825764 
L 190.061171 130.290205 
L 191.214027 127.807637 
L 192.366884 125.378214 
L 193.51974 123.00205 
L 194.672597 120.679228 
L 195.825453 118.409798 
L 196.978309 116.193779 
L 198.131166 114.031161 
L 199.284022 111.921902 
L 200.436879 109.865937 
L 201.589735 107.863174 
L 202.742591 105.913496 
L 203.895448 104.016765 
L 205.048304 102.172819 
L 206.201161 100.381479 
L 207.354017 98.642546 
L 208.506873 96.955807 
L 209.65973 95.32103 
L 210.812586 93.737973 
L 211.965442 92.20638 
L 213.118299 90.725984 
L 214.271155 89.296511 
L 215.424012 87.917677 
L 216.576868 86.589193 
L 217.729724 85.310766 
L 218.882581 84.082098 
L 220.035437 82.90289 
L 221.188294 81.772842 
L 222.34115 80.691655 
L 223.494006 79.659033 
L 224.646863 78.674681 
L 225.799719 77.738309 
L 226.952576 76.849635 
L 228.105432 76.008379 
L 229.258288 75.214273 
L 230.411145 74.467056 
L 231.564001 73.766477 
L 232.716857 73.112294 
L 233.869714 72.504278 
L 235.02257 71.942213 
L 236.175427 71.425895 
L 237.328283 70.955132 
L 238.481139 70.52975 
L 239.633996 70.149587 
L 240.786852 69.814498 
L 241.939709 69.524353 
L 243.092565 69.27904 
L 244.245421 69.078461 
L 245.398278 68.922539 
L 246.551134 68.811209 
L 247.703991 68.74443 
L 248.856847 68.722173 
" style="fill:none;stroke:#dfe318;stroke-linecap:square;stroke-width:1.5;"/>
   </g>
   <g id="line2d_38">
    <path clip-path="url(#p5cfc5fedec)" d="M 134.724064 299.588748 
L 135.876921 295.480185 
L 137.029777 291.37335 
L 138.182634 287.269973 
L 139.33549 283.171778 
L 140.488346 279.080482 
L 141.641203 274.997794 
L 142.794059 270.925413 
L 143.946916 266.865024 
L 145.099772 262.818299 
L 146.252628 258.786893 
L 147.405485 254.772442 
L 148.558341 250.776563 
L 149.711198 246.80085 
L 150.864054 242.846873 
L 152.01691 238.916175 
L 153.169767 235.010274 
L 154.322623 231.130658 
L 155.475479 227.278782 
L 156.628336 223.456074 
L 157.781192 219.663923 
L 158.934049 215.903686 
L 160.086905 212.176685 
L 161.239761 208.484201 
L 162.392618 204.82748 
L 163.545474 201.207727 
L 164.698331 197.626106 
L 165.851187 194.083741 
L 167.004043 190.581714 
L 168.1569 187.121063 
L 169.309756 183.702785 
L 170.462612 180.327831 
L 171.615469 176.997108 
L 172.768325 173.711482 
L 173.921182 170.47177 
L 175.074038 167.278747 
L 176.226894 164.133143 
L 177.379751 161.035643 
L 178.532607 157.986887 
L 179.685464 154.987471 
L 180.83832 152.037949 
L 181.991176 149.13883 
L 183.144033 146.29058 
L 184.296889 143.493622 
L 185.449746 140.74834 
L 186.602602 138.055076 
L 187.755458 135.414129 
L 188.908315 132.825764 
L 190.061171 130.290205 
L 191.214027 127.807637 
L 192.366884 125.378214 
L 193.51974 123.00205 
L 194.672597 120.679228 
L 195.825453 118.409798 
L 196.978309 116.193779 
L 198.131166 114.031161 
L 199.284022 111.921902 
L 200.436879 109.865937 
L 201.589735 107.863174 
L 202.742591 105.913496 
L 203.895448 104.016765 
L 205.048304 102.172819 
L 206.201161 100.381479 
L 207.354017 98.642546 
L 208.506873 96.955807 
L 209.65973 95.32103 
L 210.812586 93.737973 
L 211.965442 92.20638 
L 213.118299 90.725984 
L 214.271155 89.296511 
L 215.424012 87.917677 
L 216.576868 86.589193 
L 217.729724 85.310766 
L 218.882581 84.082098 
L 220.035437 82.90289 
L 221.188294 81.772842 
L 222.34115 80.691655 
L 223.494006 79.659033 
L 224.646863 78.674681 
L 225.799719 77.738309 
L 226.952576 76.849635 
L 228.105432 76.008379 
L 229.258288 75.214273 
L 230.411145 74.467056 
L 231.564001 73.766477 
L 232.716857 73.112294 
L 233.869714 72.504278 
L 235.02257 71.942213 
L 236.175427 71.425895 
L 237.328283 70.955132 
L 238.481139 70.52975 
L 239.633996 70.149587 
L 240.786852 69.814498 
L 241.939709 69.524353 
L 243.092565 69.27904 
L 244.245421 69.078461 
L 245.398278 68.922539 
L 246.551134 68.811209 
L 247.703991 68.74443 
L 248.856847 68.722173 
" style="fill:none;stroke:#dfe318;stroke-linecap:square;stroke-width:1.5;"/>
   </g>
   <g id="line2d_39">
    <path clip-path="url(#p5cfc5fedec)" d="M 134.724064 299.588746 
L 135.876921 293.25809 
L 137.029777 286.933748 
L 138.182634 280.622029 
L 139.33549 274.329209 
L 140.488346 268.06152 
L 141.641203 261.825141 
L 142.794059 255.626178 
L 143.946916 249.470653 
L 145.099772 243.364493 
L 146.252628 237.313511 
L 147.405485 231.323398 
L 148.558341 225.399709 
L 149.711198 219.547851 
L 150.864054 213.773067 
L 152.01691 208.080431 
L 153.169767 202.474833 
L 154.322623 196.960968 
L 155.475479 191.543327 
L 156.628336 186.226188 
L 157.781192 181.013603 
L 158.934049 175.909397 
L 160.086905 170.91715 
L 161.239761 166.040199 
L 162.392618 161.281625 
L 163.545474 156.644249 
L 164.698331 152.130629 
L 165.851187 147.74305 
L 167.004043 143.483525 
L 168.1569 139.353791 
L 169.309756 135.355302 
L 170.462612 131.489236 
L 171.615469 127.756485 
L 172.768325 124.15766 
L 173.921182 120.693094 
L 175.074038 117.362837 
L 176.226894 114.166665 
L 177.379751 111.104079 
L 178.532607 108.174311 
L 179.685464 105.376331 
L 180.83832 102.708849 
L 181.991176 100.170325 
L 183.144033 97.758976 
L 184.296889 95.472783 
L 185.449746 93.309501 
L 186.602602 91.266673 
L 187.755458 89.341634 
L 188.908315 87.531529 
L 190.061171 85.833322 
L 191.214027 84.24381 
L 192.366884 82.759637 
L 193.51974 81.37731 
L 194.672597 80.09321 
L 195.825453 78.90361 
L 196.978309 77.804694 
L 198.131166 76.792567 
L 199.284022 75.863274 
L 200.436879 75.012819 
L 201.589735 74.23718 
L 202.742591 73.532325 
L 203.895448 72.894228 
L 205.048304 72.318888 
L 206.201161 71.802343 
L 207.354017 71.340688 
L 208.506873 70.930086 
L 209.65973 70.566785 
L 210.812586 70.247132 
L 211.965442 69.967583 
L 213.118299 69.724717 
L 214.271155 69.515247 
L 215.424012 69.336026 
L 216.576868 69.184059 
L 217.729724 69.056506 
L 218.882581 68.950691 
L 220.035437 68.864102 
L 221.188294 68.794396 
L 222.34115 68.739402 
L 223.494006 68.697115 
L 224.646863 68.665701 
L 225.799719 68.643487 
L 226.952576 68.628962 
L 228.105432 68.620772 
L 229.258288 68.617708 
L 230.411145 68.618703 
L 231.564001 68.622826 
L 232.716857 68.629265 
L 233.869714 68.637326 
L 235.02257 68.646418 
L 236.175427 68.656048 
L 237.328283 68.665803 
L 238.481139 68.675349 
L 239.633996 68.684416 
L 240.786852 68.69279 
L 241.939709 68.700304 
L 243.092565 68.706832 
L 244.245421 68.712279 
L 245.398278 68.716576 
L 246.551134 68.719676 
L 247.703991 68.721547 
L 248.856847 68.722173 
" style="fill:none;stroke:#dfe318;stroke-linecap:square;stroke-width:1.5;"/>
   </g>
   <g id="line2d_40">
    <path clip-path="url(#p5cfc5fedec)" d="M 248.856847 68.722173 
L 250.853653 68.873849 
L 252.850459 69.328266 
L 254.847264 70.083571 
L 256.84407 71.136633 
L 258.840876 72.482978 
L 260.837682 74.116701 
L 262.834488 76.03035 
L 264.831294 78.214792 
L 266.828099 80.659058 
L 268.824905 83.350169 
L 270.821711 86.272946 
L 272.818517 89.409811 
L 274.815323 92.740572 
L 276.812129 96.242221 
L 278.808935 99.888718 
L 280.80574 103.650808 
L 282.802546 107.495856 
L 284.799352 111.38773 
L 286.796158 115.286752 
L 288.792964 119.149751 
L 290.78977 122.930245 
L 292.786575 126.578794 
L 294.783381 130.043571 
L 296.780187 133.271199 
L 298.776993 136.207862 
L 300.773799 138.800727 
L 302.770605 140.999636 
L 304.76741 142.758996 
L 306.764216 144.039754 
L 308.761022 144.811272 
L 310.757828 145.052928 
L 312.754634 144.755218 
L 314.75144 143.920257 
L 316.748245 142.561571 
L 318.745051 140.703241 
L 320.741857 138.378499 
L 322.738663 135.627956 
L 324.735469 132.497666 
L 326.732275 129.037197 
L 328.72908 125.297869 
L 330.725886 121.331233 
L 332.722692 117.187851 
L 334.719498 112.916368 
L 336.716304 108.562856 
L 338.71311 104.170405 
L 340.709916 99.778895 
L 342.706721 95.424934 
L 344.703527 91.141907 
L 346.700333 86.960109 
L 348.697139 85.943296 
L 350.693945 88.081644 
L 352.690751 90.331187 
L 354.687556 92.691729 
L 356.684362 95.162949 
L 358.681168 97.744411 
L 360.677974 100.43558 
L 362.67478 103.235837 
L 364.671586 106.144485 
L 366.668391 109.160758 
L 368.665197 112.283829 
L 370.662003 115.512812 
L 372.658809 118.846766 
L 374.655615 122.284695 
L 376.652421 125.825546 
L 378.649226 129.468205 
L 380.646032 133.211497 
L 382.642838 137.054177 
L 384.639644 140.994925 
L 386.63645 145.032338 
L 388.633256 149.164929 
L 390.630062 153.39111 
L 392.626867 157.709195 
L 394.623673 162.117387 
L 396.620479 166.613775 
L 398.617285 171.196327 
L 400.614091 175.862887 
L 402.610897 180.611172 
L 404.607702 185.438768 
L 406.604508 190.343131 
L 408.601314 195.321583 
L 410.59812 200.371319 
L 412.594926 205.489403 
L 414.591732 210.672775 
L 416.588537 215.918253 
L 418.585343 221.222538 
L 420.582149 226.582223 
L 422.578955 231.993791 
L 424.575761 237.453632 
L 426.572567 242.958042 
L 428.569372 248.503234 
L 430.566178 254.085345 
L 432.562984 259.700443 
L 434.55979 265.344536 
L 436.556596 271.01358 
L 438.553402 276.703484 
L 440.550207 282.41012 
L 442.547013 288.129332 
L 444.543819 293.85694 
L 446.540625 299.588754 
" style="fill:none;stroke:#dfe318;stroke-linecap:square;stroke-width:1.5;"/>
   </g>
   <g id="line2d_41">
    <path clip-path="url(#p5cfc5fedec)" d="M 248.856847 68.722173 
L 250.853653 68.712142 
L 252.850459 68.682096 
L 254.847264 68.632172 
L 256.84407 68.562608 
L 258.840876 68.47375 
L 260.837682 68.366067 
L 262.834488 68.240166 
L 264.831294 68.09681 
L 266.828099 67.936938 
L 268.824905 67.761688 
L 270.821711 67.572414 
L 272.818517 67.370707 
L 274.815323 67.158411 
L 276.812129 66.937639 
L 278.808935 66.710785 
L 280.80574 66.480531 
L 282.802546 66.249846 
L 284.799352 66.021993 
L 286.796158 65.800511 
L 288.792964 65.589213 
L 290.78977 65.392162 
L 292.786575 65.213654 
L 294.783381 65.058187 
L 296.780187 64.930438 
L 298.776993 64.835224 
L 300.773799 64.777468 
L 302.770605 64.762164 
L 304.76741 64.794334 
L 306.764216 64.878994 
L 308.761022 65.021109 
L 310.757828 65.225563 
L 312.754634 65.497118 
L 314.75144 65.84038 
L 316.748245 66.259775 
L 318.745051 66.759512 
L 320.741857 67.343569 
L 322.738663 68.015665 
L 324.735469 68.779249 
L 326.732275 69.63749 
L 328.72908 70.593262 
L 330.725886 71.649148 
L 332.722692 72.807436 
L 334.719498 74.070123 
L 336.716304 75.438924 
L 338.71311 76.915279 
L 340.709916 78.500366 
L 342.706721 80.195117 
L 344.703527 82.000232 
L 346.700333 83.916195 
L 348.697139 85.943296 
L 350.693945 88.081644 
L 352.690751 90.331187 
L 354.687556 92.691729 
L 356.684362 95.162949 
L 358.681168 97.744411 
L 360.677974 100.43558 
L 362.67478 103.235837 
L 364.671586 106.144485 
L 366.668391 109.160758 
L 368.665197 112.283829 
L 370.662003 115.512812 
L 372.658809 118.846766 
L 374.655615 122.284695 
L 376.652421 125.825546 
L 378.649226 129.468205 
L 380.646032 133.211497 
L 382.642838 137.054177 
L 384.639644 140.994925 
L 386.63645 145.032338 
L 388.633256 149.164929 
L 390.630062 153.39111 
L 392.626867 157.709195 
L 394.623673 162.117387 
L 396.620479 166.613775 
L 398.617285 171.196327 
L 400.614091 175.862887 
L 402.610897 180.611172 
L 404.607702 185.438768 
L 406.604508 190.343131 
L 408.601314 195.321583 
L 410.59812 200.371319 
L 412.594926 205.489403 
L 414.591732 210.672775 
L 416.588537 215.918253 
L 418.585343 221.222538 
L 420.582149 226.582223 
L 422.578955 231.993791 
L 424.575761 237.453632 
L 426.572567 242.958042 
L 428.569372 248.503234 
L 430.566178 254.085345 
L 432.562984 259.700443 
L 434.55979 265.344536 
L 436.556596 271.01358 
L 438.553402 276.703484 
L 440.550207 282.41012 
L 442.547013 288.129332 
L 444.543819 293.85694 
L 446.540625 299.588748 
" style="fill:none;stroke:#dfe318;stroke-linecap:square;stroke-width:1.5;"/>
   </g>
   <g id="line2d_42">
    <path clip-path="url(#p5cfc5fedec)" d="M 248.856847 68.722173 
L 250.853653 68.712142 
L 252.850459 68.682096 
L 254.847264 68.632172 
L 256.84407 68.562608 
L 258.840876 68.47375 
L 260.837682 68.366067 
L 262.834488 68.240166 
L 264.831294 68.09681 
L 266.828099 67.936938 
L 268.824905 67.761688 
L 270.821711 67.572414 
L 272.818517 67.370707 
L 274.815323 67.158411 
L 276.812129 66.937639 
L 278.808935 66.710785 
L 280.80574 66.480531 
L 282.802546 66.249846 
L 284.799352 66.021993 
L 286.796158 65.800511 
L 288.792964 65.589213 
L 290.78977 65.392162 
L 292.786575 65.213654 
L 294.783381 65.058187 
L 296.780187 64.930438 
L 298.776993 64.835224 
L 300.773799 64.777468 
L 302.770605 64.762164 
L 304.76741 64.794334 
L 306.764216 64.878994 
L 308.761022 65.021109 
L 310.757828 65.225563 
L 312.754634 65.497118 
L 314.75144 65.84038 
L 316.748245 66.259775 
L 318.745051 66.759512 
L 320.741857 67.343569 
L 322.738663 68.015665 
L 324.735469 68.779249 
L 326.732275 69.63749 
L 328.72908 70.593262 
L 330.725886 71.649148 
L 332.722692 72.807436 
L 334.719498 74.070123 
L 336.716304 75.438924 
L 338.71311 76.915279 
L 340.709916 78.500366 
L 342.706721 80.195117 
L 344.703527 82.000232 
L 346.700333 83.916195 
L 348.697139 82.906947 
L 350.693945 79.007168 
L 352.690751 75.283133 
L 354.687556 71.755082 
L 356.684362 68.441422 
L 358.681168 65.358997 
L 360.677974 62.523361 
L 362.67478 59.949023 
L 364.671586 57.64968 
L 366.668391 55.638429 
L 368.665197 53.927946 
L 370.662003 52.530636 
L 372.658809 51.45876 
L 374.655615 50.724519 
L 376.652421 50.340111 
L 378.649226 50.31775 
L 380.646032 50.669655 
L 382.642838 51.408007 
L 384.639644 52.544872 
L 386.63645 54.092103 
L 388.633256 56.061214 
L 390.630062 58.463232 
L 392.626867 61.308536 
L 394.623673 64.60668 
L 396.620479 68.366213 
L 398.617285 72.594485 
L 400.614091 77.297468 
L 402.610897 82.479563 
L 404.607702 88.143437 
L 406.604508 94.289848 
L 408.601314 100.917509 
L 410.59812 108.022952 
L 412.594926 115.600418 
L 414.591732 123.641775 
L 416.588537 132.136456 
L 418.585343 141.071417 
L 420.582149 150.431131 
L 422.578955 160.197605 
L 424.575761 170.350417 
L 426.572567 180.866793 
L 428.569372 191.721694 
L 430.566178 202.887939 
L 432.562984 214.336349 
L 434.55979 226.035905 
L 436.556596 237.953938 
L 438.553402 250.056326 
L 440.550207 262.307716 
L 442.547013 274.671748 
L 444.543819 287.111304 
L 446.540625 299.588746 
" style="fill:none;stroke:#dfe318;stroke-linecap:square;stroke-width:1.5;"/>
   </g>
   <g id="line2d_43">
    <path clip-path="url(#p5cfc5fedec)" d="M 0 0 
" style="fill:none;stroke:#dfe318;stroke-linecap:square;stroke-width:1.5;"/>
   </g>
   <g id="line2d_44">
    <path clip-path="url(#p5cfc5fedec)" d="M 54.02 299.58875 
L 54.02 14.76 
" style="fill:none;stroke:#000000;stroke-linecap:square;stroke-width:0.6;"/>
   </g>
   <g id="line2d_45">
    <path clip-path="url(#p5cfc5fedec)" d="M 134.724064 299.58875 
L 134.724064 14.76 
" style="fill:none;stroke:#000000;stroke-linecap:square;stroke-width:0.6;"/>
   </g>
   <g id="line2d_46">
    <path clip-path="url(#p5cfc5fedec)" d="M 248.856847 299.58875 
L 248.856847 14.76 
" style="fill:none;stroke:#000000;stroke-linecap:square;stroke-width:0.6;"/>
   </g>
   <g id="line2d_47">
    <path clip-path="url(#p5cfc5fedec)" d="M 446.540625 299.58875 
L 446.540625 14.76 
" style="fill:none;stroke:#000000;stroke-linecap:square;stroke-width:0.6;"/>
   </g>
   <g id="line2d_48">
    <path clip-path="url(#p5cfc5fedec)" d="M 54.02 299.58875 
L 446.540625 299.58875 
" style="fill:none;stroke:#000000;stroke-linecap:square;"/>
   </g>
   <g id="patch_3">
    <path d="M 54.02 299.58875 
L 54.02 14.76 
" style="fill:none;stroke:#000000;stroke-linecap:square;stroke-linejoin:miter;stroke-width:0.8;"/>
   </g>
   <g id="patch_4">
    <path d="M 446.540625 299.58875 
L 446.540625 14.76 
" style="fill:none;stroke:#000000;stroke-linecap:square;stroke-linejoin:miter;stroke-width:0.8;"/>
   </g>
   <g id="patch_5">
    <path d="M 54.02 299.58875 
L 446.540625 299.58875 
" style="fill:none;stroke:#000000;stroke-linecap:square;stroke-linejoin:miter;stroke-width:0.8;"/>
   </g>
   <g id="patch_6">
    <path d="M 54.02 14.76 
L 446.540625 14.76 
" style="fill:none;stroke:#000000;stroke-linecap:square;stroke-linejoin:miter;stroke-width:0.8;"/>
   </g>
   <g id="legend_1">
    <g id="patch_7">
     <path d="M 218.276406 294.58875 
L 282.284219 294.58875 
Q 284.284219 294.58875 284.284219 292.58875 
L 284.284219 249.554375 
Q 284.284219 247.554375 282.284219 247.554375 
L 218.276406 247.554375 
Q 216.276406 247.554375 216.276406 249.554375 
L 216.276406 292.58875 
Q 216.276406 294.58875 218.276406 294.58875 
z
" style="fill:#ffffff;opacity:0.8;stroke:#cccccc;stroke-linejoin:miter;"/>
    </g>
    <g id="line2d_49">
     <path d="M 220.276406 255.652812 
L 240.276406 255.652812 
" style="fill:none;stroke:#440154;stroke-linecap:square;stroke-width:1.5;"/>
    </g>
    <g id="line2d_50"/>
    <g id="text_16">
     <!-- 2000K -->
     <defs>
      <path d="M 9.8125 72.90625 
L 19.671875 72.90625 
L 19.671875 42.09375 
L 52.390625 72.90625 
L 65.09375 72.90625 
L 28.90625 38.921875 
L 67.671875 0 
L 54.6875 0 
L 19.671875 35.109375 
L 19.671875 0 
L 9.8125 0 
z
" id="DejaVuSans-4b"/>
     </defs>
     <g transform="translate(248.276406 259.152812)scale(0.1 -0.1)">
      <use xlink:href="#DejaVuSans-32"/>
      <use x="63.623047" xlink:href="#DejaVuSans-30"/>
      <use x="127.246094" xlink:href="#DejaVuSans-30"/>
      <use x="190.869141" xlink:href="#DejaVuSans-30"/>
      <use x="254.492188" xlink:href="#DejaVuSans-4b"/>
     </g>
    </g>
    <g id="line2d_51">
     <path d="M 220.276406 270.330938 
L 240.276406 270.330938 
" style="fill:none;stroke:#238a8d;stroke-linecap:square;stroke-width:1.5;"/>
    </g>
    <g id="line2d_52"/>
    <g id="text_17">
     <!-- 1000K -->
     <g transform="translate(248.276406 273.830938)scale(0.1 -0.1)">
      <use xlink:href="#DejaVuSans-31"/>
      <use x="63.623047" xlink:href="#DejaVuSans-30"/>
      <use x="127.246094" xlink:href="#DejaVuSans-30"/>
      <use x="190.869141" xlink:href="#DejaVuSans-30"/>
      <use x="254.492188" xlink:href="#DejaVuSans-4b"/>
     </g>
    </g>
    <g id="line2d_53">
     <path d="M 220.276406 285.009062 
L 240.276406 285.009062 
" style="fill:none;stroke:#dfe318;stroke-linecap:square;stroke-width:1.5;"/>
    </g>
    <g id="line2d_54"/>
    <g id="text_18">
     <!-- 300K -->
     <defs>
      <path d="M 40.578125 39.3125 
Q 47.65625 37.796875 51.625 33 
Q 55.609375 28.21875 55.609375 21.1875 
Q 55.609375 10.40625 48.1875 4.484375 
Q 40.765625 -1.421875 27.09375 -1.421875 
Q 22.515625 -1.421875 17.65625 -0.515625 
Q 12.796875 0.390625 7.625 2.203125 
L 7.625 11.71875 
Q 11.71875 9.328125 16.59375 8.109375 
Q 21.484375 6.890625 26.8125 6.890625 
Q 36.078125 6.890625 40.9375 10.546875 
Q 45.796875 14.203125 45.796875 21.1875 
Q 45.796875 27.640625 41.28125 31.265625 
Q 36.765625 34.90625 28.71875 34.90625 
L 20.21875 34.90625 
L 20.21875 43.015625 
L 29.109375 43.015625 
Q 36.375 43.015625 40.234375 45.921875 
Q 44.09375 48.828125 44.09375 54.296875 
Q 44.09375 59.90625 40.109375 62.90625 
Q 36.140625 65.921875 28.71875 65.921875 
Q 24.65625 65.921875 20.015625 65.03125 
Q 15.375 64.15625 9.8125 62.3125 
L 9.8125 71.09375 
Q 15.4375 72.65625 20.34375 73.4375 
Q 25.25 74.21875 29.59375 74.21875 
Q 40.828125 74.21875 47.359375 69.109375 
Q 53.90625 64.015625 53.90625 55.328125 
Q 53.90625 49.265625 50.4375 45.09375 
Q 46.96875 40.921875 40.578125 39.3125 
z
" id="DejaVuSans-33"/>
     </defs>
     <g transform="translate(248.276406 288.509062)scale(0.1 -0.1)">
      <use xlink:href="#DejaVuSans-33"/>
      <use x="63.623047" xlink:href="#DejaVuSans-30"/>
      <use x="127.246094" xlink:href="#DejaVuSans-30"/>
      <use x="190.869141" xlink:href="#DejaVuSans-4b"/>
     </g>
    </g>
   </g>
  </g>
 </g>
 <defs>
  <clipPath id="p5cfc5fedec">
   <rect height="284.82875" width="392.520625" x="54.02" y="14.76"/>
  </clipPath>
 </defs>
</svg>
