<?xml version="1.0" encoding="utf-8" standalone="no"?>
<!DOCTYPE svg PUBLIC "-//W3C//DTD SVG 1.1//EN"
  "http://www.w3.org/Graphics/SVG/1.1/DTD/svg11.dtd">
<!-- Created with matplotlib (http://matplotlib.org/) -->
<svg height="360pt" version="1.1" viewBox="0 0 1080 360" width="1080pt" xmlns="http://www.w3.org/2000/svg" xmlns:xlink="http://www.w3.org/1999/xlink">
 <defs>
  <style type="text/css">
*{stroke-linecap:butt;stroke-linejoin:round;}
  </style>
 </defs>
 <g id="figure_1">
  <g id="patch_1">
   <path d="M 0 360 
L 1080 360 
L 1080 0 
L 0 0 
z
" style="fill:#ffffff;"/>
  </g>
  <g id="axes_1">
   <g id="patch_2">
    <path d="M 44.48 310.84 
L 350.141667 310.84 
L 350.141667 15.985642 
L 44.48 15.985642 
z
" style="fill:#ffffff;"/>
   </g>
   <g id="matplotlib.axis_1">
    <g id="xtick_1">
     <g id="line2d_1">
      <defs>
       <path d="M 0 0 
L 0 3.5 
" id="mbf83a86ec8" style="stroke:#000000;stroke-width:0.8;"/>
      </defs>
      <g>
       <use style="stroke:#000000;stroke-width:0.8;" x="44.48" xlink:href="#mbf83a86ec8" y="310.84"/>
      </g>
     </g>
     <g id="text_1">
      <!-- 0.0 -->
      <defs>
       <path d="M 31.78125 66.40625 
Q 24.171875 66.40625 20.328125 58.90625 
Q 16.5 51.421875 16.5 36.375 
Q 16.5 21.390625 20.328125 13.890625 
Q 24.171875 6.390625 31.78125 6.390625 
Q 39.453125 6.390625 43.28125 13.890625 
Q 47.125 21.390625 47.125 36.375 
Q 47.125 51.421875 43.28125 58.90625 
Q 39.453125 66.40625 31.78125 66.40625 
z
M 31.78125 74.21875 
Q 44.046875 74.21875 50.515625 64.515625 
Q 56.984375 54.828125 56.984375 36.375 
Q 56.984375 17.96875 50.515625 8.265625 
Q 44.046875 -1.421875 31.78125 -1.421875 
Q 19.53125 -1.421875 13.0625 8.265625 
Q 6.59375 17.96875 6.59375 36.375 
Q 6.59375 54.828125 13.0625 64.515625 
Q 19.53125 74.21875 31.78125 74.21875 
z
" id="DejaVuSans-30"/>
       <path d="M 10.6875 12.40625 
L 21 12.40625 
L 21 0 
L 10.6875 0 
z
" id="DejaVuSans-2e"/>
      </defs>
      <g transform="translate(33.347813 328.477813)scale(0.14 -0.14)">
       <use xlink:href="#DejaVuSans-30"/>
       <use x="63.623047" xlink:href="#DejaVuSans-2e"/>
       <use x="95.410156" xlink:href="#DejaVuSans-30"/>
      </g>
     </g>
    </g>
    <g id="xtick_2">
     <g id="line2d_2">
      <g>
       <use style="stroke:#000000;stroke-width:0.8;" x="88.145952" xlink:href="#mbf83a86ec8" y="310.84"/>
      </g>
     </g>
     <g id="text_2">
      <!-- 0.1 -->
      <defs>
       <path d="M 12.40625 8.296875 
L 28.515625 8.296875 
L 28.515625 63.921875 
L 10.984375 60.40625 
L 10.984375 69.390625 
L 28.421875 72.90625 
L 38.28125 72.90625 
L 38.28125 8.296875 
L 54.390625 8.296875 
L 54.390625 0 
L 12.40625 0 
z
" id="DejaVuSans-31"/>
      </defs>
      <g transform="translate(77.013765 328.477813)scale(0.14 -0.14)">
       <use xlink:href="#DejaVuSans-30"/>
       <use x="63.623047" xlink:href="#DejaVuSans-2e"/>
       <use x="95.410156" xlink:href="#DejaVuSans-31"/>
      </g>
     </g>
    </g>
    <g id="xtick_3">
     <g id="line2d_3">
      <g>
       <use style="stroke:#000000;stroke-width:0.8;" x="131.811905" xlink:href="#mbf83a86ec8" y="310.84"/>
      </g>
     </g>
     <g id="text_3">
      <!-- 0.2 -->
      <defs>
       <path d="M 19.1875 8.296875 
L 53.609375 8.296875 
L 53.609375 0 
L 7.328125 0 
L 7.328125 8.296875 
Q 12.9375 14.109375 22.625 23.890625 
Q 32.328125 33.6875 34.8125 36.53125 
Q 39.546875 41.84375 41.421875 45.53125 
Q 43.3125 49.21875 43.3125 52.78125 
Q 43.3125 58.59375 39.234375 62.25 
Q 35.15625 65.921875 28.609375 65.921875 
Q 23.96875 65.921875 18.8125 64.3125 
Q 13.671875 62.703125 7.8125 59.421875 
L 7.8125 69.390625 
Q 13.765625 71.78125 18.9375 73 
Q 24.125 74.21875 28.421875 74.21875 
Q 39.75 74.21875 46.484375 68.546875 
Q 53.21875 62.890625 53.21875 53.421875 
Q 53.21875 48.921875 51.53125 44.890625 
Q 49.859375 40.875 45.40625 35.40625 
Q 44.1875 33.984375 37.640625 27.21875 
Q 31.109375 20.453125 19.1875 8.296875 
z
" id="DejaVuSans-32"/>
      </defs>
      <g transform="translate(120.679717 328.477813)scale(0.14 -0.14)">
       <use xlink:href="#DejaVuSans-30"/>
       <use x="63.623047" xlink:href="#DejaVuSans-2e"/>
       <use x="95.410156" xlink:href="#DejaVuSans-32"/>
      </g>
     </g>
    </g>
    <g id="xtick_4">
     <g id="line2d_4">
      <g>
       <use style="stroke:#000000;stroke-width:0.8;" x="175.477857" xlink:href="#mbf83a86ec8" y="310.84"/>
      </g>
     </g>
     <g id="text_4">
      <!-- 0.3 -->
      <defs>
       <path d="M 40.578125 39.3125 
Q 47.65625 37.796875 51.625 33 
Q 55.609375 28.21875 55.609375 21.1875 
Q 55.609375 10.40625 48.1875 4.484375 
Q 40.765625 -1.421875 27.09375 -1.421875 
Q 22.515625 -1.421875 17.65625 -0.515625 
Q 12.796875 0.390625 7.625 2.203125 
L 7.625 11.71875 
Q 11.71875 9.328125 16.59375 8.109375 
Q 21.484375 6.890625 26.8125 6.890625 
Q 36.078125 6.890625 40.9375 10.546875 
Q 45.796875 14.203125 45.796875 21.1875 
Q 45.796875 27.640625 41.28125 31.265625 
Q 36.765625 34.90625 28.71875 34.90625 
L 20.21875 34.90625 
L 20.21875 43.015625 
L 29.109375 43.015625 
Q 36.375 43.015625 40.234375 45.921875 
Q 44.09375 48.828125 44.09375 54.296875 
Q 44.09375 59.90625 40.109375 62.90625 
Q 36.140625 65.921875 28.71875 65.921875 
Q 24.65625 65.921875 20.015625 65.03125 
Q 15.375 64.15625 9.8125 62.3125 
L 9.8125 71.09375 
Q 15.4375 72.65625 20.34375 73.4375 
Q 25.25 74.21875 29.59375 74.21875 
Q 40.828125 74.21875 47.359375 69.109375 
Q 53.90625 64.015625 53.90625 55.328125 
Q 53.90625 49.265625 50.4375 45.09375 
Q 46.96875 40.921875 40.578125 39.3125 
z
" id="DejaVuSans-33"/>
      </defs>
      <g transform="translate(164.34567 328.477813)scale(0.14 -0.14)">
       <use xlink:href="#DejaVuSans-30"/>
       <use x="63.623047" xlink:href="#DejaVuSans-2e"/>
       <use x="95.410156" xlink:href="#DejaVuSans-33"/>
      </g>
     </g>
    </g>
    <g id="xtick_5">
     <g id="line2d_5">
      <g>
       <use style="stroke:#000000;stroke-width:0.8;" x="219.14381" xlink:href="#mbf83a86ec8" y="310.84"/>
      </g>
     </g>
     <g id="text_5">
      <!-- 0.4 -->
      <defs>
       <path d="M 37.796875 64.3125 
L 12.890625 25.390625 
L 37.796875 25.390625 
z
M 35.203125 72.90625 
L 47.609375 72.90625 
L 47.609375 25.390625 
L 58.015625 25.390625 
L 58.015625 17.1875 
L 47.609375 17.1875 
L 47.609375 0 
L 37.796875 0 
L 37.796875 17.1875 
L 4.890625 17.1875 
L 4.890625 26.703125 
z
" id="DejaVuSans-34"/>
      </defs>
      <g transform="translate(208.011622 328.477813)scale(0.14 -0.14)">
       <use xlink:href="#DejaVuSans-30"/>
       <use x="63.623047" xlink:href="#DejaVuSans-2e"/>
       <use x="95.410156" xlink:href="#DejaVuSans-34"/>
      </g>
     </g>
    </g>
    <g id="xtick_6">
     <g id="line2d_6">
      <g>
       <use style="stroke:#000000;stroke-width:0.8;" x="262.809762" xlink:href="#mbf83a86ec8" y="310.84"/>
      </g>
     </g>
     <g id="text_6">
      <!-- 0.5 -->
      <defs>
       <path d="M 10.796875 72.90625 
L 49.515625 72.90625 
L 49.515625 64.59375 
L 19.828125 64.59375 
L 19.828125 46.734375 
Q 21.96875 47.46875 24.109375 47.828125 
Q 26.265625 48.1875 28.421875 48.1875 
Q 40.625 48.1875 47.75 41.5 
Q 54.890625 34.8125 54.890625 23.390625 
Q 54.890625 11.625 47.5625 5.09375 
Q 40.234375 -1.421875 26.90625 -1.421875 
Q 22.3125 -1.421875 17.546875 -0.640625 
Q 12.796875 0.140625 7.71875 1.703125 
L 7.71875 11.625 
Q 12.109375 9.234375 16.796875 8.0625 
Q 21.484375 6.890625 26.703125 6.890625 
Q 35.15625 6.890625 40.078125 11.328125 
Q 45.015625 15.765625 45.015625 23.390625 
Q 45.015625 31 40.078125 35.4375 
Q 35.15625 39.890625 26.703125 39.890625 
Q 22.75 39.890625 18.8125 39.015625 
Q 14.890625 38.140625 10.796875 36.28125 
z
" id="DejaVuSans-35"/>
      </defs>
      <g transform="translate(251.677574 328.477813)scale(0.14 -0.14)">
       <use xlink:href="#DejaVuSans-30"/>
       <use x="63.623047" xlink:href="#DejaVuSans-2e"/>
       <use x="95.410156" xlink:href="#DejaVuSans-35"/>
      </g>
     </g>
    </g>
    <g id="xtick_7">
     <g id="line2d_7">
      <g>
       <use style="stroke:#000000;stroke-width:0.8;" x="306.475714" xlink:href="#mbf83a86ec8" y="310.84"/>
      </g>
     </g>
     <g id="text_7">
      <!-- 0.6 -->
      <defs>
       <path d="M 33.015625 40.375 
Q 26.375 40.375 22.484375 35.828125 
Q 18.609375 31.296875 18.609375 23.390625 
Q 18.609375 15.53125 22.484375 10.953125 
Q 26.375 6.390625 33.015625 6.390625 
Q 39.65625 6.390625 43.53125 10.953125 
Q 47.40625 15.53125 47.40625 23.390625 
Q 47.40625 31.296875 43.53125 35.828125 
Q 39.65625 40.375 33.015625 40.375 
z
M 52.59375 71.296875 
L 52.59375 62.3125 
Q 48.875 64.0625 45.09375 64.984375 
Q 41.3125 65.921875 37.59375 65.921875 
Q 27.828125 65.921875 22.671875 59.328125 
Q 17.53125 52.734375 16.796875 39.40625 
Q 19.671875 43.65625 24.015625 45.921875 
Q 28.375 48.1875 33.59375 48.1875 
Q 44.578125 48.1875 50.953125 41.515625 
Q 57.328125 34.859375 57.328125 23.390625 
Q 57.328125 12.15625 50.6875 5.359375 
Q 44.046875 -1.421875 33.015625 -1.421875 
Q 20.359375 -1.421875 13.671875 8.265625 
Q 6.984375 17.96875 6.984375 36.375 
Q 6.984375 53.65625 15.1875 63.9375 
Q 23.390625 74.21875 37.203125 74.21875 
Q 40.921875 74.21875 44.703125 73.484375 
Q 48.484375 72.75 52.59375 71.296875 
z
" id="DejaVuSans-36"/>
      </defs>
      <g transform="translate(295.343527 328.477813)scale(0.14 -0.14)">
       <use xlink:href="#DejaVuSans-30"/>
       <use x="63.623047" xlink:href="#DejaVuSans-2e"/>
       <use x="95.410156" xlink:href="#DejaVuSans-36"/>
      </g>
     </g>
    </g>
    <g id="xtick_8">
     <g id="line2d_8">
      <g>
       <use style="stroke:#000000;stroke-width:0.8;" x="350.141667" xlink:href="#mbf83a86ec8" y="310.84"/>
      </g>
     </g>
     <g id="text_8">
      <!-- 0.7 -->
      <defs>
       <path d="M 8.203125 72.90625 
L 55.078125 72.90625 
L 55.078125 68.703125 
L 28.609375 0 
L 18.3125 0 
L 43.21875 64.59375 
L 8.203125 64.59375 
z
" id="DejaVuSans-37"/>
      </defs>
      <g transform="translate(339.009479 328.477813)scale(0.14 -0.14)">
       <use xlink:href="#DejaVuSans-30"/>
       <use x="63.623047" xlink:href="#DejaVuSans-2e"/>
       <use x="95.410156" xlink:href="#DejaVuSans-37"/>
      </g>
     </g>
    </g>
    <g id="text_9">
     <!-- Displacement (A) -->
     <defs>
      <path d="M 19.671875 64.796875 
L 19.671875 8.109375 
L 31.59375 8.109375 
Q 46.6875 8.109375 53.6875 14.9375 
Q 60.6875 21.78125 60.6875 36.53125 
Q 60.6875 51.171875 53.6875 57.984375 
Q 46.6875 64.796875 31.59375 64.796875 
z
M 9.8125 72.90625 
L 30.078125 72.90625 
Q 51.265625 72.90625 61.171875 64.09375 
Q 71.09375 55.28125 71.09375 36.53125 
Q 71.09375 17.671875 61.125 8.828125 
Q 51.171875 0 30.078125 0 
L 9.8125 0 
z
" id="DejaVuSans-44"/>
      <path d="M 9.421875 54.6875 
L 18.40625 54.6875 
L 18.40625 0 
L 9.421875 0 
z
M 9.421875 75.984375 
L 18.40625 75.984375 
L 18.40625 64.59375 
L 9.421875 64.59375 
z
" id="DejaVuSans-69"/>
      <path d="M 44.28125 53.078125 
L 44.28125 44.578125 
Q 40.484375 46.53125 36.375 47.5 
Q 32.28125 48.484375 27.875 48.484375 
Q 21.1875 48.484375 17.84375 46.4375 
Q 14.5 44.390625 14.5 40.28125 
Q 14.5 37.15625 16.890625 35.375 
Q 19.28125 33.59375 26.515625 31.984375 
L 29.59375 31.296875 
Q 39.15625 29.25 43.1875 25.515625 
Q 47.21875 21.78125 47.21875 15.09375 
Q 47.21875 7.46875 41.1875 3.015625 
Q 35.15625 -1.421875 24.609375 -1.421875 
Q 20.21875 -1.421875 15.453125 -0.5625 
Q 10.6875 0.296875 5.421875 2 
L 5.421875 11.28125 
Q 10.40625 8.6875 15.234375 7.390625 
Q 20.0625 6.109375 24.8125 6.109375 
Q 31.15625 6.109375 34.5625 8.28125 
Q 37.984375 10.453125 37.984375 14.40625 
Q 37.984375 18.0625 35.515625 20.015625 
Q 33.0625 21.96875 24.703125 23.78125 
L 21.578125 24.515625 
Q 13.234375 26.265625 9.515625 29.90625 
Q 5.8125 33.546875 5.8125 39.890625 
Q 5.8125 47.609375 11.28125 51.796875 
Q 16.75 56 26.8125 56 
Q 31.78125 56 36.171875 55.265625 
Q 40.578125 54.546875 44.28125 53.078125 
z
" id="DejaVuSans-73"/>
      <path d="M 18.109375 8.203125 
L 18.109375 -20.796875 
L 9.078125 -20.796875 
L 9.078125 54.6875 
L 18.109375 54.6875 
L 18.109375 46.390625 
Q 20.953125 51.265625 25.265625 53.625 
Q 29.59375 56 35.59375 56 
Q 45.5625 56 51.78125 48.09375 
Q 58.015625 40.1875 58.015625 27.296875 
Q 58.015625 14.40625 51.78125 6.484375 
Q 45.5625 -1.421875 35.59375 -1.421875 
Q 29.59375 -1.421875 25.265625 0.953125 
Q 20.953125 3.328125 18.109375 8.203125 
z
M 48.6875 27.296875 
Q 48.6875 37.203125 44.609375 42.84375 
Q 40.53125 48.484375 33.40625 48.484375 
Q 26.265625 48.484375 22.1875 42.84375 
Q 18.109375 37.203125 18.109375 27.296875 
Q 18.109375 17.390625 22.1875 11.75 
Q 26.265625 6.109375 33.40625 6.109375 
Q 40.53125 6.109375 44.609375 11.75 
Q 48.6875 17.390625 48.6875 27.296875 
z
" id="DejaVuSans-70"/>
      <path d="M 9.421875 75.984375 
L 18.40625 75.984375 
L 18.40625 0 
L 9.421875 0 
z
" id="DejaVuSans-6c"/>
      <path d="M 34.28125 27.484375 
Q 23.390625 27.484375 19.1875 25 
Q 14.984375 22.515625 14.984375 16.5 
Q 14.984375 11.71875 18.140625 8.90625 
Q 21.296875 6.109375 26.703125 6.109375 
Q 34.1875 6.109375 38.703125 11.40625 
Q 43.21875 16.703125 43.21875 25.484375 
L 43.21875 27.484375 
z
M 52.203125 31.203125 
L 52.203125 0 
L 43.21875 0 
L 43.21875 8.296875 
Q 40.140625 3.328125 35.546875 0.953125 
Q 30.953125 -1.421875 24.3125 -1.421875 
Q 15.921875 -1.421875 10.953125 3.296875 
Q 6 8.015625 6 15.921875 
Q 6 25.140625 12.171875 29.828125 
Q 18.359375 34.515625 30.609375 34.515625 
L 43.21875 34.515625 
L 43.21875 35.40625 
Q 43.21875 41.609375 39.140625 45 
Q 35.0625 48.390625 27.6875 48.390625 
Q 23 48.390625 18.546875 47.265625 
Q 14.109375 46.140625 10.015625 43.890625 
L 10.015625 52.203125 
Q 14.9375 54.109375 19.578125 55.046875 
Q 24.21875 56 28.609375 56 
Q 40.484375 56 46.34375 49.84375 
Q 52.203125 43.703125 52.203125 31.203125 
z
" id="DejaVuSans-61"/>
      <path d="M 48.78125 52.59375 
L 48.78125 44.1875 
Q 44.96875 46.296875 41.140625 47.34375 
Q 37.3125 48.390625 33.40625 48.390625 
Q 24.65625 48.390625 19.8125 42.84375 
Q 14.984375 37.3125 14.984375 27.296875 
Q 14.984375 17.28125 19.8125 11.734375 
Q 24.65625 6.203125 33.40625 6.203125 
Q 37.3125 6.203125 41.140625 7.25 
Q 44.96875 8.296875 48.78125 10.40625 
L 48.78125 2.09375 
Q 45.015625 0.34375 40.984375 -0.53125 
Q 36.96875 -1.421875 32.421875 -1.421875 
Q 20.0625 -1.421875 12.78125 6.34375 
Q 5.515625 14.109375 5.515625 27.296875 
Q 5.515625 40.671875 12.859375 48.328125 
Q 20.21875 56 33.015625 56 
Q 37.15625 56 41.109375 55.140625 
Q 45.0625 54.296875 48.78125 52.59375 
z
" id="DejaVuSans-63"/>
      <path d="M 56.203125 29.59375 
L 56.203125 25.203125 
L 14.890625 25.203125 
Q 15.484375 15.921875 20.484375 11.0625 
Q 25.484375 6.203125 34.421875 6.203125 
Q 39.59375 6.203125 44.453125 7.46875 
Q 49.3125 8.734375 54.109375 11.28125 
L 54.109375 2.78125 
Q 49.265625 0.734375 44.1875 -0.34375 
Q 39.109375 -1.421875 33.890625 -1.421875 
Q 20.796875 -1.421875 13.15625 6.1875 
Q 5.515625 13.8125 5.515625 26.8125 
Q 5.515625 40.234375 12.765625 48.109375 
Q 20.015625 56 32.328125 56 
Q 43.359375 56 49.78125 48.890625 
Q 56.203125 41.796875 56.203125 29.59375 
z
M 47.21875 32.234375 
Q 47.125 39.59375 43.09375 43.984375 
Q 39.0625 48.390625 32.421875 48.390625 
Q 24.90625 48.390625 20.390625 44.140625 
Q 15.875 39.890625 15.1875 32.171875 
z
" id="DejaVuSans-65"/>
      <path d="M 52 44.1875 
Q 55.375 50.25 60.0625 53.125 
Q 64.75 56 71.09375 56 
Q 79.640625 56 84.28125 50.015625 
Q 88.921875 44.046875 88.921875 33.015625 
L 88.921875 0 
L 79.890625 0 
L 79.890625 32.71875 
Q 79.890625 40.578125 77.09375 44.375 
Q 74.3125 48.1875 68.609375 48.1875 
Q 61.625 48.1875 57.5625 43.546875 
Q 53.515625 38.921875 53.515625 30.90625 
L 53.515625 0 
L 44.484375 0 
L 44.484375 32.71875 
Q 44.484375 40.625 41.703125 44.40625 
Q 38.921875 48.1875 33.109375 48.1875 
Q 26.21875 48.1875 22.15625 43.53125 
Q 18.109375 38.875 18.109375 30.90625 
L 18.109375 0 
L 9.078125 0 
L 9.078125 54.6875 
L 18.109375 54.6875 
L 18.109375 46.1875 
Q 21.1875 51.21875 25.484375 53.609375 
Q 29.78125 56 35.6875 56 
Q 41.65625 56 45.828125 52.96875 
Q 50 49.953125 52 44.1875 
z
" id="DejaVuSans-6d"/>
      <path d="M 54.890625 33.015625 
L 54.890625 0 
L 45.90625 0 
L 45.90625 32.71875 
Q 45.90625 40.484375 42.875 44.328125 
Q 39.84375 48.1875 33.796875 48.1875 
Q 26.515625 48.1875 22.3125 43.546875 
Q 18.109375 38.921875 18.109375 30.90625 
L 18.109375 0 
L 9.078125 0 
L 9.078125 54.6875 
L 18.109375 54.6875 
L 18.109375 46.1875 
Q 21.34375 51.125 25.703125 53.5625 
Q 30.078125 56 35.796875 56 
Q 45.21875 56 50.046875 50.171875 
Q 54.890625 44.34375 54.890625 33.015625 
z
" id="DejaVuSans-6e"/>
      <path d="M 18.3125 70.21875 
L 18.3125 54.6875 
L 36.8125 54.6875 
L 36.8125 47.703125 
L 18.3125 47.703125 
L 18.3125 18.015625 
Q 18.3125 11.328125 20.140625 9.421875 
Q 21.96875 7.515625 27.59375 7.515625 
L 36.8125 7.515625 
L 36.8125 0 
L 27.59375 0 
Q 17.1875 0 13.234375 3.875 
Q 9.28125 7.765625 9.28125 18.015625 
L 9.28125 47.703125 
L 2.6875 47.703125 
L 2.6875 54.6875 
L 9.28125 54.6875 
L 9.28125 70.21875 
z
" id="DejaVuSans-74"/>
      <path id="DejaVuSans-20"/>
      <path d="M 31 75.875 
Q 24.46875 64.65625 21.28125 53.65625 
Q 18.109375 42.671875 18.109375 31.390625 
Q 18.109375 20.125 21.3125 9.0625 
Q 24.515625 -2 31 -13.1875 
L 23.1875 -13.1875 
Q 15.875 -1.703125 12.234375 9.375 
Q 8.59375 20.453125 8.59375 31.390625 
Q 8.59375 42.28125 12.203125 53.3125 
Q 15.828125 64.359375 23.1875 75.875 
z
" id="DejaVuSans-28"/>
      <path d="M 34.1875 63.1875 
L 20.796875 26.90625 
L 47.609375 26.90625 
z
M 28.609375 72.90625 
L 39.796875 72.90625 
L 67.578125 0 
L 57.328125 0 
L 50.6875 18.703125 
L 17.828125 18.703125 
L 11.1875 0 
L 0.78125 0 
z
" id="DejaVuSans-41"/>
      <path d="M 8.015625 75.875 
L 15.828125 75.875 
Q 23.140625 64.359375 26.78125 53.3125 
Q 30.421875 42.28125 30.421875 31.390625 
Q 30.421875 20.453125 26.78125 9.375 
Q 23.140625 -1.703125 15.828125 -13.1875 
L 8.015625 -13.1875 
Q 14.5 -2 17.703125 9.0625 
Q 20.90625 20.125 20.90625 31.390625 
Q 20.90625 42.671875 17.703125 53.65625 
Q 14.5 64.65625 8.015625 75.875 
z
" id="DejaVuSans-29"/>
     </defs>
     <g transform="translate(136.713802 346.027188)scale(0.14 -0.14)">
      <use xlink:href="#DejaVuSans-44"/>
      <use x="77.001953" xlink:href="#DejaVuSans-69"/>
      <use x="104.785156" xlink:href="#DejaVuSans-73"/>
      <use x="156.884766" xlink:href="#DejaVuSans-70"/>
      <use x="220.361328" xlink:href="#DejaVuSans-6c"/>
      <use x="248.144531" xlink:href="#DejaVuSans-61"/>
      <use x="309.423828" xlink:href="#DejaVuSans-63"/>
      <use x="364.404297" xlink:href="#DejaVuSans-65"/>
      <use x="425.927734" xlink:href="#DejaVuSans-6d"/>
      <use x="523.339844" xlink:href="#DejaVuSans-65"/>
      <use x="584.863281" xlink:href="#DejaVuSans-6e"/>
      <use x="648.242188" xlink:href="#DejaVuSans-74"/>
      <use x="687.451172" xlink:href="#DejaVuSans-20"/>
      <use x="719.238281" xlink:href="#DejaVuSans-28"/>
      <use x="758.251953" xlink:href="#DejaVuSans-41"/>
      <use x="826.660156" xlink:href="#DejaVuSans-29"/>
     </g>
    </g>
   </g>
   <g id="matplotlib.axis_2">
    <g id="ytick_1">
     <g id="line2d_9">
      <defs>
       <path d="M 0 0 
L -3.5 0 
" id="me878e70e6f" style="stroke:#000000;stroke-width:0.8;"/>
      </defs>
      <g>
       <use style="stroke:#000000;stroke-width:0.8;" x="44.48" xlink:href="#me878e70e6f" y="310.84"/>
      </g>
     </g>
     <g id="text_10">
      <!-- 0 -->
      <g transform="translate(28.5725 316.158906)scale(0.14 -0.14)">
       <use xlink:href="#DejaVuSans-30"/>
      </g>
     </g>
    </g>
    <g id="ytick_2">
     <g id="line2d_10">
      <g>
       <use style="stroke:#000000;stroke-width:0.8;" x="44.48" xlink:href="#me878e70e6f" y="271.609632"/>
      </g>
     </g>
     <g id="text_11">
      <!-- 1 -->
      <g transform="translate(28.5725 276.928538)scale(0.14 -0.14)">
       <use xlink:href="#DejaVuSans-31"/>
      </g>
     </g>
    </g>
    <g id="ytick_3">
     <g id="line2d_11">
      <g>
       <use style="stroke:#000000;stroke-width:0.8;" x="44.48" xlink:href="#me878e70e6f" y="232.379264"/>
      </g>
     </g>
     <g id="text_12">
      <!-- 2 -->
      <g transform="translate(28.5725 237.69817)scale(0.14 -0.14)">
       <use xlink:href="#DejaVuSans-32"/>
      </g>
     </g>
    </g>
    <g id="ytick_4">
     <g id="line2d_12">
      <g>
       <use style="stroke:#000000;stroke-width:0.8;" x="44.48" xlink:href="#me878e70e6f" y="193.148895"/>
      </g>
     </g>
     <g id="text_13">
      <!-- 3 -->
      <g transform="translate(28.5725 198.467802)scale(0.14 -0.14)">
       <use xlink:href="#DejaVuSans-33"/>
      </g>
     </g>
    </g>
    <g id="ytick_5">
     <g id="line2d_13">
      <g>
       <use style="stroke:#000000;stroke-width:0.8;" x="44.48" xlink:href="#me878e70e6f" y="153.918527"/>
      </g>
     </g>
     <g id="text_14">
      <!-- 4 -->
      <g transform="translate(28.5725 159.237433)scale(0.14 -0.14)">
       <use xlink:href="#DejaVuSans-34"/>
      </g>
     </g>
    </g>
    <g id="ytick_6">
     <g id="line2d_14">
      <g>
       <use style="stroke:#000000;stroke-width:0.8;" x="44.48" xlink:href="#me878e70e6f" y="114.688159"/>
      </g>
     </g>
     <g id="text_15">
      <!-- 5 -->
      <g transform="translate(28.5725 120.007065)scale(0.14 -0.14)">
       <use xlink:href="#DejaVuSans-35"/>
      </g>
     </g>
    </g>
    <g id="ytick_7">
     <g id="line2d_15">
      <g>
       <use style="stroke:#000000;stroke-width:0.8;" x="44.48" xlink:href="#me878e70e6f" y="75.457791"/>
      </g>
     </g>
     <g id="text_16">
      <!-- 6 -->
      <g transform="translate(28.5725 80.776697)scale(0.14 -0.14)">
       <use xlink:href="#DejaVuSans-36"/>
      </g>
     </g>
    </g>
    <g id="ytick_8">
     <g id="line2d_16">
      <g>
       <use style="stroke:#000000;stroke-width:0.8;" x="44.48" xlink:href="#me878e70e6f" y="36.227422"/>
      </g>
     </g>
     <g id="text_17">
      <!-- 7 -->
      <g transform="translate(28.5725 41.546329)scale(0.14 -0.14)">
       <use xlink:href="#DejaVuSans-37"/>
      </g>
     </g>
    </g>
    <g id="text_18">
     <!-- Distribution -->
     <defs>
      <path d="M 41.109375 46.296875 
Q 39.59375 47.171875 37.8125 47.578125 
Q 36.03125 48 33.890625 48 
Q 26.265625 48 22.1875 43.046875 
Q 18.109375 38.09375 18.109375 28.8125 
L 18.109375 0 
L 9.078125 0 
L 9.078125 54.6875 
L 18.109375 54.6875 
L 18.109375 46.1875 
Q 20.953125 51.171875 25.484375 53.578125 
Q 30.03125 56 36.53125 56 
Q 37.453125 56 38.578125 55.875 
Q 39.703125 55.765625 41.0625 55.515625 
z
" id="DejaVuSans-72"/>
      <path d="M 48.6875 27.296875 
Q 48.6875 37.203125 44.609375 42.84375 
Q 40.53125 48.484375 33.40625 48.484375 
Q 26.265625 48.484375 22.1875 42.84375 
Q 18.109375 37.203125 18.109375 27.296875 
Q 18.109375 17.390625 22.1875 11.75 
Q 26.265625 6.109375 33.40625 6.109375 
Q 40.53125 6.109375 44.609375 11.75 
Q 48.6875 17.390625 48.6875 27.296875 
z
M 18.109375 46.390625 
Q 20.953125 51.265625 25.265625 53.625 
Q 29.59375 56 35.59375 56 
Q 45.5625 56 51.78125 48.09375 
Q 58.015625 40.1875 58.015625 27.296875 
Q 58.015625 14.40625 51.78125 6.484375 
Q 45.5625 -1.421875 35.59375 -1.421875 
Q 29.59375 -1.421875 25.265625 0.953125 
Q 20.953125 3.328125 18.109375 8.203125 
L 18.109375 0 
L 9.078125 0 
L 9.078125 75.984375 
L 18.109375 75.984375 
z
" id="DejaVuSans-62"/>
      <path d="M 8.5 21.578125 
L 8.5 54.6875 
L 17.484375 54.6875 
L 17.484375 21.921875 
Q 17.484375 14.15625 20.5 10.265625 
Q 23.53125 6.390625 29.59375 6.390625 
Q 36.859375 6.390625 41.078125 11.03125 
Q 45.3125 15.671875 45.3125 23.6875 
L 45.3125 54.6875 
L 54.296875 54.6875 
L 54.296875 0 
L 45.3125 0 
L 45.3125 8.40625 
Q 42.046875 3.421875 37.71875 1 
Q 33.40625 -1.421875 27.6875 -1.421875 
Q 18.265625 -1.421875 13.375 4.4375 
Q 8.5 10.296875 8.5 21.578125 
z
M 31.109375 56 
z
" id="DejaVuSans-75"/>
      <path d="M 30.609375 48.390625 
Q 23.390625 48.390625 19.1875 42.75 
Q 14.984375 37.109375 14.984375 27.296875 
Q 14.984375 17.484375 19.15625 11.84375 
Q 23.34375 6.203125 30.609375 6.203125 
Q 37.796875 6.203125 41.984375 11.859375 
Q 46.1875 17.53125 46.1875 27.296875 
Q 46.1875 37.015625 41.984375 42.703125 
Q 37.796875 48.390625 30.609375 48.390625 
z
M 30.609375 56 
Q 42.328125 56 49.015625 48.375 
Q 55.71875 40.765625 55.71875 27.296875 
Q 55.71875 13.875 49.015625 6.21875 
Q 42.328125 -1.421875 30.609375 -1.421875 
Q 18.84375 -1.421875 12.171875 6.21875 
Q 5.515625 13.875 5.515625 27.296875 
Q 5.515625 40.765625 12.171875 48.375 
Q 18.84375 56 30.609375 56 
z
" id="DejaVuSans-6f"/>
     </defs>
     <g transform="translate(21.660938 204.249071)rotate(-90)scale(0.14 -0.14)">
      <use xlink:href="#DejaVuSans-44"/>
      <use x="77.001953" xlink:href="#DejaVuSans-69"/>
      <use x="104.785156" xlink:href="#DejaVuSans-73"/>
      <use x="156.884766" xlink:href="#DejaVuSans-74"/>
      <use x="196.09375" xlink:href="#DejaVuSans-72"/>
      <use x="237.207031" xlink:href="#DejaVuSans-69"/>
      <use x="264.990234" xlink:href="#DejaVuSans-62"/>
      <use x="328.466797" xlink:href="#DejaVuSans-75"/>
      <use x="391.845703" xlink:href="#DejaVuSans-74"/>
      <use x="431.054688" xlink:href="#DejaVuSans-69"/>
      <use x="458.837891" xlink:href="#DejaVuSans-6f"/>
      <use x="520.019531" xlink:href="#DejaVuSans-6e"/>
     </g>
    </g>
   </g>
   <g id="line2d_17">
    <path clip-path="url(#p392d6eaf6e)" d="M 46.414568 310.84 
L 50.283703 310.84 
L 54.152838 299.361485 
L 58.021973 292.802333 
L 61.891108 276.404455 
L 65.760243 273.124879 
L 69.629378 248.528061 
L 73.498513 251.807636 
L 77.367648 241.149015 
L 81.236783 214.912409 
L 85.105918 192.775273 
L 88.975053 178.017182 
L 92.844188 164.898879 
L 96.713323 143.581636 
L 100.582458 146.041318 
L 104.451593 123.904182 
L 108.320728 123.084288 
L 112.189863 118.984818 
L 116.058998 125.54397 
L 119.928133 144.40153 
L 123.797268 117.34503 
L 127.666403 95.207894 
L 131.535538 125.54397 
L 135.404673 147.681106 
L 139.273808 148.501 
L 143.142943 173.917712 
L 147.012078 160.799409 
L 150.881213 155.060152 
L 154.750348 197.694636 
L 158.619483 203.433894 
L 162.488618 209.993045 
L 166.357753 199.334424 
L 170.226888 227.210818 
L 174.096023 237.869439 
L 177.965158 253.447424 
L 181.834293 250.167848 
L 185.703428 252.62753 
L 189.572563 269.025409 
L 193.441698 277.224348 
L 197.310833 287.063076 
L 201.179968 281.323818 
L 205.049103 278.864136 
L 208.918238 290.342652 
L 212.787373 295.262015 
L 216.656508 298.541591 
L 220.525643 296.901803 
L 224.394778 301.821167 
L 228.263914 302.641061 
L 232.133049 305.100742 
L 236.002184 308.380318 
L 239.871319 307.560424 
L 243.740454 308.380318 
L 247.609589 310.020106 
L 251.478724 309.200212 
L 255.347859 310.020106 
L 259.216994 310.020106 
L 263.086129 310.84 
L 266.955264 309.200212 
L 270.824399 310.84 
L 274.693534 309.200212 
L 278.562669 310.84 
L 282.431804 310.84 
L 286.300939 310.84 
L 290.170074 310.020106 
L 294.039209 310.020106 
L 297.908344 310.84 
L 301.777479 310.84 
L 305.646614 310.84 
L 309.515749 310.84 
L 313.384884 310.84 
L 317.254019 310.84 
L 321.123154 310.84 
L 324.992289 310.84 
L 328.861424 310.84 
L 332.730559 310.84 
L 336.599694 310.84 
L 340.468829 310.84 
L 344.337964 310.84 
L 348.207099 310.84 
" style="fill:none;stroke:#1f77b4;stroke-linecap:square;stroke-width:2;"/>
   </g>
   <g id="line2d_18">
    <path clip-path="url(#p392d6eaf6e)" d="M 46.414568 310.84 
L 50.283703 304.280848 
L 54.152838 283.7835 
L 58.021973 267.385621 
L 61.891108 254.267318 
L 65.760243 222.291455 
L 69.629378 187.855909 
L 73.498513 179.65697 
L 77.367648 160.799409 
L 81.236783 125.54397 
L 85.105918 120.624606 
L 88.975053 92.748212 
L 92.844188 70.611076 
L 96.713323 79.629909 
L 100.582458 60.772348 
L 104.451593 55.033091 
L 108.320728 71.43097 
L 112.189863 91.928318 
L 116.058998 101.767045 
L 119.928133 96.027788 
L 123.797268 109.965985 
L 127.666403 128.003652 
L 131.535538 146.861212 
L 135.404673 172.277924 
L 139.273808 186.216121 
L 143.142943 204.253788 
L 147.012078 246.888273 
L 150.881213 242.788803 
L 154.750348 257.546894 
L 158.619483 259.186682 
L 162.488618 269.025409 
L 166.357753 279.68403 
L 170.226888 280.503924 
L 174.096023 288.702864 
L 177.965158 293.622227 
L 181.834293 303.460955 
L 185.703428 301.001273 
L 189.572563 301.001273 
L 193.441698 307.560424 
L 197.310833 306.74053 
L 201.179968 306.74053 
L 205.049103 308.380318 
L 208.918238 306.74053 
L 212.787373 310.020106 
L 216.656508 310.020106 
L 220.525643 309.200212 
L 224.394778 308.380318 
L 228.263914 310.84 
L 232.133049 310.84 
L 236.002184 310.84 
L 239.871319 310.84 
L 243.740454 310.84 
L 247.609589 310.84 
L 251.478724 310.84 
L 255.347859 310.84 
L 259.216994 310.84 
L 263.086129 310.84 
L 266.955264 310.84 
L 270.824399 310.84 
L 274.693534 310.84 
L 278.562669 310.84 
L 282.431804 310.84 
L 286.300939 310.84 
L 290.170074 310.84 
L 294.039209 310.84 
L 297.908344 310.84 
L 301.777479 310.84 
L 305.646614 310.84 
L 309.515749 310.84 
L 313.384884 310.84 
L 317.254019 310.84 
L 321.123154 310.84 
L 324.992289 310.84 
L 328.861424 310.84 
L 332.730559 310.84 
L 336.599694 310.84 
L 340.468829 310.84 
L 344.337964 310.84 
L 348.207099 310.84 
" style="fill:none;stroke:#ff7f0e;stroke-linecap:square;stroke-width:2;"/>
   </g>
   <g id="line2d_19">
    <path clip-path="url(#p392d6eaf6e)" d="M 46.414568 310.84 
L 50.283703 302.641061 
L 54.152838 297.721697 
L 58.021973 276.404455 
L 61.891108 263.286152 
L 65.760243 236.229652 
L 69.629378 213.272621 
L 73.498513 190.315591 
L 77.367648 150.960682 
L 81.236783 130.463333 
L 85.105918 114.885348 
L 88.975053 91.928318 
L 92.844188 91.108424 
L 96.713323 56.672879 
L 100.582458 77.990121 
L 104.451593 41.094894 
L 108.320728 65.691712 
L 112.189863 86.189061 
L 116.058998 88.648742 
L 119.928133 105.046621 
L 123.797268 124.724076 
L 127.666403 150.960682 
L 131.535538 153.420364 
L 135.404673 174.737606 
L 139.273808 186.216121 
L 143.142943 198.51453 
L 147.012078 209.173152 
L 150.881213 235.409758 
L 154.750348 255.907106 
L 158.619483 260.006576 
L 162.488618 268.205515 
L 166.357753 272.304985 
L 170.226888 273.944773 
L 174.096023 280.503924 
L 177.965158 287.063076 
L 181.834293 292.802333 
L 185.703428 301.821167 
L 189.572563 302.641061 
L 193.441698 301.001273 
L 197.310833 305.920636 
L 201.179968 306.74053 
L 205.049103 304.280848 
L 208.918238 305.100742 
L 212.787373 308.380318 
L 216.656508 310.020106 
L 220.525643 310.84 
L 224.394778 310.84 
L 228.263914 310.84 
L 232.133049 310.84 
L 236.002184 310.84 
L 239.871319 310.84 
L 243.740454 310.84 
L 247.609589 310.84 
L 251.478724 310.84 
L 255.347859 310.84 
L 259.216994 310.84 
L 263.086129 310.84 
L 266.955264 310.020106 
L 270.824399 310.84 
L 274.693534 310.84 
L 278.562669 310.84 
L 282.431804 310.84 
L 286.300939 310.84 
L 290.170074 310.84 
L 294.039209 310.84 
L 297.908344 310.84 
L 301.777479 310.84 
L 305.646614 310.84 
L 309.515749 310.84 
L 313.384884 310.84 
L 317.254019 310.84 
L 321.123154 310.84 
L 324.992289 310.84 
L 328.861424 310.84 
L 332.730559 310.84 
L 336.599694 310.84 
L 340.468829 310.84 
L 344.337964 310.84 
L 348.207099 310.84 
" style="fill:none;stroke:#2ca02c;stroke-linecap:square;stroke-width:2;"/>
   </g>
   <g id="line2d_20">
    <path clip-path="url(#p392d6eaf6e)" d="M 46.414568 306.74053 
L 50.283703 306.74053 
L 54.152838 292.392386 
L 58.021973 286.243182 
L 61.891108 265.745833 
L 65.760243 243.19875 
L 69.629378 220.651667 
L 73.498513 179.65697 
L 77.367648 140.712008 
L 81.236783 142.761742 
L 85.105918 136.612538 
L 88.975053 99.717311 
L 92.844188 109.965985 
L 96.713323 85.369167 
L 100.582458 77.170227 
L 104.451593 77.170227 
L 108.320728 30.026326 
L 112.189863 68.971288 
L 116.058998 79.219962 
L 119.928133 101.767045 
L 123.797268 91.518371 
L 127.666403 122.264394 
L 131.535538 165.308826 
L 135.404673 200.154318 
L 139.273808 185.806174 
L 143.142943 185.806174 
L 147.012078 222.701402 
L 150.881213 228.850606 
L 154.750348 237.049545 
L 158.619483 255.497159 
L 162.488618 269.845303 
L 166.357753 278.044242 
L 170.226888 267.795568 
L 174.096023 284.193447 
L 177.965158 294.442121 
L 181.834293 288.292917 
L 185.703428 294.442121 
L 189.572563 302.641061 
L 193.441698 298.541591 
L 197.310833 306.74053 
L 201.179968 300.591326 
L 205.049103 308.790265 
L 208.918238 308.790265 
L 212.787373 308.790265 
L 216.656508 310.84 
L 220.525643 308.790265 
L 224.394778 308.790265 
L 228.263914 310.84 
L 232.133049 308.790265 
L 236.002184 308.790265 
L 239.871319 310.84 
L 243.740454 310.84 
L 247.609589 310.84 
L 251.478724 310.84 
L 255.347859 310.84 
L 259.216994 310.84 
L 263.086129 310.84 
L 266.955264 310.84 
L 270.824399 310.84 
L 274.693534 310.84 
L 278.562669 310.84 
L 282.431804 310.84 
L 286.300939 310.84 
L 290.170074 310.84 
L 294.039209 310.84 
L 297.908344 310.84 
L 301.777479 310.84 
L 305.646614 310.84 
L 309.515749 310.84 
L 313.384884 310.84 
L 317.254019 310.84 
L 321.123154 310.84 
L 324.992289 310.84 
L 328.861424 310.84 
L 332.730559 310.84 
L 336.599694 310.84 
L 340.468829 310.84 
L 344.337964 310.84 
L 348.207099 310.84 
" style="fill:none;stroke:#d62728;stroke-linecap:square;stroke-width:2;"/>
   </g>
   <g id="patch_3">
    <path d="M 44.48 310.84 
L 44.48 15.985642 
" style="fill:none;stroke:#000000;stroke-linecap:square;stroke-linejoin:miter;stroke-width:0.8;"/>
   </g>
   <g id="patch_4">
    <path d="M 350.141667 310.84 
L 350.141667 15.985642 
" style="fill:none;stroke:#000000;stroke-linecap:square;stroke-linejoin:miter;stroke-width:0.8;"/>
   </g>
   <g id="patch_5">
    <path d="M 44.48 310.84 
L 350.141667 310.84 
" style="fill:none;stroke:#000000;stroke-linecap:square;stroke-linejoin:miter;stroke-width:0.8;"/>
   </g>
   <g id="patch_6">
    <path d="M 44.48 15.985642 
L 350.141667 15.985642 
" style="fill:none;stroke:#000000;stroke-linecap:square;stroke-linejoin:miter;stroke-width:0.8;"/>
   </g>
   <g id="legend_1">
    <g id="patch_7">
     <path d="M 160.732604 109.383142 
L 340.341667 109.383142 
Q 343.141667 109.383142 343.141667 106.583142 
L 343.141667 25.785642 
Q 343.141667 22.985642 340.341667 22.985642 
L 160.732604 22.985642 
Q 157.932604 22.985642 157.932604 25.785642 
L 157.932604 106.583142 
Q 157.932604 109.383142 160.732604 109.383142 
z
" style="fill:#ffffff;opacity:0.8;stroke:#cccccc;stroke-linejoin:miter;"/>
    </g>
    <g id="line2d_21">
     <path d="M 163.532604 34.323455 
L 191.532604 34.323455 
" style="fill:none;stroke:#1f77b4;stroke-linecap:square;stroke-width:2;"/>
    </g>
    <g id="line2d_22"/>
    <g id="text_19">
     <!-- Rattle -->
     <defs>
      <path d="M 44.390625 34.1875 
Q 47.5625 33.109375 50.5625 29.59375 
Q 53.5625 26.078125 56.59375 19.921875 
L 66.609375 0 
L 56 0 
L 46.6875 18.703125 
Q 43.0625 26.03125 39.671875 28.421875 
Q 36.28125 30.8125 30.421875 30.8125 
L 19.671875 30.8125 
L 19.671875 0 
L 9.8125 0 
L 9.8125 72.90625 
L 32.078125 72.90625 
Q 44.578125 72.90625 50.734375 67.671875 
Q 56.890625 62.453125 56.890625 51.90625 
Q 56.890625 45.015625 53.6875 40.46875 
Q 50.484375 35.9375 44.390625 34.1875 
z
M 19.671875 64.796875 
L 19.671875 38.921875 
L 32.078125 38.921875 
Q 39.203125 38.921875 42.84375 42.21875 
Q 46.484375 45.515625 46.484375 51.90625 
Q 46.484375 58.296875 42.84375 61.546875 
Q 39.203125 64.796875 32.078125 64.796875 
z
" id="DejaVuSans-52"/>
     </defs>
     <g transform="translate(202.732604 39.223455)scale(0.14 -0.14)">
      <use xlink:href="#DejaVuSans-52"/>
      <use x="69.451172" xlink:href="#DejaVuSans-61"/>
      <use x="130.730469" xlink:href="#DejaVuSans-74"/>
      <use x="169.939453" xlink:href="#DejaVuSans-74"/>
      <use x="209.148438" xlink:href="#DejaVuSans-6c"/>
      <use x="236.931641" xlink:href="#DejaVuSans-65"/>
     </g>
    </g>
    <g id="line2d_23">
     <path d="M 163.532604 54.87283 
L 191.532604 54.87283 
" style="fill:none;stroke:#ff7f0e;stroke-linecap:square;stroke-width:2;"/>
    </g>
    <g id="line2d_24"/>
    <g id="text_20">
     <!-- Monte Carlo rattle -->
     <defs>
      <path d="M 9.8125 72.90625 
L 24.515625 72.90625 
L 43.109375 23.296875 
L 61.8125 72.90625 
L 76.515625 72.90625 
L 76.515625 0 
L 66.890625 0 
L 66.890625 64.015625 
L 48.09375 14.015625 
L 38.1875 14.015625 
L 19.390625 64.015625 
L 19.390625 0 
L 9.8125 0 
z
" id="DejaVuSans-4d"/>
      <path d="M 64.40625 67.28125 
L 64.40625 56.890625 
Q 59.421875 61.53125 53.78125 63.8125 
Q 48.140625 66.109375 41.796875 66.109375 
Q 29.296875 66.109375 22.65625 58.46875 
Q 16.015625 50.828125 16.015625 36.375 
Q 16.015625 21.96875 22.65625 14.328125 
Q 29.296875 6.6875 41.796875 6.6875 
Q 48.140625 6.6875 53.78125 8.984375 
Q 59.421875 11.28125 64.40625 15.921875 
L 64.40625 5.609375 
Q 59.234375 2.09375 53.4375 0.328125 
Q 47.65625 -1.421875 41.21875 -1.421875 
Q 24.65625 -1.421875 15.125 8.703125 
Q 5.609375 18.84375 5.609375 36.375 
Q 5.609375 53.953125 15.125 64.078125 
Q 24.65625 74.21875 41.21875 74.21875 
Q 47.75 74.21875 53.53125 72.484375 
Q 59.328125 70.75 64.40625 67.28125 
z
" id="DejaVuSans-43"/>
     </defs>
     <g transform="translate(202.732604 59.77283)scale(0.14 -0.14)">
      <use xlink:href="#DejaVuSans-4d"/>
      <use x="86.279297" xlink:href="#DejaVuSans-6f"/>
      <use x="147.460938" xlink:href="#DejaVuSans-6e"/>
      <use x="210.839844" xlink:href="#DejaVuSans-74"/>
      <use x="250.048828" xlink:href="#DejaVuSans-65"/>
      <use x="311.572266" xlink:href="#DejaVuSans-20"/>
      <use x="343.359375" xlink:href="#DejaVuSans-43"/>
      <use x="413.183594" xlink:href="#DejaVuSans-61"/>
      <use x="474.462891" xlink:href="#DejaVuSans-72"/>
      <use x="515.576172" xlink:href="#DejaVuSans-6c"/>
      <use x="543.359375" xlink:href="#DejaVuSans-6f"/>
      <use x="604.541016" xlink:href="#DejaVuSans-20"/>
      <use x="636.328125" xlink:href="#DejaVuSans-72"/>
      <use x="677.441406" xlink:href="#DejaVuSans-61"/>
      <use x="738.720703" xlink:href="#DejaVuSans-74"/>
      <use x="777.929688" xlink:href="#DejaVuSans-74"/>
      <use x="817.138672" xlink:href="#DejaVuSans-6c"/>
      <use x="844.921875" xlink:href="#DejaVuSans-65"/>
     </g>
    </g>
    <g id="line2d_25">
     <path d="M 163.532604 75.422205 
L 191.532604 75.422205 
" style="fill:none;stroke:#2ca02c;stroke-linecap:square;stroke-width:2;"/>
    </g>
    <g id="line2d_26"/>
    <g id="text_21">
     <!-- Phonon rattle 800K -->
     <defs>
      <path d="M 19.671875 64.796875 
L 19.671875 37.40625 
L 32.078125 37.40625 
Q 38.96875 37.40625 42.71875 40.96875 
Q 46.484375 44.53125 46.484375 51.125 
Q 46.484375 57.671875 42.71875 61.234375 
Q 38.96875 64.796875 32.078125 64.796875 
z
M 9.8125 72.90625 
L 32.078125 72.90625 
Q 44.34375 72.90625 50.609375 67.359375 
Q 56.890625 61.8125 56.890625 51.125 
Q 56.890625 40.328125 50.609375 34.8125 
Q 44.34375 29.296875 32.078125 29.296875 
L 19.671875 29.296875 
L 19.671875 0 
L 9.8125 0 
z
" id="DejaVuSans-50"/>
      <path d="M 54.890625 33.015625 
L 54.890625 0 
L 45.90625 0 
L 45.90625 32.71875 
Q 45.90625 40.484375 42.875 44.328125 
Q 39.84375 48.1875 33.796875 48.1875 
Q 26.515625 48.1875 22.3125 43.546875 
Q 18.109375 38.921875 18.109375 30.90625 
L 18.109375 0 
L 9.078125 0 
L 9.078125 75.984375 
L 18.109375 75.984375 
L 18.109375 46.1875 
Q 21.34375 51.125 25.703125 53.5625 
Q 30.078125 56 35.796875 56 
Q 45.21875 56 50.046875 50.171875 
Q 54.890625 44.34375 54.890625 33.015625 
z
" id="DejaVuSans-68"/>
      <path d="M 31.78125 34.625 
Q 24.75 34.625 20.71875 30.859375 
Q 16.703125 27.09375 16.703125 20.515625 
Q 16.703125 13.921875 20.71875 10.15625 
Q 24.75 6.390625 31.78125 6.390625 
Q 38.8125 6.390625 42.859375 10.171875 
Q 46.921875 13.96875 46.921875 20.515625 
Q 46.921875 27.09375 42.890625 30.859375 
Q 38.875 34.625 31.78125 34.625 
z
M 21.921875 38.8125 
Q 15.578125 40.375 12.03125 44.71875 
Q 8.5 49.078125 8.5 55.328125 
Q 8.5 64.0625 14.71875 69.140625 
Q 20.953125 74.21875 31.78125 74.21875 
Q 42.671875 74.21875 48.875 69.140625 
Q 55.078125 64.0625 55.078125 55.328125 
Q 55.078125 49.078125 51.53125 44.71875 
Q 48 40.375 41.703125 38.8125 
Q 48.828125 37.15625 52.796875 32.3125 
Q 56.78125 27.484375 56.78125 20.515625 
Q 56.78125 9.90625 50.3125 4.234375 
Q 43.84375 -1.421875 31.78125 -1.421875 
Q 19.734375 -1.421875 13.25 4.234375 
Q 6.78125 9.90625 6.78125 20.515625 
Q 6.78125 27.484375 10.78125 32.3125 
Q 14.796875 37.15625 21.921875 38.8125 
z
M 18.3125 54.390625 
Q 18.3125 48.734375 21.84375 45.5625 
Q 25.390625 42.390625 31.78125 42.390625 
Q 38.140625 42.390625 41.71875 45.5625 
Q 45.3125 48.734375 45.3125 54.390625 
Q 45.3125 60.0625 41.71875 63.234375 
Q 38.140625 66.40625 31.78125 66.40625 
Q 25.390625 66.40625 21.84375 63.234375 
Q 18.3125 60.0625 18.3125 54.390625 
z
" id="DejaVuSans-38"/>
      <path d="M 9.8125 72.90625 
L 19.671875 72.90625 
L 19.671875 42.09375 
L 52.390625 72.90625 
L 65.09375 72.90625 
L 28.90625 38.921875 
L 67.671875 0 
L 54.6875 0 
L 19.671875 35.109375 
L 19.671875 0 
L 9.8125 0 
z
" id="DejaVuSans-4b"/>
     </defs>
     <g transform="translate(202.732604 80.322205)scale(0.14 -0.14)">
      <use xlink:href="#DejaVuSans-50"/>
      <use x="60.302734" xlink:href="#DejaVuSans-68"/>
      <use x="123.681641" xlink:href="#DejaVuSans-6f"/>
      <use x="184.863281" xlink:href="#DejaVuSans-6e"/>
      <use x="248.242188" xlink:href="#DejaVuSans-6f"/>
      <use x="309.423828" xlink:href="#DejaVuSans-6e"/>
      <use x="372.802734" xlink:href="#DejaVuSans-20"/>
      <use x="404.589844" xlink:href="#DejaVuSans-72"/>
      <use x="445.703125" xlink:href="#DejaVuSans-61"/>
      <use x="506.982422" xlink:href="#DejaVuSans-74"/>
      <use x="546.191406" xlink:href="#DejaVuSans-74"/>
      <use x="585.400391" xlink:href="#DejaVuSans-6c"/>
      <use x="613.183594" xlink:href="#DejaVuSans-65"/>
      <use x="674.707031" xlink:href="#DejaVuSans-20"/>
      <use x="706.494141" xlink:href="#DejaVuSans-38"/>
      <use x="770.117188" xlink:href="#DejaVuSans-30"/>
      <use x="833.740234" xlink:href="#DejaVuSans-30"/>
      <use x="897.363281" xlink:href="#DejaVuSans-4b"/>
     </g>
    </g>
    <g id="line2d_27">
     <path d="M 163.532604 95.97158 
L 191.532604 95.97158 
" style="fill:none;stroke:#d62728;stroke-linecap:square;stroke-width:2;"/>
    </g>
    <g id="line2d_28"/>
    <g id="text_22">
     <!-- MD 800K -->
     <g transform="translate(202.732604 100.87158)scale(0.14 -0.14)">
      <use xlink:href="#DejaVuSans-4d"/>
      <use x="86.279297" xlink:href="#DejaVuSans-44"/>
      <use x="163.28125" xlink:href="#DejaVuSans-20"/>
      <use x="195.068359" xlink:href="#DejaVuSans-38"/>
      <use x="258.691406" xlink:href="#DejaVuSans-30"/>
      <use x="322.314453" xlink:href="#DejaVuSans-30"/>
      <use x="385.9375" xlink:href="#DejaVuSans-4b"/>
     </g>
    </g>
   </g>
  </g>
  <g id="axes_2">
   <g id="patch_8">
    <path d="M 401.781667 310.84 
L 707.443333 310.84 
L 707.443333 15.985642 
L 401.781667 15.985642 
z
" style="fill:#ffffff;"/>
   </g>
   <g id="matplotlib.axis_3">
    <g id="xtick_9">
     <g id="line2d_29">
      <g>
       <use style="stroke:#000000;stroke-width:0.8;" x="401.781667" xlink:href="#mbf83a86ec8" y="310.84"/>
      </g>
     </g>
     <g id="text_23">
      <!-- 1.0 -->
      <g transform="translate(390.649479 328.477813)scale(0.14 -0.14)">
       <use xlink:href="#DejaVuSans-31"/>
       <use x="63.623047" xlink:href="#DejaVuSans-2e"/>
       <use x="95.410156" xlink:href="#DejaVuSans-30"/>
      </g>
     </g>
    </g>
    <g id="xtick_10">
     <g id="line2d_30">
      <g>
       <use style="stroke:#000000;stroke-width:0.8;" x="445.447619" xlink:href="#mbf83a86ec8" y="310.84"/>
      </g>
     </g>
     <g id="text_24">
      <!-- 1.5 -->
      <g transform="translate(434.315432 328.477813)scale(0.14 -0.14)">
       <use xlink:href="#DejaVuSans-31"/>
       <use x="63.623047" xlink:href="#DejaVuSans-2e"/>
       <use x="95.410156" xlink:href="#DejaVuSans-35"/>
      </g>
     </g>
    </g>
    <g id="xtick_11">
     <g id="line2d_31">
      <g>
       <use style="stroke:#000000;stroke-width:0.8;" x="489.113571" xlink:href="#mbf83a86ec8" y="310.84"/>
      </g>
     </g>
     <g id="text_25">
      <!-- 2.0 -->
      <g transform="translate(477.981384 328.477813)scale(0.14 -0.14)">
       <use xlink:href="#DejaVuSans-32"/>
       <use x="63.623047" xlink:href="#DejaVuSans-2e"/>
       <use x="95.410156" xlink:href="#DejaVuSans-30"/>
      </g>
     </g>
    </g>
    <g id="xtick_12">
     <g id="line2d_32">
      <g>
       <use style="stroke:#000000;stroke-width:0.8;" x="532.779524" xlink:href="#mbf83a86ec8" y="310.84"/>
      </g>
     </g>
     <g id="text_26">
      <!-- 2.5 -->
      <g transform="translate(521.647336 328.477813)scale(0.14 -0.14)">
       <use xlink:href="#DejaVuSans-32"/>
       <use x="63.623047" xlink:href="#DejaVuSans-2e"/>
       <use x="95.410156" xlink:href="#DejaVuSans-35"/>
      </g>
     </g>
    </g>
    <g id="xtick_13">
     <g id="line2d_33">
      <g>
       <use style="stroke:#000000;stroke-width:0.8;" x="576.445476" xlink:href="#mbf83a86ec8" y="310.84"/>
      </g>
     </g>
     <g id="text_27">
      <!-- 3.0 -->
      <g transform="translate(565.313289 328.477813)scale(0.14 -0.14)">
       <use xlink:href="#DejaVuSans-33"/>
       <use x="63.623047" xlink:href="#DejaVuSans-2e"/>
       <use x="95.410156" xlink:href="#DejaVuSans-30"/>
      </g>
     </g>
    </g>
    <g id="xtick_14">
     <g id="line2d_34">
      <g>
       <use style="stroke:#000000;stroke-width:0.8;" x="620.111429" xlink:href="#mbf83a86ec8" y="310.84"/>
      </g>
     </g>
     <g id="text_28">
      <!-- 3.5 -->
      <g transform="translate(608.979241 328.477813)scale(0.14 -0.14)">
       <use xlink:href="#DejaVuSans-33"/>
       <use x="63.623047" xlink:href="#DejaVuSans-2e"/>
       <use x="95.410156" xlink:href="#DejaVuSans-35"/>
      </g>
     </g>
    </g>
    <g id="xtick_15">
     <g id="line2d_35">
      <g>
       <use style="stroke:#000000;stroke-width:0.8;" x="663.777381" xlink:href="#mbf83a86ec8" y="310.84"/>
      </g>
     </g>
     <g id="text_29">
      <!-- 4.0 -->
      <g transform="translate(652.645193 328.477813)scale(0.14 -0.14)">
       <use xlink:href="#DejaVuSans-34"/>
       <use x="63.623047" xlink:href="#DejaVuSans-2e"/>
       <use x="95.410156" xlink:href="#DejaVuSans-30"/>
      </g>
     </g>
    </g>
    <g id="xtick_16">
     <g id="line2d_36">
      <g>
       <use style="stroke:#000000;stroke-width:0.8;" x="707.443333" xlink:href="#mbf83a86ec8" y="310.84"/>
      </g>
     </g>
     <g id="text_30">
      <!-- 4.5 -->
      <g transform="translate(696.311146 328.477813)scale(0.14 -0.14)">
       <use xlink:href="#DejaVuSans-34"/>
       <use x="63.623047" xlink:href="#DejaVuSans-2e"/>
       <use x="95.410156" xlink:href="#DejaVuSans-35"/>
      </g>
     </g>
    </g>
    <g id="text_31">
     <!-- Distance (A) -->
     <g transform="translate(511.529688 346.027188)scale(0.14 -0.14)">
      <use xlink:href="#DejaVuSans-44"/>
      <use x="77.001953" xlink:href="#DejaVuSans-69"/>
      <use x="104.785156" xlink:href="#DejaVuSans-73"/>
      <use x="156.884766" xlink:href="#DejaVuSans-74"/>
      <use x="196.09375" xlink:href="#DejaVuSans-61"/>
      <use x="257.373047" xlink:href="#DejaVuSans-6e"/>
      <use x="320.751953" xlink:href="#DejaVuSans-63"/>
      <use x="375.732422" xlink:href="#DejaVuSans-65"/>
      <use x="437.255859" xlink:href="#DejaVuSans-20"/>
      <use x="469.042969" xlink:href="#DejaVuSans-28"/>
      <use x="508.056641" xlink:href="#DejaVuSans-41"/>
      <use x="576.464844" xlink:href="#DejaVuSans-29"/>
     </g>
    </g>
   </g>
   <g id="matplotlib.axis_4">
    <g id="ytick_9">
     <g id="line2d_37">
      <g>
       <use style="stroke:#000000;stroke-width:0.8;" x="401.781667" xlink:href="#me878e70e6f" y="310.84"/>
      </g>
     </g>
     <g id="text_32">
      <!-- 0.00 -->
      <g transform="translate(363.609792 316.158906)scale(0.14 -0.14)">
       <use xlink:href="#DejaVuSans-30"/>
       <use x="63.623047" xlink:href="#DejaVuSans-2e"/>
       <use x="95.410156" xlink:href="#DejaVuSans-30"/>
       <use x="159.033203" xlink:href="#DejaVuSans-30"/>
      </g>
     </g>
    </g>
    <g id="ytick_10">
     <g id="line2d_38">
      <g>
       <use style="stroke:#000000;stroke-width:0.8;" x="401.781667" xlink:href="#me878e70e6f" y="274.011707"/>
      </g>
     </g>
     <g id="text_33">
      <!-- 0.25 -->
      <g transform="translate(363.609792 279.330613)scale(0.14 -0.14)">
       <use xlink:href="#DejaVuSans-30"/>
       <use x="63.623047" xlink:href="#DejaVuSans-2e"/>
       <use x="95.410156" xlink:href="#DejaVuSans-32"/>
       <use x="159.033203" xlink:href="#DejaVuSans-35"/>
      </g>
     </g>
    </g>
    <g id="ytick_11">
     <g id="line2d_39">
      <g>
       <use style="stroke:#000000;stroke-width:0.8;" x="401.781667" xlink:href="#me878e70e6f" y="237.183413"/>
      </g>
     </g>
     <g id="text_34">
      <!-- 0.50 -->
      <g transform="translate(363.609792 242.502319)scale(0.14 -0.14)">
       <use xlink:href="#DejaVuSans-30"/>
       <use x="63.623047" xlink:href="#DejaVuSans-2e"/>
       <use x="95.410156" xlink:href="#DejaVuSans-35"/>
       <use x="159.033203" xlink:href="#DejaVuSans-30"/>
      </g>
     </g>
    </g>
    <g id="ytick_12">
     <g id="line2d_40">
      <g>
       <use style="stroke:#000000;stroke-width:0.8;" x="401.781667" xlink:href="#me878e70e6f" y="200.35512"/>
      </g>
     </g>
     <g id="text_35">
      <!-- 0.75 -->
      <g transform="translate(363.609792 205.674026)scale(0.14 -0.14)">
       <use xlink:href="#DejaVuSans-30"/>
       <use x="63.623047" xlink:href="#DejaVuSans-2e"/>
       <use x="95.410156" xlink:href="#DejaVuSans-37"/>
       <use x="159.033203" xlink:href="#DejaVuSans-35"/>
      </g>
     </g>
    </g>
    <g id="ytick_13">
     <g id="line2d_41">
      <g>
       <use style="stroke:#000000;stroke-width:0.8;" x="401.781667" xlink:href="#me878e70e6f" y="163.526826"/>
      </g>
     </g>
     <g id="text_36">
      <!-- 1.00 -->
      <g transform="translate(363.609792 168.845732)scale(0.14 -0.14)">
       <use xlink:href="#DejaVuSans-31"/>
       <use x="63.623047" xlink:href="#DejaVuSans-2e"/>
       <use x="95.410156" xlink:href="#DejaVuSans-30"/>
       <use x="159.033203" xlink:href="#DejaVuSans-30"/>
      </g>
     </g>
    </g>
    <g id="ytick_14">
     <g id="line2d_42">
      <g>
       <use style="stroke:#000000;stroke-width:0.8;" x="401.781667" xlink:href="#me878e70e6f" y="126.698533"/>
      </g>
     </g>
     <g id="text_37">
      <!-- 1.25 -->
      <g transform="translate(363.609792 132.017439)scale(0.14 -0.14)">
       <use xlink:href="#DejaVuSans-31"/>
       <use x="63.623047" xlink:href="#DejaVuSans-2e"/>
       <use x="95.410156" xlink:href="#DejaVuSans-32"/>
       <use x="159.033203" xlink:href="#DejaVuSans-35"/>
      </g>
     </g>
    </g>
    <g id="ytick_15">
     <g id="line2d_43">
      <g>
       <use style="stroke:#000000;stroke-width:0.8;" x="401.781667" xlink:href="#me878e70e6f" y="89.870239"/>
      </g>
     </g>
     <g id="text_38">
      <!-- 1.50 -->
      <g transform="translate(363.609792 95.189145)scale(0.14 -0.14)">
       <use xlink:href="#DejaVuSans-31"/>
       <use x="63.623047" xlink:href="#DejaVuSans-2e"/>
       <use x="95.410156" xlink:href="#DejaVuSans-35"/>
       <use x="159.033203" xlink:href="#DejaVuSans-30"/>
      </g>
     </g>
    </g>
    <g id="ytick_16">
     <g id="line2d_44">
      <g>
       <use style="stroke:#000000;stroke-width:0.8;" x="401.781667" xlink:href="#me878e70e6f" y="53.041946"/>
      </g>
     </g>
     <g id="text_39">
      <!-- 1.75 -->
      <g transform="translate(363.609792 58.360852)scale(0.14 -0.14)">
       <use xlink:href="#DejaVuSans-31"/>
       <use x="63.623047" xlink:href="#DejaVuSans-2e"/>
       <use x="95.410156" xlink:href="#DejaVuSans-37"/>
       <use x="159.033203" xlink:href="#DejaVuSans-35"/>
      </g>
     </g>
    </g>
    <g id="ytick_17">
     <g id="line2d_45">
      <g>
       <use style="stroke:#000000;stroke-width:0.8;" x="401.781667" xlink:href="#me878e70e6f" y="16.213652"/>
      </g>
     </g>
     <g id="text_40">
      <!-- 2.00 -->
      <g transform="translate(363.609792 21.532558)scale(0.14 -0.14)">
       <use xlink:href="#DejaVuSans-32"/>
       <use x="63.623047" xlink:href="#DejaVuSans-2e"/>
       <use x="95.410156" xlink:href="#DejaVuSans-30"/>
       <use x="159.033203" xlink:href="#DejaVuSans-30"/>
      </g>
     </g>
    </g>
   </g>
   <g id="line2d_46">
    <path clip-path="url(#p2c0516dd18)" d="M 402.807377 310.84 
L 470.504256 310.84 
L 472.555677 310.659618 
L 476.658518 310.779873 
L 480.761359 310.719746 
L 486.915621 309.938091 
L 488.967041 309.517201 
L 491.018462 309.216564 
L 493.069883 308.014019 
L 495.121303 306.510838 
L 497.172724 305.36842 
L 499.224144 303.684857 
L 501.275565 299.055059 
L 503.326985 294.725897 
L 505.378406 291.358771 
L 507.429827 284.925155 
L 511.532668 273.260469 
L 513.584088 264.301509 
L 515.635509 256.84573 
L 517.68693 245.601934 
L 519.73835 236.763228 
L 521.789771 230.149231 
L 523.841191 222.994088 
L 525.892612 218.123781 
L 527.944032 205.316677 
L 529.995453 206.519222 
L 532.046874 203.152096 
L 534.098294 206.819858 
L 536.149715 201.348278 
L 538.201135 210.48762 
L 540.252556 216.560473 
L 542.303977 226.481469 
L 544.355397 233.095466 
L 546.406818 234.53852 
L 548.458238 250.351987 
L 550.509659 258.709675 
L 552.561079 264.602145 
L 554.6125 273.561105 
L 556.663921 280.836502 
L 558.715341 287.330245 
L 562.818182 298.333532 
L 564.869603 300.437986 
L 566.921023 304.226003 
L 568.972444 305.36842 
L 571.023865 307.051983 
L 573.075285 308.134274 
L 575.126706 308.675419 
L 577.178126 308.735546 
L 579.229547 309.457073 
L 581.280968 308.735546 
L 583.332388 308.43491 
L 585.383809 307.833638 
L 587.435229 306.69122 
L 589.48665 305.729184 
L 591.53807 305.188039 
L 593.589491 303.504476 
L 597.692332 298.934805 
L 599.743753 293.042334 
L 601.795173 288.833427 
L 603.846594 288.051772 
L 605.898015 281.618157 
L 607.949435 278.251031 
L 610.000856 270.193979 
L 612.052276 271.877542 
L 614.103697 267.788889 
L 616.155117 264.181254 
L 618.206538 257.026112 
L 620.257959 259.070438 
L 622.309379 258.769802 
L 624.3608 255.282421 
L 626.41222 257.747639 
L 628.463641 257.867893 
L 630.515062 264.542018 
L 632.566482 267.788889 
L 634.617903 275.064286 
L 636.669323 276.026322 
L 638.720744 280.656121 
L 640.772164 286.187828 
L 642.823585 287.089736 
L 644.875006 291.298644 
L 648.977847 296.890478 
L 651.029267 296.289206 
L 653.080688 299.055059 
L 655.132109 294.305006 
L 657.183529 292.26068 
L 659.23495 289.013808 
L 661.28637 282.820702 
L 663.337791 272.839578 
L 665.389211 266.586344 
L 667.440632 250.29186 
L 669.492053 239.649336 
L 673.594894 207.240749 
L 675.646314 184.69303 
L 677.697735 175.493561 
L 679.749155 153.968006 
L 681.800576 143.445737 
L 683.851997 129.315833 
L 685.903417 97.328137 
L 687.954838 103.100353 
L 690.006258 97.6889 
L 692.057679 98.3503 
L 694.1091 94.261647 
L 696.16052 105.806079 
L 698.211941 113.682748 
L 700.263361 132.743087 
L 702.314782 148.556553 
L 704.366202 158.838313 
L 706.417623 181.686668 
L 706.417623 181.686668 
" style="fill:none;stroke:#1f77b4;stroke-linecap:square;stroke-width:2;"/>
   </g>
   <g id="line2d_47">
    <path clip-path="url(#p2c0516dd18)" d="M 402.807377 310.84 
L 505.378406 310.78209 
L 507.429827 310.318808 
L 509.481247 308.52359 
L 511.532668 304.585693 
L 513.584088 292.13499 
L 515.635509 269.434174 
L 519.73835 213.145414 
L 521.789771 189.923405 
L 525.892612 171.913318 
L 527.944032 172.087049 
L 529.995453 169.365267 
L 532.046874 170.523472 
L 534.098294 181.063137 
L 536.149715 188.996841 
L 538.201135 202.83739 
L 540.252556 212.045119 
L 542.303977 225.596117 
L 544.355397 242.332178 
L 546.406818 257.388842 
L 548.458238 264.859264 
L 550.509659 274.993557 
L 552.561079 286.865158 
L 554.6125 291.324247 
L 556.663921 297.057361 
L 558.715341 301.574361 
L 560.766762 305.222706 
L 562.818182 306.670462 
L 564.869603 308.871052 
L 566.921023 309.334334 
L 568.972444 310.029257 
L 571.023865 310.318808 
L 577.178126 310.78209 
L 579.229547 310.608359 
L 583.332388 310.666269 
L 585.383809 310.260898 
L 587.435229 310.202987 
L 591.53807 308.234039 
L 593.589491 308.40777 
L 595.640912 306.554642 
L 597.692332 304.238232 
L 601.795173 298.273476 
L 603.846594 290.166042 
L 605.898015 288.139183 
L 607.949435 281.016223 
L 610.000856 274.761916 
L 612.052276 265.612097 
L 614.103697 257.273022 
L 616.155117 252.003189 
L 618.206538 248.644395 
L 620.257959 248.644395 
L 622.309379 241.000242 
L 624.3608 242.274268 
L 626.41222 249.107677 
L 628.463641 252.871843 
L 630.515062 258.257496 
L 632.566482 268.797161 
L 634.617903 272.850878 
L 636.669323 281.595325 
L 638.720744 285.938594 
L 640.772164 291.787529 
L 642.823585 298.273476 
L 646.926426 304.180322 
L 648.977847 306.20718 
L 653.080688 308.40777 
L 657.183529 308.234039 
L 659.23495 305.570168 
L 661.28637 303.369578 
L 663.337791 299.721233 
L 665.389211 291.787529 
L 667.440632 280.842492 
L 669.492053 266.886123 
L 671.543473 251.655728 
L 675.646314 203.879774 
L 677.697735 173.824356 
L 679.749155 148.517578 
L 681.800576 119.794096 
L 683.851997 94.429408 
L 685.903417 62.347131 
L 687.954838 50.938813 
L 690.006258 40.804519 
L 692.057679 42.657647 
L 694.1091 52.79194 
L 696.16052 65.937566 
L 698.211941 86.727345 
L 700.263361 113.250238 
L 702.314782 147.243553 
L 704.366202 172.550331 
L 706.417623 203.300672 
L 706.417623 203.300672 
" style="fill:none;stroke:#ff7f0e;stroke-linecap:square;stroke-width:2;"/>
   </g>
   <g id="line2d_48">
    <path clip-path="url(#p2c0516dd18)" d="M 402.807377 310.84 
L 495.121303 310.782291 
L 499.224144 310.493744 
L 501.275565 310.320616 
L 503.326985 308.704754 
L 505.378406 308.18537 
L 507.429827 305.761578 
L 509.481247 302.587564 
L 511.532668 295.143058 
L 513.584088 288.275646 
L 517.68693 263.691465 
L 519.73835 244.358834 
L 521.789771 226.2381 
L 525.892612 181.513357 
L 527.944032 164.085135 
L 529.995453 159.814643 
L 532.046874 145.618144 
L 534.098294 153.120359 
L 536.149715 161.661342 
L 538.201135 178.223924 
L 540.252556 195.940694 
L 544.355397 238.876446 
L 546.406818 256.362378 
L 550.509659 286.890622 
L 552.561079 293.469487 
L 556.663921 305.242194 
L 558.715341 307.146602 
L 560.766762 308.877882 
L 562.818182 309.570394 
L 564.869603 310.493744 
L 566.921023 310.551453 
L 568.972444 310.724581 
L 573.075285 310.782291 
L 575.126706 310.724581 
L 579.229547 310.782291 
L 581.280968 310.782291 
L 585.383809 310.436035 
L 587.435229 310.436035 
L 589.48665 309.10872 
L 591.53807 308.993301 
L 595.640912 306.569508 
L 597.692332 304.261135 
L 599.743753 301.317958 
L 601.795173 296.528082 
L 603.846594 293.007812 
L 605.898015 286.371238 
L 607.949435 281.350525 
L 610.000856 273.386635 
L 612.052276 262.941243 
L 614.103697 259.363264 
L 616.155117 254.169423 
L 618.206538 249.610385 
L 620.257959 241.761914 
L 622.309379 246.49408 
L 624.3608 248.052232 
L 626.41222 250.360606 
L 628.463641 248.860163 
L 630.515062 259.998067 
L 632.566482 268.365922 
L 634.617903 272.520995 
L 636.669323 280.773431 
L 638.720744 284.986213 
L 640.772164 293.23865 
L 642.823585 297.970816 
L 644.875006 300.625446 
L 646.926426 303.626332 
L 648.977847 306.050124 
L 651.029267 307.608277 
L 653.080688 308.18537 
L 655.132109 308.589336 
L 657.183529 307.550567 
L 659.23495 305.761578 
L 661.28637 304.318844 
L 663.337791 297.970816 
L 665.389211 292.603847 
L 667.440632 281.927618 
L 669.492053 272.290157 
L 671.543473 256.881762 
L 675.646314 209.098424 
L 677.697735 183.417766 
L 681.800576 115.320738 
L 685.903417 71.461636 
L 687.954838 51.378784 
L 690.006258 30.026326 
L 692.057679 37.355413 
L 694.1091 39.144402 
L 696.16052 59.573511 
L 698.211941 83.234342 
L 702.314782 141.405362 
L 704.366202 176.088679 
L 706.417623 201.884756 
L 706.417623 201.884756 
" style="fill:none;stroke:#2ca02c;stroke-linecap:square;stroke-width:2;"/>
   </g>
   <g id="line2d_49">
    <path clip-path="url(#p2c0516dd18)" d="M 402.807377 310.84 
L 501.275565 310.84 
L 503.326985 310.260582 
L 505.378406 309.536309 
L 507.429827 308.232618 
L 509.481247 303.017855 
L 513.584088 291.429492 
L 515.635509 279.841129 
L 519.73835 236.819332 
L 521.789771 211.614643 
L 523.841191 193.94239 
L 527.944032 147.733793 
L 529.995453 156.135356 
L 532.046874 153.817683 
L 534.098294 160.480992 
L 536.149715 182.498881 
L 538.201135 187.423936 
L 540.252556 207.558716 
L 542.303977 225.955242 
L 544.355397 246.524586 
L 546.406818 254.63644 
L 548.458238 273.177821 
L 550.509659 282.73822 
L 552.561079 290.125801 
L 554.6125 294.616292 
L 558.715341 304.321546 
L 560.766762 306.494364 
L 562.818182 308.377473 
L 564.869603 309.826018 
L 566.921023 308.956891 
L 568.972444 310.260582 
L 573.075285 310.550291 
L 575.126706 310.550291 
L 577.178126 310.84 
L 579.229547 310.405436 
L 581.280968 310.84 
L 583.332388 310.550291 
L 585.383809 309.970873 
L 587.435229 309.970873 
L 589.48665 309.826018 
L 591.53807 308.087764 
L 593.589491 307.073782 
L 595.640912 305.625237 
L 597.692332 303.452419 
L 599.743753 300.700183 
L 601.795173 296.209692 
L 603.846594 290.41551 
L 605.898015 285.345602 
L 607.949435 279.841129 
L 610.000856 275.495493 
L 612.052276 268.397621 
L 614.103697 259.996058 
L 616.155117 257.243822 
L 618.206538 247.538568 
L 620.257959 246.524586 
L 622.309379 251.594495 
L 624.3608 241.164968 
L 626.41222 248.117986 
L 628.463641 252.898186 
L 630.515062 259.996058 
L 632.566482 265.935094 
L 634.617903 272.743257 
L 636.669323 278.392584 
L 638.720744 285.490456 
L 642.823585 297.947946 
L 646.926426 303.452419 
L 648.977847 305.625237 
L 651.029267 307.218637 
L 653.080688 308.087764 
L 655.132109 308.087764 
L 657.183529 307.6532 
L 659.23495 303.742128 
L 661.28637 303.307564 
L 663.337791 298.38251 
L 665.389211 294.471437 
L 667.440632 283.897056 
L 669.492053 263.038003 
L 671.543473 251.739349 
L 673.594894 229.576606 
L 675.646314 210.600661 
L 677.697735 171.634791 
L 679.749155 146.864666 
L 683.851997 92.833924 
L 685.903417 62.269617 
L 687.954838 51.405527 
L 690.006258 32.429583 
L 692.057679 48.943 
L 694.1091 55.461454 
L 696.16052 59.372526 
L 698.211941 98.338396 
L 700.263361 121.080558 
L 702.314782 147.154375 
L 704.366202 165.985464 
L 706.417623 196.984335 
L 706.417623 196.984335 
" style="fill:none;stroke:#d62728;stroke-linecap:square;stroke-width:2;"/>
   </g>
   <g id="patch_9">
    <path d="M 401.781667 310.84 
L 401.781667 15.985642 
" style="fill:none;stroke:#000000;stroke-linecap:square;stroke-linejoin:miter;stroke-width:0.8;"/>
   </g>
   <g id="patch_10">
    <path d="M 707.443333 310.84 
L 707.443333 15.985642 
" style="fill:none;stroke:#000000;stroke-linecap:square;stroke-linejoin:miter;stroke-width:0.8;"/>
   </g>
   <g id="patch_11">
    <path d="M 401.781667 310.84 
L 707.443333 310.84 
" style="fill:none;stroke:#000000;stroke-linecap:square;stroke-linejoin:miter;stroke-width:0.8;"/>
   </g>
   <g id="patch_12">
    <path d="M 401.781667 15.985642 
L 707.443333 15.985642 
" style="fill:none;stroke:#000000;stroke-linecap:square;stroke-linejoin:miter;stroke-width:0.8;"/>
   </g>
   <g id="legend_2">
    <g id="patch_13">
     <path d="M 411.581667 109.383142 
L 591.190729 109.383142 
Q 593.990729 109.383142 593.990729 106.583142 
L 593.990729 25.785642 
Q 593.990729 22.985642 591.190729 22.985642 
L 411.581667 22.985642 
Q 408.781667 22.985642 408.781667 25.785642 
L 408.781667 106.583142 
Q 408.781667 109.383142 411.581667 109.383142 
z
" style="fill:#ffffff;opacity:0.8;stroke:#cccccc;stroke-linejoin:miter;"/>
    </g>
    <g id="line2d_50">
     <path d="M 414.381667 34.323455 
L 442.381667 34.323455 
" style="fill:none;stroke:#1f77b4;stroke-linecap:square;stroke-width:2;"/>
    </g>
    <g id="line2d_51"/>
    <g id="text_41">
     <!-- Rattle -->
     <g transform="translate(453.581667 39.223455)scale(0.14 -0.14)">
      <use xlink:href="#DejaVuSans-52"/>
      <use x="69.451172" xlink:href="#DejaVuSans-61"/>
      <use x="130.730469" xlink:href="#DejaVuSans-74"/>
      <use x="169.939453" xlink:href="#DejaVuSans-74"/>
      <use x="209.148438" xlink:href="#DejaVuSans-6c"/>
      <use x="236.931641" xlink:href="#DejaVuSans-65"/>
     </g>
    </g>
    <g id="line2d_52">
     <path d="M 414.381667 54.87283 
L 442.381667 54.87283 
" style="fill:none;stroke:#ff7f0e;stroke-linecap:square;stroke-width:2;"/>
    </g>
    <g id="line2d_53"/>
    <g id="text_42">
     <!-- Monte Carlo rattle -->
     <g transform="translate(453.581667 59.77283)scale(0.14 -0.14)">
      <use xlink:href="#DejaVuSans-4d"/>
      <use x="86.279297" xlink:href="#DejaVuSans-6f"/>
      <use x="147.460938" xlink:href="#DejaVuSans-6e"/>
      <use x="210.839844" xlink:href="#DejaVuSans-74"/>
      <use x="250.048828" xlink:href="#DejaVuSans-65"/>
      <use x="311.572266" xlink:href="#DejaVuSans-20"/>
      <use x="343.359375" xlink:href="#DejaVuSans-43"/>
      <use x="413.183594" xlink:href="#DejaVuSans-61"/>
      <use x="474.462891" xlink:href="#DejaVuSans-72"/>
      <use x="515.576172" xlink:href="#DejaVuSans-6c"/>
      <use x="543.359375" xlink:href="#DejaVuSans-6f"/>
      <use x="604.541016" xlink:href="#DejaVuSans-20"/>
      <use x="636.328125" xlink:href="#DejaVuSans-72"/>
      <use x="677.441406" xlink:href="#DejaVuSans-61"/>
      <use x="738.720703" xlink:href="#DejaVuSans-74"/>
      <use x="777.929688" xlink:href="#DejaVuSans-74"/>
      <use x="817.138672" xlink:href="#DejaVuSans-6c"/>
      <use x="844.921875" xlink:href="#DejaVuSans-65"/>
     </g>
    </g>
    <g id="line2d_54">
     <path d="M 414.381667 75.422205 
L 442.381667 75.422205 
" style="fill:none;stroke:#2ca02c;stroke-linecap:square;stroke-width:2;"/>
    </g>
    <g id="line2d_55"/>
    <g id="text_43">
     <!-- Phonon rattle 800K -->
     <g transform="translate(453.581667 80.322205)scale(0.14 -0.14)">
      <use xlink:href="#DejaVuSans-50"/>
      <use x="60.302734" xlink:href="#DejaVuSans-68"/>
      <use x="123.681641" xlink:href="#DejaVuSans-6f"/>
      <use x="184.863281" xlink:href="#DejaVuSans-6e"/>
      <use x="248.242188" xlink:href="#DejaVuSans-6f"/>
      <use x="309.423828" xlink:href="#DejaVuSans-6e"/>
      <use x="372.802734" xlink:href="#DejaVuSans-20"/>
      <use x="404.589844" xlink:href="#DejaVuSans-72"/>
      <use x="445.703125" xlink:href="#DejaVuSans-61"/>
      <use x="506.982422" xlink:href="#DejaVuSans-74"/>
      <use x="546.191406" xlink:href="#DejaVuSans-74"/>
      <use x="585.400391" xlink:href="#DejaVuSans-6c"/>
      <use x="613.183594" xlink:href="#DejaVuSans-65"/>
      <use x="674.707031" xlink:href="#DejaVuSans-20"/>
      <use x="706.494141" xlink:href="#DejaVuSans-38"/>
      <use x="770.117188" xlink:href="#DejaVuSans-30"/>
      <use x="833.740234" xlink:href="#DejaVuSans-30"/>
      <use x="897.363281" xlink:href="#DejaVuSans-4b"/>
     </g>
    </g>
    <g id="line2d_56">
     <path d="M 414.381667 95.97158 
L 442.381667 95.97158 
" style="fill:none;stroke:#d62728;stroke-linecap:square;stroke-width:2;"/>
    </g>
    <g id="line2d_57"/>
    <g id="text_44">
     <!-- MD 800K -->
     <g transform="translate(453.581667 100.87158)scale(0.14 -0.14)">
      <use xlink:href="#DejaVuSans-4d"/>
      <use x="86.279297" xlink:href="#DejaVuSans-44"/>
      <use x="163.28125" xlink:href="#DejaVuSans-20"/>
      <use x="195.068359" xlink:href="#DejaVuSans-38"/>
      <use x="258.691406" xlink:href="#DejaVuSans-30"/>
      <use x="322.314453" xlink:href="#DejaVuSans-30"/>
      <use x="385.9375" xlink:href="#DejaVuSans-4b"/>
     </g>
    </g>
   </g>
  </g>
  <g id="axes_3">
   <g id="patch_14">
    <path d="M 759.083333 310.84 
L 1064.745 310.84 
L 1064.745 15.985642 
L 759.083333 15.985642 
z
" style="fill:#ffffff;"/>
   </g>
   <g id="matplotlib.axis_5">
    <g id="xtick_17">
     <g id="line2d_58">
      <g>
       <use style="stroke:#000000;stroke-width:0.8;" x="759.083333" xlink:href="#mbf83a86ec8" y="310.84"/>
      </g>
     </g>
     <g id="text_45">
      <!-- 0 -->
      <g transform="translate(754.629583 328.477813)scale(0.14 -0.14)">
       <use xlink:href="#DejaVuSans-30"/>
      </g>
     </g>
    </g>
    <g id="xtick_18">
     <g id="line2d_59">
      <g>
       <use style="stroke:#000000;stroke-width:0.8;" x="835.49875" xlink:href="#mbf83a86ec8" y="310.84"/>
      </g>
     </g>
     <g id="text_46">
      <!-- 2 -->
      <g transform="translate(831.045 328.477813)scale(0.14 -0.14)">
       <use xlink:href="#DejaVuSans-32"/>
      </g>
     </g>
    </g>
    <g id="xtick_19">
     <g id="line2d_60">
      <g>
       <use style="stroke:#000000;stroke-width:0.8;" x="911.914167" xlink:href="#mbf83a86ec8" y="310.84"/>
      </g>
     </g>
     <g id="text_47">
      <!-- 4 -->
      <g transform="translate(907.460417 328.477813)scale(0.14 -0.14)">
       <use xlink:href="#DejaVuSans-34"/>
      </g>
     </g>
    </g>
    <g id="xtick_20">
     <g id="line2d_61">
      <g>
       <use style="stroke:#000000;stroke-width:0.8;" x="988.329583" xlink:href="#mbf83a86ec8" y="310.84"/>
      </g>
     </g>
     <g id="text_48">
      <!-- 6 -->
      <g transform="translate(983.875833 328.477813)scale(0.14 -0.14)">
       <use xlink:href="#DejaVuSans-36"/>
      </g>
     </g>
    </g>
    <g id="xtick_21">
     <g id="line2d_62">
      <g>
       <use style="stroke:#000000;stroke-width:0.8;" x="1064.745" xlink:href="#mbf83a86ec8" y="310.84"/>
      </g>
     </g>
     <g id="text_49">
      <!-- 8 -->
      <g transform="translate(1060.29125 328.477813)scale(0.14 -0.14)">
       <use xlink:href="#DejaVuSans-38"/>
      </g>
     </g>
    </g>
    <g id="text_50">
     <!-- Force (eV/A) -->
     <defs>
      <path d="M 9.8125 72.90625 
L 51.703125 72.90625 
L 51.703125 64.59375 
L 19.671875 64.59375 
L 19.671875 43.109375 
L 48.578125 43.109375 
L 48.578125 34.8125 
L 19.671875 34.8125 
L 19.671875 0 
L 9.8125 0 
z
" id="DejaVuSans-46"/>
      <path d="M 28.609375 0 
L 0.78125 72.90625 
L 11.078125 72.90625 
L 34.1875 11.53125 
L 57.328125 72.90625 
L 67.578125 72.90625 
L 39.796875 0 
z
" id="DejaVuSans-56"/>
      <path d="M 25.390625 72.90625 
L 33.6875 72.90625 
L 8.296875 -9.28125 
L 0 -9.28125 
z
" id="DejaVuSans-2f"/>
     </defs>
     <g transform="translate(868.647604 346.027188)scale(0.14 -0.14)">
      <use xlink:href="#DejaVuSans-46"/>
      <use x="57.472656" xlink:href="#DejaVuSans-6f"/>
      <use x="118.654297" xlink:href="#DejaVuSans-72"/>
      <use x="159.736328" xlink:href="#DejaVuSans-63"/>
      <use x="214.716797" xlink:href="#DejaVuSans-65"/>
      <use x="276.240234" xlink:href="#DejaVuSans-20"/>
      <use x="308.027344" xlink:href="#DejaVuSans-28"/>
      <use x="347.041016" xlink:href="#DejaVuSans-65"/>
      <use x="408.564453" xlink:href="#DejaVuSans-56"/>
      <use x="476.972656" xlink:href="#DejaVuSans-2f"/>
      <use x="510.664062" xlink:href="#DejaVuSans-41"/>
      <use x="579.072266" xlink:href="#DejaVuSans-29"/>
     </g>
    </g>
   </g>
   <g id="matplotlib.axis_6">
    <g id="ytick_18">
     <g id="line2d_63">
      <g>
       <use style="stroke:#000000;stroke-width:0.8;" x="759.083333" xlink:href="#me878e70e6f" y="310.84"/>
      </g>
     </g>
     <g id="text_51">
      <!-- 0.0 -->
      <g transform="translate(729.818958 316.158906)scale(0.14 -0.14)">
       <use xlink:href="#DejaVuSans-30"/>
       <use x="63.623047" xlink:href="#DejaVuSans-2e"/>
       <use x="95.410156" xlink:href="#DejaVuSans-30"/>
      </g>
     </g>
    </g>
    <g id="ytick_19">
     <g id="line2d_64">
      <g>
       <use style="stroke:#000000;stroke-width:0.8;" x="759.083333" xlink:href="#me878e70e6f" y="266.030135"/>
      </g>
     </g>
     <g id="text_52">
      <!-- 0.1 -->
      <g transform="translate(729.818958 271.349041)scale(0.14 -0.14)">
       <use xlink:href="#DejaVuSans-30"/>
       <use x="63.623047" xlink:href="#DejaVuSans-2e"/>
       <use x="95.410156" xlink:href="#DejaVuSans-31"/>
      </g>
     </g>
    </g>
    <g id="ytick_20">
     <g id="line2d_65">
      <g>
       <use style="stroke:#000000;stroke-width:0.8;" x="759.083333" xlink:href="#me878e70e6f" y="221.22027"/>
      </g>
     </g>
     <g id="text_53">
      <!-- 0.2 -->
      <g transform="translate(729.818958 226.539176)scale(0.14 -0.14)">
       <use xlink:href="#DejaVuSans-30"/>
       <use x="63.623047" xlink:href="#DejaVuSans-2e"/>
       <use x="95.410156" xlink:href="#DejaVuSans-32"/>
      </g>
     </g>
    </g>
    <g id="ytick_21">
     <g id="line2d_66">
      <g>
       <use style="stroke:#000000;stroke-width:0.8;" x="759.083333" xlink:href="#me878e70e6f" y="176.410405"/>
      </g>
     </g>
     <g id="text_54">
      <!-- 0.3 -->
      <g transform="translate(729.818958 181.729311)scale(0.14 -0.14)">
       <use xlink:href="#DejaVuSans-30"/>
       <use x="63.623047" xlink:href="#DejaVuSans-2e"/>
       <use x="95.410156" xlink:href="#DejaVuSans-33"/>
      </g>
     </g>
    </g>
    <g id="ytick_22">
     <g id="line2d_67">
      <g>
       <use style="stroke:#000000;stroke-width:0.8;" x="759.083333" xlink:href="#me878e70e6f" y="131.60054"/>
      </g>
     </g>
     <g id="text_55">
      <!-- 0.4 -->
      <g transform="translate(729.818958 136.919446)scale(0.14 -0.14)">
       <use xlink:href="#DejaVuSans-30"/>
       <use x="63.623047" xlink:href="#DejaVuSans-2e"/>
       <use x="95.410156" xlink:href="#DejaVuSans-34"/>
      </g>
     </g>
    </g>
    <g id="ytick_23">
     <g id="line2d_68">
      <g>
       <use style="stroke:#000000;stroke-width:0.8;" x="759.083333" xlink:href="#me878e70e6f" y="86.790675"/>
      </g>
     </g>
     <g id="text_56">
      <!-- 0.5 -->
      <g transform="translate(729.818958 92.109581)scale(0.14 -0.14)">
       <use xlink:href="#DejaVuSans-30"/>
       <use x="63.623047" xlink:href="#DejaVuSans-2e"/>
       <use x="95.410156" xlink:href="#DejaVuSans-35"/>
      </g>
     </g>
    </g>
    <g id="ytick_24">
     <g id="line2d_69">
      <g>
       <use style="stroke:#000000;stroke-width:0.8;" x="759.083333" xlink:href="#me878e70e6f" y="41.980809"/>
      </g>
     </g>
     <g id="text_57">
      <!-- 0.6 -->
      <g transform="translate(729.818958 47.299716)scale(0.14 -0.14)">
       <use xlink:href="#DejaVuSans-30"/>
       <use x="63.623047" xlink:href="#DejaVuSans-2e"/>
       <use x="95.410156" xlink:href="#DejaVuSans-36"/>
      </g>
     </g>
    </g>
   </g>
   <g id="line2d_70">
    <path clip-path="url(#pfeb9978837)" d="M 762.20233 309.796821 
L 768.440323 304.580925 
L 774.678316 296.235492 
L 780.91631 280.587806 
L 787.154303 258.681045 
L 793.392296 250.857201 
L 799.630289 242.511768 
L 805.868282 221.648186 
L 812.106276 213.824343 
L 818.344269 198.176656 
L 824.582262 189.831223 
L 830.820255 179.399432 
L 837.058248 189.831223 
L 843.296241 192.439171 
L 849.534235 199.741425 
L 855.772228 184.615328 
L 862.010221 207.043679 
L 868.248214 201.827783 
L 874.486207 208.086858 
L 880.724201 215.389111 
L 886.962194 207.043679 
L 893.200187 217.47547 
L 899.43818 224.256134 
L 905.676173 238.860641 
L 911.914167 240.947 
L 918.15216 246.162895 
L 924.390153 241.990179 
L 930.628146 254.508328 
L 936.866139 263.89694 
L 943.104133 269.634425 
L 949.342126 270.677604 
L 955.580119 272.763963 
L 961.818112 275.37191 
L 968.056105 281.630985 
L 974.294099 284.760522 
L 980.532092 282.674164 
L 986.770085 291.019597 
L 993.008078 287.36847 
L 999.246071 295.713903 
L 1005.484065 293.627545 
L 1011.722058 296.235492 
L 1017.960051 299.886619 
L 1024.198044 298.84344 
L 1030.436037 301.451388 
L 1036.674031 301.451388 
L 1042.912024 296.757082 
L 1049.150017 305.102515 
L 1055.38801 302.494567 
L 1061.626003 298.84344 
" style="fill:none;stroke:#1f77b4;stroke-linecap:square;stroke-width:2;"/>
   </g>
   <g id="line2d_71">
    <path clip-path="url(#pfeb9978837)" d="M 762.20233 307.79044 
L 768.440323 286.443518 
L 774.678316 241.208374 
L 780.91631 180.725429 
L 787.154303 140.572885 
L 793.392296 121.767264 
L 799.630289 47.561297 
L 805.868282 54.168678 
L 812.106276 49.086077 
L 818.344269 32.821756 
L 824.582262 76.53212 
L 830.820255 115.668143 
L 837.058248 116.684663 
L 843.296241 169.035448 
L 849.534235 214.778852 
L 855.772228 231.551433 
L 862.010221 251.373575 
L 868.248214 274.245277 
L 874.486207 285.426998 
L 880.724201 295.592199 
L 886.962194 304.232619 
L 893.200187 302.707839 
L 899.43818 307.79044 
L 905.676173 309.31522 
L 911.914167 310.33174 
L 918.15216 310.33174 
L 924.390153 310.33174 
L 930.628146 310.84 
L 936.866139 310.84 
L 943.104133 310.84 
L 949.342126 310.84 
L 955.580119 310.84 
L 961.818112 310.84 
L 968.056105 310.84 
L 974.294099 310.84 
L 980.532092 310.84 
L 986.770085 310.84 
L 993.008078 310.84 
L 999.246071 310.84 
L 1005.484065 310.84 
L 1011.722058 310.84 
L 1017.960051 310.84 
L 1024.198044 310.84 
L 1030.436037 310.84 
L 1036.674031 310.84 
L 1042.912024 310.84 
L 1049.150017 310.84 
L 1055.38801 310.84 
L 1061.626003 310.84 
" style="fill:none;stroke:#ff7f0e;stroke-linecap:square;stroke-width:2;"/>
   </g>
   <g id="line2d_72">
    <path clip-path="url(#pfeb9978837)" d="M 762.20233 306.77392 
L 768.440323 276.278317 
L 774.678316 225.452313 
L 780.91631 159.886767 
L 787.154303 130.407684 
L 793.392296 59.759538 
L 799.630289 63.317359 
L 805.868282 49.594337 
L 812.106276 89.746881 
L 818.344269 73.48256 
L 824.582262 93.812961 
L 830.820255 127.358124 
L 837.058248 159.886767 
L 843.296241 196.98975 
L 849.534235 227.993613 
L 855.772228 245.274454 
L 862.010221 254.931395 
L 868.248214 262.555296 
L 874.486207 278.819617 
L 880.724201 280.852657 
L 886.962194 290.001338 
L 893.200187 294.067419 
L 899.43818 297.625239 
L 905.676173 301.183059 
L 911.914167 304.232619 
L 918.15216 303.216099 
L 924.390153 307.79044 
L 930.628146 306.77392 
L 936.866139 308.2987 
L 943.104133 308.80696 
L 949.342126 309.31522 
L 955.580119 309.82348 
L 961.818112 310.33174 
L 968.056105 309.82348 
L 974.294099 310.84 
L 980.532092 310.84 
L 986.770085 310.84 
L 993.008078 310.84 
L 999.246071 310.84 
L 1005.484065 310.33174 
L 1011.722058 310.84 
L 1017.960051 310.84 
L 1024.198044 310.84 
L 1030.436037 310.84 
L 1036.674031 310.84 
L 1042.912024 310.84 
L 1049.150017 310.84 
L 1055.38801 310.84 
L 1061.626003 310.84 
" style="fill:none;stroke:#2ca02c;stroke-linecap:square;stroke-width:2;"/>
   </g>
   <g id="line2d_73">
    <path clip-path="url(#pfeb9978837)" d="M 762.20233 303.216099 
L 768.440323 279.073747 
L 774.678316 240.954244 
L 780.91631 182.504339 
L 787.154303 92.288181 
L 793.392296 50.356728 
L 799.630289 59.251278 
L 805.868282 30.026326 
L 812.106276 44.003477 
L 818.344269 42.732827 
L 824.582262 107.535982 
L 830.820255 126.595734 
L 837.058248 173.609788 
L 843.296241 190.12824 
L 849.534235 228.247743 
L 855.772228 243.495544 
L 862.010221 254.931395 
L 868.248214 277.803097 
L 874.486207 284.156348 
L 880.724201 294.321549 
L 886.962194 300.674799 
L 893.200187 304.486749 
L 899.43818 305.7574 
L 905.676173 304.486749 
L 911.914167 307.02805 
L 918.15216 309.56935 
L 924.390153 310.84 
L 930.628146 310.84 
L 936.866139 310.84 
L 943.104133 310.84 
L 949.342126 310.84 
L 955.580119 310.84 
L 961.818112 310.84 
L 968.056105 310.84 
L 974.294099 310.84 
L 980.532092 310.84 
L 986.770085 310.84 
L 993.008078 310.84 
L 999.246071 310.84 
L 1005.484065 310.84 
L 1011.722058 310.84 
L 1017.960051 310.84 
L 1024.198044 310.84 
L 1030.436037 310.84 
L 1036.674031 310.84 
L 1042.912024 310.84 
L 1049.150017 310.84 
L 1055.38801 310.84 
L 1061.626003 310.84 
" style="fill:none;stroke:#d62728;stroke-linecap:square;stroke-width:2;"/>
   </g>
   <g id="patch_15">
    <path d="M 759.083333 310.84 
L 759.083333 15.985642 
" style="fill:none;stroke:#000000;stroke-linecap:square;stroke-linejoin:miter;stroke-width:0.8;"/>
   </g>
   <g id="patch_16">
    <path d="M 1064.745 310.84 
L 1064.745 15.985642 
" style="fill:none;stroke:#000000;stroke-linecap:square;stroke-linejoin:miter;stroke-width:0.8;"/>
   </g>
   <g id="patch_17">
    <path d="M 759.083333 310.84 
L 1064.745 310.84 
" style="fill:none;stroke:#000000;stroke-linecap:square;stroke-linejoin:miter;stroke-width:0.8;"/>
   </g>
   <g id="patch_18">
    <path d="M 759.083333 15.985642 
L 1064.745 15.985642 
" style="fill:none;stroke:#000000;stroke-linecap:square;stroke-linejoin:miter;stroke-width:0.8;"/>
   </g>
   <g id="legend_3">
    <g id="patch_19">
     <path d="M 875.335938 109.383142 
L 1054.945 109.383142 
Q 1057.745 109.383142 1057.745 106.583142 
L 1057.745 25.785642 
Q 1057.745 22.985642 1054.945 22.985642 
L 875.335938 22.985642 
Q 872.535938 22.985642 872.535938 25.785642 
L 872.535938 106.583142 
Q 872.535938 109.383142 875.335938 109.383142 
z
" style="fill:#ffffff;opacity:0.8;stroke:#cccccc;stroke-linejoin:miter;"/>
    </g>
    <g id="line2d_74">
     <path d="M 878.135938 34.323455 
L 906.135938 34.323455 
" style="fill:none;stroke:#1f77b4;stroke-linecap:square;stroke-width:2;"/>
    </g>
    <g id="line2d_75"/>
    <g id="text_58">
     <!-- Rattle -->
     <g transform="translate(917.335938 39.223455)scale(0.14 -0.14)">
      <use xlink:href="#DejaVuSans-52"/>
      <use x="69.451172" xlink:href="#DejaVuSans-61"/>
      <use x="130.730469" xlink:href="#DejaVuSans-74"/>
      <use x="169.939453" xlink:href="#DejaVuSans-74"/>
      <use x="209.148438" xlink:href="#DejaVuSans-6c"/>
      <use x="236.931641" xlink:href="#DejaVuSans-65"/>
     </g>
    </g>
    <g id="line2d_76">
     <path d="M 878.135938 54.87283 
L 906.135938 54.87283 
" style="fill:none;stroke:#ff7f0e;stroke-linecap:square;stroke-width:2;"/>
    </g>
    <g id="line2d_77"/>
    <g id="text_59">
     <!-- Monte Carlo rattle -->
     <g transform="translate(917.335938 59.77283)scale(0.14 -0.14)">
      <use xlink:href="#DejaVuSans-4d"/>
      <use x="86.279297" xlink:href="#DejaVuSans-6f"/>
      <use x="147.460938" xlink:href="#DejaVuSans-6e"/>
      <use x="210.839844" xlink:href="#DejaVuSans-74"/>
      <use x="250.048828" xlink:href="#DejaVuSans-65"/>
      <use x="311.572266" xlink:href="#DejaVuSans-20"/>
      <use x="343.359375" xlink:href="#DejaVuSans-43"/>
      <use x="413.183594" xlink:href="#DejaVuSans-61"/>
      <use x="474.462891" xlink:href="#DejaVuSans-72"/>
      <use x="515.576172" xlink:href="#DejaVuSans-6c"/>
      <use x="543.359375" xlink:href="#DejaVuSans-6f"/>
      <use x="604.541016" xlink:href="#DejaVuSans-20"/>
      <use x="636.328125" xlink:href="#DejaVuSans-72"/>
      <use x="677.441406" xlink:href="#DejaVuSans-61"/>
      <use x="738.720703" xlink:href="#DejaVuSans-74"/>
      <use x="777.929688" xlink:href="#DejaVuSans-74"/>
      <use x="817.138672" xlink:href="#DejaVuSans-6c"/>
      <use x="844.921875" xlink:href="#DejaVuSans-65"/>
     </g>
    </g>
    <g id="line2d_78">
     <path d="M 878.135938 75.422205 
L 906.135938 75.422205 
" style="fill:none;stroke:#2ca02c;stroke-linecap:square;stroke-width:2;"/>
    </g>
    <g id="line2d_79"/>
    <g id="text_60">
     <!-- Phonon rattle 800K -->
     <g transform="translate(917.335938 80.322205)scale(0.14 -0.14)">
      <use xlink:href="#DejaVuSans-50"/>
      <use x="60.302734" xlink:href="#DejaVuSans-68"/>
      <use x="123.681641" xlink:href="#DejaVuSans-6f"/>
      <use x="184.863281" xlink:href="#DejaVuSans-6e"/>
      <use x="248.242188" xlink:href="#DejaVuSans-6f"/>
      <use x="309.423828" xlink:href="#DejaVuSans-6e"/>
      <use x="372.802734" xlink:href="#DejaVuSans-20"/>
      <use x="404.589844" xlink:href="#DejaVuSans-72"/>
      <use x="445.703125" xlink:href="#DejaVuSans-61"/>
      <use x="506.982422" xlink:href="#DejaVuSans-74"/>
      <use x="546.191406" xlink:href="#DejaVuSans-74"/>
      <use x="585.400391" xlink:href="#DejaVuSans-6c"/>
      <use x="613.183594" xlink:href="#DejaVuSans-65"/>
      <use x="674.707031" xlink:href="#DejaVuSans-20"/>
      <use x="706.494141" xlink:href="#DejaVuSans-38"/>
      <use x="770.117188" xlink:href="#DejaVuSans-30"/>
      <use x="833.740234" xlink:href="#DejaVuSans-30"/>
      <use x="897.363281" xlink:href="#DejaVuSans-4b"/>
     </g>
    </g>
    <g id="line2d_80">
     <path d="M 878.135938 95.97158 
L 906.135938 95.97158 
" style="fill:none;stroke:#d62728;stroke-linecap:square;stroke-width:2;"/>
    </g>
    <g id="line2d_81"/>
    <g id="text_61">
     <!-- MD 800K -->
     <g transform="translate(917.335938 100.87158)scale(0.14 -0.14)">
      <use xlink:href="#DejaVuSans-4d"/>
      <use x="86.279297" xlink:href="#DejaVuSans-44"/>
      <use x="163.28125" xlink:href="#DejaVuSans-20"/>
      <use x="195.068359" xlink:href="#DejaVuSans-38"/>
      <use x="258.691406" xlink:href="#DejaVuSans-30"/>
      <use x="322.314453" xlink:href="#DejaVuSans-30"/>
      <use x="385.9375" xlink:href="#DejaVuSans-4b"/>
     </g>
    </g>
   </g>
  </g>
 </g>
 <defs>
  <clipPath id="p392d6eaf6e">
   <rect height="294.854358" width="305.661667" x="44.48" y="15.985642"/>
  </clipPath>
  <clipPath id="p2c0516dd18">
   <rect height="294.854358" width="305.661667" x="401.781667" y="15.985642"/>
  </clipPath>
  <clipPath id="pfeb9978837">
   <rect height="294.854358" width="305.661667" x="759.083333" y="15.985642"/>
  </clipPath>
 </defs>
</svg>
