<?xml version="1.0" encoding="utf-8" standalone="no"?>
<!DOCTYPE svg PUBLIC "-//W3C//DTD SVG 1.1//EN"
  "http://www.w3.org/Graphics/SVG/1.1/DTD/svg11.dtd">
<!-- Created with matplotlib (http://matplotlib.org/) -->
<svg height="345pt" version="1.1" viewBox="0 0 460 345" width="460pt" xmlns="http://www.w3.org/2000/svg" xmlns:xlink="http://www.w3.org/1999/xlink">
 <defs>
  <style type="text/css">
*{stroke-linecap:butt;stroke-linejoin:round;}
  </style>
 </defs>
 <g id="figure_1">
  <g id="patch_1">
   <path d="M 0 345.6 
L 460.8 345.6 
L 460.8 0 
L 0 0 
z
" style="fill:#ffffff;"/>
  </g>
  <g id="axes_1">
   <g id="patch_2">
    <path d="M 51.05 291.945 
L 446.085 291.945 
L 446.085 14.76 
L 51.05 14.76 
z
" style="fill:#ffffff;"/>
   </g>
   <g id="matplotlib.axis_1">
    <g id="xtick_1">
     <g id="line2d_1">
      <defs>
       <path d="M 0 0 
L 0 3.5 
" id="m7d11da8df2" style="stroke:#000000;stroke-width:0.8;"/>
      </defs>
      <g>
       <use style="stroke:#000000;stroke-width:0.8;" x="51.05" xlink:href="#m7d11da8df2" y="291.945"/>
      </g>
     </g>
     <g id="text_1">
      <!-- $\Gamma$ -->
      <defs>
       <path d="M 9.8125 0 
L 9.8125 72.90625 
L 55.171875 72.90625 
L 55.171875 64.59375 
L 19.671875 64.59375 
L 19.671875 0 
z
" id="DejaVuSans-393"/>
      </defs>
      <g transform="translate(47.13 309.582812)scale(0.14 -0.14)">
       <use transform="translate(0 0.09375)" xlink:href="#DejaVuSans-393"/>
      </g>
     </g>
    </g>
    <g id="xtick_2">
     <g id="line2d_2">
      <g>
       <use style="stroke:#000000;stroke-width:0.8;" x="171.478726" xlink:href="#m7d11da8df2" y="291.945"/>
      </g>
     </g>
     <g id="text_2">
      <!-- X -->
      <defs>
       <path d="M 6.296875 72.90625 
L 16.890625 72.90625 
L 35.015625 45.796875 
L 53.21875 72.90625 
L 63.8125 72.90625 
L 40.375 37.890625 
L 65.375 0 
L 54.78125 0 
L 34.28125 31 
L 13.625 0 
L 2.984375 0 
L 29 38.921875 
z
" id="DejaVuSans-58"/>
      </defs>
      <g transform="translate(166.683726 309.582812)scale(0.14 -0.14)">
       <use xlink:href="#DejaVuSans-58"/>
      </g>
     </g>
    </g>
    <g id="xtick_3">
     <g id="line2d_3">
      <g>
       <use style="stroke:#000000;stroke-width:0.8;" x="341.790664" xlink:href="#m7d11da8df2" y="291.945"/>
      </g>
     </g>
     <g id="text_3">
      <!-- $\Gamma$ -->
      <g transform="translate(337.870664 309.582812)scale(0.14 -0.14)">
       <use transform="translate(0 0.09375)" xlink:href="#DejaVuSans-393"/>
      </g>
     </g>
    </g>
    <g id="xtick_4">
     <g id="line2d_4">
      <g>
       <use style="stroke:#000000;stroke-width:0.8;" x="446.085" xlink:href="#m7d11da8df2" y="291.945"/>
      </g>
     </g>
     <g id="text_4">
      <!-- L -->
      <defs>
       <path d="M 9.8125 72.90625 
L 19.671875 72.90625 
L 19.671875 8.296875 
L 55.171875 8.296875 
L 55.171875 0 
L 9.8125 0 
z
" id="DejaVuSans-4c"/>
      </defs>
      <g transform="translate(442.184687 309.582812)scale(0.14 -0.14)">
       <use xlink:href="#DejaVuSans-4c"/>
      </g>
     </g>
    </g>
    <g id="text_5">
     <!-- Wave vector $\vec{q}$ -->
     <defs>
      <path d="M 3.328125 72.90625 
L 13.28125 72.90625 
L 28.609375 11.28125 
L 43.890625 72.90625 
L 54.984375 72.90625 
L 70.3125 11.28125 
L 85.59375 72.90625 
L 95.609375 72.90625 
L 77.296875 0 
L 64.890625 0 
L 49.515625 63.28125 
L 33.984375 0 
L 21.578125 0 
z
" id="DejaVuSans-57"/>
      <path d="M 34.28125 27.484375 
Q 23.390625 27.484375 19.1875 25 
Q 14.984375 22.515625 14.984375 16.5 
Q 14.984375 11.71875 18.140625 8.90625 
Q 21.296875 6.109375 26.703125 6.109375 
Q 34.1875 6.109375 38.703125 11.40625 
Q 43.21875 16.703125 43.21875 25.484375 
L 43.21875 27.484375 
z
M 52.203125 31.203125 
L 52.203125 0 
L 43.21875 0 
L 43.21875 8.296875 
Q 40.140625 3.328125 35.546875 0.953125 
Q 30.953125 -1.421875 24.3125 -1.421875 
Q 15.921875 -1.421875 10.953125 3.296875 
Q 6 8.015625 6 15.921875 
Q 6 25.140625 12.171875 29.828125 
Q 18.359375 34.515625 30.609375 34.515625 
L 43.21875 34.515625 
L 43.21875 35.40625 
Q 43.21875 41.609375 39.140625 45 
Q 35.0625 48.390625 27.6875 48.390625 
Q 23 48.390625 18.546875 47.265625 
Q 14.109375 46.140625 10.015625 43.890625 
L 10.015625 52.203125 
Q 14.9375 54.109375 19.578125 55.046875 
Q 24.21875 56 28.609375 56 
Q 40.484375 56 46.34375 49.84375 
Q 52.203125 43.703125 52.203125 31.203125 
z
" id="DejaVuSans-61"/>
      <path d="M 2.984375 54.6875 
L 12.5 54.6875 
L 29.59375 8.796875 
L 46.6875 54.6875 
L 56.203125 54.6875 
L 35.6875 0 
L 23.484375 0 
z
" id="DejaVuSans-76"/>
      <path d="M 56.203125 29.59375 
L 56.203125 25.203125 
L 14.890625 25.203125 
Q 15.484375 15.921875 20.484375 11.0625 
Q 25.484375 6.203125 34.421875 6.203125 
Q 39.59375 6.203125 44.453125 7.46875 
Q 49.3125 8.734375 54.109375 11.28125 
L 54.109375 2.78125 
Q 49.265625 0.734375 44.1875 -0.34375 
Q 39.109375 -1.421875 33.890625 -1.421875 
Q 20.796875 -1.421875 13.15625 6.1875 
Q 5.515625 13.8125 5.515625 26.8125 
Q 5.515625 40.234375 12.765625 48.109375 
Q 20.015625 56 32.328125 56 
Q 43.359375 56 49.78125 48.890625 
Q 56.203125 41.796875 56.203125 29.59375 
z
M 47.21875 32.234375 
Q 47.125 39.59375 43.09375 43.984375 
Q 39.0625 48.390625 32.421875 48.390625 
Q 24.90625 48.390625 20.390625 44.140625 
Q 15.875 39.890625 15.1875 32.171875 
z
" id="DejaVuSans-65"/>
      <path id="DejaVuSans-20"/>
      <path d="M 48.78125 52.59375 
L 48.78125 44.1875 
Q 44.96875 46.296875 41.140625 47.34375 
Q 37.3125 48.390625 33.40625 48.390625 
Q 24.65625 48.390625 19.8125 42.84375 
Q 14.984375 37.3125 14.984375 27.296875 
Q 14.984375 17.28125 19.8125 11.734375 
Q 24.65625 6.203125 33.40625 6.203125 
Q 37.3125 6.203125 41.140625 7.25 
Q 44.96875 8.296875 48.78125 10.40625 
L 48.78125 2.09375 
Q 45.015625 0.34375 40.984375 -0.53125 
Q 36.96875 -1.421875 32.421875 -1.421875 
Q 20.0625 -1.421875 12.78125 6.34375 
Q 5.515625 14.109375 5.515625 27.296875 
Q 5.515625 40.671875 12.859375 48.328125 
Q 20.21875 56 33.015625 56 
Q 37.15625 56 41.109375 55.140625 
Q 45.0625 54.296875 48.78125 52.59375 
z
" id="DejaVuSans-63"/>
      <path d="M 18.3125 70.21875 
L 18.3125 54.6875 
L 36.8125 54.6875 
L 36.8125 47.703125 
L 18.3125 47.703125 
L 18.3125 18.015625 
Q 18.3125 11.328125 20.140625 9.421875 
Q 21.96875 7.515625 27.59375 7.515625 
L 36.8125 7.515625 
L 36.8125 0 
L 27.59375 0 
Q 17.1875 0 13.234375 3.875 
Q 9.28125 7.765625 9.28125 18.015625 
L 9.28125 47.703125 
L 2.6875 47.703125 
L 2.6875 54.6875 
L 9.28125 54.6875 
L 9.28125 70.21875 
z
" id="DejaVuSans-74"/>
      <path d="M 30.609375 48.390625 
Q 23.390625 48.390625 19.1875 42.75 
Q 14.984375 37.109375 14.984375 27.296875 
Q 14.984375 17.484375 19.15625 11.84375 
Q 23.34375 6.203125 30.609375 6.203125 
Q 37.796875 6.203125 41.984375 11.859375 
Q 46.1875 17.53125 46.1875 27.296875 
Q 46.1875 37.015625 41.984375 42.703125 
Q 37.796875 48.390625 30.609375 48.390625 
z
M 30.609375 56 
Q 42.328125 56 49.015625 48.375 
Q 55.71875 40.765625 55.71875 27.296875 
Q 55.71875 13.875 49.015625 6.21875 
Q 42.328125 -1.421875 30.609375 -1.421875 
Q 18.84375 -1.421875 12.171875 6.21875 
Q 5.515625 13.875 5.515625 27.296875 
Q 5.515625 40.765625 12.171875 48.375 
Q 18.84375 56 30.609375 56 
z
" id="DejaVuSans-6f"/>
      <path d="M 41.109375 46.296875 
Q 39.59375 47.171875 37.8125 47.578125 
Q 36.03125 48 33.890625 48 
Q 26.265625 48 22.1875 43.046875 
Q 18.109375 38.09375 18.109375 28.8125 
L 18.109375 0 
L 9.078125 0 
L 9.078125 54.6875 
L 18.109375 54.6875 
L 18.109375 46.1875 
Q 20.953125 51.171875 25.484375 53.578125 
Q 30.03125 56 36.53125 56 
Q 37.453125 56 38.578125 55.875 
Q 39.703125 55.765625 41.0625 55.515625 
z
" id="DejaVuSans-72"/>
      <path d="M -47.015625 63.53125 
L -47.015625 68.40625 
L -10.84375 68.40625 
L -17.28125 75.984375 
L -11.140625 75.984375 
L -2.59375 65.96875 
L -11.140625 55.953125 
L -17.28125 55.953125 
L -10.84375 63.53125 
z
" id="DejaVuSans-20d7"/>
      <path d="M 41.703125 8.203125 
Q 38.09375 3.46875 33.171875 1.015625 
Q 28.265625 -1.421875 22.3125 -1.421875 
Q 14.015625 -1.421875 9.296875 4.171875 
Q 4.59375 9.765625 4.59375 19.578125 
Q 4.59375 27.484375 7.5 34.859375 
Q 10.40625 42.234375 15.828125 48.09375 
Q 19.34375 51.90625 23.90625 53.953125 
Q 28.46875 56 33.5 56 
Q 39.546875 56 43.453125 53.609375 
Q 47.359375 51.21875 49.125 46.390625 
L 50.6875 54.59375 
L 59.71875 54.59375 
L 45.125 -20.609375 
L 36.078125 -20.609375 
z
M 13.921875 20.90625 
Q 13.921875 13.671875 16.9375 9.890625 
Q 19.96875 6.109375 25.6875 6.109375 
Q 34.1875 6.109375 40.1875 14.234375 
Q 46.1875 22.359375 46.1875 33.984375 
Q 46.1875 41.015625 43.078125 44.75 
Q 39.984375 48.484375 34.1875 48.484375 
Q 29.9375 48.484375 26.3125 46.5 
Q 22.703125 44.53125 20.015625 40.71875 
Q 17.1875 36.71875 15.546875 31.34375 
Q 13.921875 25.984375 13.921875 20.90625 
z
" id="DejaVuSans-Oblique-71"/>
     </defs>
     <g transform="translate(197.7475 328.954375)scale(0.14 -0.14)">
      <use transform="translate(0 0.46875)" xlink:href="#DejaVuSans-57"/>
      <use transform="translate(98.876953 0.46875)" xlink:href="#DejaVuSans-61"/>
      <use transform="translate(160.15625 0.46875)" xlink:href="#DejaVuSans-76"/>
      <use transform="translate(219.335938 0.46875)" xlink:href="#DejaVuSans-65"/>
      <use transform="translate(280.859375 0.46875)" xlink:href="#DejaVuSans-20"/>
      <use transform="translate(312.646484 0.46875)" xlink:href="#DejaVuSans-76"/>
      <use transform="translate(371.826172 0.46875)" xlink:href="#DejaVuSans-65"/>
      <use transform="translate(433.349609 0.46875)" xlink:href="#DejaVuSans-63"/>
      <use transform="translate(488.330078 0.46875)" xlink:href="#DejaVuSans-74"/>
      <use transform="translate(527.539062 0.46875)" xlink:href="#DejaVuSans-6f"/>
      <use transform="translate(588.720703 0.46875)" xlink:href="#DejaVuSans-72"/>
      <use transform="translate(629.833984 0.46875)" xlink:href="#DejaVuSans-20"/>
      <use transform="translate(726.505859 13.015625)" xlink:href="#DejaVuSans-20d7"/>
      <use transform="translate(661.621094 0.46875)" xlink:href="#DejaVuSans-Oblique-71"/>
     </g>
    </g>
   </g>
   <g id="matplotlib.axis_2">
    <g id="ytick_1">
     <g id="line2d_5">
      <defs>
       <path d="M 0 0 
L -3.5 0 
" id="m681f7d4da9" style="stroke:#000000;stroke-width:0.8;"/>
      </defs>
      <g>
       <use style="stroke:#000000;stroke-width:0.8;" x="51.05" xlink:href="#m681f7d4da9" y="291.945"/>
      </g>
     </g>
     <g id="text_6">
      <!-- 0 -->
      <defs>
       <path d="M 31.78125 66.40625 
Q 24.171875 66.40625 20.328125 58.90625 
Q 16.5 51.421875 16.5 36.375 
Q 16.5 21.390625 20.328125 13.890625 
Q 24.171875 6.390625 31.78125 6.390625 
Q 39.453125 6.390625 43.28125 13.890625 
Q 47.125 21.390625 47.125 36.375 
Q 47.125 51.421875 43.28125 58.90625 
Q 39.453125 66.40625 31.78125 66.40625 
z
M 31.78125 74.21875 
Q 44.046875 74.21875 50.515625 64.515625 
Q 56.984375 54.828125 56.984375 36.375 
Q 56.984375 17.96875 50.515625 8.265625 
Q 44.046875 -1.421875 31.78125 -1.421875 
Q 19.53125 -1.421875 13.0625 8.265625 
Q 6.59375 17.96875 6.59375 36.375 
Q 6.59375 54.828125 13.0625 64.515625 
Q 19.53125 74.21875 31.78125 74.21875 
z
" id="DejaVuSans-30"/>
      </defs>
      <g transform="translate(37.6875 295.744219)scale(0.1 -0.1)">
       <use xlink:href="#DejaVuSans-30"/>
      </g>
     </g>
    </g>
    <g id="ytick_2">
     <g id="line2d_6">
      <g>
       <use style="stroke:#000000;stroke-width:0.8;" x="51.05" xlink:href="#m681f7d4da9" y="245.7475"/>
      </g>
     </g>
     <g id="text_7">
      <!-- 2 -->
      <defs>
       <path d="M 19.1875 8.296875 
L 53.609375 8.296875 
L 53.609375 0 
L 7.328125 0 
L 7.328125 8.296875 
Q 12.9375 14.109375 22.625 23.890625 
Q 32.328125 33.6875 34.8125 36.53125 
Q 39.546875 41.84375 41.421875 45.53125 
Q 43.3125 49.21875 43.3125 52.78125 
Q 43.3125 58.59375 39.234375 62.25 
Q 35.15625 65.921875 28.609375 65.921875 
Q 23.96875 65.921875 18.8125 64.3125 
Q 13.671875 62.703125 7.8125 59.421875 
L 7.8125 69.390625 
Q 13.765625 71.78125 18.9375 73 
Q 24.125 74.21875 28.421875 74.21875 
Q 39.75 74.21875 46.484375 68.546875 
Q 53.21875 62.890625 53.21875 53.421875 
Q 53.21875 48.921875 51.53125 44.890625 
Q 49.859375 40.875 45.40625 35.40625 
Q 44.1875 33.984375 37.640625 27.21875 
Q 31.109375 20.453125 19.1875 8.296875 
z
" id="DejaVuSans-32"/>
      </defs>
      <g transform="translate(37.6875 249.546719)scale(0.1 -0.1)">
       <use xlink:href="#DejaVuSans-32"/>
      </g>
     </g>
    </g>
    <g id="ytick_3">
     <g id="line2d_7">
      <g>
       <use style="stroke:#000000;stroke-width:0.8;" x="51.05" xlink:href="#m681f7d4da9" y="199.55"/>
      </g>
     </g>
     <g id="text_8">
      <!-- 4 -->
      <defs>
       <path d="M 37.796875 64.3125 
L 12.890625 25.390625 
L 37.796875 25.390625 
z
M 35.203125 72.90625 
L 47.609375 72.90625 
L 47.609375 25.390625 
L 58.015625 25.390625 
L 58.015625 17.1875 
L 47.609375 17.1875 
L 47.609375 0 
L 37.796875 0 
L 37.796875 17.1875 
L 4.890625 17.1875 
L 4.890625 26.703125 
z
" id="DejaVuSans-34"/>
      </defs>
      <g transform="translate(37.6875 203.349219)scale(0.1 -0.1)">
       <use xlink:href="#DejaVuSans-34"/>
      </g>
     </g>
    </g>
    <g id="ytick_4">
     <g id="line2d_8">
      <g>
       <use style="stroke:#000000;stroke-width:0.8;" x="51.05" xlink:href="#m681f7d4da9" y="153.3525"/>
      </g>
     </g>
     <g id="text_9">
      <!-- 6 -->
      <defs>
       <path d="M 33.015625 40.375 
Q 26.375 40.375 22.484375 35.828125 
Q 18.609375 31.296875 18.609375 23.390625 
Q 18.609375 15.53125 22.484375 10.953125 
Q 26.375 6.390625 33.015625 6.390625 
Q 39.65625 6.390625 43.53125 10.953125 
Q 47.40625 15.53125 47.40625 23.390625 
Q 47.40625 31.296875 43.53125 35.828125 
Q 39.65625 40.375 33.015625 40.375 
z
M 52.59375 71.296875 
L 52.59375 62.3125 
Q 48.875 64.0625 45.09375 64.984375 
Q 41.3125 65.921875 37.59375 65.921875 
Q 27.828125 65.921875 22.671875 59.328125 
Q 17.53125 52.734375 16.796875 39.40625 
Q 19.671875 43.65625 24.015625 45.921875 
Q 28.375 48.1875 33.59375 48.1875 
Q 44.578125 48.1875 50.953125 41.515625 
Q 57.328125 34.859375 57.328125 23.390625 
Q 57.328125 12.15625 50.6875 5.359375 
Q 44.046875 -1.421875 33.015625 -1.421875 
Q 20.359375 -1.421875 13.671875 8.265625 
Q 6.984375 17.96875 6.984375 36.375 
Q 6.984375 53.65625 15.1875 63.9375 
Q 23.390625 74.21875 37.203125 74.21875 
Q 40.921875 74.21875 44.703125 73.484375 
Q 48.484375 72.75 52.59375 71.296875 
z
" id="DejaVuSans-36"/>
      </defs>
      <g transform="translate(37.6875 157.151719)scale(0.1 -0.1)">
       <use xlink:href="#DejaVuSans-36"/>
      </g>
     </g>
    </g>
    <g id="ytick_5">
     <g id="line2d_9">
      <g>
       <use style="stroke:#000000;stroke-width:0.8;" x="51.05" xlink:href="#m681f7d4da9" y="107.155"/>
      </g>
     </g>
     <g id="text_10">
      <!-- 8 -->
      <defs>
       <path d="M 31.78125 34.625 
Q 24.75 34.625 20.71875 30.859375 
Q 16.703125 27.09375 16.703125 20.515625 
Q 16.703125 13.921875 20.71875 10.15625 
Q 24.75 6.390625 31.78125 6.390625 
Q 38.8125 6.390625 42.859375 10.171875 
Q 46.921875 13.96875 46.921875 20.515625 
Q 46.921875 27.09375 42.890625 30.859375 
Q 38.875 34.625 31.78125 34.625 
z
M 21.921875 38.8125 
Q 15.578125 40.375 12.03125 44.71875 
Q 8.5 49.078125 8.5 55.328125 
Q 8.5 64.0625 14.71875 69.140625 
Q 20.953125 74.21875 31.78125 74.21875 
Q 42.671875 74.21875 48.875 69.140625 
Q 55.078125 64.0625 55.078125 55.328125 
Q 55.078125 49.078125 51.53125 44.71875 
Q 48 40.375 41.703125 38.8125 
Q 48.828125 37.15625 52.796875 32.3125 
Q 56.78125 27.484375 56.78125 20.515625 
Q 56.78125 9.90625 50.3125 4.234375 
Q 43.84375 -1.421875 31.78125 -1.421875 
Q 19.734375 -1.421875 13.25 4.234375 
Q 6.78125 9.90625 6.78125 20.515625 
Q 6.78125 27.484375 10.78125 32.3125 
Q 14.796875 37.15625 21.921875 38.8125 
z
M 18.3125 54.390625 
Q 18.3125 48.734375 21.84375 45.5625 
Q 25.390625 42.390625 31.78125 42.390625 
Q 38.140625 42.390625 41.71875 45.5625 
Q 45.3125 48.734375 45.3125 54.390625 
Q 45.3125 60.0625 41.71875 63.234375 
Q 38.140625 66.40625 31.78125 66.40625 
Q 25.390625 66.40625 21.84375 63.234375 
Q 18.3125 60.0625 18.3125 54.390625 
z
" id="DejaVuSans-38"/>
      </defs>
      <g transform="translate(37.6875 110.954219)scale(0.1 -0.1)">
       <use xlink:href="#DejaVuSans-38"/>
      </g>
     </g>
    </g>
    <g id="ytick_6">
     <g id="line2d_10">
      <g>
       <use style="stroke:#000000;stroke-width:0.8;" x="51.05" xlink:href="#m681f7d4da9" y="60.9575"/>
      </g>
     </g>
     <g id="text_11">
      <!-- 10 -->
      <defs>
       <path d="M 12.40625 8.296875 
L 28.515625 8.296875 
L 28.515625 63.921875 
L 10.984375 60.40625 
L 10.984375 69.390625 
L 28.421875 72.90625 
L 38.28125 72.90625 
L 38.28125 8.296875 
L 54.390625 8.296875 
L 54.390625 0 
L 12.40625 0 
z
" id="DejaVuSans-31"/>
      </defs>
      <g transform="translate(31.325 64.756719)scale(0.1 -0.1)">
       <use xlink:href="#DejaVuSans-31"/>
       <use x="63.623047" xlink:href="#DejaVuSans-30"/>
      </g>
     </g>
    </g>
    <g id="ytick_7">
     <g id="line2d_11">
      <g>
       <use style="stroke:#000000;stroke-width:0.8;" x="51.05" xlink:href="#m681f7d4da9" y="14.76"/>
      </g>
     </g>
     <g id="text_12">
      <!-- 12 -->
      <g transform="translate(31.325 18.559219)scale(0.1 -0.1)">
       <use xlink:href="#DejaVuSans-31"/>
       <use x="63.623047" xlink:href="#DejaVuSans-32"/>
      </g>
     </g>
    </g>
    <g id="text_13">
     <!-- Frequency $\omega$ (THz) -->
     <defs>
      <path d="M 9.8125 72.90625 
L 51.703125 72.90625 
L 51.703125 64.59375 
L 19.671875 64.59375 
L 19.671875 43.109375 
L 48.578125 43.109375 
L 48.578125 34.8125 
L 19.671875 34.8125 
L 19.671875 0 
L 9.8125 0 
z
" id="DejaVuSans-46"/>
      <path d="M 14.796875 27.296875 
Q 14.796875 17.390625 18.875 11.75 
Q 22.953125 6.109375 30.078125 6.109375 
Q 37.203125 6.109375 41.296875 11.75 
Q 45.40625 17.390625 45.40625 27.296875 
Q 45.40625 37.203125 41.296875 42.84375 
Q 37.203125 48.484375 30.078125 48.484375 
Q 22.953125 48.484375 18.875 42.84375 
Q 14.796875 37.203125 14.796875 27.296875 
z
M 45.40625 8.203125 
Q 42.578125 3.328125 38.25 0.953125 
Q 33.9375 -1.421875 27.875 -1.421875 
Q 17.96875 -1.421875 11.734375 6.484375 
Q 5.515625 14.40625 5.515625 27.296875 
Q 5.515625 40.1875 11.734375 48.09375 
Q 17.96875 56 27.875 56 
Q 33.9375 56 38.25 53.625 
Q 42.578125 51.265625 45.40625 46.390625 
L 45.40625 54.6875 
L 54.390625 54.6875 
L 54.390625 -20.796875 
L 45.40625 -20.796875 
z
" id="DejaVuSans-71"/>
      <path d="M 8.5 21.578125 
L 8.5 54.6875 
L 17.484375 54.6875 
L 17.484375 21.921875 
Q 17.484375 14.15625 20.5 10.265625 
Q 23.53125 6.390625 29.59375 6.390625 
Q 36.859375 6.390625 41.078125 11.03125 
Q 45.3125 15.671875 45.3125 23.6875 
L 45.3125 54.6875 
L 54.296875 54.6875 
L 54.296875 0 
L 45.3125 0 
L 45.3125 8.40625 
Q 42.046875 3.421875 37.71875 1 
Q 33.40625 -1.421875 27.6875 -1.421875 
Q 18.265625 -1.421875 13.375 4.4375 
Q 8.5 10.296875 8.5 21.578125 
z
M 31.109375 56 
z
" id="DejaVuSans-75"/>
      <path d="M 54.890625 33.015625 
L 54.890625 0 
L 45.90625 0 
L 45.90625 32.71875 
Q 45.90625 40.484375 42.875 44.328125 
Q 39.84375 48.1875 33.796875 48.1875 
Q 26.515625 48.1875 22.3125 43.546875 
Q 18.109375 38.921875 18.109375 30.90625 
L 18.109375 0 
L 9.078125 0 
L 9.078125 54.6875 
L 18.109375 54.6875 
L 18.109375 46.1875 
Q 21.34375 51.125 25.703125 53.5625 
Q 30.078125 56 35.796875 56 
Q 45.21875 56 50.046875 50.171875 
Q 54.890625 44.34375 54.890625 33.015625 
z
" id="DejaVuSans-6e"/>
      <path d="M 32.171875 -5.078125 
Q 28.375 -14.84375 24.75 -17.8125 
Q 21.140625 -20.796875 15.09375 -20.796875 
L 7.90625 -20.796875 
L 7.90625 -13.28125 
L 13.1875 -13.28125 
Q 16.890625 -13.28125 18.9375 -11.515625 
Q 21 -9.765625 23.484375 -3.21875 
L 25.09375 0.875 
L 2.984375 54.6875 
L 12.5 54.6875 
L 29.59375 11.921875 
L 46.6875 54.6875 
L 56.203125 54.6875 
z
" id="DejaVuSans-79"/>
      <path d="M 21.390625 -1.421875 
Q 1.125 -1.421875 6.78125 27.59375 
Q 8.984375 39.0625 19.625 54.6875 
L 29.296875 54.6875 
Q 19.234375 39.0625 17 27.34375 
Q 12.796875 6.203125 23.734375 6.203125 
Q 33.84375 6.203125 38.71875 32.46875 
L 47.015625 32.46875 
Q 41.703125 6.0625 51.8125 6.203125 
Q 62.703125 6.296875 66.796875 27.34375 
Q 69.046875 39.0625 65.140625 54.6875 
L 74.8125 54.6875 
Q 79.296875 39.0625 77.09375 27.59375 
Q 71.53125 -1.46875 51.21875 -1.421875 
Q 37.9375 -1.375 39.109375 13.1875 
Q 34.28125 -1.421875 21.390625 -1.421875 
z
" id="DejaVuSans-Oblique-3c9"/>
      <path d="M 31 75.875 
Q 24.46875 64.65625 21.28125 53.65625 
Q 18.109375 42.671875 18.109375 31.390625 
Q 18.109375 20.125 21.3125 9.0625 
Q 24.515625 -2 31 -13.1875 
L 23.1875 -13.1875 
Q 15.875 -1.703125 12.234375 9.375 
Q 8.59375 20.453125 8.59375 31.390625 
Q 8.59375 42.28125 12.203125 53.3125 
Q 15.828125 64.359375 23.1875 75.875 
z
" id="DejaVuSans-28"/>
      <path d="M -0.296875 72.90625 
L 61.375 72.90625 
L 61.375 64.59375 
L 35.5 64.59375 
L 35.5 0 
L 25.59375 0 
L 25.59375 64.59375 
L -0.296875 64.59375 
z
" id="DejaVuSans-54"/>
      <path d="M 9.8125 72.90625 
L 19.671875 72.90625 
L 19.671875 43.015625 
L 55.515625 43.015625 
L 55.515625 72.90625 
L 65.375 72.90625 
L 65.375 0 
L 55.515625 0 
L 55.515625 34.71875 
L 19.671875 34.71875 
L 19.671875 0 
L 9.8125 0 
z
" id="DejaVuSans-48"/>
      <path d="M 5.515625 54.6875 
L 48.1875 54.6875 
L 48.1875 46.484375 
L 14.40625 7.171875 
L 48.1875 7.171875 
L 48.1875 0 
L 4.296875 0 
L 4.296875 8.203125 
L 38.09375 47.515625 
L 5.515625 47.515625 
z
" id="DejaVuSans-7a"/>
      <path d="M 8.015625 75.875 
L 15.828125 75.875 
Q 23.140625 64.359375 26.78125 53.3125 
Q 30.421875 42.28125 30.421875 31.390625 
Q 30.421875 20.453125 26.78125 9.375 
Q 23.140625 -1.703125 15.828125 -13.1875 
L 8.015625 -13.1875 
Q 14.5 -2 17.703125 9.0625 
Q 20.90625 20.125 20.90625 31.390625 
Q 20.90625 42.671875 17.703125 53.65625 
Q 14.5 64.65625 8.015625 75.875 
z
" id="DejaVuSans-29"/>
     </defs>
     <g transform="translate(24.385 219.2225)rotate(-90)scale(0.14 -0.14)">
      <use transform="translate(0 0.125)" xlink:href="#DejaVuSans-46"/>
      <use transform="translate(57.519531 0.125)" xlink:href="#DejaVuSans-72"/>
      <use transform="translate(98.632812 0.125)" xlink:href="#DejaVuSans-65"/>
      <use transform="translate(160.15625 0.125)" xlink:href="#DejaVuSans-71"/>
      <use transform="translate(223.632812 0.125)" xlink:href="#DejaVuSans-75"/>
      <use transform="translate(287.011719 0.125)" xlink:href="#DejaVuSans-65"/>
      <use transform="translate(348.535156 0.125)" xlink:href="#DejaVuSans-6e"/>
      <use transform="translate(411.914062 0.125)" xlink:href="#DejaVuSans-63"/>
      <use transform="translate(466.894531 0.125)" xlink:href="#DejaVuSans-79"/>
      <use transform="translate(526.074219 0.125)" xlink:href="#DejaVuSans-20"/>
      <use transform="translate(557.861328 0.125)" xlink:href="#DejaVuSans-Oblique-3c9"/>
      <use transform="translate(641.601562 0.125)" xlink:href="#DejaVuSans-20"/>
      <use transform="translate(673.388672 0.125)" xlink:href="#DejaVuSans-28"/>
      <use transform="translate(712.402344 0.125)" xlink:href="#DejaVuSans-54"/>
      <use transform="translate(773.486328 0.125)" xlink:href="#DejaVuSans-48"/>
      <use transform="translate(848.681641 0.125)" xlink:href="#DejaVuSans-7a"/>
      <use transform="translate(901.171875 0.125)" xlink:href="#DejaVuSans-29"/>
     </g>
    </g>
   </g>
   <g id="line2d_12">
    <path clip-path="url(#p7f54ea48c0)" d="M 171.478726 291.945 
L 171.478726 14.76 
" style="fill:none;stroke:#000000;stroke-linecap:square;stroke-width:0.9;"/>
   </g>
   <g id="line2d_13">
    <path clip-path="url(#p7f54ea48c0)" d="M 341.790664 291.945 
L 341.790664 14.76 
" style="fill:none;stroke:#000000;stroke-linecap:square;stroke-width:0.9;"/>
   </g>
   <g id="line2d_14">
    <path clip-path="url(#p7f54ea48c0)" d="M 51.05 291.945004 
L 53.458575 286.932514 
L 55.867149 281.925021 
L 58.275724 276.927506 
L 60.684298 271.944946 
L 63.092873 266.982301 
L 65.501447 262.04451 
L 67.910022 257.136484 
L 70.318596 252.263106 
L 72.727171 247.429218 
L 75.135745 242.639624 
L 77.54432 237.899077 
L 79.952894 233.212281 
L 82.361469 228.583884 
L 84.770043 224.018469 
L 87.178618 219.520556 
L 89.587192 215.094593 
L 91.995767 210.744953 
L 94.404341 206.475929 
L 96.812916 202.29173 
L 99.22149 198.196479 
L 101.630065 194.194204 
L 104.038639 190.28884 
L 106.447214 186.484221 
L 108.855789 182.784077 
L 111.264363 179.192033 
L 113.672938 175.711604 
L 116.081512 172.346191 
L 118.490087 169.099078 
L 120.898661 165.973432 
L 123.307236 162.972296 
L 125.71581 160.098589 
L 128.124385 157.355105 
L 130.532959 154.744505 
L 132.941534 152.269321 
L 135.350108 149.93195 
L 137.758683 147.734654 
L 140.167257 145.679556 
L 142.575832 143.768641 
L 144.984406 142.003753 
L 147.392981 140.386594 
L 149.801555 138.918722 
L 152.21013 137.601549 
L 154.618704 136.436344 
L 157.027279 135.424226 
L 159.435853 134.566168 
L 161.844428 133.862994 
L 164.253003 133.31538 
L 166.661577 132.923851 
L 169.070152 132.688784 
L 171.478726 132.610403 
" style="fill:none;stroke:#0000ff;stroke-linecap:square;stroke-width:2;"/>
   </g>
   <g id="line2d_15">
    <path clip-path="url(#p7f54ea48c0)" d="M 51.05 291.945004 
L 53.458575 286.932514 
L 55.867149 281.925021 
L 58.275724 276.927506 
L 60.684298 271.944946 
L 63.092873 266.982301 
L 65.501447 262.04451 
L 67.910022 257.136484 
L 70.318596 252.263106 
L 72.727171 247.429218 
L 75.135745 242.639624 
L 77.54432 237.899077 
L 79.952894 233.212281 
L 82.361469 228.583884 
L 84.770043 224.018469 
L 87.178618 219.520556 
L 89.587192 215.094593 
L 91.995767 210.744953 
L 94.404341 206.475929 
L 96.812916 202.29173 
L 99.22149 198.196479 
L 101.630065 194.194204 
L 104.038639 190.28884 
L 106.447214 186.484221 
L 108.855789 182.784077 
L 111.264363 179.192033 
L 113.672938 175.711604 
L 116.081512 172.346191 
L 118.490087 169.099078 
L 120.898661 165.973432 
L 123.307236 162.972296 
L 125.71581 160.098589 
L 128.124385 157.355105 
L 130.532959 154.744505 
L 132.941534 152.269321 
L 135.350108 149.93195 
L 137.758683 147.734654 
L 140.167257 145.679556 
L 142.575832 143.768641 
L 144.984406 142.003753 
L 147.392981 140.386594 
L 149.801555 138.918722 
L 152.21013 137.601549 
L 154.618704 136.436344 
L 157.027279 135.424226 
L 159.435853 134.566168 
L 161.844428 133.862994 
L 164.253003 133.31538 
L 166.661577 132.923851 
L 169.070152 132.688784 
L 171.478726 132.610403 
" style="fill:none;stroke:#0000ff;stroke-linecap:square;stroke-width:2;"/>
   </g>
   <g id="line2d_16">
    <path clip-path="url(#p7f54ea48c0)" d="M 51.05 291.945003 
L 53.458575 285.523028 
L 55.867149 279.101318 
L 58.275724 272.680192 
L 60.684298 266.260102 
L 63.092873 259.841683 
L 65.501447 253.425815 
L 67.910022 247.013674 
L 70.318596 240.606786 
L 72.727171 234.207071 
L 75.135745 227.816879 
L 77.54432 221.439029 
L 79.952894 215.076833 
L 82.361469 208.73412 
L 84.770043 202.415247 
L 87.178618 196.125109 
L 89.587192 189.86914 
L 91.995767 183.653309 
L 94.404341 177.484106 
L 96.812916 171.368523 
L 99.22149 165.314039 
L 101.630065 159.328581 
L 104.038639 153.420499 
L 106.447214 147.598526 
L 108.855789 141.871735 
L 111.264363 136.249496 
L 113.672938 130.741429 
L 116.081512 125.357353 
L 118.490087 120.107235 
L 120.898661 115.001135 
L 123.307236 110.049152 
L 125.71581 105.261373 
L 128.124385 100.647811 
L 130.532959 96.218356 
L 132.941534 91.982717 
L 135.350108 87.950372 
L 137.758683 84.130513 
L 140.167257 80.531997 
L 142.575832 77.163301 
L 144.984406 74.032468 
L 147.392981 71.147071 
L 149.801555 68.514167 
L 152.21013 66.140262 
L 154.618704 64.031274 
L 157.027279 62.192502 
L 159.435853 60.628596 
L 161.844428 59.343535 
L 164.253003 58.340604 
L 166.661577 57.622375 
L 169.070152 57.190696 
L 171.478726 57.046679 
" style="fill:none;stroke:#0000ff;stroke-linecap:square;stroke-width:2;"/>
   </g>
   <g id="line2d_17">
    <path clip-path="url(#p7f54ea48c0)" d="M 171.478726 132.610403 
L 174.884965 132.716539 
L 178.291204 133.034669 
L 181.697442 133.563955 
L 185.103681 134.303 
L 188.50992 135.249848 
L 191.916159 136.401985 
L 195.322397 137.75634 
L 198.728636 139.309289 
L 202.134875 141.056654 
L 205.541114 142.993716 
L 208.947352 145.115222 
L 212.353591 147.415393 
L 215.75983 149.887948 
L 219.166069 152.526121 
L 222.572307 155.322687 
L 225.978546 158.269993 
L 229.384785 161.359995 
L 232.791024 164.584297 
L 236.197262 167.934201 
L 239.603501 171.400756 
L 243.00974 174.974818 
L 246.415979 178.647104 
L 249.822217 182.408266 
L 253.228456 186.248949 
L 256.634695 190.159867 
L 260.040934 194.131872 
L 263.447172 198.156021 
L 266.853411 202.223655 
L 270.25965 206.326456 
L 273.665889 210.456523 
L 277.072128 214.606426 
L 280.478366 218.769266 
L 283.884605 222.938723 
L 287.290844 227.109102 
L 290.697083 231.275368 
L 294.103321 235.433174 
L 297.50956 239.578877 
L 300.915799 243.709553 
L 304.322038 247.822994 
L 307.728276 251.917696 
L 311.134515 255.992846 
L 314.540754 260.048291 
L 317.946993 264.084499 
L 321.353231 268.102516 
L 324.75947 272.103912 
L 328.165709 276.090718 
L 331.571948 280.065364 
L 334.978186 284.0306 
L 338.384425 287.989424 
L 341.790664 291.945004 
" style="fill:none;stroke:#0000ff;stroke-linecap:square;stroke-width:2;"/>
   </g>
   <g id="line2d_18">
    <path clip-path="url(#p7f54ea48c0)" d="M 171.478726 132.610403 
L 174.884965 132.342561 
L 178.291204 131.547332 
L 181.697442 130.249088 
L 185.103681 128.486837 
L 188.50992 126.312031 
L 191.916159 123.785934 
L 195.322397 120.976822 
L 198.728636 117.95729 
L 202.134875 114.801827 
L 205.541114 111.584787 
L 208.947352 108.378766 
L 212.353591 105.253368 
L 215.75983 102.274324 
L 219.166069 99.502894 
L 222.572307 96.995482 
L 225.978546 94.803429 
L 229.384785 92.972917 
L 232.791024 94.769263 
L 236.197262 98.958983 
L 239.603501 103.345045 
L 243.00974 107.921819 
L 246.415979 112.683297 
L 249.822217 117.623123 
L 253.228456 122.734615 
L 256.634695 128.010796 
L 260.040934 133.444438 
L 263.447172 139.028099 
L 266.853411 144.754163 
L 270.25965 150.614894 
L 273.665889 156.602475 
L 277.072128 162.709062 
L 280.478366 168.926828 
L 283.884605 175.248005 
L 287.290844 181.664937 
L 290.697083 188.170108 
L 294.103321 194.756189 
L 297.50956 201.416062 
L 300.915799 208.142848 
L 304.322038 214.92993 
L 307.728276 221.770963 
L 311.134515 228.659885 
L 314.540754 235.590918 
L 317.946993 242.558558 
L 321.353231 249.55757 
L 324.75947 256.582964 
L 328.165709 263.629976 
L 331.571948 270.694036 
L 334.978186 277.770735 
L 338.384425 284.855789 
L 341.790664 291.945004 
" style="fill:none;stroke:#0000ff;stroke-linecap:square;stroke-width:2;"/>
   </g>
   <g id="line2d_19">
    <path clip-path="url(#p7f54ea48c0)" d="M 171.478726 57.046679 
L 174.884965 57.16545 
L 178.291204 57.521696 
L 181.697442 58.115219 
L 185.103681 58.945678 
L 188.50992 60.012579 
L 191.916159 61.315261 
L 195.322397 62.852875 
L 198.728636 64.62436 
L 202.134875 66.628424 
L 205.541114 68.863513 
L 208.947352 71.327786 
L 212.353591 74.019091 
L 215.75983 76.934941 
L 219.166069 80.072489 
L 222.572307 83.428513 
L 225.978546 86.999397 
L 229.384785 90.781122 
L 232.791024 91.544965 
L 236.197262 90.555486 
L 239.603501 90.035377 
L 243.00974 90.010644 
L 246.415979 90.502551 
L 249.822217 91.527776 
L 253.228456 93.098589 
L 256.634695 95.223036 
L 260.040934 97.905137 
L 263.447172 101.145098 
L 266.853411 104.939526 
L 270.25965 109.281659 
L 273.665889 114.161604 
L 277.072128 119.566582 
L 280.478366 125.481178 
L 283.884605 131.887591 
L 287.290844 138.765894 
L 290.697083 146.094276 
L 294.103321 153.849298 
L 297.50956 162.006123 
L 300.915799 170.538743 
L 304.322038 179.420192 
L 307.728276 188.62274 
L 311.134515 198.118067 
L 314.540754 207.877413 
L 317.946993 217.871716 
L 321.353231 228.071716 
L 324.75947 238.448039 
L 328.165709 248.971265 
L 331.571948 259.611968 
L 334.978186 270.340739 
L 338.384425 281.128201 
L 341.790664 291.945003 
" style="fill:none;stroke:#0000ff;stroke-linecap:square;stroke-width:2;"/>
   </g>
   <g id="line2d_20">
    <path clip-path="url(#p7f54ea48c0)" d="M 341.790664 291.945004 
L 343.876551 288.75272 
L 345.962437 285.563504 
L 348.048324 282.38041 
L 350.134211 279.206496 
L 352.220097 276.04481 
L 354.305984 272.898394 
L 356.391871 269.770275 
L 358.477758 266.663469 
L 360.563644 263.580976 
L 362.649531 260.525777 
L 364.735418 257.500832 
L 366.821305 254.509078 
L 368.907191 251.553428 
L 370.993078 248.636763 
L 373.078965 245.761939 
L 375.164851 242.931773 
L 377.250738 240.14905 
L 379.336625 237.416514 
L 381.422512 234.736869 
L 383.508398 232.112776 
L 385.594285 229.546846 
L 387.680172 227.041645 
L 389.766058 224.599681 
L 391.851945 222.223413 
L 393.937832 219.915236 
L 396.023719 217.677489 
L 398.109605 215.512444 
L 400.195492 213.422309 
L 402.281379 211.40922 
L 404.367266 209.475243 
L 406.453152 207.622368 
L 408.539039 205.852509 
L 410.624926 204.167498 
L 412.710812 202.569085 
L 414.796699 201.058934 
L 416.882586 199.638624 
L 418.968473 198.309641 
L 421.054359 197.073379 
L 423.140246 195.931141 
L 425.226133 194.884129 
L 427.312019 193.933451 
L 429.397906 193.080112 
L 431.483793 192.325017 
L 433.56968 191.668968 
L 435.655566 191.112662 
L 437.741453 190.656692 
L 439.82734 190.301543 
L 441.913227 190.047594 
L 443.999113 189.895116 
L 446.085 189.844272 
" style="fill:none;stroke:#0000ff;stroke-linecap:square;stroke-width:2;"/>
   </g>
   <g id="line2d_21">
    <path clip-path="url(#p7f54ea48c0)" d="M 341.790664 291.945004 
L 343.876551 288.75272 
L 345.962437 285.563504 
L 348.048324 282.38041 
L 350.134211 279.206496 
L 352.220097 276.04481 
L 354.305984 272.898394 
L 356.391871 269.770275 
L 358.477758 266.663469 
L 360.563644 263.580976 
L 362.649531 260.525777 
L 364.735418 257.500832 
L 366.821305 254.509078 
L 368.907191 251.553428 
L 370.993078 248.636763 
L 373.078965 245.761939 
L 375.164851 242.931773 
L 377.250738 240.14905 
L 379.336625 237.416514 
L 381.422512 234.736869 
L 383.508398 232.112776 
L 385.594285 229.546846 
L 387.680172 227.041645 
L 389.766058 224.599681 
L 391.851945 222.223413 
L 393.937832 219.915236 
L 396.023719 217.677489 
L 398.109605 215.512444 
L 400.195492 213.422309 
L 402.281379 211.40922 
L 404.367266 209.475243 
L 406.453152 207.622368 
L 408.539039 205.852509 
L 410.624926 204.167498 
L 412.710812 202.569085 
L 414.796699 201.058934 
L 416.882586 199.638624 
L 418.968473 198.309641 
L 421.054359 197.073379 
L 423.140246 195.931141 
L 425.226133 194.884129 
L 427.312019 193.933451 
L 429.397906 193.080112 
L 431.483793 192.325017 
L 433.56968 191.668968 
L 435.655566 191.112662 
L 437.741453 190.656692 
L 439.82734 190.301543 
L 441.913227 190.047594 
L 443.999113 189.895116 
L 446.085 189.844272 
" style="fill:none;stroke:#0000ff;stroke-linecap:square;stroke-width:2;"/>
   </g>
   <g id="line2d_22">
    <path clip-path="url(#p7f54ea48c0)" d="M 341.790664 291.945003 
L 343.876551 285.000017 
L 345.962437 278.059842 
L 348.048324 271.129295 
L 350.134211 264.213225 
L 352.220097 257.316527 
L 354.305984 250.444147 
L 356.391871 243.601102 
L 358.477758 236.792487 
L 360.563644 230.023487 
L 362.649531 223.299385 
L 364.735418 216.625569 
L 366.821305 210.007541 
L 368.907191 203.450916 
L 370.993078 196.961428 
L 373.078965 190.544929 
L 375.164851 184.207388 
L 377.250738 177.954888 
L 379.336625 171.79362 
L 381.422512 165.729875 
L 383.508398 159.770039 
L 385.594285 153.920576 
L 387.680172 148.188021 
L 389.766058 142.578964 
L 391.851945 137.100032 
L 393.937832 131.757876 
L 396.023719 126.559149 
L 398.109605 121.510489 
L 400.195492 116.618499 
L 402.281379 111.889722 
L 404.367266 107.330622 
L 406.453152 102.947562 
L 408.539039 98.746779 
L 410.624926 94.734363 
L 412.710812 90.916233 
L 414.796699 87.298113 
L 416.882586 83.885513 
L 418.968473 80.683703 
L 421.054359 77.697693 
L 423.140246 74.932216 
L 425.226133 72.391701 
L 427.312019 70.080261 
L 429.397906 68.001673 
L 431.483793 66.15936 
L 433.56968 64.556381 
L 435.655566 63.195412 
L 437.741453 62.078739 
L 439.82734 61.208246 
L 441.913227 60.585407 
L 443.999113 60.211279 
L 446.085 60.086499 
" style="fill:none;stroke:#0000ff;stroke-linecap:square;stroke-width:2;"/>
   </g>
   <g id="patch_3">
    <path d="M 51.05 291.945 
L 51.05 14.76 
" style="fill:none;stroke:#000000;stroke-linecap:square;stroke-linejoin:miter;stroke-width:0.8;"/>
   </g>
   <g id="patch_4">
    <path d="M 446.085 291.945 
L 446.085 14.76 
" style="fill:none;stroke:#000000;stroke-linecap:square;stroke-linejoin:miter;stroke-width:0.8;"/>
   </g>
   <g id="patch_5">
    <path d="M 51.05 291.945 
L 446.085 291.945 
" style="fill:none;stroke:#000000;stroke-linecap:square;stroke-linejoin:miter;stroke-width:0.8;"/>
   </g>
   <g id="patch_6">
    <path d="M 51.05 14.76 
L 446.085 14.76 
" style="fill:none;stroke:#000000;stroke-linecap:square;stroke-linejoin:miter;stroke-width:0.8;"/>
   </g>
  </g>
 </g>
 <defs>
  <clipPath id="p7f54ea48c0">
   <rect height="277.185" width="395.035" x="51.05" y="14.76"/>
  </clipPath>
 </defs>
</svg>
